<svg width="42" height="96" fill="none" xmlns="http://www.w3.org/2000/svg"><g clip-path="url(#clip0_0_2028)" fill="#FF92FD" stroke="#000"><path d="M10.66 1.097L3.29 8.513l49.705 49.704 7.415-7.415L10.66 1.097z"/><path d="M10.663 1.136l-7.4 7.401 49.715 49.716 7.4-7.401L10.663 1.136z"/><path d="M10.656 1.138l-7.4 7.401L52.97 58.255l7.4-7.401L10.657 1.138z"/><path d="M10.65 1.14L3.247 8.541l49.716 49.715 7.4-7.4L10.65 1.14z"/><path d="M10.642 1.142l-7.4 7.401 49.715 49.715 7.4-7.4L10.643 1.141z"/><path d="M10.668 1.177l-7.4 7.4 49.715 49.716 7.4-7.4L10.669 1.176z"/><path d="M10.662 1.179l-7.401 7.4 49.715 49.716 7.4-7.4L10.663 1.178z"/><path d="M10.655 1.18L3.254 8.583l49.715 49.715 7.4-7.401L10.656 1.18z"/><path d="M10.648 1.183l-7.401 7.4L52.962 58.3l7.4-7.401L10.649 1.183z"/><path d="M10.64 1.184l-7.4 7.401L52.955 58.3l7.4-7.4L10.642 1.184z"/><path d="M10.667 1.22l-7.401 7.4 49.715 49.716 7.401-7.401L10.667 1.219z"/><path d="M10.66 1.221L3.259 8.622l49.715 49.715 7.401-7.4L10.66 1.22z"/><path d="M10.653 1.223l-7.4 7.401 49.714 49.715 7.401-7.4L10.653 1.222z"/><path d="M10.646 1.225l-7.4 7.4L52.96 58.342l7.401-7.4L10.646 1.224z"/><path d="M10.639 1.227l-7.4 7.4 49.714 49.716 7.401-7.4L10.64 1.226z"/><path d="M10.665 1.262l-7.4 7.4L52.98 58.379l7.4-7.401L10.665 1.262z"/><path d="M10.658 1.264l-7.4 7.4L52.972 58.38l7.4-7.401L10.658 1.264z"/><path d="M10.651 1.265l-7.4 7.401 49.715 49.715 7.4-7.4L10.651 1.265z"/><path d="M10.644 1.267l-7.4 7.401 49.715 49.715 7.4-7.4L10.644 1.267z"/><path d="M10.637 1.27l-7.4 7.4 49.715 49.715 7.4-7.4L10.637 1.268z"/><path d="M10.664 1.304L3.263 8.705 52.978 58.42l7.4-7.4L10.664 1.303z"/><path d="M10.656 1.306l-7.4 7.4L52.97 58.423l7.4-7.4L10.657 1.305z"/><path d="M10.65 1.308l-7.401 7.4 49.715 49.716 7.4-7.4L10.65 1.307z"/><path d="M10.643 1.31l-7.401 7.4 49.715 49.716 7.4-7.401L10.644 1.31z"/><path d="M10.636 1.312l-7.401 7.4L52.95 58.428l7.4-7.401L10.637 1.312z"/><path d="M10.662 1.347l-7.401 7.4 49.715 49.716 7.401-7.401L10.662 1.347z"/><path d="M10.655 1.348L3.254 8.75l49.715 49.716 7.401-7.401L10.655 1.348z"/><path d="M10.648 1.35L3.247 8.751l49.715 49.716 7.401-7.401L10.648 1.35z"/><path d="M10.64 1.352l-7.4 7.4 49.715 49.716 7.401-7.4L10.641 1.351z"/><path d="M10.634 1.354l-7.401 7.4L52.948 58.47l7.401-7.4L10.634 1.353z"/><path d="M10.66 1.389l-7.4 7.4 49.714 49.716 7.401-7.4L10.66 1.388z"/><path d="M10.653 1.39l-7.4 7.402 49.715 49.715 7.4-7.4L10.653 1.39z"/><path d="M10.646 1.393l-7.4 7.4L52.96 58.51l7.4-7.401L10.646 1.393z"/><path d="M10.64 1.395l-7.402 7.4 49.715 49.716 7.401-7.401L10.64 1.395z"/><path d="M10.632 1.396l-7.4 7.401 49.715 49.715 7.4-7.4L10.632 1.395z"/><path d="M10.658 1.431l-7.4 7.401 49.715 49.716 7.4-7.401L10.659 1.43z"/><path d="M10.651 1.433l-7.4 7.401 49.715 49.715 7.4-7.4L10.652 1.432z"/><path d="M10.644 1.435l-7.4 7.4 49.715 49.716 7.4-7.4L10.645 1.434z"/><path d="M10.604 1.47l-7.4 7.4 49.715 49.716 7.4-7.4L10.604 1.47z"/><path d="M10.597 1.472l-7.4 7.4 49.715 49.716 7.4-7.4L10.597 1.471z"/><path d="M10.623 1.507l-7.4 7.4 49.715 49.716 7.4-7.4L10.624 1.506z"/><path d="M10.617 1.509l-7.401 7.4L52.93 58.626l7.4-7.4L10.617 1.508z"/><path d="M10.61 1.51L3.209 8.912l49.715 49.716 7.4-7.401L10.61 1.51z"/><path d="M10.602 1.512l-7.4 7.401L52.917 58.63l7.4-7.401L10.603 1.512z"/><path d="M10.596 1.514L3.195 8.915 52.91 58.63l7.4-7.4L10.597 1.513z"/><path d="M10.622 1.55L3.22 8.95l49.715 49.715 7.401-7.4L10.622 1.549z"/><path d="M10.615 1.551l-7.401 7.4 49.715 49.716 7.401-7.4L10.615 1.55z"/><path d="M10.608 1.553l-7.401 7.4L52.922 58.67l7.401-7.4L10.608 1.552z"/><path d="M10.6 1.555l-7.4 7.4 49.715 49.716 7.401-7.401L10.601 1.555z"/><path d="M10.594 1.557l-7.401 7.4 49.715 49.716 7.401-7.401L10.594 1.557z"/><path d="M10.62 1.592l-7.4 7.4 49.715 49.716 7.4-7.401L10.62 1.592z"/><path d="M10.613 1.594l-7.4 7.4L52.927 58.71l7.4-7.401L10.613 1.594z"/><path d="M10.606 1.595l-7.4 7.401L52.92 58.711l7.401-7.4L10.606 1.594z"/><path d="M10.6 1.597L3.197 8.998l49.716 49.715 7.4-7.4L10.6 1.596z"/><path d="M10.592 1.599l-7.4 7.4 49.715 49.716 7.4-7.4L10.592 1.598z"/><path d="M10.618 1.634l-7.4 7.4L52.933 58.75l7.4-7.4L10.619 1.633z"/><path d="M10.611 1.636l-7.4 7.4 49.715 49.716 7.4-7.401L10.612 1.636z"/><path d="M10.604 1.638l-7.4 7.4 49.715 49.716 7.4-7.401L10.605 1.638z"/><path d="M10.597 1.64l-7.4 7.4 49.715 49.716 7.4-7.401L10.598 1.639z"/><path d="M10.59 1.641l-7.4 7.401 49.715 49.715 7.4-7.4L10.59 1.64z"/><path d="M10.617 1.676L3.216 9.077 52.93 58.792l7.4-7.4L10.618 1.675z"/><path d="M10.61 1.678L3.209 9.08l49.715 49.715 7.401-7.4L10.61 1.678z"/><path d="M10.603 1.68l-7.401 7.4 49.715 49.716 7.401-7.4L10.603 1.68z"/><path d="M10.596 1.682l-7.401 7.4L52.91 58.799l7.401-7.4L10.596 1.681z"/><path d="M10.589 1.684l-7.401 7.4L52.903 58.8l7.401-7.4L10.59 1.683z"/><path d="M10.615 1.719l-7.4 7.4 49.714 49.716 7.401-7.401L10.615 1.719z"/><path d="M10.608 1.72l-7.4 7.402 49.714 49.715 7.401-7.401L10.608 1.721z"/><path d="M10.601 1.722l-7.4 7.401 49.714 49.715 7.401-7.4L10.601 1.722z"/><path d="M10.594 1.724l-7.4 7.401L52.908 58.84l7.4-7.4L10.594 1.724z"/><path d="M10.587 1.726l-7.4 7.401L52.9 58.842l7.401-7.4L10.587 1.725z"/><path d="M10.613 1.761l-7.4 7.401 49.715 49.715 7.4-7.4L10.614 1.76z"/><path d="M10.606 1.763l-7.4 7.4L52.92 58.88l7.4-7.4L10.607 1.762z"/><path d="M10.6 1.765l-7.402 7.4 49.716 49.716 7.4-7.4L10.6 1.764z"/><path d="M10.592 1.767l-7.4 7.4 49.715 49.716 7.4-7.401L10.593 1.767z"/><path d="M10.585 1.769l-7.4 7.4L52.9 58.885l7.4-7.401L10.586 1.769z"/><path d="M10.578 1.837l-7.4 7.4 49.715 49.716 7.4-7.401L10.579 1.837z"/><path d="M10.572 1.839l-7.401 7.4 49.715 49.716 7.4-7.401L10.572 1.839z"/><path d="M10.565 1.84L3.164 9.241l49.715 49.715 7.4-7.4L10.565 1.84z"/><path d="M10.557 1.842l-7.4 7.401 49.715 49.715 7.4-7.4L10.558 1.841z"/><path d="M10.55 1.844l-7.4 7.4L52.865 58.96l7.4-7.4L10.55 1.843z"/><path d="M10.577 1.88l-7.401 7.4L52.89 58.995l7.401-7.4L10.577 1.878z"/><path d="M10.57 1.88L3.169 9.283l49.715 49.715 7.401-7.4L10.57 1.88z"/><path d="M10.563 1.883l-7.401 7.4L52.877 59l7.401-7.4L10.563 1.882z"/><path d="M10.556 1.885l-7.401 7.4L52.87 59.001l7.401-7.401L10.556 1.885z"/><path d="M10.549 1.886L3.148 9.287l49.715 49.716 7.401-7.401L10.549 1.886z"/><path d="M10.575 1.921l-7.4 7.401 49.714 49.716 7.401-7.401L10.575 1.92z"/><path d="M10.568 1.923l-7.4 7.401L52.881 59.04l7.401-7.4L10.568 1.923z"/><path d="M10.561 1.925l-7.4 7.4 49.714 49.716 7.401-7.4L10.561 1.924z"/><path d="M10.554 1.927l-7.4 7.4 49.715 49.716 7.4-7.4L10.554 1.926z"/><path d="M10.547 1.929l-7.4 7.4L52.86 59.046l7.401-7.401L10.547 1.929z"/><path d="M10.573 1.964l-7.4 7.4L52.887 59.08l7.4-7.4L10.574 1.963z"/><path d="M10.566 1.966l-7.4 7.4L52.88 59.082l7.4-7.401L10.567 1.966z"/><path d="M10.56 1.968l-7.402 7.4 49.716 49.716 7.4-7.401L10.56 1.968z"/><path d="M10.552 1.97l-7.4 7.4 49.715 49.715 7.4-7.4L10.553 1.968z"/><path d="M10.545 1.971l-7.4 7.401L52.86 59.087l7.4-7.4L10.546 1.97z"/><path d="M10.572 2.006L3.17 9.407l49.715 49.715 7.4-7.4L10.573 2.005z"/><path d="M10.565 2.008l-7.401 7.4 49.715 49.716 7.4-7.4L10.566 2.007z"/><path d="M10.558 2.01l-7.401 7.4 49.715 49.716 7.4-7.401L10.559 2.01z"/><path d="M10.55 2.012l-7.4 7.4 49.715 49.716 7.4-7.401L10.552 2.012z"/><path d="M10.544 2.013L3.143 9.414 52.858 59.13l7.4-7.401L10.545 2.013z"/><path d="M10.57 2.049l-7.4 7.4 49.714 49.716 7.401-7.401L10.57 2.049z"/><path d="M10.563 2.05l-7.4 7.401 49.714 49.715 7.401-7.4L10.563 2.05z"/><path d="M10.556 2.052l-7.4 7.401L52.87 59.168l7.401-7.4L10.556 2.051z"/><path d="M10.549 2.054l-7.4 7.401L52.862 59.17l7.401-7.4L10.55 2.053z"/><path d="M10.542 2.056l-7.4 7.4 49.714 49.716 7.401-7.4L10.542 2.055z"/><path d="M10.535 2.058l-7.4 7.4 49.714 49.716 7.401-7.4L10.535 2.057z"/><path d="M10.561 2.093l-7.4 7.4L52.875 59.21l7.4-7.401L10.561 2.093z"/><path d="M10.554 2.095l-7.4 7.4 49.715 49.716 7.4-7.401L10.554 2.095z"/><path d="M10.547 2.096l-7.4 7.401 49.715 49.716 7.4-7.401L10.548 2.096z"/><path d="M10.54 2.098L3.14 9.5l49.715 49.716 7.4-7.401L10.54 2.098z"/><path d="M10.533 2.1l-7.4 7.401 49.715 49.715 7.4-7.4L10.534 2.1z"/><path d="M10.56 2.135L3.159 9.536l49.715 49.715 7.4-7.4L10.56 2.134z"/><path d="M10.52 2.17L3.118 9.571l49.715 49.715 7.4-7.4L10.52 2.17z"/><path d="M10.512 2.172l-7.4 7.401 49.715 49.715 7.4-7.4L10.513 2.171z"/><path d="M10.505 2.174l-7.4 7.4L52.82 59.29l7.4-7.4L10.506 2.173z"/><path d="M10.498 2.176l-7.4 7.4 49.715 49.716 7.4-7.401L10.499 2.176z"/><path d="M10.525 2.21L3.124 9.613l49.715 49.715 7.4-7.401L10.526 2.211z"/><path d="M10.518 2.213l-7.401 7.4L52.832 59.33l7.4-7.401L10.519 2.213z"/><path d="M10.51 2.214l-7.4 7.401 49.715 49.716 7.401-7.401L10.511 2.214z"/><path d="M10.504 2.216L3.103 9.617l49.715 49.715 7.401-7.4L10.504 2.216z"/><path d="M10.497 2.218l-7.401 7.4L52.81 59.335l7.401-7.4L10.497 2.217z"/><path d="M10.523 2.253l-7.4 7.401L52.836 59.37l7.401-7.4L10.523 2.252z"/><path d="M10.516 2.255l-7.4 7.4L52.83 59.372l7.401-7.4L10.516 2.254z"/><path d="M10.509 2.257l-7.4 7.4 49.714 49.716 7.401-7.4L10.51 2.256z"/><path d="M10.502 2.259l-7.4 7.4 49.714 49.716 7.401-7.401L10.502 2.259z"/><path d="M10.495 2.26l-7.4 7.401 49.714 49.716 7.401-7.401L10.495 2.26z"/><path d="M10.521 2.295l-7.4 7.401 49.715 49.715 7.4-7.4L10.521 2.295z"/><path d="M10.514 2.297l-7.4 7.401 49.715 49.715 7.4-7.4L10.514 2.297z"/><path d="M10.507 2.3l-7.4 7.4 49.715 49.715 7.4-7.4L10.507 2.298z"/><path d="M10.5 2.301l-7.4 7.4 49.715 49.716 7.4-7.4L10.5 2.3z"/><path d="M10.493 2.303l-7.4 7.4L52.807 59.42l7.4-7.401L10.494 2.303z"/><path d="M10.52 2.338l-7.401 7.4 49.715 49.716 7.4-7.4L10.52 2.337z"/><path d="M10.513 2.34l-7.401 7.4 49.715 49.716 7.4-7.401L10.514 2.34z"/><path d="M10.506 2.342l-7.401 7.4L52.82 59.458l7.4-7.401L10.507 2.342z"/><path d="M10.499 2.343L3.098 9.744 52.813 59.46l7.4-7.4L10.5 2.343z"/><path d="M10.492 2.345L3.09 9.746l49.715 49.715 7.4-7.4L10.493 2.344z"/><path d="M10.518 2.38L3.117 9.781l49.715 49.715 7.401-7.4L10.518 2.38z"/><path d="M10.51 2.382l-7.4 7.401 49.715 49.715 7.401-7.4L10.511 2.381z"/><path d="M10.504 2.384l-7.4 7.4L52.817 59.5l7.401-7.4L10.504 2.383z"/><path d="M10.497 2.386l-7.4 7.4L52.81 59.503l7.401-7.401L10.497 2.386z"/><path d="M10.49 2.387l-7.4 7.401 49.714 49.716 7.401-7.401L10.49 2.387z"/><path d="M10.516 2.423l-7.4 7.4L52.83 59.54l7.4-7.401L10.516 2.423z"/><path d="M10.51 2.425l-7.402 7.4 49.716 49.716 7.4-7.401L10.51 2.425z"/><path d="M10.502 2.426l-7.4 7.401 49.715 49.715 7.4-7.4L10.502 2.425z"/><path d="M10.495 2.428l-7.4 7.401L52.81 59.544l7.4-7.4L10.495 2.428z"/><path d="M10.488 2.43l-7.4 7.4 49.715 49.716 7.4-7.4L10.488 2.43z"/><path d="M10.514 2.465l-7.4 7.4 49.715 49.716 7.4-7.4L10.515 2.464z"/><path d="M10.508 2.467l-7.401 7.4 49.715 49.716 7.4-7.4L10.508 2.466z"/><path d="M10.5 2.469l-7.4 7.4 49.715 49.716 7.4-7.401L10.5 2.469z"/><path d="M10.46 2.504l-7.4 7.4L52.774 59.62l7.4-7.401L10.46 2.504z"/><path d="M10.453 2.506l-7.4 7.4 49.715 49.716 7.4-7.401L10.454 2.506z"/><path d="M10.48 2.54L3.079 9.942l49.715 49.716 7.4-7.401L10.48 2.54z"/><path d="M10.473 2.542L3.072 9.943 52.787 59.66l7.4-7.401L10.474 2.542z"/><path d="M10.466 2.544L3.065 9.945 52.78 59.66l7.4-7.4L10.467 2.544z"/><path d="M10.459 2.546L3.058 9.947l49.715 49.715 7.4-7.4L10.46 2.545z"/><path d="M10.452 2.548l-7.401 7.4 49.715 49.716 7.4-7.4L10.453 2.547z"/><path d="M10.478 2.583l-7.401 7.4L52.792 59.7l7.401-7.4L10.478 2.582z"/><path d="M10.47 2.585l-7.4 7.4 49.715 49.716 7.401-7.401L10.471 2.585z"/><path d="M10.464 2.587l-7.4 7.4 49.714 49.716 7.401-7.401L10.464 2.587z"/><path d="M10.457 2.588l-7.4 7.401L52.77 59.704l7.401-7.4L10.457 2.588z"/><path d="M10.45 2.59l-7.4 7.401 49.714 49.715 7.401-7.4L10.45 2.59z"/><path d="M10.476 2.625l-7.4 7.401L52.79 59.741l7.4-7.4L10.476 2.624z"/><path d="M10.47 2.627l-7.402 7.401 49.716 49.715 7.4-7.4L10.47 2.627z"/><path d="M10.462 2.629l-7.4 7.4 49.715 49.716 7.4-7.4L10.462 2.628z"/><path d="M10.455 2.63l-7.4 7.402L52.77 59.747l7.4-7.4L10.455 2.63z"/><path d="M10.448 2.633l-7.4 7.4L52.762 59.75l7.4-7.401L10.448 2.633z"/><path d="M10.475 2.668l-7.401 7.4 49.715 49.716 7.4-7.401L10.475 2.668z"/><path d="M10.467 2.67l-7.4 7.4 49.715 49.716 7.4-7.401L10.468 2.669z"/><path d="M10.46 2.671l-7.4 7.401 49.715 49.716 7.4-7.401L10.462 2.67z"/><path d="M10.454 2.673l-7.401 7.401 49.715 49.715 7.4-7.4L10.454 2.672z"/><path d="M10.447 2.675l-7.401 7.4L52.76 59.792l7.4-7.4L10.448 2.674z"/><path d="M10.473 2.71l-7.401 7.4 49.715 49.716 7.401-7.4L10.473 2.71z"/><path d="M10.466 2.712l-7.401 7.4L52.78 59.829l7.401-7.4L10.466 2.711z"/><path d="M10.459 2.714l-7.401 7.4L52.773 59.83l7.401-7.401L10.46 2.714z"/><path d="M10.452 2.716l-7.401 7.4 49.715 49.716 7.401-7.401L10.452 2.716z"/><path d="M10.445 2.718l-7.401 7.4 49.715 49.716 7.401-7.401L10.445 2.718z"/><path d="M10.471 2.752l-7.4 7.401L52.785 59.87l7.4-7.401L10.471 2.752z"/><path d="M10.464 2.754l-7.4 7.401L52.778 59.87l7.4-7.4L10.464 2.753z"/><path d="M10.457 2.756l-7.4 7.401 49.715 49.715 7.4-7.4L10.457 2.755z"/><path d="M10.45 2.758l-7.4 7.4 49.715 49.716 7.4-7.4L10.45 2.757z"/><path d="M10.443 2.76l-7.4 7.4 49.715 49.716 7.4-7.401L10.443 2.76z"/><path d="M10.47 2.795l-7.402 7.4 49.716 49.716 7.4-7.4L10.47 2.794z"/><path d="M10.462 2.797l-7.4 7.4 49.715 49.716 7.4-7.401L10.463 2.797z"/><path d="M10.455 2.799l-7.4 7.4L52.77 59.916l7.4-7.401L10.456 2.799z"/><path d="M10.448 2.8l-7.4 7.401 49.715 49.715 7.4-7.4L10.449 2.8z"/><path d="M10.441 2.802l-7.4 7.401 49.715 49.715 7.4-7.4L10.442 2.801z"/><path d="M10.434 2.87l-7.4 7.401 49.715 49.715 7.4-7.4L10.435 2.87z"/><path d="M10.428 2.872l-7.401 7.401 49.715 49.715 7.4-7.4L10.428 2.872z"/><path d="M10.42 2.874l-7.4 7.4L52.735 59.99l7.4-7.4L10.422 2.873z"/><path d="M10.414 2.876l-7.401 7.4 49.715 49.716 7.4-7.4L10.415 2.875z"/><path d="M10.407 2.878l-7.401 7.4L52.72 59.995l7.4-7.401L10.408 2.878z"/><path d="M10.433 2.913l-7.401 7.4L52.747 60.03l7.401-7.4L10.433 2.912z"/><path d="M10.426 2.915l-7.401 7.4L52.74 60.031l7.401-7.401L10.426 2.915z"/><path d="M10.419 2.917l-7.401 7.4 49.715 49.716 7.401-7.401L10.42 2.917z"/><path d="M10.412 2.918L3.01 10.32l49.715 49.715 7.401-7.4L10.412 2.917z"/><path d="M10.405 2.92l-7.401 7.401 49.715 49.715 7.401-7.4L10.405 2.92z"/><path d="M10.431 2.955l-7.4 7.401 49.715 49.715 7.4-7.4L10.431 2.954z"/><path d="M10.424 2.957l-7.4 7.4 49.715 49.716 7.4-7.4L10.424 2.956z"/><path d="M10.417 2.959l-7.4 7.4L52.73 60.076l7.401-7.401L10.417 2.959z"/><path d="M10.41 2.96l-7.4 7.402 49.715 49.715 7.4-7.401L10.41 2.96z"/><path d="M10.403 2.962l-7.4 7.401 49.715 49.715 7.4-7.4L10.403 2.962z"/><path d="M10.43 2.998l-7.401 7.4 49.715 49.716 7.4-7.401L10.43 2.998z"/><path d="M10.422 3l-7.4 7.4 49.715 49.715 7.4-7.4L10.423 2.998z"/><path d="M10.415 3.001l-7.4 7.401L52.73 60.117l7.4-7.4L10.416 3z"/><path d="M10.409 3.003l-7.401 7.4L52.723 60.12l7.4-7.4L10.41 3.002z"/><path d="M10.402 3.005L3 10.405l49.715 49.716 7.4-7.4L10.402 3.004z"/><path d="M10.428 3.04l-7.401 7.4 49.715 49.716 7.401-7.4L10.428 3.04z"/><path d="M10.42 3.042l-7.4 7.4 49.715 49.716 7.401-7.401L10.421 3.042z"/><path d="M10.414 3.043l-7.401 7.401L52.728 60.16l7.401-7.401L10.414 3.043z"/><path d="M10.407 3.045l-7.401 7.401L52.72 60.162l7.401-7.401L10.407 3.045z"/><path d="M10.4 3.047l-7.401 7.401 49.715 49.715 7.401-7.4L10.4 3.046z"/><path d="M10.426 3.082l-7.4 7.401L52.74 60.198l7.401-7.4L10.426 3.081z"/><path d="M10.419 3.084l-7.4 7.4L52.732 60.2l7.401-7.4L10.42 3.083z"/><path d="M10.412 3.086l-7.4 7.4 49.714 49.716 7.401-7.4L10.412 3.085z"/><path d="M10.405 3.088l-7.4 7.4 49.714 49.716 7.401-7.4L10.405 3.087z"/><path d="M10.398 3.09l-7.4 7.4 49.715 49.716 7.4-7.401L10.398 3.09z"/><path d="M10.424 3.125l-7.4 7.4 49.715 49.716 7.4-7.401L10.424 3.125z"/><path d="M10.417 3.126l-7.4 7.401 49.715 49.716 7.4-7.401L10.418 3.126z"/><path d="M10.41 3.128l-7.4 7.401 49.715 49.715 7.4-7.4L10.41 3.127z"/><path d="M10.403 3.13l-7.4 7.401 49.715 49.715 7.4-7.4L10.404 3.13z"/><path d="M10.396 3.132l-7.4 7.401L52.71 60.248l7.4-7.4L10.397 3.131z"/><path d="M10.423 3.167l-7.401 7.4 49.715 49.716 7.4-7.4L10.424 3.166z"/><path d="M10.416 3.169l-7.401 7.4L52.73 60.286l7.4-7.4L10.417 3.168z"/><path d="M10.376 3.204l-7.401 7.4L52.69 60.32l7.4-7.4L10.376 3.203z"/><path d="M10.368 3.206l-7.4 7.4 49.715 49.716 7.4-7.401L10.369 3.206z"/><path d="M10.361 3.208l-7.4 7.4 49.715 49.716 7.4-7.401L10.362 3.208z"/><path d="M10.388 3.243l-7.401 7.4L52.702 60.36l7.401-7.401L10.388 3.243z"/><path d="M10.38 3.244l-7.4 7.401 49.715 49.716 7.401-7.401L10.381 3.244z"/><path d="M10.374 3.246l-7.401 7.401 49.715 49.715 7.401-7.4L10.374 3.246z"/><path d="M10.367 3.248l-7.401 7.4L52.68 60.365l7.401-7.4L10.367 3.247z"/><path d="M10.36 3.25l-7.401 7.4 49.715 49.716 7.401-7.4L10.36 3.25z"/><path d="M10.386 3.285l-7.4 7.4L52.7 60.402l7.401-7.4L10.386 3.284z"/><path d="M10.38 3.287l-7.402 7.4 49.715 49.716 7.401-7.4L10.38 3.286z"/><path d="M10.372 3.289l-7.4 7.4 49.714 49.716 7.401-7.401L10.372 3.289z"/><path d="M10.365 3.29l-7.4 7.401 49.714 49.716 7.401-7.401L10.365 3.29z"/><path d="M10.358 3.292l-7.4 7.401 49.715 49.715 7.4-7.4L10.358 3.291z"/><path d="M10.384 3.327l-7.4 7.401 49.715 49.715 7.4-7.4L10.385 3.327z"/><path d="M10.377 3.33l-7.4 7.4 49.715 49.715 7.4-7.4L10.378 3.328z"/><path d="M10.37 3.331l-7.4 7.4 49.715 49.716 7.4-7.4L10.37 3.33z"/><path d="M10.363 3.333l-7.4 7.4L52.678 60.45l7.4-7.401L10.364 3.333z"/><path d="M10.356 3.335l-7.4 7.4L52.67 60.452l7.4-7.401L10.357 3.335z"/><path d="M10.383 3.37l-7.401 7.4 49.715 49.716 7.4-7.401L10.384 3.37z"/><path d="M10.376 3.372l-7.401 7.4L52.69 60.489l7.4-7.401L10.377 3.372z"/><path d="M10.369 3.373l-7.401 7.401L52.683 60.49l7.4-7.4L10.37 3.373z"/><path d="M10.362 3.375L2.96 10.776l49.715 49.715 7.401-7.4L10.362 3.374z"/><path d="M10.355 3.377l-7.401 7.4 49.715 49.716 7.4-7.4L10.356 3.376z"/><path d="M10.38 3.412l-7.4 7.401 49.715 49.715 7.401-7.4L10.381 3.411z"/><path d="M10.374 3.414l-7.4 7.4L52.687 60.53l7.401-7.4L10.374 3.413z"/><path d="M10.367 3.416l-7.4 7.4L52.68 60.533l7.401-7.401L10.367 3.416z"/><path d="M10.36 3.417l-7.4 7.401 49.714 49.716 7.401-7.401L10.36 3.417z"/><path d="M10.353 3.42l-7.4 7.4 49.714 49.716 7.401-7.401L10.353 3.419z"/><path d="M10.38 3.455l-7.402 7.4 49.716 49.716 7.4-7.401L10.38 3.455z"/><path d="M10.372 3.456l-7.4 7.401 49.715 49.715 7.4-7.4L10.372 3.456z"/><path d="M10.365 3.458l-7.4 7.401L52.68 60.574l7.4-7.4L10.365 3.457z"/><path d="M10.358 3.46l-7.4 7.4 49.715 49.716 7.4-7.4L10.358 3.46z"/><path d="M10.351 3.462l-7.4 7.4 49.715 49.716 7.4-7.4L10.352 3.461z"/><path d="M10.377 3.497l-7.4 7.4 49.715 49.716 7.4-7.4L10.378 3.496z"/><path d="M10.37 3.499l-7.4 7.4 49.715 49.716 7.4-7.401L10.37 3.499z"/><path d="M10.364 3.5l-7.401 7.401 49.715 49.716 7.4-7.401L10.365 3.5z"/><path d="M10.357 3.502l-7.401 7.401L52.67 60.62l7.4-7.401L10.358 3.502z"/><path d="M10.316 3.537l-7.4 7.401L52.63 60.653l7.4-7.4L10.317 3.537z"/><path d="M10.343 3.572l-7.401 7.401 49.715 49.715 7.4-7.4L10.344 3.572z"/><path d="M10.336 3.574l-7.401 7.401L52.65 60.69l7.4-7.4L10.337 3.573z"/><path d="M10.329 3.576l-7.401 7.4 49.715 49.716 7.4-7.4L10.33 3.575z"/><path d="M10.322 3.578l-7.401 7.4 49.715 49.716 7.401-7.4L10.322 3.577z"/><path d="M10.315 3.58l-7.401 7.4 49.715 49.716 7.401-7.4L10.315 3.58z"/><path d="M10.34 3.615l-7.4 7.4 49.715 49.716 7.401-7.401L10.341 3.615z"/><path d="M10.334 3.617l-7.4 7.4 49.714 49.716 7.401-7.401L10.334 3.617z"/><path d="M10.327 3.618l-7.4 7.401L52.64 60.734l7.401-7.4L10.327 3.618z"/><path d="M10.32 3.62l-7.4 7.401 49.714 49.715 7.401-7.4L10.32 3.62z"/><path d="M10.313 3.622l-7.4 7.4 49.714 49.716 7.401-7.4L10.313 3.621z"/><path d="M10.34 3.657l-7.402 7.401 49.716 49.715 7.4-7.4L10.34 3.657z"/><path d="M10.332 3.659l-7.4 7.4 49.715 49.716 7.4-7.4L10.332 3.658z"/><path d="M10.325 3.66l-7.4 7.402L52.64 60.777l7.4-7.4L10.325 3.66z"/><path d="M10.318 3.663l-7.4 7.4L52.632 60.78l7.4-7.401L10.318 3.663z"/><path d="M10.311 3.665l-7.4 7.4 49.715 49.716 7.4-7.401L10.312 3.665z"/><path d="M10.338 3.7l-7.401 7.4 49.715 49.716 7.4-7.401L10.338 3.699z"/><path d="M10.33 3.701l-7.4 7.401 49.715 49.716 7.4-7.401L10.332 3.7z"/><path d="M10.324 3.703l-7.401 7.401 49.715 49.715 7.4-7.4L10.325 3.702z"/><path d="M10.317 3.705l-7.401 7.401L52.63 60.821l7.4-7.4L10.318 3.704z"/><path d="M10.31 3.707l-7.401 7.4 49.715 49.716 7.4-7.4L10.31 3.706z"/><path d="M10.336 3.742l-7.401 7.4L52.65 60.859l7.401-7.4L10.336 3.741z"/><path d="M10.329 3.744l-7.401 7.4L52.643 60.86l7.401-7.401L10.33 3.744z"/><path d="M10.322 3.746l-7.401 7.4 49.715 49.716 7.401-7.401L10.322 3.746z"/><path d="M10.315 3.747l-7.4 7.401 49.714 49.715 7.401-7.4L10.315 3.747z"/><path d="M10.308 3.75l-7.4 7.4 49.714 49.715 7.401-7.4L10.308 3.748z"/><path d="M10.334 3.784l-7.4 7.401L52.647 60.9l7.401-7.4L10.334 3.783z"/><path d="M10.327 3.786l-7.4 7.401 49.715 49.715 7.4-7.4L10.327 3.785z"/><path d="M10.32 3.788l-7.4 7.4 49.715 49.716 7.4-7.4L10.32 3.787z"/><path d="M10.313 3.79l-7.4 7.4 49.715 49.716 7.4-7.4L10.313 3.79z"/><path d="M10.306 3.792l-7.4 7.4L52.62 60.909l7.4-7.401L10.306 3.792z"/><path d="M10.332 3.827l-7.4 7.4 49.715 49.716 7.4-7.401L10.333 3.827z"/><path d="M10.325 3.828l-7.4 7.401L52.64 60.944l7.4-7.4L10.326 3.828z"/><path d="M10.319 3.83l-7.401 7.401 49.715 49.715 7.4-7.4L10.319 3.83z"/><path d="M10.312 3.832l-7.401 7.4 49.715 49.716 7.4-7.4L10.312 3.831z"/><path d="M10.305 3.834l-7.401 7.4L52.619 60.95l7.4-7.4L10.305 3.833z"/><path d="M10.33 3.87l-7.4 7.4 49.715 49.715 7.401-7.4L10.331 3.868z"/><path d="M10.29 3.904l-7.4 7.4L52.605 61.02l7.4-7.4L10.292 3.903z"/><path d="M10.284 3.906l-7.401 7.4 49.715 49.716 7.4-7.4L10.285 3.905z"/><path d="M10.277 3.908l-7.401 7.4L52.59 61.025l7.4-7.401L10.278 3.908z"/><path d="M10.27 3.91l-7.401 7.4 49.715 49.716 7.4-7.401L10.27 3.91z"/><path d="M10.296 3.945l-7.401 7.4L52.61 61.062l7.401-7.401L10.296 3.945z"/><path d="M10.289 3.946l-7.401 7.401 49.715 49.715 7.401-7.4L10.29 3.946z"/><path d="M10.282 3.948L2.88 11.35l49.715 49.715 7.401-7.4L10.282 3.947z"/><path d="M10.275 3.95l-7.401 7.401 49.715 49.715 7.401-7.4L10.275 3.95z"/><path d="M10.268 3.952l-7.4 7.4 49.714 49.716 7.401-7.4L10.268 3.951z"/><path d="M10.294 3.987l-7.4 7.4 49.715 49.716 7.4-7.4L10.294 3.986z"/><path d="M10.287 3.989l-7.4 7.4 49.715 49.716 7.4-7.401L10.287 3.989z"/><path d="M10.28 3.99l-7.4 7.402 49.715 49.715 7.4-7.401L10.28 3.991z"/><path d="M10.273 3.992l-7.4 7.401L52.587 61.11l7.4-7.401L10.273 3.992z"/><path d="M10.266 3.994l-7.4 7.401L52.58 61.111l7.4-7.401L10.266 3.994z"/><path d="M10.26 3.996l-7.402 7.401 49.716 49.715 7.4-7.4L10.26 3.995z"/><path d="M10.286 4.031l-7.401 7.401L52.6 61.147l7.4-7.4L10.286 4.03z"/><path d="M10.278 4.033l-7.4 7.4L52.593 61.15l7.4-7.4L10.279 4.032z"/><path d="M10.271 4.035l-7.4 7.4 49.715 49.716 7.4-7.4L10.273 4.034z"/><path d="M10.264 4.037l-7.4 7.4 49.715 49.716 7.4-7.401L10.265 4.037z"/><path d="M10.258 4.039l-7.401 7.4 49.715 49.716 7.4-7.401L10.259 4.039z"/><path d="M10.284 4.074l-7.401 7.4L52.598 61.19 60 53.789 10.284 4.074z"/><path d="M10.277 4.075l-7.401 7.401L52.59 61.192l7.401-7.401L10.277 4.075z"/><path d="M10.27 4.077l-7.401 7.401 49.715 49.715 7.401-7.4L10.27 4.076z"/><path d="M10.263 4.08l-7.401 7.4 49.715 49.715 7.401-7.4L10.263 4.078z"/><path d="M10.256 4.08l-7.401 7.402L52.57 61.197l7.401-7.4L10.256 4.08z"/><path d="M10.282 4.116l-7.4 7.4 49.714 49.716 7.401-7.4L10.282 4.115z"/><path d="M10.275 4.118l-7.4 7.4L52.59 61.235l7.4-7.401L10.275 4.118z"/><path d="M10.268 4.12l-7.4 7.4 49.715 49.716 7.4-7.401L10.268 4.12z"/><path d="M10.261 4.121l-7.4 7.401 49.714 49.715 7.401-7.4L10.261 4.12z"/><path d="M10.254 4.123l-7.4 7.401L52.568 61.24l7.4-7.4L10.254 4.123z"/><path d="M10.28 4.158l-7.4 7.401 49.715 49.715 7.4-7.4L10.28 4.157z"/><path d="M10.273 4.16l-7.4 7.401 49.715 49.715 7.4-7.4L10.274 4.16z"/><path d="M10.266 4.162l-7.4 7.401L52.58 61.278l7.4-7.4L10.267 4.161z"/><path d="M10.26 4.164l-7.401 7.4L52.574 61.28l7.4-7.4L10.26 4.163z"/><path d="M10.252 4.166l-7.4 7.4 49.715 49.716 7.4-7.401L10.253 4.166z"/><path d="M10.279 4.2l-7.401 7.402 49.715 49.715 7.401-7.401L10.279 4.2z"/><path d="M10.272 4.202L2.87 11.603l49.715 49.715 7.401-7.4L10.272 4.202z"/><path d="M10.232 4.238l-7.401 7.4 49.715 49.716 7.4-7.401L10.233 4.238z"/><path d="M10.225 4.24l-7.401 7.4 49.715 49.716 7.4-7.401L10.226 4.24z"/><path d="M10.218 4.241l-7.401 7.401 49.715 49.715 7.4-7.4L10.219 4.24z"/><path d="M10.244 4.276l-7.401 7.401 49.715 49.715 7.401-7.4L10.244 4.276z"/><path d="M10.237 4.278L2.836 11.68l49.715 49.715 7.401-7.4L10.237 4.277z"/><path d="M10.23 4.28l-7.401 7.4 49.715 49.716 7.401-7.4L10.23 4.28z"/><path d="M10.223 4.282l-7.401 7.4 49.715 49.716 7.401-7.401L10.223 4.282z"/><path d="M10.216 4.284l-7.401 7.4L52.53 61.4l7.401-7.401L10.216 4.284z"/><path d="M10.242 4.319l-7.4 7.4 49.715 49.716 7.4-7.401L10.242 4.319z"/><path d="M10.235 4.32l-7.4 7.401L52.55 61.437l7.4-7.401L10.235 4.32z"/><path d="M10.228 4.322l-7.4 7.401 49.714 49.715 7.401-7.4L10.228 4.322z"/><path d="M10.221 4.324l-7.4 7.401L52.535 61.44l7.4-7.4L10.221 4.323z"/><path d="M10.214 4.326l-7.4 7.4 49.715 49.716 7.4-7.4L10.214 4.325z"/><path d="M10.24 4.361l-7.4 7.401 49.715 49.715 7.4-7.4L10.24 4.36z"/><path d="M10.233 4.363l-7.4 7.4L52.548 61.48l7.4-7.401L10.234 4.363z"/><path d="M10.226 4.365l-7.4 7.4L52.54 61.482l7.4-7.401L10.227 4.365z"/><path d="M10.22 4.366l-7.401 7.401 49.715 49.716 7.4-7.401L10.22 4.366z"/><path d="M10.213 4.368L2.812 11.77l49.715 49.715 7.4-7.4L10.213 4.368z"/><path d="M10.239 4.403l-7.401 7.401L52.553 61.52l7.401-7.4L10.239 4.403z"/><path d="M10.232 4.405L2.83 11.806l49.715 49.715 7.401-7.4L10.232 4.404z"/><path d="M10.225 4.407l-7.401 7.4 49.715 49.716 7.401-7.4L10.225 4.406z"/><path d="M10.218 4.409l-7.401 7.4 49.715 49.716 7.401-7.4L10.218 4.408z"/><path d="M10.21 4.41l-7.4 7.402 49.715 49.715 7.401-7.401L10.211 4.41z"/><path d="M10.237 4.446l-7.4 7.4L52.55 61.563l7.401-7.4L10.237 4.445z"/><path d="M10.23 4.448l-7.4 7.4 49.714 49.716 7.401-7.401L10.23 4.448z"/><path d="M10.223 4.45l-7.4 7.4 49.714 49.716 7.401-7.401L10.223 4.449z"/><path d="M10.216 4.451l-7.4 7.401L52.53 61.567l7.401-7.4L10.216 4.45z"/><path d="M10.21 4.453l-7.402 7.401 49.715 49.715 7.401-7.4L10.21 4.452z"/><path d="M10.235 4.488l-7.4 7.4L52.55 61.605l7.4-7.4L10.236 4.487z"/><path d="M10.228 4.49l-7.4 7.4 49.715 49.716 7.4-7.4L10.229 4.49z"/><path d="M10.221 4.492l-7.4 7.4 49.715 49.716 7.4-7.401L10.222 4.492z"/><path d="M10.214 4.494l-7.4 7.4L52.529 61.61l7.4-7.401L10.215 4.494z"/><path d="M10.207 4.495l-7.4 7.401 49.715 49.715 7.4-7.4L10.208 4.495z"/><path d="M10.234 4.53l-7.401 7.401 49.715 49.716 7.4-7.401L10.235 4.53z"/><path d="M10.227 4.532l-7.401 7.401L52.54 61.65l7.4-7.401L10.228 4.532z"/><path d="M10.22 4.534l-7.401 7.401L52.534 61.65l7.4-7.4L10.22 4.533z"/><path d="M10.213 4.536l-7.401 7.401 49.715 49.715 7.4-7.4L10.214 4.535z"/><path d="M10.172 4.571l-7.4 7.4 49.715 49.716 7.4-7.4L10.173 4.57z"/><path d="M10.199 4.606l-7.401 7.4 49.715 49.716 7.401-7.4L10.199 4.605z"/><path d="M10.192 4.608l-7.401 7.4 49.715 49.716 7.401-7.4L10.192 4.607z"/><path d="M10.185 4.61l-7.401 7.4 49.715 49.716 7.401-7.4L10.185 4.61z"/><path d="M10.178 4.612l-7.401 7.4 49.715 49.716 7.401-7.401L10.178 4.612z"/><path d="M10.17 4.614l-7.4 7.4L52.485 61.73l7.401-7.401L10.171 4.614z"/><path d="M10.197 4.648l-7.4 7.401L52.51 61.765l7.401-7.401L10.197 4.648z"/><path d="M10.19 4.65l-7.4 7.401 49.714 49.716 7.401-7.401L10.19 4.65z"/><path d="M10.183 4.652l-7.4 7.401 49.715 49.715 7.4-7.4L10.183 4.651z"/><path d="M10.176 4.654l-7.4 7.4L52.49 61.77l7.401-7.4L10.176 4.653z"/><path d="M10.17 4.656l-7.402 7.4 49.715 49.716 7.401-7.401L10.17 4.656z"/><path d="M10.195 4.69l-7.4 7.402L52.51 61.807l7.4-7.4L10.196 4.69z"/><path d="M10.188 4.693l-7.4 7.4L52.502 61.81l7.4-7.401L10.189 4.693z"/><path d="M10.181 4.695l-7.4 7.4 49.715 49.716 7.4-7.401L10.182 4.695z"/><path d="M10.174 4.696l-7.4 7.401 49.715 49.715 7.4-7.4L10.175 4.696z"/><path d="M10.167 4.698l-7.4 7.401 49.715 49.715 7.4-7.4L10.168 4.697z"/><path d="M10.194 4.733l-7.401 7.401 49.715 49.715 7.4-7.4L10.195 4.732z"/><path d="M10.187 4.735l-7.401 7.401L52.5 61.851l7.4-7.4L10.188 4.734z"/><path d="M10.18 4.737l-7.401 7.4 49.715 49.716 7.4-7.4L10.18 4.736z"/><path d="M10.173 4.739l-7.401 7.4 49.715 49.716 7.401-7.401L10.173 4.739z"/><path d="M10.166 4.74l-7.401 7.401L52.48 61.857l7.401-7.401L10.166 4.74z"/><path d="M10.192 4.776l-7.401 7.4 49.715 49.716 7.401-7.401L10.192 4.776z"/><path d="M10.185 4.777l-7.4 7.401 49.714 49.715 7.401-7.4L10.185 4.777z"/><path d="M10.178 4.78l-7.4 7.4 49.714 49.715 7.401-7.4L10.178 4.779z"/><path d="M10.171 4.781l-7.4 7.4 49.714 49.716 7.401-7.4L10.171 4.78z"/><path d="M10.164 4.783l-7.4 7.4L52.477 61.9l7.401-7.4L10.164 4.782z"/><path d="M10.19 4.818l-7.4 7.4 49.715 49.716 7.4-7.4L10.19 4.817z"/><path d="M10.183 4.82l-7.4 7.4 49.715 49.716 7.4-7.4L10.183 4.82z"/><path d="M10.176 4.822l-7.4 7.4L52.49 61.938l7.4-7.401L10.176 4.822z"/><path d="M10.17 4.823l-7.402 7.401L52.484 61.94l7.4-7.401L10.17 4.823z"/><path d="M10.162 4.825l-7.4 7.401 49.715 49.715 7.4-7.4L10.163 4.825z"/><path d="M10.188 4.86l-7.4 7.401 49.715 49.715 7.4-7.4L10.189 4.86z"/><path d="M10.181 4.862l-7.4 7.4 49.715 49.716 7.4-7.4L10.182 4.861z"/><path d="M10.175 4.864l-7.401 7.4L52.489 61.98l7.4-7.4L10.176 4.863z"/><path d="M10.168 4.866l-7.401 7.4 49.715 49.716 7.4-7.401L10.169 4.866z"/><path d="M10.16 4.868l-7.4 7.4 49.715 49.716 7.4-7.401L10.162 4.868z"/><path d="M10.154 4.936l-7.401 7.4 49.715 49.716 7.4-7.401L10.155 4.936z"/><path d="M10.147 4.938l-7.401 7.4L52.46 62.055l7.4-7.401L10.148 4.938z"/><path d="M10.14 4.94l-7.401 7.4 49.715 49.716 7.4-7.401L10.14 4.939z"/><path d="M10.133 4.941l-7.401 7.401 49.715 49.715 7.4-7.4L10.134 4.94z"/><path d="M10.126 4.943l-7.401 7.401L52.44 62.059l7.401-7.4L10.126 4.942z"/><path d="M10.152 4.978l-7.4 7.401 49.714 49.715 7.401-7.4L10.152 4.977z"/><path d="M10.145 4.98l-7.4 7.401 49.714 49.715 7.401-7.4L10.145 4.98z"/><path d="M10.138 4.982l-7.4 7.4 49.714 49.716 7.401-7.4L10.138 4.981z"/><path d="M10.131 4.984l-7.4 7.4L52.444 62.1l7.401-7.4L10.131 4.983z"/><path d="M10.124 4.986l-7.4 7.4 49.714 49.716L59.84 54.7 10.124 4.986z"/><path d="M10.15 5.02l-7.4 7.402 49.715 49.715 7.4-7.401L10.15 5.021z"/><path d="M10.143 5.022l-7.4 7.401L52.457 62.14l7.4-7.401L10.143 5.022z"/><path d="M10.136 5.024l-7.4 7.401L52.45 62.141l7.4-7.401L10.137 5.024z"/><path d="M10.13 5.026l-7.402 7.401 49.716 49.715 7.4-7.4L10.13 5.025z"/><path d="M10.122 5.028l-7.4 7.401 49.715 49.715 7.4-7.4L10.123 5.027z"/><path d="M10.149 5.063l-7.401 7.4L52.463 62.18l7.4-7.4L10.15 5.062z"/><path d="M10.142 5.065l-7.401 7.4 49.715 49.716 7.4-7.4L10.143 5.064z"/><path d="M10.135 5.067l-7.401 7.4 49.715 49.716 7.4-7.401L10.136 5.067z"/><path d="M10.128 5.069l-7.401 7.4 49.715 49.716 7.4-7.401L10.129 5.069z"/><path d="M10.12 5.07l-7.4 7.401 49.715 49.715 7.4-7.4L10.122 5.07z"/><path d="M10.147 5.105l-7.401 7.401 49.715 49.716 7.401-7.401L10.147 5.105z"/><path d="M10.14 5.107l-7.401 7.401 49.715 49.715 7.401-7.4L10.14 5.106z"/><path d="M10.133 5.11l-7.401 7.4 49.715 49.715 7.401-7.4L10.133 5.108z"/><path d="M10.126 5.11l-7.401 7.402L52.44 62.227l7.401-7.4L10.126 5.11z"/><path d="M10.119 5.113l-7.4 7.4L52.432 62.23l7.401-7.4L10.12 5.112z"/><path d="M10.145 5.148l-7.4 7.4L52.46 62.265l7.4-7.401L10.145 5.148z"/><path d="M10.138 5.15l-7.4 7.4 49.715 49.716 7.4-7.401L10.138 5.15z"/><path d="M10.131 5.151l-7.4 7.401 49.715 49.715 7.4-7.4L10.131 5.15z"/><path d="M10.124 5.153l-7.4 7.401L52.438 62.27l7.4-7.4L10.124 5.153z"/><path d="M10.117 5.155l-7.4 7.4 49.715 49.716 7.4-7.4L10.117 5.154z"/><path d="M10.143 5.19l-7.4 7.401 49.715 49.715 7.4-7.4L10.145 5.19z"/><path d="M10.136 5.192l-7.4 7.4L52.45 62.309l7.4-7.4L10.137 5.191z"/><path d="M10.13 5.194l-7.401 7.4L52.444 62.31l7.4-7.4L10.13 5.193z"/><path d="M10.123 5.196l-7.401 7.4 49.715 49.716 7.4-7.401L10.123 5.196z"/><path d="M10.116 5.198l-7.401 7.4L52.43 62.314l7.4-7.401L10.117 5.198z"/><path d="M10.142 5.232L2.74 12.633 52.456 62.35l7.401-7.401L10.142 5.232z"/><path d="M10.135 5.234l-7.401 7.401L52.449 62.35l7.401-7.4L10.135 5.234z"/><path d="M10.095 5.27l-7.401 7.4 49.715 49.715 7.4-7.4L10.096 5.269z"/><path d="M10.088 5.271l-7.401 7.401 49.715 49.715 7.4-7.4L10.089 5.27z"/><path d="M10.08 5.273l-7.4 7.401L52.395 62.39l7.4-7.4L10.082 5.273z"/><path d="M10.107 5.308L2.706 12.71l49.715 49.715 7.401-7.4L10.107 5.307z"/><path d="M10.1 5.31l-7.401 7.4 49.715 49.716 7.401-7.4L10.1 5.31z"/><path d="M10.093 5.312l-7.4 7.4 49.714 49.716 7.401-7.401L10.093 5.312z"/><path d="M10.086 5.313l-7.4 7.401L52.4 62.43l7.401-7.401L10.086 5.313z"/><path d="M10.079 5.315l-7.4 7.401 49.714 49.715 7.401-7.4L10.08 5.315z"/><path d="M10.105 5.35l-7.4 7.402L52.42 62.467l7.4-7.401L10.105 5.35z"/><path d="M10.098 5.352l-7.4 7.401 49.715 49.715 7.4-7.4L10.098 5.352z"/><path d="M10.091 5.354l-7.4 7.401L52.405 62.47l7.4-7.4L10.091 5.353z"/><path d="M10.084 5.356l-7.4 7.4 49.715 49.716 7.4-7.4L10.084 5.355z"/><path d="M10.077 5.358l-7.4 7.4 49.715 49.716 7.4-7.4L10.077 5.357z"/><path d="M10.104 5.393l-7.401 7.4L52.418 62.51l7.4-7.4L10.105 5.392z"/><path d="M10.097 5.395l-7.401 7.4L52.41 62.512l7.4-7.401L10.097 5.395z"/><path d="M10.09 5.396l-7.401 7.401 49.715 49.716 7.4-7.401L10.09 5.396z"/><path d="M10.083 5.398L2.682 12.8l49.715 49.716 7.4-7.401L10.084 5.398z"/><path d="M10.076 5.4l-7.401 7.401L52.39 62.516l7.4-7.4L10.077 5.4z"/><path d="M10.102 5.435L2.7 12.836l49.715 49.715 7.401-7.4L10.102 5.435z"/><path d="M10.095 5.437l-7.401 7.4 49.715 49.716 7.401-7.4L10.095 5.436z"/><path d="M10.088 5.439l-7.401 7.4 49.715 49.716 7.401-7.4L10.088 5.438z"/><path d="M10.08 5.44l-7.4 7.402 49.715 49.715 7.401-7.401L10.081 5.44z"/><path d="M10.074 5.443l-7.401 7.4L52.388 62.56l7.401-7.401L10.074 5.443z"/><path d="M10.1 5.478l-7.4 7.4 49.715 49.716 7.4-7.401L10.1 5.478z"/><path d="M10.093 5.48l-7.4 7.4 49.714 49.716 7.401-7.401L10.093 5.48z"/><path d="M10.086 5.481l-7.4 7.401L52.4 62.597l7.4-7.4L10.086 5.48z"/><path d="M10.08 5.483l-7.402 7.401 49.716 49.715 7.4-7.4L10.08 5.482z"/><path d="M10.072 5.485l-7.4 7.4 49.715 49.716 7.4-7.4L10.072 5.484z"/><path d="M10.098 5.52l-7.4 7.4 49.715 49.716 7.4-7.4L10.099 5.52z"/><path d="M10.091 5.522l-7.4 7.4 49.715 49.716 7.4-7.401L10.092 5.522z"/><path d="M10.084 5.524l-7.4 7.4L52.399 62.64l7.4-7.401L10.085 5.524z"/><path d="M10.078 5.525l-7.401 7.401 49.715 49.716 7.4-7.401L10.078 5.525z"/><path d="M10.07 5.527l-7.4 7.401 49.715 49.715 7.4-7.4L10.072 5.527z"/><path d="M10.097 5.562l-7.401 7.401L52.41 62.678l7.4-7.4L10.098 5.562z"/><path d="M10.09 5.564l-7.401 7.401L52.404 62.68l7.401-7.4L10.09 5.563z"/><path d="M10.083 5.566l-7.401 7.4 49.715 49.716 7.401-7.4L10.083 5.565z"/><path d="M10.076 5.568l-7.401 7.4L52.39 62.685l7.401-7.4L10.076 5.567z"/><path d="M10.036 5.603l-7.401 7.4L52.35 62.72l7.4-7.4L10.037 5.602z"/><path d="M10.062 5.638l-7.401 7.4 49.715 49.716 7.401-7.4L10.062 5.637z"/><path d="M10.055 5.64l-7.401 7.4 49.715 49.716 7.401-7.401L10.055 5.64z"/><path d="M10.048 5.642l-7.401 7.4 49.715 49.716 7.401-7.401L10.048 5.642z"/><path d="M10.04 5.644l-7.4 7.4L52.355 62.76l7.401-7.401L10.041 5.644z"/><path d="M10.034 5.645l-7.401 7.401 49.715 49.715 7.401-7.4L10.034 5.645z"/><path d="M10.06 5.68l-7.4 7.401 49.714 49.715 7.401-7.4L10.06 5.68z"/><path d="M10.053 5.682l-7.4 7.401 49.715 49.715 7.4-7.4L10.053 5.681z"/><path d="M10.046 5.684l-7.4 7.4L52.36 62.8l7.4-7.4L10.046 5.683z"/><path d="M10.04 5.686l-7.402 7.4 49.715 49.716 7.401-7.4L10.04 5.685z"/><path d="M10.032 5.688l-7.4 7.4 49.715 49.716 7.4-7.401L10.032 5.688z"/><path d="M10.058 5.723l-7.4 7.4L52.373 62.84l7.4-7.401L10.059 5.723z"/><path d="M10.051 5.725l-7.4 7.4 49.715 49.716 7.4-7.401L10.052 5.725z"/><path d="M10.044 5.726l-7.4 7.401 49.715 49.715 7.4-7.4L10.045 5.726z"/><path d="M10.037 5.728l-7.4 7.401 49.715 49.715 7.4-7.4L10.038 5.727z"/><path d="M10.03 5.73l-7.4 7.4 49.715 49.716 7.4-7.4L10.032 5.73z"/><path d="M10.057 5.765l-7.401 7.401L52.37 62.881l7.4-7.4L10.058 5.764z"/><path d="M10.05 5.767l-7.401 7.4 49.715 49.716 7.4-7.4L10.05 5.766z"/><path d="M10.043 5.769l-7.401 7.4 49.715 49.716 7.401-7.4L10.043 5.768z"/><path d="M10.036 5.77l-7.401 7.401L52.35 62.887l7.401-7.401L10.036 5.77z"/><path d="M10.05 5.791l-7.417 7.416L52.338 62.91l7.415-7.416L10.05 5.791zM8.547 33.905l-7.369 7.416 49.705 49.704 7.415-7.416-49.75-49.704z"/><path d="M8.529 33.906l-7.401 7.401 49.715 49.715 7.4-7.4L8.53 33.905z"/><path d="M8.555 33.941l-7.401 7.401 49.715 49.715 7.401-7.4L8.555 33.94z"/><path d="M8.548 33.943l-7.401 7.401 49.715 49.715 7.401-7.4L8.548 33.942z"/><path d="M8.54 33.945l-7.4 7.4 49.715 49.716 7.401-7.4L8.541 33.944z"/><path d="M8.534 33.947l-7.401 7.4 49.715 49.716 7.401-7.401L8.534 33.947z"/><path d="M8.527 33.949l-7.401 7.4L50.84 91.065l7.401-7.401L8.527 33.949z"/><path d="M8.553 33.984l-7.4 7.4L50.866 91.1l7.401-7.401L8.553 33.984z"/><path d="M8.546 33.985l-7.4 7.401L50.86 91.101l7.401-7.4L8.546 33.985z"/><path d="M8.539 33.987l-7.4 7.401 49.714 49.715 7.401-7.4L8.54 33.987z"/><path d="M8.532 33.989l-7.4 7.4 49.715 49.716 7.4-7.4L8.532 33.988z"/><path d="M8.525 33.991l-7.4 7.4L50.84 91.108l7.4-7.4L8.525 33.99z"/><path d="M8.551 34.026l-7.4 7.4 49.715 49.716 7.4-7.4L8.551 34.025z"/><path d="M8.544 34.028l-7.4 7.4 49.715 49.716 7.4-7.4L8.545 34.027z"/><path d="M8.537 34.03l-7.4 7.4 49.715 49.716 7.4-7.401L8.538 34.03z"/><path d="M8.53 34.032l-7.4 7.4 49.715 49.716 7.4-7.401L8.53 34.032z"/><path d="M8.523 34.033l-7.4 7.401L50.838 91.15l7.4-7.4L8.524 34.033z"/><path d="M8.55 34.068L1.149 41.47l49.715 49.715 7.4-7.4L8.55 34.068z"/><path d="M8.543 34.07l-7.401 7.4 49.715 49.716 7.4-7.4L8.544 34.07z"/><path d="M8.536 34.072l-7.401 7.4L50.85 91.189l7.4-7.4L8.537 34.071z"/><path d="M8.529 34.074l-7.401 7.4L50.843 91.19l7.4-7.401L8.53 34.074z"/><path d="M8.522 34.076l-7.401 7.4 49.715 49.716 7.4-7.401L8.523 34.076z"/><path d="M8.548 34.11l-7.4 7.401 49.714 49.716 7.401-7.401L8.548 34.11z"/><path d="M8.54 34.113l-7.4 7.4L50.855 91.23l7.401-7.401L8.541 34.113z"/><path d="M8.534 34.114l-7.4 7.401 49.714 49.716 7.401-7.401L8.534 34.115z"/><path d="M8.527 34.116l-7.4 7.401L50.84 91.232l7.401-7.4L8.527 34.116z"/><path d="M8.52 34.118l-7.4 7.401 49.714 49.715 7.401-7.4L8.52 34.117z"/><path d="M8.546 34.153l-7.4 7.401L50.86 91.269l7.4-7.4L8.546 34.152z"/><path d="M8.54 34.155l-7.402 7.4 49.716 49.716 7.4-7.401L8.54 34.155z"/><path d="M8.532 34.157l-7.4 7.4 49.715 49.716 7.4-7.401L8.532 34.157z"/><path d="M8.525 34.159l-7.4 7.4L50.84 91.276l7.4-7.401L8.525 34.159z"/><path d="M8.518 34.16l-7.4 7.401 49.715 49.715 7.4-7.4L8.519 34.16z"/><path d="M8.544 34.196l-7.4 7.4 49.715 49.716 7.4-7.401L8.545 34.196z"/><path d="M8.538 34.197l-7.401 7.401 49.715 49.715 7.4-7.4L8.539 34.196z"/><path d="M8.53 34.2l-7.4 7.4 49.715 49.715 7.4-7.4L8.532 34.199z"/><path d="M8.524 34.2l-7.401 7.402 49.715 49.715 7.4-7.4L8.525 34.2z"/><path d="M8.517 34.203l-7.401 7.4L50.83 91.32l7.4-7.4L8.518 34.202z"/><path d="M8.543 34.238l-7.401 7.4 49.715 49.716 7.401-7.4L8.543 34.237z"/><path d="M8.503 34.273l-7.401 7.4L50.817 91.39l7.4-7.4L8.504 34.272z"/><path d="M8.496 34.275l-7.401 7.4L50.81 91.392l7.401-7.401L8.496 34.275z"/><path d="M8.489 34.277l-7.401 7.4 49.715 49.716 7.4-7.401L8.49 34.277z"/><path d="M8.482 34.278L1.08 41.68l49.715 49.715 7.401-7.4L8.482 34.278z"/><path d="M8.508 34.313l-7.4 7.401L50.821 91.43l7.401-7.401L8.508 34.314z"/><path d="M8.5 34.315l-7.4 7.401 49.715 49.715 7.401-7.4L8.501 34.314z"/><path d="M8.494 34.317l-7.4 7.401 49.714 49.715 7.401-7.4L8.494 34.316z"/><path d="M8.487 34.319l-7.4 7.4L50.8 91.436l7.401-7.4L8.487 34.318z"/><path d="M8.48 34.32l-7.4 7.402 49.714 49.715 7.401-7.4L8.48 34.32z"/><path d="M8.506 34.356l-7.4 7.4L50.82 91.473l7.4-7.401L8.506 34.356z"/><path d="M8.5 34.358l-7.402 7.4 49.716 49.716 7.4-7.401L8.5 34.358z"/><path d="M8.492 34.36l-7.4 7.4 49.715 49.715 7.4-7.4L8.492 34.359z"/><path d="M8.485 34.361l-7.4 7.401L50.8 91.478l7.4-7.401L8.485 34.36z"/><path d="M8.478 34.363l-7.4 7.4L50.792 91.48l7.4-7.4L8.479 34.362z"/><path d="M8.505 34.398L1.104 41.8l49.715 49.715 7.4-7.4L8.506 34.398z"/><path d="M8.498 34.4l-7.401 7.4 49.715 49.716 7.4-7.4L8.499 34.4z"/><path d="M8.49 34.402l-7.4 7.4 49.715 49.716 7.4-7.4L8.492 34.401z"/><path d="M8.484 34.404l-7.401 7.4L50.798 91.52l7.4-7.401L8.485 34.404z"/><path d="M8.477 34.406l-7.401 7.4L50.79 91.522l7.4-7.401L8.478 34.406z"/><path d="M8.503 34.44l-7.401 7.401 49.715 49.716 7.401-7.401L8.503 34.44z"/><path d="M8.496 34.442l-7.401 7.401L50.81 91.558l7.401-7.4L8.496 34.442z"/><path d="M8.489 34.444l-7.401 7.401L50.803 91.56l7.401-7.4L8.49 34.443z"/><path d="M8.482 34.446l-7.401 7.4 49.715 49.716 7.401-7.4L8.482 34.445z"/><path d="M8.475 34.448l-7.4 7.4 49.714 49.716 7.401-7.401L8.475 34.448z"/><path d="M8.501 34.483l-7.4 7.4L50.815 91.6l7.4-7.4L8.501 34.482z"/><path d="M8.494 34.485l-7.4 7.4 49.715 49.716 7.4-7.4L8.494 34.484z"/><path d="M8.487 34.487l-7.4 7.4L50.8 91.603l7.401-7.401L8.487 34.487z"/><path d="M8.48 34.489l-7.4 7.4 49.715 49.716 7.4-7.401L8.48 34.489z"/><path d="M8.473 34.49l-7.4 7.401 49.715 49.715 7.4-7.4L8.473 34.49z"/><path d="M8.5 34.525l-7.401 7.401 49.715 49.715 7.4-7.4L8.5 34.525z"/><path d="M8.492 34.527l-7.4 7.401 49.715 49.715 7.4-7.4L8.493 34.526z"/><path d="M8.485 34.53l-7.4 7.4L50.8 91.645l7.4-7.4L8.486 34.528z"/><path d="M8.478 34.53l-7.4 7.402 49.715 49.715 7.4-7.401L8.479 34.531z"/><path d="M8.472 34.533l-7.401 7.4L50.786 91.65l7.4-7.401L8.472 34.533z"/><path d="M8.498 34.568l-7.401 7.4 49.715 49.716 7.401-7.401L8.498 34.568z"/><path d="M8.49 34.57l-7.4 7.4 49.715 49.716 7.401-7.401L8.491 34.57z"/><path d="M8.484 34.571l-7.401 7.401 49.715 49.715 7.401-7.4L8.484 34.57z"/><path d="M8.444 34.606l-7.401 7.401 49.715 49.716 7.4-7.401L8.445 34.606z"/><path d="M8.437 34.608L1.036 42.01 50.75 91.724l7.4-7.4L8.438 34.607z"/><path d="M8.463 34.643l-7.401 7.401L50.777 91.76l7.401-7.4L8.463 34.643z"/><path d="M8.456 34.645l-7.401 7.4L50.77 91.762l7.401-7.4L8.456 34.644z"/><path d="M8.449 34.647l-7.401 7.4 49.715 49.716 7.401-7.4L8.45 34.646z"/><path d="M8.442 34.649l-7.4 7.4 49.714 49.716 7.401-7.401L8.442 34.649z"/><path d="M8.435 34.65l-7.4 7.401 49.714 49.716 7.401-7.401L8.435 34.65z"/><path d="M8.461 34.686l-7.4 7.4 49.715 49.716 7.4-7.401L8.461 34.686z"/><path d="M8.454 34.688l-7.4 7.4 49.715 49.716 7.4-7.401L8.454 34.687z"/><path d="M8.447 34.69l-7.4 7.4 49.715 49.715 7.4-7.4L8.447 34.688z"/><path d="M8.44 34.691l-7.4 7.401 49.715 49.715 7.4-7.4L8.44 34.69z"/><path d="M8.433 34.693l-7.4 7.4L50.747 91.81l7.4-7.4L8.433 34.692z"/><path d="M8.46 34.728l-7.401 7.4 49.715 49.716 7.4-7.4L8.46 34.727z"/><path d="M8.452 34.73l-7.4 7.4 49.715 49.716 7.4-7.401L8.453 34.73z"/><path d="M8.446 34.732l-7.401 7.4L50.76 91.849l7.4-7.401L8.447 34.732z"/><path d="M8.439 34.733l-7.401 7.401L50.753 91.85l7.4-7.401L8.44 34.733z"/><path d="M8.432 34.735L1.03 42.136l49.715 49.715 7.4-7.4L8.433 34.735z"/><path d="M8.458 34.77l-7.401 7.401 49.715 49.715 7.401-7.4L8.458 34.77z"/><path d="M8.45 34.772l-7.4 7.401 49.715 49.715 7.401-7.4L8.451 34.771z"/><path d="M8.444 34.774l-7.401 7.401L50.758 91.89l7.401-7.4L8.444 34.773z"/><path d="M8.437 34.776l-7.401 7.4 49.715 49.716 7.401-7.4L8.437 34.775z"/><path d="M8.43 34.778l-7.401 7.4 49.715 49.716 7.401-7.4L8.43 34.777z"/><path d="M8.456 34.813l-7.4 7.4L50.77 91.93l7.401-7.401L8.456 34.813z"/><path d="M8.45 34.815l-7.402 7.4 49.715 49.716 7.401-7.401L8.45 34.815z"/><path d="M8.442 34.816l-7.4 7.401 49.715 49.716 7.4-7.401L8.442 34.816z"/><path d="M8.435 34.818l-7.4 7.401 49.714 49.715 7.401-7.4L8.435 34.817z"/><path d="M8.428 34.82l-7.4 7.4 49.715 49.716 7.4-7.4L8.428 34.82z"/><path d="M8.454 34.855l-7.4 7.401 49.715 49.715 7.4-7.4L8.455 34.854z"/><path d="M8.447 34.857l-7.4 7.4 49.715 49.716 7.4-7.4L8.448 34.856z"/><path d="M8.44 34.859l-7.4 7.4 49.715 49.716 7.4-7.4L8.44 34.858z"/><path d="M8.433 34.86l-7.4 7.401 49.715 49.716 7.4-7.401L8.434 34.86z"/><path d="M8.426 34.863l-7.4 7.4L50.74 91.98l7.4-7.401L8.427 34.863z"/><path d="M8.453 34.898l-7.401 7.4 49.715 49.716 7.4-7.401L8.454 34.898z"/><path d="M8.446 34.9l-7.401 7.4L50.76 92.016l7.4-7.401L8.447 34.899z"/><path d="M8.439 34.901l-7.401 7.401 49.715 49.715 7.4-7.4L8.44 34.9z"/><path d="M8.432 34.903L1.03 42.304l49.715 49.715 7.401-7.4L8.432 34.902z"/><path d="M8.425 34.905l-7.401 7.4 49.715 49.716 7.401-7.4L8.425 34.904z"/><path d="M8.418 34.973l-7.401 7.401 49.715 49.715 7.401-7.4L8.418 34.972z"/><path d="M8.41 34.975l-7.4 7.4 49.715 49.716 7.401-7.4L8.411 34.974z"/><path d="M8.404 34.977l-7.401 7.4 49.715 49.716 7.401-7.4L8.404 34.976z"/><path d="M8.397 34.978L.996 42.38 50.71 92.095l7.401-7.401L8.397 34.978z"/><path d="M8.39 34.98L.989 42.382l49.715 49.716 7.401-7.401L8.39 34.98z"/><path d="M8.416 35.015l-7.4 7.401L50.73 92.132l7.401-7.401L8.416 35.015z"/><path d="M8.41 35.017l-7.402 7.401 49.715 49.715 7.401-7.4L8.41 35.017z"/><path d="M8.402 35.02l-7.4 7.4 49.715 49.715 7.4-7.4L8.402 35.018z"/><path d="M8.395 35.021l-7.4 7.4L50.71 92.138l7.4-7.4L8.395 35.02z"/><path d="M8.388 35.023l-7.4 7.4L50.702 92.14l7.4-7.401L8.388 35.023z"/><path d="M8.414 35.058l-7.4 7.4 49.715 49.716 7.4-7.4L8.415 35.057z"/><path d="M8.407 35.06l-7.4 7.4 49.715 49.716 7.4-7.401L8.408 35.06z"/><path d="M8.4 35.062l-7.4 7.4 49.715 49.716 7.4-7.401L8.4 35.062z"/><path d="M8.393 35.063l-7.4 7.401L50.708 92.18l7.4-7.4L8.394 35.062z"/><path d="M8.386 35.065l-7.4 7.401L50.7 92.181l7.4-7.4L8.387 35.064z"/><path d="M8.413 35.1l-7.401 7.401 49.715 49.715 7.4-7.4L8.414 35.1z"/><path d="M8.406 35.102l-7.401 7.4L50.72 92.219l7.4-7.4L8.407 35.101z"/><path d="M8.399 35.104l-7.401 7.4L50.713 92.22l7.401-7.401L8.399 35.104z"/><path d="M8.392 35.106l-7.401 7.4 49.715 49.716 7.401-7.401L8.392 35.106z"/><path d="M8.385 35.107L.984 42.508l49.715 49.716 7.401-7.401L8.385 35.107z"/><path d="M8.411 35.143l-7.4 7.4L50.724 92.26l7.401-7.401L8.411 35.143z"/><path d="M8.404 35.145l-7.4 7.4 49.714 49.716 7.401-7.401L8.404 35.145z"/><path d="M8.397 35.146l-7.4 7.401L50.71 92.262l7.401-7.4L8.397 35.146z"/><path d="M8.39 35.148l-7.4 7.4 49.714 49.716 7.401-7.4L8.39 35.147z"/><path d="M8.383 35.15l-7.4 7.4 49.714 49.716 7.401-7.4L8.383 35.15z"/><path d="M8.41 35.185l-7.402 7.4 49.716 49.716 7.4-7.4L8.41 35.184z"/><path d="M8.402 35.187l-7.4 7.4 49.715 49.716 7.4-7.401L8.402 35.187z"/><path d="M8.395 35.188l-7.4 7.401L50.71 92.305l7.4-7.401L8.396 35.189z"/><path d="M8.388 35.19l-7.4 7.401 49.715 49.716 7.4-7.401L8.389 35.19z"/><path d="M8.381 35.192l-7.4 7.401 49.715 49.715 7.4-7.4L8.382 35.192z"/><path d="M8.408 35.227l-7.401 7.401 49.715 49.715 7.4-7.4L8.409 35.227z"/><path d="M8.4 35.23L1 42.63l49.715 49.715 7.4-7.4L8.402 35.229z"/><path d="M8.394 35.231l-7.401 7.4 49.715 49.716 7.4-7.4L8.395 35.23z"/><path d="M8.387 35.233l-7.401 7.4L50.7 92.35l7.4-7.4L8.388 35.232z"/><path d="M8.38 35.235l-7.401 7.4 49.715 49.716 7.4-7.401L8.38 35.235z"/><path d="M8.406 35.27l-7.401 7.4L50.72 92.387l7.401-7.4L8.406 35.27z"/><path d="M8.399 35.272l-7.401 7.4 49.715 49.716 7.401-7.401L8.4 35.272z"/><path d="M8.359 35.307l-7.401 7.4 49.715 49.716 7.401-7.401L8.359 35.307z"/><path d="M8.352 35.308L.95 42.71l49.715 49.715 7.401-7.4L8.352 35.308z"/><path d="M8.345 35.31L.944 42.711l49.715 49.715 7.401-7.4L8.345 35.31z"/><path d="M8.371 35.345l-7.4 7.401 49.714 49.715 7.401-7.4L8.371 35.345z"/><path d="M8.364 35.347l-7.4 7.401 49.714 49.715 7.401-7.4L8.364 35.346z"/><path d="M8.357 35.349l-7.4 7.4L50.67 92.466l7.401-7.4L8.357 35.348z"/><path d="M8.35 35.35l-7.4 7.402 49.714 49.715 7.401-7.4L8.35 35.35z"/><path d="M8.343 35.353l-7.4 7.4L50.656 92.47l7.401-7.401L8.343 35.353z"/><path d="M8.37 35.388l-7.402 7.4 49.716 49.716 7.4-7.401L8.37 35.388z"/><path d="M8.362 35.39l-7.4 7.4 49.715 49.715 7.4-7.4L8.363 35.389z"/><path d="M8.355 35.391l-7.4 7.401L50.67 92.507l7.4-7.4L8.356 35.39z"/><path d="M8.348 35.393l-7.4 7.4L50.662 92.51l7.4-7.4L8.349 35.392z"/><path d="M8.341 35.395l-7.4 7.4 49.715 49.716 7.4-7.4L8.342 35.394z"/><path d="M8.368 35.43l-7.401 7.4 49.715 49.716 7.4-7.4L8.369 35.43z"/><path d="M8.36 35.432l-7.4 7.4 49.715 49.716 7.4-7.4L8.362 35.431z"/><path d="M8.354 35.434l-7.401 7.4L50.668 92.55l7.4-7.401L8.355 35.434z"/><path d="M8.347 35.436l-7.401 7.4L50.66 92.552l7.4-7.401L8.348 35.436z"/><path d="M8.34 35.437L.939 42.838l49.715 49.715 7.4-7.4L8.34 35.437z"/><path d="M8.366 35.472L.965 42.873 50.68 92.588l7.401-7.4L8.366 35.472z"/><path d="M8.359 35.474l-7.4 7.401L50.672 92.59l7.401-7.4L8.36 35.473z"/><path d="M8.352 35.476l-7.4 7.401 49.714 49.715 7.401-7.4L8.352 35.475z"/><path d="M8.345 35.478l-7.4 7.4 49.714 49.716 7.401-7.4L8.345 35.477z"/><path d="M8.338 35.48l-7.4 7.4 49.714 49.716 7.401-7.401L8.338 35.48z"/><path d="M8.364 35.515l-7.4 7.4 49.715 49.716 7.4-7.401L8.364 35.515z"/><path d="M8.357 35.517l-7.4 7.4 49.715 49.716 7.4-7.401L8.357 35.517z"/><path d="M8.35 35.518L.95 42.92l49.715 49.715 7.4-7.4L8.35 35.518z"/><path d="M8.343 35.52l-7.4 7.401 49.715 49.715 7.4-7.4L8.343 35.52z"/><path d="M8.336 35.522l-7.4 7.401L50.65 92.638l7.4-7.4L8.336 35.521z"/><path d="M8.363 35.557L.962 42.958l49.715 49.715 7.4-7.4L8.364 35.556z"/><path d="M8.356 35.559l-7.401 7.4L50.67 92.676l7.4-7.4L8.357 35.558z"/><path d="M8.349 35.56L.948 42.963l49.715 49.715 7.4-7.4L8.35 35.56z"/><path d="M8.342 35.563l-7.401 7.4L50.656 92.68l7.4-7.401L8.343 35.563z"/><path d="M8.335 35.565l-7.401 7.4 49.715 49.716 7.4-7.401L8.336 35.565z"/><path d="M8.328 35.566L.927 42.967l49.715 49.716 7.4-7.401L8.329 35.566z"/><path d="M8.354 35.601L.953 43.002l49.715 49.715 7.401-7.4L8.354 35.6z"/><path d="M8.347 35.603L.946 43.004 50.661 92.72l7.401-7.4L8.347 35.602z"/><path d="M8.34 35.605l-7.401 7.4 49.715 49.716 7.401-7.4L8.34 35.604z"/><path d="M8.3 35.64L.899 43.041l49.715 49.715 7.401-7.4L8.3 35.64z"/><path d="M8.293 35.642l-7.401 7.4 49.715 49.716 7.401-7.4L8.293 35.641z"/><path d="M8.319 35.677l-7.401 7.4 49.715 49.716 7.401-7.4L8.32 35.676z"/><path d="M8.312 35.679l-7.4 7.4 49.714 49.716 7.401-7.401L8.312 35.679z"/><path d="M8.305 35.68l-7.4 7.401 49.714 49.716 7.401-7.401L8.305 35.68z"/><path d="M8.298 35.682l-7.4 7.401L50.611 92.8l7.401-7.401L8.298 35.682z"/><path d="M8.291 35.684l-7.4 7.401L50.604 92.8l7.401-7.4L8.291 35.684z"/><path d="M8.317 35.72l-7.4 7.4 49.715 49.715 7.4-7.4L8.317 35.718z"/><path d="M8.31 35.721l-7.4 7.401 49.715 49.715 7.4-7.4L8.31 35.72z"/><path d="M8.303 35.723l-7.4 7.4L50.617 92.84l7.4-7.4L8.303 35.722z"/><path d="M8.296 35.725l-7.4 7.4L50.61 92.842l7.4-7.4L8.296 35.724z"/><path d="M8.29 35.727l-7.402 7.4 49.716 49.716 7.4-7.401L8.29 35.727z"/><path d="M8.316 35.762l-7.401 7.4L50.63 92.879l7.4-7.401L8.317 35.762z"/><path d="M8.309 35.763L.908 43.164 50.623 92.88l7.4-7.401L8.31 35.763z"/><path d="M8.302 35.765L.9 43.166l49.715 49.716 7.4-7.401L8.303 35.765z"/><path d="M8.295 35.767L.894 43.168l49.715 49.715 7.4-7.4L8.296 35.766z"/><path d="M8.288 35.77l-7.401 7.4 49.715 49.715 7.4-7.4L8.289 35.768z"/><path d="M8.314 35.804l-7.401 7.4L50.628 92.92l7.401-7.4L8.314 35.803z"/><path d="M8.307 35.806l-7.401 7.4 49.715 49.716 7.401-7.4L8.307 35.805z"/><path d="M8.3 35.808l-7.401 7.4 49.715 49.716 7.401-7.401L8.3 35.808z"/><path d="M8.293 35.81l-7.401 7.4 49.715 49.716 7.401-7.401L8.293 35.81z"/><path d="M8.286 35.811l-7.4 7.401L50.6 92.927l7.401-7.4L8.286 35.81z"/><path d="M8.312 35.846l-7.4 7.401 49.715 49.716 7.4-7.401L8.312 35.846z"/><path d="M8.305 35.848l-7.4 7.401L50.62 92.964l7.4-7.4L8.305 35.847z"/><path d="M8.298 35.85l-7.4 7.401 49.715 49.715 7.4-7.4L8.298 35.85z"/><path d="M8.291 35.852l-7.4 7.4 49.715 49.716 7.4-7.4L8.291 35.851z"/><path d="M8.284 35.854l-7.4 7.4L50.598 92.97l7.4-7.401L8.284 35.854z"/><path d="M8.31 35.889l-7.4 7.4 49.715 49.716 7.4-7.401L8.31 35.889z"/><path d="M8.303 35.89l-7.4 7.401 49.715 49.716 7.4-7.401L8.304 35.89z"/><path d="M8.296 35.892l-7.4 7.401L50.61 93.008l7.4-7.4L8.297 35.892z"/><path d="M8.29 35.894L.889 43.295 50.604 93.01l7.4-7.4L8.29 35.894z"/><path d="M8.283 35.896l-7.401 7.4 49.715 49.716 7.4-7.4L8.284 35.895z"/><path d="M8.309 35.931L.908 43.332l49.715 49.715 7.401-7.4L8.309 35.93z"/><path d="M8.302 35.933L.9 43.334l49.715 49.715 7.401-7.4L8.302 35.932z"/><path d="M8.295 35.935l-7.401 7.4 49.715 49.716 7.401-7.4L8.295 35.934z"/><path d="M8.288 35.937l-7.401 7.4 49.715 49.716 7.401-7.401L8.288 35.937z"/><path d="M8.28 35.938L.88 43.34l49.715 49.716 7.401-7.401L8.281 35.939z"/><path d="M8.274 36.007l-7.401 7.4 49.715 49.716 7.401-7.401L8.274 36.007z"/><path d="M8.267 36.009l-7.401 7.4 49.715 49.716 7.401-7.401L8.267 36.009z"/><path d="M8.26 36.01L.859 43.412l49.715 49.716 7.401-7.401L8.26 36.01z"/><path d="M8.253 36.012L.852 43.413l49.715 49.715 7.401-7.4L8.253 36.012z"/><path d="M8.246 36.014l-7.4 7.401L50.56 93.13l7.401-7.4L8.246 36.013z"/><path d="M8.272 36.05l-7.4 7.4 49.715 49.715 7.4-7.4L8.272 36.048z"/><path d="M8.265 36.051l-7.4 7.4L50.58 93.168l7.4-7.4L8.265 36.05z"/><path d="M8.258 36.053l-7.4 7.4L50.572 93.17l7.4-7.401L8.258 36.053z"/><path d="M8.251 36.055l-7.4 7.4 49.715 49.716 7.4-7.401L8.252 36.055z"/><path d="M8.244 36.056l-7.4 7.401 49.715 49.715 7.4-7.4L8.244 36.056z"/><path d="M8.27 36.092l-7.4 7.4 49.715 49.716 7.4-7.401L8.27 36.092z"/><path d="M8.263 36.093l-7.4 7.401L50.578 93.21l7.4-7.4L8.264 36.092z"/><path d="M8.256 36.095l-7.4 7.401L50.57 93.211l7.4-7.4L8.257 36.095z"/><path d="M8.25 36.097l-7.401 7.4 49.715 49.716 7.4-7.4L8.25 36.096z"/><path d="M8.243 36.099l-7.401 7.4 49.715 49.716 7.4-7.4L8.244 36.098z"/><path d="M8.269 36.134l-7.401 7.4L50.583 93.25l7.401-7.401L8.269 36.134z"/><path d="M8.262 36.136l-7.401 7.4 49.715 49.716 7.401-7.401L8.262 36.136z"/><path d="M8.255 36.138l-7.401 7.4 49.715 49.716 7.401-7.401L8.255 36.138z"/><path d="M8.248 36.14l-7.401 7.4 49.715 49.715 7.401-7.4L8.248 36.139z"/><path d="M8.24 36.141l-7.4 7.401 49.715 49.715 7.401-7.4L8.241 36.14z"/><path d="M8.267 36.176l-7.4 7.401L50.58 93.292l7.401-7.4L8.267 36.175z"/><path d="M8.26 36.178l-7.4 7.4 49.714 49.716 7.401-7.4L8.26 36.177z"/><path d="M8.253 36.18l-7.4 7.4 49.715 49.716 7.4-7.4L8.253 36.18z"/><path d="M8.246 36.182l-7.4 7.4L50.56 93.299l7.401-7.401L8.246 36.182z"/><path d="M8.24 36.184l-7.402 7.4L50.553 93.3l7.401-7.401L8.24 36.184z"/><path d="M8.265 36.218l-7.4 7.401L50.58 93.335l7.4-7.401L8.266 36.219z"/><path d="M8.258 36.22l-7.4 7.401 49.715 49.716 7.4-7.401L8.259 36.22z"/><path d="M8.251 36.222l-7.4 7.401 49.715 49.715 7.4-7.4L8.252 36.222z"/><path d="M8.244 36.224l-7.4 7.401L50.559 93.34l7.4-7.4L8.245 36.223z"/><path d="M8.237 36.226l-7.4 7.401 49.715 49.715 7.4-7.4L8.238 36.225z"/><path d="M8.264 36.261l-7.401 7.4 49.715 49.716 7.4-7.4L8.265 36.26z"/><path d="M8.257 36.263l-7.401 7.4L50.57 93.38l7.4-7.401L8.258 36.263z"/><path d="M8.25 36.265l-7.401 7.4 49.715 49.716 7.401-7.401L8.25 36.265z"/><path d="M8.243 36.267l-7.401 7.4 49.715 49.716 7.4-7.401L8.244 36.267z"/><path d="M8.236 36.268L.835 43.67 50.55 93.384l7.401-7.4L8.236 36.268z"/><path d="M8.262 36.303l-7.4 7.401L50.575 93.42l7.401-7.401L8.262 36.303z"/><path d="M8.255 36.305l-7.4 7.401 49.714 49.715 7.401-7.4L8.255 36.304z"/><path d="M8.215 36.34L.814 43.741l49.715 49.715 7.401-7.4L8.215 36.34z"/><path d="M8.208 36.342l-7.401 7.4 49.715 49.716 7.401-7.4L8.208 36.341z"/><path d="M8.2 36.344l-7.4 7.4L50.515 93.46l7.401-7.4L8.201 36.343z"/><path d="M8.227 36.379l-7.4 7.4 49.715 49.716 7.4-7.4L8.227 36.378z"/><path d="M8.22 36.38l-7.4 7.402 49.715 49.715 7.4-7.4L8.22 36.38z"/><path d="M8.213 36.383l-7.4 7.4L50.527 93.5l7.4-7.401L8.213 36.383z"/><path d="M8.206 36.385l-7.4 7.4L50.52 93.501l7.4-7.401L8.206 36.385z"/><path d="M8.2 36.386L.797 43.787l49.715 49.715 7.401-7.4L8.2 36.386z"/><path d="M8.225 36.421l-7.4 7.401L50.54 93.537l7.4-7.4L8.226 36.42z"/><path d="M8.218 36.423l-7.4 7.401 49.715 49.715 7.4-7.4L8.219 36.422z"/><path d="M8.211 36.425l-7.4 7.4 49.715 49.716 7.4-7.4L8.212 36.424z"/><path d="M8.204 36.427l-7.4 7.4 49.715 49.716 7.4-7.401L8.205 36.427z"/><path d="M8.197 36.429l-7.4 7.4 49.715 49.716 7.4-7.401L8.198 36.429z"/><path d="M8.224 36.464l-7.401 7.4L50.538 93.58l7.4-7.401L8.225 36.464z"/><path d="M8.217 36.466l-7.401 7.4L50.53 93.583l7.401-7.401L8.217 36.466z"/><path d="M8.21 36.467L.809 43.868l49.715 49.715 7.401-7.4L8.21 36.467z"/><path d="M8.203 36.47l-7.401 7.4 49.715 49.715 7.401-7.4L8.203 36.468z"/><path d="M8.196 36.471l-7.401 7.4L50.51 93.588l7.401-7.4L8.196 36.47z"/><path d="M8.222 36.506l-7.4 7.401 49.714 49.715 7.401-7.4L8.222 36.505z"/><path d="M8.215 36.508l-7.4 7.4 49.714 49.716 7.401-7.4L8.215 36.507z"/><path d="M8.208 36.51l-7.4 7.4 49.714 49.716 7.401-7.401L8.208 36.51z"/><path d="M8.201 36.511l-7.4 7.401 49.714 49.716 7.401-7.401L8.201 36.51z"/><path d="M8.194 36.513l-7.4 7.401L50.507 93.63l7.401-7.401L8.194 36.513z"/><path d="M8.22 36.548L.82 43.95l49.715 49.716 7.4-7.401L8.22 36.548z"/><path d="M8.213 36.55l-7.4 7.401 49.715 49.715 7.4-7.4L8.213 36.55z"/><path d="M8.206 36.552l-7.4 7.4L50.52 93.669l7.4-7.4L8.207 36.551z"/><path d="M8.2 36.554l-7.402 7.4L50.514 93.67l7.4-7.4L8.2 36.553z"/><path d="M8.192 36.556l-7.4 7.4 49.715 49.716 7.4-7.401L8.193 36.556z"/><path d="M8.219 36.59L.818 43.993l49.715 49.715 7.4-7.4L8.22 36.59z"/><path d="M8.212 36.593l-7.401 7.4L50.526 93.71l7.4-7.401L8.213 36.593z"/><path d="M8.205 36.594L.804 43.995l49.715 49.716 7.4-7.401L8.206 36.594z"/><path d="M8.198 36.596L.797 43.997l49.715 49.716 7.4-7.401L8.199 36.596z"/><path d="M8.19 36.598L.79 44l49.715 49.715 7.4-7.4L8.192 36.597z"/><path d="M8.217 36.633l-7.401 7.4L50.531 93.75l7.401-7.4L8.217 36.632z"/><path d="M8.21 36.635l-7.401 7.4 49.715 49.716 7.401-7.4L8.21 36.634z"/><path d="M8.203 36.637l-7.4 7.4 49.714 49.716 7.401-7.4L8.203 36.636z"/><path d="M8.163 36.672l-7.401 7.4 49.715 49.716 7.401-7.4L8.163 36.671z"/><path d="M8.156 36.674l-7.401 7.4L50.47 93.79l7.401-7.4L8.156 36.673z"/><path d="M8.182 36.709l-7.4 7.4 49.714 49.716 7.401-7.401L8.182 36.709z"/><path d="M8.175 36.71l-7.4 7.402 49.714 49.715 7.401-7.401L8.175 36.711z"/><path d="M8.168 36.712l-7.4 7.401L50.481 93.83l7.401-7.401L8.168 36.712z"/><path d="M8.161 36.714l-7.4 7.401L50.474 93.83l7.401-7.4L8.161 36.714z"/><path d="M8.154 36.716l-7.4 7.4 49.714 49.716 7.401-7.4L8.154 36.715z"/><path d="M8.18 36.751l-7.4 7.401 49.715 49.715 7.4-7.4L8.18 36.75z"/><path d="M8.173 36.753l-7.4 7.4L50.487 93.87l7.4-7.4L8.174 36.752z"/><path d="M8.166 36.755l-7.4 7.4L50.48 93.872l7.4-7.4L8.167 36.754z"/><path d="M8.16 36.757l-7.401 7.4 49.715 49.716 7.4-7.401L8.16 36.757z"/><path d="M8.152 36.759l-7.4 7.4 49.715 49.716 7.4-7.401L8.153 36.759z"/><path d="M8.179 36.794l-7.401 7.4L50.493 93.91l7.4-7.401L8.18 36.794z"/><path d="M8.172 36.795L.77 44.196l49.715 49.716 7.4-7.401L8.173 36.795z"/><path d="M8.165 36.797L.764 44.198l49.715 49.715 7.4-7.4L8.166 36.796z"/><path d="M8.158 36.8L.757 44.2l49.715 49.715 7.4-7.4L8.159 36.798z"/><path d="M8.15 36.8l-7.4 7.402 49.715 49.715 7.401-7.401L8.151 36.801z"/><path d="M8.177 36.836l-7.401 7.4 49.715 49.716 7.401-7.4L8.177 36.835z"/><path d="M8.17 36.838l-7.401 7.4 49.715 49.716 7.401-7.401L8.17 36.838z"/><path d="M8.163 36.84l-7.4 7.4 49.714 49.716 7.401-7.401L8.163 36.84z"/><path d="M8.156 36.841l-7.4 7.401L50.47 93.957l7.401-7.4L8.156 36.84z"/><path d="M8.149 36.843l-7.4 7.401L50.462 93.96l7.401-7.4L8.15 36.842z"/><path d="M8.175 36.878l-7.4 7.401L50.49 93.994l7.4-7.4L8.175 36.878z"/><path d="M8.168 36.88l-7.4 7.401 49.715 49.715 7.4-7.4L8.168 36.88z"/><path d="M8.161 36.882l-7.4 7.4 49.715 49.716 7.4-7.4L8.161 36.881z"/><path d="M8.154 36.884l-7.4 7.4L50.468 94l7.4-7.4L8.154 36.883z"/><path d="M8.147 36.886l-7.4 7.4 49.715 49.716 7.4-7.401L8.147 36.886z"/><path d="M8.173 36.92l-7.4 7.401 49.715 49.716 7.4-7.401L8.174 36.92z"/><path d="M8.167 36.922L.766 44.323 50.48 94.038l7.4-7.4L8.168 36.922z"/><path d="M8.16 36.924L.759 44.325 50.474 94.04l7.4-7.4L8.16 36.924z"/><path d="M8.153 36.926l-7.401 7.4 49.715 49.716 7.4-7.4L8.154 36.925z"/><path d="M8.146 36.928l-7.401 7.4L50.46 94.045l7.4-7.4L8.147 36.927z"/><path d="M8.172 36.963L.77 44.364l49.715 49.715 7.401-7.4L8.172 36.962z"/><path d="M8.165 36.965l-7.401 7.4 49.715 49.716 7.401-7.4L8.165 36.964z"/><path d="M8.158 36.967l-7.401 7.4 49.715 49.716 7.401-7.4L8.158 36.966z"/><path d="M8.15 36.968L.75 44.37l49.715 49.716 7.401-7.401L8.151 36.969z"/><path d="M8.144 36.97L.743 44.371l49.715 49.716 7.401-7.401L8.144 36.97z"/><path d="M8.137 37.039l-7.4 7.4L50.45 94.156l7.401-7.401L8.137 37.039z"/><path d="M8.13 37.04l-7.4 7.401 49.714 49.716 7.401-7.401L8.13 37.04z"/><path d="M8.123 37.042l-7.4 7.401 49.714 49.715 7.401-7.4L8.123 37.041z"/><path d="M8.116 37.044l-7.4 7.401L50.43 94.16l7.401-7.4L8.116 37.043z"/><path d="M8.109 37.046l-7.4 7.4 49.714 49.716 7.401-7.4L8.11 37.045z"/><path d="M8.135 37.08l-7.4 7.402L50.45 94.197l7.4-7.4L8.135 37.08z"/><path d="M8.128 37.083l-7.4 7.4L50.442 94.2l7.4-7.401L8.128 37.083z"/><path d="M8.121 37.085l-7.4 7.4 49.715 49.716 7.4-7.401L8.121 37.085z"/><path d="M8.114 37.086l-7.4 7.401 49.715 49.716 7.4-7.401L8.114 37.086z"/><path d="M8.107 37.088l-7.4 7.401 49.715 49.715 7.4-7.4L8.108 37.088z"/><path d="M8.133 37.123l-7.4 7.401L50.448 94.24l7.4-7.4L8.134 37.123z"/><path d="M8.127 37.125L.726 44.526 50.44 94.241l7.4-7.4L8.128 37.125z"/><path d="M8.12 37.127l-7.401 7.4 49.715 49.716 7.4-7.4L8.12 37.126z"/><path d="M8.113 37.129l-7.401 7.4 49.715 49.716 7.4-7.4L8.114 37.128z"/><path d="M8.106 37.13L.705 44.532 50.42 94.248l7.4-7.401L8.107 37.13z"/><path d="M8.132 37.166l-7.401 7.4 49.715 49.716 7.401-7.401L8.132 37.166z"/><path d="M8.125 37.167L.724 44.569l49.715 49.716 7.401-7.401L8.125 37.168z"/><path d="M8.118 37.17l-7.401 7.4 49.715 49.716 7.401-7.401L8.118 37.169z"/><path d="M8.11 37.171l-7.4 7.401 49.715 49.715 7.401-7.4L8.111 37.17z"/><path d="M8.104 37.173L.703 44.574l49.715 49.715 7.401-7.4L8.104 37.172z"/><path d="M8.13 37.208l-7.4 7.4 49.715 49.716 7.4-7.4L8.13 37.207z"/><path d="M8.123 37.21l-7.4 7.4 49.715 49.716 7.4-7.4L8.123 37.21z"/><path d="M8.116 37.212l-7.4 7.4L50.43 94.328l7.4-7.401L8.116 37.212z"/><path d="M8.11 37.214l-7.402 7.4L50.424 94.33l7.4-7.401L8.11 37.214z"/><path d="M8.102 37.215l-7.4 7.401 49.715 49.716 7.4-7.401L8.102 37.215z"/><path d="M8.128 37.25l-7.4 7.401 49.715 49.716 7.4-7.401L8.129 37.25z"/><path d="M8.121 37.252l-7.4 7.401 49.715 49.715 7.4-7.4L8.122 37.252z"/><path d="M8.114 37.254l-7.4 7.401L50.429 94.37l7.4-7.4L8.115 37.253z"/><path d="M8.107 37.256l-7.4 7.4 49.715 49.716 7.4-7.4L8.108 37.255z"/><path d="M8.1 37.258l-7.4 7.4 49.715 49.716 7.4-7.4L8.102 37.257z"/><path d="M8.127 37.293l-7.401 7.4L50.44 94.41l7.401-7.401L8.127 37.293z"/><path d="M8.12 37.295l-7.401 7.4 49.715 49.716 7.401-7.401L8.12 37.295z"/><path d="M8.113 37.296L.712 44.697l49.715 49.715 7.401-7.4L8.113 37.296z"/><path d="M8.106 37.298L.705 44.7 50.42 94.414l7.401-7.4L8.106 37.298z"/><path d="M8.099 37.3L.698 44.701l49.715 49.715 7.401-7.4L8.1 37.3z"/><path d="M8.125 37.335l-7.4 7.401 49.714 49.715 7.401-7.4L8.125 37.334z"/><path d="M8.118 37.337l-7.4 7.401 49.714 49.715 7.401-7.4L8.118 37.336z"/><path d="M8.078 37.372l-7.401 7.4 49.715 49.716 7.401-7.4L8.078 37.371z"/><path d="M8.07 37.374l-7.4 7.4L50.385 94.49l7.401-7.401L8.071 37.374z"/><path d="M8.064 37.376l-7.4 7.4 49.714 49.716 7.401-7.401L8.064 37.376z"/><path d="M8.09 37.41l-7.4 7.402 49.715 49.715 7.4-7.4L8.09 37.41z"/><path d="M8.083 37.413l-7.4 7.4L50.397 94.53l7.4-7.401L8.083 37.413z"/><path d="M8.076 37.415l-7.4 7.4L50.39 94.531l7.4-7.401L8.076 37.415z"/><path d="M8.07 37.416L.667 44.817l49.716 49.715 7.4-7.4L8.07 37.416z"/><path d="M8.062 37.418l-7.4 7.401 49.715 49.715 7.4-7.4L8.063 37.417z"/><path d="M8.088 37.453l-7.4 7.401 49.715 49.715 7.4-7.4L8.089 37.452z"/><path d="M8.081 37.455l-7.4 7.401 49.715 49.715 7.4-7.4L8.082 37.454z"/><path d="M8.074 37.457l-7.4 7.4 49.715 49.716 7.4-7.401L8.075 37.457z"/><path d="M8.067 37.459l-7.4 7.4 49.715 49.716 7.4-7.401L8.068 37.459z"/><path d="M8.06 37.46l-7.4 7.401 49.715 49.716 7.4-7.401L8.06 37.46z"/><path d="M8.087 37.496l-7.401 7.4L50.4 94.613l7.401-7.401L8.087 37.496z"/><path d="M8.08 37.497L.679 44.898l49.715 49.715 7.401-7.4L8.08 37.497z"/><path d="M8.073 37.5L.672 44.9l49.715 49.715 7.401-7.4L8.073 37.498z"/><path d="M8.066 37.501l-7.401 7.4L50.38 94.618l7.401-7.4L8.066 37.5z"/><path d="M8.059 37.503l-7.401 7.4L50.373 94.62l7.401-7.4L8.06 37.502z"/><path d="M8.052 37.505l-7.401 7.4 49.715 49.716 7.401-7.401L8.052 37.505z"/><path d="M8.078 37.54l-7.4 7.4 49.715 49.716 7.4-7.4L8.078 37.54z"/><path d="M8.071 37.541l-7.4 7.401 49.715 49.716 7.4-7.401L8.071 37.54z"/><path d="M8.064 37.544l-7.4 7.4L50.378 94.66l7.4-7.401L8.064 37.544z"/><path d="M8.057 37.545l-7.4 7.401 49.715 49.715 7.4-7.4L8.057 37.544z"/><path d="M8.05 37.547l-7.4 7.401 49.715 49.715 7.4-7.4L8.05 37.546z"/><path d="M8.076 37.582l-7.4 7.4L50.39 94.699l7.4-7.4L8.077 37.581z"/><path d="M8.07 37.584l-7.401 7.4L50.384 94.7l7.4-7.4L8.07 37.583z"/><path d="M8.062 37.586l-7.4 7.4 49.715 49.716 7.4-7.401L8.063 37.586z"/><path d="M8.055 37.588l-7.4 7.4L50.37 94.704l7.4-7.401L8.056 37.588z"/><path d="M8.048 37.59l-7.4 7.4 49.715 49.716 7.4-7.401L8.049 37.59z"/><path d="M8.075 37.624L.674 45.025l49.715 49.716 7.4-7.401L8.076 37.624z"/><path d="M8.068 37.626L.667 45.027l49.715 49.715 7.401-7.4L8.068 37.625z"/><path d="M8.06 37.628L.66 45.03l49.715 49.715 7.401-7.4L8.061 37.628z"/><path d="M8.054 37.63l-7.401 7.4 49.715 49.716 7.401-7.4L8.054 37.63z"/><path d="M8.047 37.632l-7.401 7.4L50.36 94.749l7.401-7.4L8.047 37.631z"/><path d="M8.073 37.667l-7.4 7.4 49.714 49.716 7.401-7.401L8.073 37.667z"/><path d="M8.066 37.669l-7.4 7.4L50.38 94.786l7.401-7.401L8.066 37.669z"/><path d="M8.059 37.67l-7.4 7.401 49.714 49.716 7.401-7.401L8.06 37.67z"/><path d="M8.019 37.706l-7.401 7.4 49.715 49.716 7.401-7.401L8.02 37.706z"/><path d="M8.012 37.708l-7.401 7.4 49.715 49.716 7.401-7.401L8.012 37.708z"/><path d="M8.038 37.742l-7.4 7.401L50.352 94.86l7.4-7.401L8.038 37.742z"/><path d="M8.031 37.744l-7.4 7.401L50.345 94.86l7.4-7.4L8.031 37.743z"/><path d="M8.024 37.746l-7.4 7.401 49.715 49.715 7.4-7.4L8.024 37.745z"/><path d="M8.017 37.748l-7.4 7.4 49.715 49.716 7.4-7.4L8.017 37.747z"/><path d="M8.01 37.75l-7.4 7.4 49.715 49.716 7.4-7.401L8.01 37.75z"/><path d="M8.036 37.785l-7.4 7.4L50.35 94.902l7.4-7.4L8.037 37.784z"/><path d="M8.03 37.787l-7.401 7.4 49.715 49.716 7.4-7.401L8.03 37.787z"/><path d="M8.022 37.789l-7.4 7.4 49.715 49.716 7.4-7.401L8.023 37.789z"/><path d="M8.015 37.79l-7.4 7.401L50.33 94.906l7.4-7.4L8.016 37.79z"/><path d="M8.008 37.792l-7.4 7.401 49.715 49.715 7.4-7.4L8.009 37.791z"/><path d="M8.035 37.827L.634 45.228l49.715 49.715 7.4-7.4L8.036 37.826z"/><path d="M8.028 37.83l-7.401 7.4 49.715 49.715 7.4-7.4L8.029 37.828z"/><path d="M8.02 37.83l-7.4 7.402 49.715 49.715 7.401-7.4L8.021 37.83z"/><path d="M8.014 37.833l-7.401 7.4L50.328 94.95l7.401-7.401L8.014 37.833z"/><path d="M8.007 37.834L.606 45.236 50.32 94.951l7.401-7.401L8.007 37.835z"/><path d="M8.033 37.87l-7.4 7.4 49.714 49.716 7.401-7.401L8.033 37.87z"/><path d="M8.026 37.871l-7.4 7.401L50.34 94.987l7.401-7.4L8.026 37.87z"/><path d="M8.019 37.873l-7.4 7.401L50.332 94.99l7.401-7.4L8.02 37.872z"/><path d="M8.012 37.875l-7.4 7.4 49.714 49.716 7.401-7.4L8.012 37.874z"/><path d="M8.005 37.877l-7.4 7.4 49.714 49.716 7.401-7.4L8.005 37.876z"/><path d="M8.031 37.912l-7.4 7.4 49.715 49.716 7.4-7.4L8.031 37.911z"/><path d="M8.024 37.914l-7.4 7.4L50.338 95.03l7.4-7.4L8.025 37.913z"/><path d="M8.017 37.916l-7.4 7.4 49.715 49.716 7.4-7.401L8.018 37.916z"/><path d="M8.01 37.917l-7.4 7.401 49.715 49.716 7.4-7.401L8.01 37.918z"/><path d="M8.003 37.92l-7.4 7.4 49.715 49.715 7.4-7.4L8.004 37.919z"/><path d="M8.03 37.954L.629 45.355 50.344 95.07l7.4-7.4L8.03 37.954z"/><path d="M8.023 37.956l-7.401 7.4 49.715 49.716 7.4-7.4L8.024 37.955z"/><path d="M8.016 37.958l-7.401 7.4L50.33 95.075l7.4-7.4L8.017 37.957z"/><path d="M8.009 37.96l-7.401 7.4 49.715 49.716 7.4-7.4L8.01 37.96z"/><path d="M8.002 37.962L.6 45.362l49.715 49.716 7.4-7.401L8.003 37.962z"/><path d="M8.028 37.997l-7.401 7.4 49.715 49.716 7.401-7.401L8.028 37.997z"/><path d="M8.02 37.998L.62 45.4l49.715 49.716 7.401-7.401L8.021 37.999z"/><path d="M8.014 38l-7.4 7.401 49.714 49.715 7.401-7.4L8.014 38z"/><path d="M8.007 38.002l-7.4 7.401L50.32 95.118l7.401-7.4L8.007 38.002z"/><path d="M8 38.004L.6 45.405 50.313 95.12l7.401-7.4L8 38.003z"/><path d="M7.993 38.072l-7.4 7.401 49.714 49.715 7.401-7.4L7.993 38.071z"/><path d="M7.986 38.074l-7.4 7.401L50.3 95.19l7.401-7.4L7.986 38.074z"/><path d="M7.979 38.076l-7.4 7.4 49.714 49.716 7.401-7.4L7.98 38.075z"/><path d="M7.972 38.078l-7.4 7.4 49.714 49.716 7.401-7.4L7.972 38.077z"/><path d="M7.965 38.08l-7.4 7.4L50.28 95.197l7.4-7.401L7.965 38.08z"/><path d="M7.991 38.114l-7.4 7.401 49.715 49.716 7.4-7.401L7.991 38.115z"/><path d="M7.984 38.117l-7.4 7.4 49.715 49.716 7.4-7.401L7.985 38.117z"/><path d="M7.977 38.118l-7.4 7.401 49.715 49.715 7.4-7.4L7.978 38.118z"/><path d="M7.97 38.12l-7.4 7.401 49.715 49.715 7.4-7.4L7.97 38.12z"/><path d="M7.963 38.122l-7.4 7.4 49.715 49.716 7.4-7.4L7.964 38.121z"/><path d="M7.99 38.157l-7.401 7.4 49.715 49.716 7.4-7.4L7.99 38.156z"/><path d="M7.983 38.159l-7.401 7.4 49.715 49.716 7.4-7.4L7.984 38.158z"/><path d="M7.976 38.16L.575 45.563 50.29 95.276l7.4-7.401L7.977 38.16z"/><path d="M7.969 38.163l-7.401 7.4L50.283 95.28l7.4-7.401L7.97 38.163z"/><path d="M7.962 38.164L.56 45.565 50.276 95.28l7.4-7.4L7.963 38.163z"/><path d="M7.988 38.2L.587 45.6l49.715 49.716 7.401-7.401L7.988 38.199z"/><path d="M7.98 38.201l-7.4 7.401 49.715 49.715 7.401-7.4L7.981 38.2z"/><path d="M7.974 38.203l-7.4 7.401 49.714 49.715 7.401-7.4L7.974 38.202z"/><path d="M7.967 38.205l-7.4 7.4L50.28 95.322l7.401-7.4L7.967 38.204z"/><path d="M7.96 38.207l-7.4 7.4 49.714 49.716 7.401-7.401L7.96 38.207z"/><path d="M7.986 38.242l-7.4 7.4L50.3 95.359l7.4-7.401L7.986 38.242z"/><path d="M7.98 38.244l-7.402 7.4L50.294 95.36l7.4-7.401L7.98 38.244z"/><path d="M7.972 38.245l-7.4 7.401 49.715 49.716 7.4-7.401L7.972 38.245z"/><path d="M7.965 38.247l-7.4 7.401L50.28 95.363l7.4-7.4L7.965 38.247z"/><path d="M7.958 38.249l-7.4 7.4 49.715 49.716 7.4-7.4L7.959 38.248z"/><path d="M7.984 38.284l-7.4 7.401L50.299 95.4l7.4-7.4L7.985 38.283z"/><path d="M7.978 38.286l-7.401 7.4 49.715 49.716 7.4-7.4L7.978 38.285z"/><path d="M7.97 38.288l-7.4 7.4 49.715 49.716 7.4-7.4L7.972 38.287z"/><path d="M7.964 38.29l-7.401 7.4 49.715 49.716 7.4-7.401L7.965 38.29z"/><path d="M7.957 38.291L.556 45.692 50.27 95.408l7.4-7.401L7.958 38.29z"/><path d="M7.983 38.326L.582 45.727l49.715 49.715 7.401-7.4L7.983 38.326z"/><path d="M7.976 38.328L.575 45.73 50.29 95.445l7.401-7.401L7.976 38.328z"/><path d="M7.969 38.33L.568 45.731l49.715 49.715 7.401-7.4L7.97 38.33z"/><path d="M7.962 38.332l-7.401 7.4 49.715 49.716 7.401-7.4L7.962 38.331z"/><path d="M7.955 38.334l-7.401 7.4L50.269 95.45l7.401-7.4L7.955 38.333z"/><path d="M7.981 38.369l-7.4 7.4 49.714 49.716 7.401-7.4L7.981 38.368z"/><path d="M7.974 38.37l-7.4 7.402 49.715 49.715 7.4-7.401L7.974 38.37z"/><path d="M7.934 38.406l-7.4 7.4 49.714 49.716 7.401-7.401L7.934 38.406z"/><path d="M7.927 38.408l-7.4 7.4L50.24 95.525l7.401-7.401L7.927 38.408z"/><path d="M7.92 38.41l-7.4 7.4 49.714 49.715 7.401-7.4L7.92 38.409z"/><path d="M7.946 38.445l-7.4 7.4L50.26 95.561l7.4-7.401L7.946 38.445z"/><path d="M7.94 38.446L.537 45.847l49.716 49.715 7.4-7.4L7.94 38.446z"/><path d="M7.932 38.448l-7.4 7.4 49.715 49.716 7.4-7.4L7.932 38.447z"/><path d="M7.925 38.45l-7.4 7.4L50.24 95.567l7.4-7.4L7.925 38.45z"/><path d="M7.918 38.452l-7.4 7.4 49.715 49.716 7.4-7.401L7.919 38.452z"/><path d="M7.945 38.487l-7.401 7.4 49.715 49.716 7.4-7.4L7.946 38.486z"/><path d="M7.938 38.489l-7.401 7.4 49.715 49.716 7.4-7.4L7.939 38.488z"/><path d="M7.93 38.49l-7.4 7.401 49.715 49.716 7.4-7.401L7.932 38.49z"/><path d="M7.924 38.492L.523 45.893 50.238 95.61l7.4-7.401L7.925 38.492z"/><path d="M7.917 38.494L.516 45.895 50.23 95.61l7.4-7.4L7.918 38.493z"/><path d="M7.943 38.53l-7.401 7.4 49.715 49.715 7.401-7.4L7.943 38.529z"/><path d="M7.936 38.531l-7.401 7.4L50.25 95.648l7.401-7.4L7.936 38.53z"/><path d="M7.929 38.533l-7.401 7.4L50.243 95.65l7.401-7.4L7.93 38.532z"/><path d="M7.922 38.535l-7.401 7.4 49.715 49.716 7.401-7.401L7.922 38.535z"/><path d="M7.915 38.537l-7.401 7.4 49.715 49.716 7.401-7.401L7.915 38.537z"/><path d="M7.941 38.572l-7.4 7.4 49.715 49.716 7.4-7.401L7.941 38.57z"/><path d="M7.934 38.574l-7.4 7.4L50.247 95.69l7.401-7.401L7.934 38.574z"/><path d="M7.937 38.551L.521 45.968l49.704 49.704 7.416-7.415L7.937 38.55z"/></g><defs><clipPath id="clip0_0_2028"><path fill="#fff" transform="translate(.193 .769)" d="M0 0h60.546v95.231H0z"/></clipPath></defs></svg>