<svg width="150" height="78" viewBox="0 0 150 78" fill="none" xmlns="http://www.w3.org/2000/svg">
<g clip-path="url(#clip0_201_20102)">
<mask id="mask0_201_20102" style="mask-type:alpha" maskUnits="userSpaceOnUse" x="0" y="12" width="25" height="65">
<path d="M0 12.6418H24.9186V76.4999H0V12.6418Z" fill="white"/>
</mask>
<g mask="url(#mask0_201_20102)">
<path fill-rule="evenodd" clip-rule="evenodd" d="M24.9182 44.5711V74.6537C24.9182 76.5914 25.0112 76.4993 22.9712 76.4993H20.0042C19.1698 76.4071 19.0772 76.3146 19.0772 75.5763C18.9838 75.2077 19.0772 74.8384 19.0772 74.4694C19.0772 66.4406 19.0772 58.4126 18.9838 50.4763V48.7233C18.9838 48.6308 18.9838 48.4465 18.7986 48.4465C18.7061 48.4465 18.6135 48.6308 18.6135 48.7233C18.3353 50.0152 18.0568 51.2146 17.8716 52.507C17.1298 56.7517 16.3879 60.9965 15.6461 65.3333L15.4605 66.0717C15.2754 66.9025 15.1828 66.9946 14.3479 66.9946H10.5461C9.43396 66.9946 9.34097 66.9946 9.15582 65.7953C8.50654 61.919 7.85727 58.0432 7.11542 54.1679L6.28099 49.5537C6.28099 49.4616 6.18841 49.2769 6.00326 49.2769C5.91027 49.2769 5.91027 49.5537 5.91027 49.6463C5.91027 50.2921 5.81769 50.8457 5.81769 51.4919C5.81769 59.0588 5.81769 66.5336 5.81769 74.1001V75.0231C5.81769 76.3146 5.81769 76.3146 4.42657 76.4071C3.314 76.4071 2.10885 76.4071 0.995872 76.3146C0.0688689 76.3146 0.068869 76.2224 -0.0237074 75.2999C-0.0237074 75.0231 -0.0237074 74.7458 -0.0237074 74.4694V14.4877C-0.0237074 12.55 -0.116697 12.6425 1.83071 12.6425H4.70513C5.72512 12.6425 5.81769 12.7347 6.00326 13.7498L7.11542 19.9322C8.69169 29.0679 10.2684 38.2957 11.9372 47.4314V47.6161C12.1228 47.8925 11.9372 48.5386 12.4009 48.5386C12.7717 48.5386 12.6791 47.9854 12.7717 47.6161C13.2358 45.0322 13.6991 42.5405 14.0702 39.957C15.6461 31.2828 17.1298 22.6082 18.7061 13.9341C18.8912 12.6425 18.8912 12.6425 20.1898 12.6425H23.8056C24.8256 12.6425 24.8256 12.7347 24.9182 13.8419C24.9182 14.2113 24.9182 14.5802 24.9182 14.9492V44.5711Z" fill="#643C28"/>
</g>
<path fill-rule="evenodd" clip-rule="evenodd" d="M61.8215 29.0795C61.8215 32.0259 61.8215 34.9727 61.8215 38.0115V38.8397C61.9134 39.5764 62.097 39.7611 62.9252 39.6683C63.2011 39.6683 63.4771 39.5764 63.753 39.4845C65.3167 38.7478 66.1444 37.551 66.2363 35.7094V29.2638C66.2363 26.9618 66.2363 24.7521 66.1444 22.4501C66.1444 20.6085 65.0408 19.2271 63.3852 18.675C62.1893 18.3065 61.8215 18.5827 61.8215 19.7799V29.0795ZM56.0264 44.8252V14.6234C56.0264 12.9661 56.0264 12.9661 57.6823 12.9661H62.833C67.5245 12.9661 71.6637 16.925 71.7555 21.7134C71.8474 26.5936 71.8474 31.5659 71.7555 36.5381C71.7555 38.5635 70.9278 40.3131 69.6396 41.9704C69.0881 42.7071 69.0881 42.7071 69.6396 43.4438C70.9278 45.1934 71.5714 47.1269 71.5714 49.337C71.4792 57.808 71.5714 66.3714 71.5714 74.8424C71.5714 76.5001 71.4792 76.5001 69.9159 76.5001H66.8804C66.2363 76.5001 65.9608 76.2239 65.9608 75.671C65.9608 75.3033 65.9608 74.9347 65.9608 74.5666V49.7975C65.9608 48.4164 65.5926 47.2188 64.4889 46.2063C64.0293 45.8382 63.4771 45.5615 62.833 45.4696C62.097 45.3773 61.9134 45.5615 61.8215 46.2982C61.8215 46.6668 61.8215 47.0349 61.8215 47.4954V74.7505C61.8215 76.5001 61.8215 76.5001 60.0738 76.5001H56.9464C56.3023 76.5001 56.0264 76.2239 56.0264 75.671C56.0264 75.3033 56.0264 74.9347 56.0264 74.5666V44.8252Z" fill="#643C28"/>
<path fill-rule="evenodd" clip-rule="evenodd" d="M85.3076 76.5001H79.9385C78.9202 76.5001 78.8277 76.4081 78.8277 75.3034C78.8277 75.0272 78.8277 74.7506 78.8277 74.4748V14.9035C78.8277 12.7863 78.7353 12.9702 80.8639 12.9702H89.9358C91.417 12.9702 91.417 12.9702 91.5099 14.4435V17.6654C91.417 18.7706 91.417 18.863 90.3063 18.863H85.863C84.7523 18.863 84.6599 18.9549 84.6599 19.9673V37.4615C84.6599 38.474 84.7523 38.5663 85.9554 38.5663C86.9741 38.6582 88.0849 38.5663 89.1028 38.6582C89.9358 38.6582 90.0286 38.7502 90.1211 39.5787V43.7221C90.0286 44.5506 89.9358 44.6434 89.0103 44.6434H85.9554C84.7523 44.7353 84.6599 44.7353 84.6599 45.932V58.1781C84.6599 61.4924 84.6599 64.7148 84.6599 68.0296V68.8582C84.6599 70.4234 84.6599 70.4234 86.1407 70.4234H90.0286C91.7871 70.4234 91.7871 70.4234 91.7871 72.2648C91.8796 73.2777 91.8796 74.2905 91.7871 75.3034C91.7871 76.4081 91.6947 76.5001 90.584 76.5001H85.3076Z" fill="#643C28"/>
<mask id="mask1_201_20102" style="mask-type:alpha" maskUnits="userSpaceOnUse" x="98" y="12" width="30" height="66">
<path d="M98.208 12.4799H127.035V77.4725H98.208V12.4799Z" fill="white"/>
</mask>
<g mask="url(#mask1_201_20102)">
<path fill-rule="evenodd" clip-rule="evenodd" d="M98.208 44.8621V14.7866C98.208 13.1313 98.208 13.1313 99.8649 13.1313C100.969 13.1313 101.982 13.0394 103.087 13.1313C103.915 13.1313 104.007 13.2231 104.007 14.0512C104.007 14.3267 104.007 14.6948 104.007 15.0625V74.6612C104.007 76.6843 104.192 76.5925 102.074 76.5925H99.0364C98.4837 76.5925 98.208 76.3166 98.208 75.7648C98.208 75.3971 98.208 75.0289 98.208 74.6612V44.8621Z" fill="#643C28"/>
<path fill-rule="evenodd" clip-rule="evenodd" d="M109.936 63.3486C109.936 61.2328 109.936 59.2097 110.029 57.094C110.029 55.8986 110.029 55.8986 111.226 55.8986C112.514 55.8986 113.803 55.8068 115.092 55.8986C116.104 55.8986 116.196 55.9904 116.196 57.0022C116.196 60.5892 116.196 64.1763 116.196 67.7633V69.0505C116.38 70.2464 117.393 71.1663 118.498 71.1663C119.695 71.1663 120.615 70.1545 120.615 68.8665C120.707 67.0275 120.615 65.0962 120.707 63.2563C120.799 59.3016 120.063 55.5305 118.59 51.8516L111.686 33.0895C110.581 29.9624 109.845 26.6512 109.936 23.2483C110.029 22.3283 109.936 21.5007 109.936 20.5811C110.121 16.0742 113.803 12.6712 118.222 12.4871C122.456 12.3035 126.875 15.6146 126.967 20.9489C127.059 22.7883 126.967 24.6277 126.967 26.5594C126.967 27.5708 126.875 27.663 125.862 27.663H121.72C120.799 27.663 120.707 27.5708 120.707 26.6512V21.4088C120.707 20.673 120.523 20.0289 119.971 19.4772C118.774 18.2817 117.025 18.6495 116.38 20.213C116.289 20.5811 116.196 20.857 116.196 21.2252C116.012 24.4437 116.38 27.663 117.577 30.6983L125.31 51.7598C126.415 54.7028 126.875 57.8299 126.967 60.9574C127.059 63.6245 127.059 66.2916 126.967 68.9587C126.875 73.4657 123.745 76.9605 119.234 77.4201C114.447 77.9723 110.029 74.1089 110.029 69.235C109.936 67.3029 109.936 65.3717 109.936 63.3486Z" fill="#643C28"/>
</g>
<path fill-rule="evenodd" clip-rule="evenodd" d="M150 44.735V74.658C150 76.5913 150 76.4994 148.053 76.4994H145.552C144.624 76.4075 144.532 76.4075 144.439 75.3946C144.439 75.0265 144.439 74.658 144.439 74.2899V46.4845C144.439 44.643 144.439 44.643 142.678 44.643H139.991C139.342 44.643 139.064 44.9188 139.064 45.5635C139.064 45.9317 139.064 46.2998 139.064 46.6683V74.658C139.064 76.4994 139.064 76.4994 137.211 76.4994H134.245C133.411 76.4075 133.318 76.3151 133.225 75.4865C133.225 75.1184 133.225 74.8422 133.225 74.4741V14.9035C133.225 12.7863 133.133 12.9702 135.264 12.9702H138.23C138.786 12.9702 139.064 13.1544 139.064 13.7987V14.9035C139.064 22.0853 139.064 29.2666 139.064 36.4484V37.1851C139.064 38.566 139.157 38.566 140.454 38.566H143.605C144.161 38.566 144.439 38.2898 144.439 37.737C144.439 37.3693 144.439 37.0004 144.439 36.6327V14.9035C144.439 14.5354 144.532 14.1668 144.439 13.7987C144.439 13.1544 144.81 12.9702 145.366 12.9702H149.073C149.629 12.9702 150 13.1544 149.907 13.7987C149.907 14.2588 150 14.6273 150 14.9954V44.735Z" fill="#643C28"/>
<path fill-rule="evenodd" clip-rule="evenodd" d="M48.3589 76.1759H32.5859C32.2193 76.1759 31.9219 75.8892 31.9219 75.5355V71.1433C31.9219 70.7899 32.2193 70.5032 32.5859 70.5032H48.3589C48.7254 70.5032 49.0228 70.7899 49.0228 71.1433V75.5355C49.0228 75.8892 48.7254 76.1759 48.3589 76.1759Z" fill="#26B1AD"/>
<path fill-rule="evenodd" clip-rule="evenodd" d="M38.1152 34.7662C38.1574 34.7851 38.2005 34.8086 38.2428 34.8284V9.15854C38.2428 8.78906 38.1496 8.41876 38.2428 8.04846C38.4283 7.03076 39.3578 6.29098 40.3801 6.29098C41.4024 6.29098 42.4247 7.03076 42.6107 8.14124V9.43647C42.6107 17.115 42.6107 26.2138 42.6107 33.8V37.6679C42.6513 37.6914 42.6923 37.717 42.7329 37.7397C45.0621 39.0456 47.2666 39.55 49.0228 39.7087V9.80636C49.0228 9.15854 48.9296 8.51113 48.8369 7.86373C48.7441 3.60775 44.7477 0 40.3801 0C35.9194 0 31.8306 3.97805 31.9234 8.41876C32.0162 16.3749 31.9234 25.8435 31.9234 33.8V34.3365C33.6354 33.8577 35.8009 33.7266 38.1152 34.7662Z" fill="#643C28"/>
<path fill-rule="evenodd" clip-rule="evenodd" d="M32.0147 59.2038C32.7583 62.8869 35.9182 65.5566 39.8218 65.9251C43.3533 66.2933 46.9781 64.0836 48.2793 60.6768C48.8368 59.2038 49.0228 57.8224 49.0228 56.349V39.5792C47.2664 39.4212 45.0617 38.9193 42.7323 37.6195C42.6917 37.5969 42.6507 37.5715 42.6101 37.5481V56.4414C42.6101 56.9014 42.6101 57.3623 42.6101 57.8224C42.4241 58.9276 41.4945 59.6639 40.4722 59.6639C39.357 59.6639 38.4274 58.9276 38.2418 57.7301C38.1486 57.4539 38.2418 57.0853 38.2418 56.8095V34.722C38.1995 34.7023 38.1565 34.6789 38.1142 34.66C35.7997 33.6254 33.634 33.7559 31.9219 34.2324V57.5462C31.9219 58.0986 31.9219 58.651 32.0147 59.2038Z" fill="#26B1AD"/>
</g>
<defs>
<clipPath id="clip0_201_20102">
<rect width="150" height="77.4725" fill="white"/>
</clipPath>
</defs>
</svg>
