<svg width="88" height="84" viewBox="0 0 88 84" fill="none" xmlns="http://www.w3.org/2000/svg">
<g clip-path="url(#clip0_201_50050)">
<path d="M62.8 5.39114C61.4 4.79114 59.9 4.29114 58.4 3.79114C58.4 3.79114 58.4 3.79114 58.3 3.79114C57.8 3.59114 57.2 3.49114 56.7 3.29114H56.6C55.9 3.09114 55.2 2.79114 54.4 2.59114C54.2 2.49114 53.9 2.49114 53.7 2.39114C53.4 2.29114 53.1 2.19114 52.7 2.09114C48.8 0.891138 44.8 0.291138 40.6 0.291138C18.3 0.291138 0.0999756 18.4911 0.0999756 40.7911C0.0999756 56.8911 9.49998 70.7911 23.1 77.2911C23.2 77.2911 23.2 77.3911 23.3 77.3911C25.3 78.3911 27.5 79.1911 29.7 79.8911C29.7 79.8911 29.7 79.8911 29.8 79.8911C30.1 79.9911 30.4 80.0911 30.7 80.1911C31 80.2911 31.3 80.3911 31.6 80.4911C32.1 80.6911 32.5 80.7911 33 80.8911C33.2 80.9911 33.4 80.9911 33.6 81.0911C33.9 81.1911 34.1 81.1911 34.4 81.2911C35.1 81.4911 35.9 81.6911 36.6 81.8911C40 82.8911 43.7 83.3911 47.4 83.3911C69.8 83.3911 88 65.1911 88 42.8911C88 25.9911 77.6 11.4911 62.8 5.39114ZM32.1 79.2911C18 73.2911 7.99998 59.1911 7.99998 42.8911C7.99998 21.0911 25.7 3.39114 47.5 3.39114C50.2 3.39114 52.7 3.69114 55.3 4.19114C56.3 4.59114 57.2 4.89114 58.1 5.39114C71.1 11.7911 80.1 25.2911 80.1 40.7911C80.1 62.5911 62.4 80.2911 40.6 80.2911C37.8 80.2911 35.1 79.9911 32.5 79.3911C32.4 79.3911 32.2 79.2911 32.1 79.2911Z" fill="black"/>
<path d="M40.5 80.7911C62.6 80.7911 80.5 62.8911 80.5 40.7911C80.5 18.6911 62.6 0.791138 40.5 0.791138C18.4 0.791138 0.5 18.6911 0.5 40.7911C0.5 62.8911 18.4 80.7911 40.5 80.7911Z" fill="white"/>
<path d="M40.5 81.2911C18.2 81.2911 0 63.0911 0 40.7911C0 18.4911 18.2 0.291138 40.5 0.291138C62.8 0.291138 81 18.4911 81 40.7911C81 63.0911 62.8 81.2911 40.5 81.2911ZM40.5 1.29114C18.7 1.29114 1 18.9911 1 40.7911C1 62.5911 18.7 80.2911 40.5 80.2911C62.3 80.2911 80 62.5911 80 40.7911C80 18.9911 62.3 1.29114 40.5 1.29114Z" fill="black"/>
</g>
<rect x="-0.5" y="0.5" width="44" height="6" rx="3" transform="matrix(-1 0 0 1 62.2816 37.3984)" fill="#D6FFF3" stroke="black"/>
<mask id="path-5-inside-1_201_50050" fill="white">
<path fill-rule="evenodd" clip-rule="evenodd" d="M34.8528 33.5572C36.3145 32.2926 36.4741 30.0827 35.2092 28.6212C33.9444 27.1597 31.7341 27.0001 30.2724 28.2647L18.9283 38.0793C18.1108 38.7866 17.7006 39.7896 17.7191 40.792C17.7001 41.795 18.1103 42.7987 18.9283 43.5064L30.2682 53.3176C31.7299 54.5823 33.9402 54.4227 35.2051 52.9611C36.4699 51.4996 36.3104 49.2896 34.8487 48.025L26.4897 40.7928L34.8528 33.5572Z"/>
</mask>
<path fill-rule="evenodd" clip-rule="evenodd" d="M34.8528 33.5572C36.3145 32.2926 36.4741 30.0827 35.2092 28.6212C33.9444 27.1597 31.7341 27.0001 30.2724 28.2647L18.9283 38.0793C18.1108 38.7866 17.7006 39.7896 17.7191 40.792C17.7001 41.795 18.1103 42.7987 18.9283 43.5064L30.2682 53.3176C31.7299 54.5823 33.9402 54.4227 35.2051 52.9611C36.4699 51.4996 36.3104 49.2896 34.8487 48.025L26.4897 40.7928L34.8528 33.5572Z" fill="#49DDA8"/>
<path d="M35.2092 28.6212L34.4531 29.2756V29.2756L35.2092 28.6212ZM34.8528 33.5572L34.1985 32.801L34.8528 33.5572ZM30.2724 28.2647L29.6181 27.5085V27.5085L30.2724 28.2647ZM18.9283 38.0793L19.5826 38.8356L18.9283 38.0793ZM17.7191 40.792L18.7189 40.7735L18.7193 40.7922L18.7189 40.8109L17.7191 40.792ZM18.9283 43.5064L19.5826 42.7501L18.9283 43.5064ZM30.2682 53.3176L30.9225 52.5614H30.9225L30.2682 53.3176ZM35.2051 52.9611L35.9612 53.6155H35.9612L35.2051 52.9611ZM34.8487 48.025L34.1944 48.7812H34.1944L34.8487 48.025ZM26.4897 40.7928L25.8354 41.5491L24.9613 40.7928L25.8354 40.0366L26.4897 40.7928ZM35.9654 27.9668C37.5917 29.8459 37.3865 32.6875 35.5071 34.3135L34.1985 32.801C35.2425 31.8978 35.3565 30.3194 34.4531 29.2756L35.9654 27.9668ZM29.6181 27.5085C31.4974 25.8825 34.3392 26.0877 35.9654 27.9668L34.4531 29.2756C33.5496 28.2316 31.9708 28.1176 30.9267 29.0209L29.6181 27.5085ZM18.274 37.3231L29.6181 27.5085L30.9267 29.0209L19.5826 38.8356L18.274 37.3231ZM16.7193 40.8105C16.6955 39.5241 17.2226 38.2327 18.274 37.3231L19.5826 38.8356C18.9989 39.3405 18.7057 40.0552 18.7189 40.7735L16.7193 40.8105ZM18.7189 40.8109C18.7053 41.5297 18.9986 42.2449 19.5826 42.7501L18.274 44.2626C17.222 43.3525 16.6949 42.0602 16.7193 40.7731L18.7189 40.8109ZM19.5826 42.7501L30.9225 52.5614L29.614 54.0739L18.274 44.2626L19.5826 42.7501ZM30.9225 52.5614C31.9666 53.4647 33.5455 53.3507 34.4489 52.3068L35.9612 53.6155C34.335 55.4946 31.4933 55.6998 29.614 54.0739L30.9225 52.5614ZM34.4489 52.3068C35.3523 51.2629 35.2384 49.6845 34.1944 48.7812L35.503 47.2687C37.3824 48.8948 37.5875 51.7364 35.9612 53.6155L34.4489 52.3068ZM34.1944 48.7812L25.8354 41.5491L27.144 40.0366L35.503 47.2687L34.1944 48.7812ZM35.5071 34.3135L27.1439 41.5491L25.8354 40.0366L34.1985 32.801L35.5071 34.3135Z" fill="black" mask="url(#path-5-inside-1_201_50050)"/>
<defs>
<clipPath id="clip0_201_50050">
<rect width="88" height="83.1" fill="white" transform="translate(0 0.291138)"/>
</clipPath>
</defs>
</svg>
