<svg width="88" height="84" viewBox="0 0 88 84" fill="none" xmlns="http://www.w3.org/2000/svg">
<g clip-path="url(#clip0_201_30448)">
<path d="M62.7996 5.10006C61.3996 4.50006 59.8996 4.00006 58.3996 3.50006C58.3996 3.50006 58.3996 3.50006 58.2996 3.50006C57.7996 3.30006 57.1996 3.20006 56.6996 3.00006H56.5996C55.8996 2.80006 55.1996 2.50006 54.3996 2.30006C54.1996 2.20006 53.8996 2.20006 53.6996 2.10006C53.3996 2.00006 53.0996 1.90006 52.6996 1.80006C48.7996 0.600061 44.7996 6.10352e-05 40.5996 6.10352e-05C18.2996 6.10352e-05 0.0996094 18.2001 0.0996094 40.5001C0.0996094 56.6001 9.49961 70.5001 23.0996 77.0001C23.1996 77.0001 23.1996 77.1001 23.2996 77.1001C25.2996 78.1001 27.4996 78.9001 29.6996 79.6001C29.6996 79.6001 29.6996 79.6001 29.7996 79.6001C30.0996 79.7001 30.3996 79.8001 30.6996 79.9001C30.9996 80.0001 31.2996 80.1001 31.5996 80.2001C32.0996 80.4001 32.4996 80.5001 32.9996 80.6001C33.1996 80.7001 33.3996 80.7001 33.5996 80.8001C33.8996 80.9001 34.0996 80.9001 34.3996 81.0001C35.0996 81.2001 35.8996 81.4001 36.5996 81.6001C39.9996 82.6001 43.6996 83.1001 47.3996 83.1001C69.7996 83.1001 87.9996 64.9001 87.9996 42.6001C87.9996 25.7001 77.5996 11.2001 62.7996 5.10006ZM32.0996 79.0001C17.9996 73.0001 7.99961 58.9001 7.99961 42.6001C7.99961 20.8001 25.6996 3.10006 47.4996 3.10006C50.1996 3.10006 52.6996 3.40006 55.2996 3.90006C56.2996 4.30006 57.1996 4.60006 58.0996 5.10006C71.0996 11.5001 80.0996 25.0001 80.0996 40.5001C80.0996 62.3001 62.3996 80.0001 40.5996 80.0001C37.7996 80.0001 35.0996 79.7001 32.4996 79.1001C32.3996 79.1001 32.1996 79.0001 32.0996 79.0001Z" fill="black"/>
<path d="M40.5 80.5001C62.6 80.5001 80.5 62.6001 80.5 40.5001C80.5 18.4001 62.6 0.500061 40.5 0.500061C18.4 0.500061 0.5 18.4001 0.5 40.5001C0.5 62.6001 18.4 80.5001 40.5 80.5001Z" fill="white"/>
<path d="M40.5 81.0001C18.2 81.0001 0 62.8001 0 40.5001C0 18.2001 18.2 6.10352e-05 40.5 6.10352e-05C62.8 6.10352e-05 81 18.2001 81 40.5001C81 62.8001 62.8 81.0001 40.5 81.0001ZM40.5 1.00006C18.7 1.00006 1 18.7001 1 40.5001C1 62.3001 18.7 80.0001 40.5 80.0001C62.3 80.0001 80 62.3001 80 40.5001C80 18.7001 62.3 1.00006 40.5 1.00006Z" fill="black"/>
</g>
<rect x="18.2188" y="37.6074" width="44" height="6" rx="3" fill="#D6FFF3" stroke="black"/>
<mask id="path-5-inside-1_201_30448" fill="white">
<path fill-rule="evenodd" clip-rule="evenodd" d="M46.1473 33.2662C44.6856 32.0015 44.526 29.7916 45.7909 28.3301C47.0557 26.8686 49.266 26.709 50.7277 27.9736L62.0718 37.7883C62.8893 38.4955 63.2995 39.4986 63.281 40.5009C63.3 41.5039 62.8898 42.5076 62.0718 43.2153L50.7319 53.0265C49.2702 54.2912 47.0599 54.1316 45.795 52.6701C44.5302 51.2085 44.6898 48.9985 46.1515 47.7339L54.5105 40.5018L46.1473 33.2662Z"/>
</mask>
<path fill-rule="evenodd" clip-rule="evenodd" d="M46.1473 33.2662C44.6856 32.0015 44.526 29.7916 45.7909 28.3301C47.0557 26.8686 49.266 26.709 50.7277 27.9736L62.0718 37.7883C62.8893 38.4955 63.2995 39.4986 63.281 40.5009C63.3 41.5039 62.8898 42.5076 62.0718 43.2153L50.7319 53.0265C49.2702 54.2912 47.0599 54.1316 45.795 52.6701C44.5302 51.2085 44.6898 48.9985 46.1515 47.7339L54.5105 40.5018L46.1473 33.2662Z" fill="#49DDA8"/>
<path d="M45.7909 28.3301L46.547 28.9845V28.9845L45.7909 28.3301ZM46.1473 33.2662L46.8016 32.5099L46.1473 33.2662ZM50.7277 27.9736L51.382 27.2174V27.2174L50.7277 27.9736ZM62.0718 37.7883L61.4175 38.5445L62.0718 37.7883ZM63.281 40.5009L62.2812 40.4825L62.2808 40.5012L62.2812 40.5199L63.281 40.5009ZM62.0718 43.2153L61.4176 42.4591L62.0718 43.2153ZM50.7319 53.0265L50.0776 52.2703H50.0776L50.7319 53.0265ZM45.795 52.6701L45.0389 53.3245H45.0389L45.795 52.6701ZM46.1515 47.7339L46.8058 48.4901H46.8058L46.1515 47.7339ZM54.5105 40.5018L55.1648 41.258L56.0388 40.5018L55.1647 39.7455L54.5105 40.5018ZM45.0347 27.6757C43.4084 29.5548 43.6136 32.3964 45.493 34.0224L46.8016 32.5099C45.7576 31.6067 45.6436 30.0283 46.547 28.9845L45.0347 27.6757ZM51.382 27.2174C49.5027 25.5914 46.661 25.7966 45.0347 27.6757L46.547 28.9845C47.4505 27.9406 49.0294 27.8266 50.0734 28.7299L51.382 27.2174ZM62.7261 37.032L51.382 27.2174L50.0734 28.7299L61.4175 38.5445L62.7261 37.032ZM64.2809 40.5194C64.3046 39.233 63.7775 37.9416 62.7261 37.032L61.4175 38.5445C62.0012 39.0495 62.2945 39.7641 62.2812 40.4825L64.2809 40.5194ZM62.2812 40.5199C62.2948 41.2386 62.0015 41.9538 61.4176 42.4591L62.7261 43.9715C63.7781 43.0614 64.3052 41.7691 64.2808 40.482L62.2812 40.5199ZM61.4176 42.4591L50.0776 52.2703L51.3862 53.7828L62.7261 43.9715L61.4176 42.4591ZM50.0776 52.2703C49.0335 53.1736 47.4547 53.0596 46.5512 52.0157L45.0389 53.3245C46.6651 55.2036 49.5069 55.4088 51.3862 53.7828L50.0776 52.2703ZM46.5512 52.0157C45.6478 50.9718 45.7618 49.3934 46.8058 48.4901L45.4972 46.9777C43.6178 48.6037 43.4126 51.4453 45.0389 53.3245L46.5512 52.0157ZM46.8058 48.4901L55.1648 41.258L53.8562 39.7455L45.4972 46.9777L46.8058 48.4901ZM45.493 34.0224L53.8562 41.258L55.1647 39.7455L46.8016 32.5099L45.493 34.0224Z" fill="black" mask="url(#path-5-inside-1_201_30448)"/>
<defs>
<clipPath id="clip0_201_30448">
<rect width="88" height="83.1" fill="white"/>
</clipPath>
</defs>
</svg>
