<svg width="92" height="47" viewBox="0 0 92 47" fill="none" xmlns="http://www.w3.org/2000/svg">
<g clip-path="url(#clip0_201_29920)">
<mask id="mask0_201_29920" style="mask-type:alpha" maskUnits="userSpaceOnUse" x="0" y="7" width="16" height="40">
<path d="M0.117188 7.66971H15.2345V46.4103H0.117188V7.66971Z" fill="white"/>
</mask>
<g mask="url(#mask0_201_29920)">
<path fill-rule="evenodd" clip-rule="evenodd" d="M15.2344 27.0401V45.2902C15.2344 46.4658 15.2908 46.4099 14.0532 46.4099H12.2532C11.747 46.354 11.6908 46.2978 11.6908 45.8499C11.6342 45.6263 11.6908 45.4023 11.6908 45.1784C11.6908 40.3076 11.6908 35.4373 11.6342 30.6226V29.5591C11.6342 29.503 11.6342 29.3912 11.5219 29.3912C11.4657 29.3912 11.4095 29.503 11.4095 29.5591C11.2408 30.3429 11.0718 31.0705 10.9595 31.8546C10.5094 34.4297 10.0594 37.0048 9.60931 39.6359L9.49673 40.0838C9.3844 40.5878 9.32824 40.6437 8.82177 40.6437H6.51533C5.84062 40.6437 5.7842 40.6437 5.67188 39.9161C5.27799 37.5645 4.88409 35.2132 4.43404 32.8622L3.92782 30.0629C3.92782 30.007 3.87165 29.895 3.75933 29.895C3.70291 29.895 3.70292 30.0629 3.70292 30.1191C3.70292 30.5108 3.64675 30.8467 3.64675 31.2387C3.64675 35.8293 3.64675 40.364 3.64675 44.9544V45.5143C3.64675 46.2978 3.64675 46.2978 2.8028 46.354C2.12784 46.354 1.39672 46.354 0.721513 46.2978C0.159131 46.2978 0.159131 46.2419 0.102968 45.6822C0.102968 45.5143 0.102968 45.3461 0.102968 45.1784V8.78953C0.102968 7.61399 0.046554 7.67014 1.22798 7.67014H2.97179C3.59059 7.67014 3.64675 7.72603 3.75933 8.34187L4.43404 12.0925C5.39031 17.6349 6.34684 23.2331 7.35928 28.7754V28.8874C7.47185 29.0551 7.35928 29.4471 7.64059 29.4471C7.86549 29.4471 7.80933 29.1115 7.86549 28.8874C8.14706 27.3198 8.42813 25.8082 8.65328 24.2409C9.60931 18.9786 10.5094 13.716 11.4657 8.45366C11.578 7.67014 11.578 7.67014 12.3658 7.67014H14.5594C15.1782 7.67014 15.1782 7.72603 15.2344 8.39776C15.2344 8.62184 15.2344 8.84567 15.2344 9.0695V27.0401Z" fill="#643C28"/>
</g>
<path fill-rule="evenodd" clip-rule="evenodd" d="M37.6222 17.6419C37.6222 19.4294 37.6222 21.2171 37.6222 23.0606V23.5631C37.6779 24.01 37.7893 24.1221 38.2917 24.0658C38.4591 24.0658 38.6265 24.01 38.7939 23.9543C39.7426 23.5073 40.2447 22.7813 40.3005 21.6641V17.7537C40.3005 16.3572 40.3005 15.0166 40.2447 13.62C40.2447 12.5028 39.5752 11.6648 38.5708 11.3299C37.8453 11.1063 37.6222 11.2738 37.6222 12.0001V17.6419ZM34.1064 27.1943V8.87186C34.1064 7.86645 34.1064 7.86646 35.111 7.86646H38.2358C41.082 7.86646 43.5931 10.2682 43.6488 13.1731C43.7045 16.1338 43.7045 19.1503 43.6488 22.1668C43.6488 23.3955 43.1466 24.457 42.3651 25.4624C42.0306 25.9093 42.0306 25.9093 42.3651 26.3562C43.1466 27.4177 43.5371 28.5906 43.5371 29.9314C43.4812 35.0705 43.5371 40.2656 43.5371 45.4047C43.5371 46.4104 43.4812 46.4104 42.5328 46.4104H40.6912C40.3005 46.4104 40.1333 46.2428 40.1333 45.9074C40.1333 45.6843 40.1333 45.4608 40.1333 45.2374V30.2108C40.1333 29.373 39.91 28.6464 39.2404 28.0322C38.9616 27.8088 38.6265 27.641 38.2358 27.5852C37.7893 27.5292 37.6779 27.641 37.6222 28.0879C37.6222 28.3115 37.6222 28.5349 37.6222 28.8142V45.349C37.6222 46.4104 37.6222 46.4104 36.5619 46.4104H34.6646C34.2738 46.4104 34.1064 46.2428 34.1064 45.9074C34.1064 45.6843 34.1064 45.4608 34.1064 45.2374V27.1943Z" fill="#643C28"/>
<path fill-rule="evenodd" clip-rule="evenodd" d="M51.871 46.4104H48.6136C47.9959 46.4104 47.9398 46.3546 47.9398 45.6844C47.9398 45.5168 47.9398 45.349 47.9398 45.1817V9.0418C47.9398 7.75736 47.8837 7.8689 49.1751 7.8689H54.6787C55.5773 7.8689 55.5773 7.8689 55.6336 8.7627V10.7174C55.5773 11.3879 55.5773 11.4439 54.9035 11.4439H52.2079C51.534 11.4439 51.478 11.4996 51.478 12.1139V22.727C51.478 23.3412 51.534 23.3972 52.2639 23.3972C52.882 23.453 53.5558 23.3972 54.1733 23.453C54.6787 23.453 54.735 23.5088 54.7911 24.0114V26.5251C54.735 27.0277 54.6787 27.084 54.1173 27.084H52.2639C51.534 27.1398 51.478 27.1398 51.478 27.8658V35.2951C51.478 37.3058 51.478 39.2607 51.478 41.2716V41.7743C51.478 42.7239 51.478 42.7239 52.3763 42.7239H54.735C55.8019 42.7239 55.8019 42.7239 55.8019 43.841C55.8579 44.4555 55.8579 45.0699 55.8019 45.6844C55.8019 46.3546 55.7458 46.4104 55.0719 46.4104H51.871Z" fill="#643C28"/>
<mask id="mask1_201_29920" style="mask-type:alpha" maskUnits="userSpaceOnUse" x="59" y="7" width="19" height="41">
<path d="M59.6973 7.57138H77.1859V47.0003H59.6973V7.57138Z" fill="white"/>
</mask>
<g mask="url(#mask1_201_29920)">
<path fill-rule="evenodd" clip-rule="evenodd" d="M59.6973 27.2165V8.97076C59.6973 7.9665 59.6973 7.9665 60.7024 7.9665C61.3725 7.9665 61.9869 7.91079 62.657 7.9665C63.1596 7.9665 63.2156 8.02221 63.2156 8.52459C63.2156 8.69172 63.2156 8.91505 63.2156 9.13814V45.2947C63.2156 46.522 63.3273 46.4663 62.0426 46.4663H60.1998C59.8645 46.4663 59.6973 46.2989 59.6973 45.9642C59.6973 45.7411 59.6973 45.5177 59.6973 45.2947V27.2165Z" fill="#643C28"/>
<path fill-rule="evenodd" clip-rule="evenodd" d="M66.8123 38.4317C66.8123 37.1482 66.8123 35.9208 66.8683 34.6373C66.8683 33.9121 66.8683 33.9121 67.5944 33.9121C68.376 33.9121 69.1582 33.8564 69.9398 33.9121C70.5541 33.9121 70.6099 33.9678 70.6099 34.5816C70.6099 36.7577 70.6099 38.9339 70.6099 41.11V41.8909C70.7217 42.6164 71.336 43.1745 72.0061 43.1745C72.7322 43.1745 73.2908 42.5607 73.2908 41.7793C73.3466 40.6636 73.2908 39.492 73.3466 38.3758C73.4023 35.9766 72.9555 33.6887 72.0619 31.4569L67.8735 20.0746C67.2034 18.1775 66.7565 16.1687 66.8123 14.1042C66.8683 13.5461 66.8123 13.044 66.8123 12.4862C66.9241 9.75193 69.1582 7.68746 71.8386 7.57579C74.4077 7.46437 77.0881 9.47314 77.1439 12.7092C77.1999 13.8252 77.1439 14.9411 77.1439 16.113C77.1439 16.7265 77.0881 16.7825 76.474 16.7825H73.9609C73.4023 16.7825 73.3466 16.7265 73.3466 16.1687V12.9883C73.3466 12.5419 73.2348 12.1512 72.8997 11.8164C72.1739 11.0912 71.1125 11.3143 70.7217 12.2628C70.6659 12.4862 70.6099 12.6535 70.6099 12.8769C70.4981 14.8294 70.7217 16.7825 71.4478 18.6239L76.1387 31.4012C76.8091 33.1866 77.0881 35.0837 77.1439 36.9811C77.1999 38.5991 77.1999 40.2172 77.1439 41.8352C77.0881 44.5695 75.1893 46.6896 72.4529 46.9684C69.5487 47.3034 66.8683 44.9597 66.8683 42.0028C66.8123 40.8307 66.8123 39.6591 66.8123 38.4317Z" fill="#643C28"/>
</g>
<path fill-rule="evenodd" clip-rule="evenodd" d="M91.1174 27.1396V45.2928C91.1174 46.4657 91.1174 46.41 89.9366 46.41H88.4189C87.8563 46.3542 87.8001 46.3542 87.744 45.7397C87.744 45.5164 87.744 45.2928 87.744 45.0695V28.2009C87.744 27.0838 87.744 27.0838 86.6757 27.0838H85.0452C84.6515 27.0838 84.4831 27.2511 84.4831 27.6422C84.4831 27.8655 84.4831 28.0889 84.4831 28.3124V45.2928C84.4831 46.41 84.4831 46.41 83.3586 46.41H81.5593C81.0533 46.3542 80.9969 46.2982 80.9408 45.7955C80.9408 45.5722 80.9408 45.4046 80.9408 45.1813V9.04179C80.9408 7.75736 80.8847 7.8689 82.1778 7.8689H83.9769C84.3145 7.8689 84.4831 7.98068 84.4831 8.37156V9.04179C84.4831 13.3987 84.4831 17.7554 84.4831 22.1124V22.5593C84.4831 23.3971 84.5393 23.3971 85.3264 23.3971H87.2378C87.5753 23.3971 87.744 23.2295 87.744 22.8941C87.744 22.6711 87.744 22.4472 87.744 22.2242V9.04179C87.744 8.81846 87.8001 8.59489 87.744 8.37156C87.744 7.98068 87.9691 7.8689 88.3061 7.8689H90.5553C90.8924 7.8689 91.1174 7.98068 91.0613 8.37156C91.0613 8.65066 91.1174 8.87423 91.1174 9.09756V27.1396Z" fill="#643C28"/>
<path fill-rule="evenodd" clip-rule="evenodd" d="M29.4552 46.2136H19.8862C19.6638 46.2136 19.4834 46.0397 19.4834 45.8251V43.1605C19.4834 42.9461 19.6638 42.7722 19.8862 42.7722H29.4552C29.6776 42.7722 29.858 42.9461 29.858 43.1605V45.8251C29.858 46.0397 29.6776 46.2136 29.4552 46.2136Z" fill="#26B1AD"/>
<path fill-rule="evenodd" clip-rule="evenodd" d="M23.2407 21.0917C23.2663 21.1032 23.2924 21.1175 23.3181 21.1295V5.55642C23.3181 5.33228 23.2615 5.10763 23.3181 4.88298C23.4307 4.26557 23.9946 3.81677 24.6147 3.81677C25.2349 3.81677 25.8551 4.26557 25.968 4.93927V5.72504C25.968 10.3834 25.968 15.9033 25.968 20.5056V22.8521C25.9926 22.8664 26.0175 22.8819 26.0421 22.8957C27.4551 23.6879 28.7925 23.9939 29.858 24.0902V5.94943C29.858 5.55642 29.8015 5.16366 29.7452 4.7709C29.6889 2.18894 27.2644 0.000244141 24.6147 0.000244141C21.9086 0.000244141 19.428 2.41359 19.4843 5.10763C19.5406 9.93432 19.4843 15.6786 19.4843 20.5056V20.831C20.5229 20.5406 21.8367 20.461 23.2407 21.0917Z" fill="#643C28"/>
<path fill-rule="evenodd" clip-rule="evenodd" d="M19.5397 35.9172C19.9908 38.1516 21.9078 39.7712 24.276 39.9948C26.4185 40.2182 28.6175 38.8777 29.4069 36.8108C29.7451 35.9172 29.858 35.0792 29.858 34.1853V24.0116C28.7924 23.9158 27.4549 23.6113 26.0418 22.8227C26.0171 22.8091 25.9922 22.7936 25.9676 22.7794V34.2413C25.9676 34.5205 25.9676 34.8001 25.9676 35.0792C25.8548 35.7497 25.2908 36.1964 24.6706 36.1964C23.994 36.1964 23.4301 35.7497 23.3175 35.0231C23.2609 34.8556 23.3175 34.632 23.3175 34.4647V21.0649C23.2918 21.053 23.2657 21.0388 23.2401 21.0273C21.836 20.3996 20.5221 20.4788 19.4834 20.7679V34.9116C19.4834 35.2467 19.4834 35.5819 19.5397 35.9172Z" fill="#26B1AD"/>
</g>
<defs>
<clipPath id="clip0_201_29920">
<rect width="91" height="47" fill="white" transform="translate(0.117188 0.000244141)"/>
</clipPath>
</defs>
</svg>
