<svg width="59" height="56" fill="none" xmlns="http://www.w3.org/2000/svg"><g clip-path="url(#clip0_144_30614)"><path d="M41.403 3.362c-.923-.395-1.912-.725-2.9-1.054h-.067c-.33-.132-.725-.198-1.054-.33h-.066c-.462-.132-.923-.33-1.45-.462-.133-.066-.33-.066-.462-.131-.198-.066-.396-.132-.66-.198A26.866 26.866 0 0026.767 0C12.065 0 .066 11.999.066 26.701c0 10.615 6.197 19.779 15.163 24.064.066 0 .066.066.132.066 1.319.66 2.77 1.187 4.22 1.648h.066l.593.198.593.198c.33.132.594.197.923.263.132.066.264.066.396.132.198.066.33.066.527.132.462.132.99.264 1.45.396 2.242.659 4.682.989 7.121.989 14.768 0 26.767-12 26.767-26.701 0-11.142-6.856-20.702-16.614-24.724zm-20.24 48.722C11.867 48.128 5.274 38.832 5.274 28.086c0-14.373 11.67-26.042 26.042-26.042 1.78 0 3.428.198 5.143.527.659.264 1.252.462 1.845.791 8.571 4.22 14.505 13.12 14.505 23.34 0 14.372-11.67 26.04-26.042 26.04-1.846 0-3.626-.197-5.34-.592-.066 0-.198-.066-.264-.066z" fill="#000"/><path d="M26.701 53.072c14.57 0 26.371-11.8 26.371-26.371 0-14.57-11.8-26.371-26.371-26.371C12.131.33.33 12.13.33 26.7s11.8 26.371 26.371 26.371z" fill="#fff"/><path d="M26.701 53.402C12 53.402 0 41.403 0 26.702 0 11.998 11.999 0 26.701 0s26.701 11.999 26.701 26.701-11.999 26.701-26.7 26.701zm0-52.743C12.33.66.66 12.33.66 26.701c0 14.373 11.67 26.042 26.042 26.042 14.373 0 26.042-11.67 26.042-26.042C52.743 12.33 41.073.66 26.7.66z" fill="#000"/></g><rect x=".52" y=".5" width="30.328" height="3.873" rx="1.937" transform="matrix(1 0 .04084 .99917 10.873 19.267)" fill="#E9DAFF" stroke="#000"/><rect x="-.52" y=".5" width="30.328" height="3.873" rx="1.937" transform="matrix(-1 0 -.04084 .99917 41.489 29.267)" fill="#BC8CFF" stroke="#000"/><defs><clipPath id="clip0_144_30614"><path fill="#fff" d="M0 0h58.017v55.38H0z"/></clipPath></defs></svg>