<svg width="88" height="84" viewBox="0 0 88 84" fill="none" xmlns="http://www.w3.org/2000/svg">
<g clip-path="url(#clip0_201_46241)">
<path d="M62.8 5.1C61.4 4.5 59.9 4 58.4 3.5C58.4 3.5 58.4 3.5 58.3 3.5C57.8 3.3 57.2 3.2 56.7 3H56.6C55.9 2.8 55.2 2.5 54.4 2.3C54.2 2.2 53.9 2.2 53.7 2.1C53.4 2 53.1 1.9 52.7 1.8C48.8 0.6 44.8 0 40.6 0C18.3 0 0.0999985 18.2 0.0999985 40.5C0.0999985 56.6 9.5 70.5 23.1 77C23.2 77 23.2 77.1 23.3 77.1C25.3 78.1 27.5 78.9 29.7 79.6C29.7 79.6 29.7 79.6 29.8 79.6C30.1 79.7 30.4 79.8 30.7 79.9C31 80 31.3 80.1 31.6 80.2C32.1 80.4 32.5 80.5 33 80.6C33.2 80.7 33.4 80.7 33.6 80.8C33.9 80.9 34.1 80.9 34.4 81C35.1 81.2 35.9 81.4 36.6 81.6C40 82.6 43.7 83.1 47.4 83.1C69.8 83.1 88 64.9 88 42.6C88 25.7 77.6 11.2 62.8 5.1ZM32.1 79C18 73 8 58.9 8 42.6C8 20.8 25.7 3.1 47.5 3.1C50.2 3.1 52.7 3.4 55.3 3.9C56.3 4.3 57.2 4.6 58.1 5.1C71.1 11.5 80.1 25 80.1 40.5C80.1 62.3 62.4 80 40.6 80C37.8 80 35.1 79.7 32.5 79.1C32.4 79.1 32.2 79 32.1 79Z" fill="black"/>
<path d="M40.5 80.5C62.6 80.5 80.5 62.6 80.5 40.5C80.5 18.4 62.6 0.5 40.5 0.5C18.4 0.5 0.5 18.4 0.5 40.5C0.5 62.6 18.4 80.5 40.5 80.5Z" fill="white"/>
<path d="M40.5 81C18.2 81 0 62.8 0 40.5C0 18.2 18.2 0 40.5 0C62.8 0 81 18.2 81 40.5C81 62.8 62.8 81 40.5 81ZM40.5 1C18.7 1 1 18.7 1 40.5C1 62.3 18.7 80 40.5 80C62.3 80 80 62.3 80 40.5C80 18.7 62.3 1 40.5 1Z" fill="black"/>
</g>
<rect x="-0.5" y="0.5" width="44" height="6" rx="3" transform="matrix(-1 0 0 1 62.2816 37.1074)" fill="#D6FFF3" stroke="black"/>
<mask id="path-5-inside-1_201_46241" fill="white">
<path fill-rule="evenodd" clip-rule="evenodd" d="M34.8528 33.2664C36.3145 32.0017 36.4741 29.7918 35.2092 28.3303C33.9444 26.8688 31.7341 26.7092 30.2724 27.9738L18.9283 37.7884C18.1109 38.4956 17.7007 39.4983 17.7191 40.5005C17.6998 41.5037 18.11 42.5078 18.9282 43.2156L30.2682 53.0269C31.7299 54.2915 33.9402 54.1319 35.205 52.6704C36.4699 51.2089 36.3103 48.9989 34.8486 47.7342L26.4895 40.502L34.8528 33.2664Z"/>
</mask>
<path fill-rule="evenodd" clip-rule="evenodd" d="M34.8528 33.2664C36.3145 32.0017 36.4741 29.7918 35.2092 28.3303C33.9444 26.8688 31.7341 26.7092 30.2724 27.9738L18.9283 37.7884C18.1109 38.4956 17.7007 39.4983 17.7191 40.5005C17.6998 41.5037 18.11 42.5078 18.9282 43.2156L30.2682 53.0269C31.7299 54.2915 33.9402 54.1319 35.205 52.6704C36.4699 51.2089 36.3103 48.9989 34.8486 47.7342L26.4895 40.502L34.8528 33.2664Z" fill="#49DDA8"/>
<path d="M35.2092 28.3303L34.4531 28.9847V28.9847L35.2092 28.3303ZM34.8528 33.2664L34.1985 32.5101L34.8528 33.2664ZM30.2724 27.9738L29.6181 27.2176V27.2176L30.2724 27.9738ZM18.9283 37.7884L18.274 37.0322V37.0322L18.9283 37.7884ZM17.7191 40.5005L18.7189 40.4822L18.7192 40.5009L18.7189 40.5196L17.7191 40.5005ZM18.9282 43.2156L18.2739 43.9719L18.9282 43.2156ZM30.2682 53.0269L30.9225 52.2706H30.9225L30.2682 53.0269ZM35.205 52.6704L35.9612 53.3248H35.9612L35.205 52.6704ZM34.8486 47.7342L34.1943 48.4905H34.1943L34.8486 47.7342ZM26.4895 40.502L25.8352 41.2583L24.9612 40.502L25.8352 39.7458L26.4895 40.502ZM35.9654 27.6759C37.5917 29.555 37.3865 32.3966 35.5071 34.0226L34.1985 32.5101C35.2425 31.6069 35.3565 30.0285 34.4531 28.9847L35.9654 27.6759ZM29.6181 27.2176C31.4974 25.5916 34.3391 25.7968 35.9654 27.6759L34.4531 28.9847C33.5496 27.9408 31.9707 27.8267 30.9267 28.7301L29.6181 27.2176ZM18.274 37.0322L29.6181 27.2176L30.9267 28.7301L19.5826 38.5447L18.274 37.0322ZM16.7192 40.5188C16.6957 39.2326 17.2228 37.9416 18.274 37.0322L19.5826 38.5447C18.999 39.0496 18.7058 39.764 18.7189 40.4822L16.7192 40.5188ZM18.7189 40.5196C18.7051 41.2386 18.9984 41.954 19.5825 42.4594L18.2739 43.9719C17.2217 43.0615 16.6946 41.7688 16.7192 40.4813L18.7189 40.5196ZM19.5825 42.4594L30.9225 52.2706L29.6139 53.7831L18.2739 43.9719L19.5825 42.4594ZM30.9225 52.2706C31.9666 53.174 33.5454 53.06 34.4489 52.016L35.9612 53.3248C34.335 55.2039 31.4932 55.4091 29.6139 53.7831L30.9225 52.2706ZM34.4489 52.016C35.3523 50.9721 35.2383 49.3937 34.1943 48.4905L35.5029 46.978C37.3823 48.604 37.5875 51.4456 35.9612 53.3248L34.4489 52.016ZM34.1943 48.4905L25.8352 41.2583L27.1438 39.7458L35.5029 46.978L34.1943 48.4905ZM35.5071 34.0226L27.1438 41.2583L25.8352 39.7458L34.1985 32.5101L35.5071 34.0226Z" fill="black" mask="url(#path-5-inside-1_201_46241)"/>
<defs>
<clipPath id="clip0_201_46241">
<rect width="88" height="83.1" fill="white"/>
</clipPath>
</defs>
</svg>
