<svg width="59" height="56" viewBox="0 0 59 56" fill="none" xmlns="http://www.w3.org/2000/svg">
<g clip-path="url(#clip0_144_30614)">
<path d="M41.4031 3.36236C40.4801 2.96679 39.4912 2.63714 38.5023 2.3075C38.5023 2.3075 38.5023 2.3075 38.4363 2.3075C38.1067 2.17564 37.7111 2.10971 37.3815 1.97786H37.3156C36.8541 1.846 36.3926 1.64821 35.8651 1.51636C35.7333 1.45043 35.5355 1.45043 35.4036 1.3845C35.2058 1.31857 35.0081 1.25264 34.7444 1.18671C32.1731 0.395571 29.536 0 26.767 0C12.0649 0 0.065918 11.999 0.065918 26.7011C0.065918 37.3156 6.2632 46.4796 15.2295 50.765C15.2954 50.765 15.2954 50.8309 15.3613 50.8309C16.6799 51.4902 18.1303 52.0176 19.5808 52.4791C19.5808 52.4791 19.5808 52.4791 19.6467 52.4791C19.8445 52.5451 20.0423 52.611 20.2401 52.6769C20.4378 52.7429 20.6356 52.8088 20.8334 52.8747C21.1631 53.0066 21.4268 53.0725 21.7564 53.1384C21.8883 53.2044 22.0201 53.2044 22.152 53.2703C22.3498 53.3362 22.4816 53.3362 22.6794 53.4021C23.1409 53.534 23.6683 53.6659 24.1298 53.7977C26.3714 54.457 28.8108 54.7866 31.2501 54.7866C46.0181 54.7866 58.0171 42.7876 58.0171 28.0856C58.0171 16.9436 51.1606 7.384 41.4031 3.36236ZM21.1631 52.0836C11.8671 48.1279 5.27428 38.8319 5.27428 28.0856C5.27428 13.7131 16.9436 2.04379 31.3161 2.04379C33.0961 2.04379 34.7443 2.24157 36.4585 2.57121C37.1178 2.83493 37.7111 3.03271 38.3045 3.36236C46.8752 7.58179 52.8088 16.4821 52.8088 26.7011C52.8088 41.0735 41.1394 52.7429 26.767 52.7429C24.921 52.7429 23.1409 52.5451 21.4268 52.1495C21.3608 52.1495 21.229 52.0836 21.1631 52.0836Z" fill="black"/>
<path d="M26.701 53.0724C41.2712 53.0724 53.0724 41.2712 53.0724 26.701C53.0724 12.1308 41.2712 0.32959 26.701 0.32959C12.1308 0.32959 0.32959 12.1308 0.32959 26.701C0.32959 41.2712 12.1308 53.0724 26.701 53.0724Z" fill="white"/>
<path d="M26.7011 53.4021C11.999 53.4021 0 41.4031 0 26.7011C0 11.999 11.999 0 26.7011 0C41.4031 0 53.4021 11.999 53.4021 26.7011C53.4021 41.4031 41.4031 53.4021 26.7011 53.4021ZM26.7011 0.659286C12.3286 0.659286 0.659286 12.3286 0.659286 26.7011C0.659286 41.0735 12.3286 52.7429 26.7011 52.7429C41.0735 52.7429 52.7429 41.0735 52.7429 26.7011C52.7429 12.3286 41.0735 0.659286 26.7011 0.659286Z" fill="black"/>
</g>
<rect x="0.52042" y="0.499583" width="30.3282" height="3.87328" rx="1.93664" transform="matrix(1 0 0.0408405 0.999166 10.8729 19.267)" fill="#E9DAFF" stroke="black"/>
<rect x="-0.52042" y="0.499583" width="30.3282" height="3.87328" rx="1.93664" transform="matrix(-1 -8.74228e-08 -0.0408406 0.999166 41.4886 29.267)" fill="#BC8CFF" stroke="black"/>
<defs>
<clipPath id="clip0_144_30614">
<rect width="58.0171" height="55.38" fill="white"/>
</clipPath>
</defs>
</svg>
