<svg width="92" height="47" fill="none" xmlns="http://www.w3.org/2000/svg"><g clip-path="url(#clip0_201_29920)"><mask id="a" style="mask-type:alpha" maskUnits="userSpaceOnUse" x="0" y="7" width="16" height="40"><path d="M.117 7.67h15.117v38.74H.117V7.67z" fill="#fff"/></mask><g mask="url(#a)"><path fill-rule="evenodd" clip-rule="evenodd" d="M15.234 27.04v18.25c0 1.176.057 1.12-1.18 1.12h-1.8c-.507-.056-.563-.112-.563-.56-.057-.224 0-.448 0-.672 0-4.87 0-9.74-.057-14.555v-1.064c0-.056 0-.168-.112-.168-.056 0-.113.112-.113.168-.168.784-.337 1.511-.45 2.296-.45 2.575-.9 5.15-1.35 7.78l-.112.449c-.113.504-.169.56-.675.56H6.515c-.674 0-.73 0-.843-.728-.394-2.351-.788-4.703-1.238-7.054l-.506-2.8c0-.055-.056-.167-.169-.167-.056 0-.056.168-.056.224 0 .392-.056.728-.056 1.12v14.275c0 .784 0 .784-.844.84-.675 0-1.406 0-2.081-.056-.563 0-.563-.056-.619-.616V8.79c0-1.176-.056-1.12 1.125-1.12h1.744c.619 0 .675.056.787.672l.675 3.75c.956 5.543 1.913 11.141 2.925 16.683v.112c.113.168 0 .56.282.56.224 0 .168-.335.224-.56.282-1.567.563-3.079.788-4.646.956-5.262 1.856-10.525 2.813-15.787.112-.784.112-.784.9-.784h2.193c.62 0 .62.056.675.728V27.04z" fill="#643C28"/></g><path fill-rule="evenodd" clip-rule="evenodd" d="M37.622 17.642v5.921c.056.447.167.56.67.503.167 0 .334-.056.502-.112.949-.447 1.45-1.173 1.507-2.29v-3.91c0-1.397 0-2.737-.056-4.134 0-1.117-.67-1.955-1.674-2.29-.726-.224-.949-.056-.949.67v5.642zm-3.516 9.552V8.872c0-1.006 0-1.006 1.005-1.006h3.125c2.846 0 5.357 2.402 5.413 5.307.056 2.96.056 5.977 0 8.994 0 1.228-.502 2.29-1.284 3.295-.334.447-.334.447 0 .894a5.843 5.843 0 011.172 3.575c-.056 5.14 0 10.335 0 15.474 0 1.005-.056 1.005-1.004 1.005H40.69c-.39 0-.558-.167-.558-.503V30.211c0-.838-.223-1.565-.893-2.179a2.065 2.065 0 00-1.004-.447c-.447-.056-.558.056-.614.503v17.261c0 1.061 0 1.061-1.06 1.061h-1.897c-.391 0-.559-.167-.559-.503V27.194zM51.871 46.41h-3.257c-.618 0-.674-.055-.674-.726V9.042c0-1.285-.056-1.173 1.235-1.173h5.504c.898 0 .898 0 .955.894v1.954c-.057.67-.057.727-.73.727h-2.696c-.674 0-.73.056-.73.67v10.613c0 .614.056.67.786.67.618.056 1.292 0 1.91.056.505 0 .561.056.617.558v2.514c-.056.503-.112.559-.674.559h-1.853c-.73.056-.786.056-.786.782v13.908c0 .95 0 .95.898.95h2.359c1.067 0 1.067 0 1.067 1.117a10.13 10.13 0 010 1.843c0 .67-.056.726-.73.726H51.87z" fill="#643C28"/><mask id="b" style="mask-type:alpha" maskUnits="userSpaceOnUse" x="59" y="7" width="19" height="41"><path d="M59.697 7.571h17.489v39.43H59.697V7.57z" fill="#fff"/></mask><g mask="url(#b)" fill-rule="evenodd" clip-rule="evenodd" fill="#643C28"><path d="M59.697 27.216V8.971c0-1.005 0-1.005 1.005-1.005.67 0 1.285-.055 1.955 0 .503 0 .559.056.559.559v36.77c0 1.227.111 1.171-1.173 1.171H60.2c-.336 0-.503-.167-.503-.502V27.217zm7.115 11.216c0-1.284 0-2.511.056-3.795 0-.725 0-.725.726-.725.782 0 1.564-.056 2.346 0 .614 0 .67.056.67.67v7.308c.112.726.726 1.285 1.396 1.285.726 0 1.285-.614 1.285-1.396.056-1.115 0-2.287.056-3.403.055-2.4-.391-4.687-1.285-6.92l-4.188-11.381c-.67-1.898-1.117-3.906-1.062-5.97.056-.559 0-1.061 0-1.619.112-2.734 2.346-4.799 5.027-4.91a5.144 5.144 0 015.305 5.133c.056 1.116 0 2.232 0 3.404 0 .614-.056.67-.67.67h-2.513c-.559 0-.614-.056-.614-.614v-3.18c0-.447-.112-.838-.447-1.173-.726-.725-1.788-.502-2.178.447-.056.223-.112.39-.112.614-.112 1.952.112 3.905.838 5.747l4.69 12.777c.671 1.786.95 3.683 1.006 5.58a70.147 70.147 0 010 4.854c-.056 2.734-1.955 4.855-4.691 5.133-2.904.335-5.585-2.008-5.585-4.965-.056-1.172-.056-2.344-.056-3.571z"/></g><path fill-rule="evenodd" clip-rule="evenodd" d="M91.117 27.14v18.153c0 1.173 0 1.117-1.18 1.117h-1.518c-.563-.056-.619-.056-.675-.67V28.2c0-1.116 0-1.116-1.068-1.116h-1.63c-.395 0-.563.167-.563.558v17.65c0 1.118 0 1.118-1.124 1.118h-1.8c-.506-.056-.562-.112-.618-.614V9.04c0-1.284-.056-1.172 1.237-1.172h1.799c.337 0 .506.112.506.503v14.187c0 .838.056.838.843.838h1.912c.337 0 .506-.167.506-.503V9.042c0-.224.056-.447 0-.67 0-.391.225-.503.562-.503h2.25c.336 0 .561.112.505.503 0 .279.056.502.056.726V27.14z" fill="#643C28"/><path fill-rule="evenodd" clip-rule="evenodd" d="M29.455 46.214h-9.569a.396.396 0 01-.403-.389V43.16c0-.214.18-.388.403-.388h9.57c.222 0 .402.174.402.389v2.664c0 .215-.18.389-.403.389z" fill="#26B1AD"/><path fill-rule="evenodd" clip-rule="evenodd" d="M23.24 21.092c.026.011.052.026.078.038V5.556c0-.224-.056-.448 0-.673.113-.617.677-1.066 1.297-1.066.62 0 1.24.449 1.353 1.122v17.913l.074.044a9.521 9.521 0 003.816 1.194V5.95c0-.394-.056-.786-.113-1.18C29.69 2.19 27.265 0 24.615 0c-2.706 0-5.187 2.414-5.13 5.108.056 4.826 0 10.57 0 15.398v.325c1.038-.29 2.352-.37 3.756.26z" fill="#643C28"/><path fill-rule="evenodd" clip-rule="evenodd" d="M19.54 35.917c.45 2.235 2.368 3.854 4.736 4.078 2.143.223 4.341-1.117 5.13-3.184.34-.894.452-1.732.452-2.626V24.012a9.552 9.552 0 01-3.816-1.19 1.095 1.095 0 01-.074-.043V35.08a1.32 1.32 0 01-1.297 1.117c-.677 0-1.24-.446-1.354-1.173-.056-.167 0-.391 0-.558v-13.4l-.077-.038c-1.404-.627-2.718-.548-3.757-.26v14.145c0 .335 0 .67.057 1.005z" fill="#26B1AD"/></g><defs><clipPath id="clip0_201_29920"><path fill="#fff" transform="translate(.117)" d="M0 0h91v47H0z"/></clipPath></defs></svg>