<svg width="88" height="84" fill="none" xmlns="http://www.w3.org/2000/svg"><g clip-path="url(#clip0_201_46241)"><path d="M62.8 5.1c-1.4-.6-2.9-1.1-4.4-1.6h-.1c-.5-.2-1.1-.3-1.6-.5h-.1c-.7-.2-1.4-.5-2.2-.7-.2-.1-.5-.1-.7-.2-.3-.1-.6-.2-1-.3C48.8.6 44.8 0 40.6 0 18.3 0 .1 18.2.1 40.5c0 16.1 9.4 30 23 36.5.1 0 .1.1.2.1 2 1 4.2 1.8 6.4 2.5h.1l.9.3.9.3c.5.2.9.3 1.4.4.2.1.4.1.6.2.3.1.5.1.8.2.7.2 1.5.4 2.2.6 3.4 1 7.1 1.5 10.8 1.5C69.8 83.1 88 64.9 88 42.6c0-16.9-10.4-31.4-25.2-37.5zM32.1 79C18 73 8 58.9 8 42.6 8 20.8 25.7 3.1 47.5 3.1c2.7 0 5.2.3 7.8.8 1 .4 1.9.7 2.8 1.2 13 6.4 22 19.9 22 35.4C80.1 62.3 62.4 80 40.6 80c-2.8 0-5.5-.3-8.1-.9-.1 0-.3-.1-.4-.1z" fill="#000"/><path d="M40.5 80.5c22.1 0 40-17.9 40-40S62.6.5 40.5.5s-40 17.9-40 40 17.9 40 40 40z" fill="#fff"/><path d="M40.5 81C18.2 81 0 62.8 0 40.5S18.2 0 40.5 0 81 18.2 81 40.5 62.8 81 40.5 81zm0-80C18.7 1 1 18.7 1 40.5S18.7 80 40.5 80 80 62.3 80 40.5 62.3 1 40.5 1z" fill="#000"/></g><rect x="-.5" y=".5" width="44" height="6" rx="3" transform="matrix(-1 0 0 1 62.282 37.107)" fill="#D6FFF3" stroke="#000"/><mask id="a" fill="#fff"><path fill-rule="evenodd" clip-rule="evenodd" d="M34.853 33.266a3.499 3.499 0 10-4.58-5.292l-11.345 9.814a3.492 3.492 0 00-1.209 2.713 3.491 3.491 0 001.21 2.715l11.34 9.81a3.5 3.5 0 004.58-5.292l-8.36-7.232 8.364-7.236z"/></mask><path fill-rule="evenodd" clip-rule="evenodd" d="M34.853 33.266a3.499 3.499 0 10-4.58-5.292l-11.345 9.814a3.492 3.492 0 00-1.209 2.713 3.491 3.491 0 001.21 2.715l11.34 9.81a3.5 3.5 0 004.58-5.292l-8.36-7.232 8.364-7.236z" fill="#49DDA8"/><path d="M35.21 28.33l-.757.655.756-.655zm-.357 4.936l-.654-.756.654.756zm-4.58-5.292l-.655-.756.654.756zm-11.345 9.814l-.654-.756.654.756zm-1.209 2.713l1-.019v.038l-1-.02zm1.21 2.715l-.655.756.654-.756zm11.34 9.81l.654-.755-.655.756zm4.936-.356l.756.655-.756-.655zm-.356-4.936l-.655.756.655-.756zm-8.36-7.232l-.654.756-.874-.756.874-.756.654.756zm9.476-12.826a4.499 4.499 0 01-.458 6.347L34.2 32.51a2.499 2.499 0 00.254-3.525l1.512-1.31zm-6.347-.458a4.5 4.5 0 016.347.458l-1.512 1.309a2.5 2.5 0 00-3.526-.255l-1.309-1.512zm-11.344 9.814l11.344-9.814 1.309 1.512-11.344 9.815-1.309-1.513zm-1.555 3.487a4.492 4.492 0 011.555-3.487l1.309 1.513a2.492 2.492 0 00-.864 1.937l-2 .037zm2 0c-.014.72.28 1.435.863 1.94l-1.308 1.513a4.492 4.492 0 01-1.555-3.49l2 .038zm.863 1.94l11.34 9.812-1.308 1.512-11.34-9.811 1.308-1.513zm11.34 9.812a2.5 2.5 0 003.527-.255l1.512 1.309a4.5 4.5 0 01-6.347.458l1.308-1.512zm3.527-.255a2.5 2.5 0 00-.255-3.526l1.309-1.512a4.5 4.5 0 01.458 6.347l-1.512-1.309zm-.255-3.526l-8.359-7.232 1.309-1.512 8.359 7.232-1.309 1.512zm1.313-14.467l-8.363 7.235-1.309-1.512L34.2 32.51l1.308 1.513z" fill="#000" mask="url(#a)"/><defs><clipPath id="clip0_201_46241"><path fill="#fff" d="M0 0h88v83.1H0z"/></clipPath></defs></svg>