<svg width="150" height="78" fill="none" xmlns="http://www.w3.org/2000/svg"><g clip-path="url(#clip0_201_20102)"><mask id="a" style="mask-type:alpha" maskUnits="userSpaceOnUse" x="0" y="12" width="25" height="65"><path d="M0 12.642h24.919V76.5H0V12.642z" fill="#fff"/></mask><g mask="url(#a)"><path fill-rule="evenodd" clip-rule="evenodd" d="M24.918 44.571v30.083c0 1.937.093 1.845-1.947 1.845h-2.967c-.834-.092-.927-.184-.927-.923-.093-.368 0-.738 0-1.107 0-8.028 0-16.056-.093-23.993v-1.753c0-.092 0-.276-.185-.276-.093 0-.186.184-.186.276-.278 1.292-.556 2.492-.741 3.784-.742 4.245-1.484 8.49-2.226 12.826l-.186.739c-.185.83-.277.923-1.112.923h-3.802c-1.112 0-1.205 0-1.39-1.2-.65-3.876-1.299-7.752-2.04-11.627l-.835-4.614c0-.092-.093-.277-.278-.277-.093 0-.093.277-.093.37 0 .645-.092 1.199-.092 1.845v23.531c0 1.292 0 1.292-1.391 1.384-1.113 0-2.318 0-3.431-.092-.927 0-.927-.093-1.02-1.015V14.488c0-1.938-.093-1.845 1.855-1.845h2.874c1.02 0 1.113.092 1.298 1.107l1.112 6.182c1.577 9.136 3.153 18.364 4.822 27.5v.184c.186.276 0 .923.464.923.37 0 .278-.554.37-.923.465-2.584.928-5.075 1.3-7.659 1.575-8.674 3.059-17.349 4.635-26.023.185-1.291.185-1.291 1.484-1.291h3.616c1.02 0 1.02.092 1.112 1.199V44.57z" fill="#643C28"/></g><path fill-rule="evenodd" clip-rule="evenodd" d="M61.822 29.08v9.76c.091.736.275.921 1.103.828.276 0 .552-.092.828-.184 1.564-.736 2.391-1.933 2.483-3.775v-6.445c0-2.302 0-4.512-.092-6.814 0-1.841-1.103-3.223-2.759-3.775-1.196-.369-1.563-.092-1.563 1.105v9.3zm-5.796 15.745V14.623c0-1.657 0-1.657 1.656-1.657h5.151c4.692 0 8.83 3.959 8.922 8.747.092 4.88.092 9.853 0 14.825 0 2.026-.827 3.775-2.115 5.432-.552.737-.552.737 0 1.474 1.288 1.75 1.931 3.683 1.931 5.893-.092 8.471 0 17.034 0 25.505 0 1.658-.092 1.658-1.655 1.658H66.88c-.644 0-.92-.276-.92-.829V49.797c0-1.38-.367-2.578-1.471-3.59a3.404 3.404 0 00-1.656-.737c-.736-.093-.92.092-1.011.828v28.453c0 1.75 0 1.75-1.748 1.75h-3.128c-.644 0-.92-.277-.92-.83V44.825zM85.308 76.5h-5.37c-1.018 0-1.11-.092-1.11-1.197V14.904c0-2.118-.093-1.934 2.036-1.934h9.072c1.481 0 1.481 0 1.574 1.473v3.222c-.093 1.106-.093 1.198-1.204 1.198h-4.443c-1.11 0-1.203.092-1.203 1.104v17.495c0 1.012.092 1.104 1.295 1.104 1.02.092 2.13 0 3.148.092.833 0 .926.092 1.018.92v4.144c-.092.829-.185.921-1.11.921h-3.056c-1.203.092-1.295.092-1.295 1.289v22.926c0 1.565 0 1.565 1.48 1.565h3.889c1.758 0 1.758 0 1.758 1.842a16.67 16.67 0 010 3.038c0 1.105-.092 1.197-1.203 1.197h-5.276z" fill="#643C28"/><mask id="b" style="mask-type:alpha" maskUnits="userSpaceOnUse" x="98" y="12" width="30" height="66"><path d="M98.208 12.48h28.827v64.992H98.208V12.48z" fill="#fff"/></mask><g mask="url(#b)" fill-rule="evenodd" clip-rule="evenodd" fill="#643C28"><path d="M98.208 44.862V14.787c0-1.656 0-1.656 1.657-1.656 1.104 0 2.117-.092 3.222 0 .828 0 .92.092.92.92v60.611c0 2.022.185 1.93-1.933 1.93h-3.038c-.552 0-.828-.275-.828-.827V44.862zm11.728 18.487c0-2.116 0-4.14.093-6.255 0-1.195 0-1.195 1.197-1.195 1.288 0 2.577-.092 3.866 0 1.012 0 1.104.091 1.104 1.103V69.05c.184 1.196 1.197 2.116 2.302 2.116 1.197 0 2.117-1.011 2.117-2.3.092-1.838 0-3.77.092-5.61.092-3.954-.644-7.725-2.117-11.404l-6.904-18.762c-1.105-3.128-1.841-6.439-1.75-9.842.093-.92 0-1.747 0-2.667.185-4.507 3.867-7.91 8.286-8.094 4.234-.184 8.653 3.128 8.745 8.462.092 1.84 0 3.679 0 5.61 0 1.012-.092 1.104-1.105 1.104h-4.142c-.921 0-1.013-.092-1.013-1.012V21.41c0-.736-.184-1.38-.736-1.932-1.197-1.195-2.946-.828-3.591.736-.091.368-.184.644-.184 1.012-.184 3.219.184 6.438 1.381 9.473l7.733 21.062c1.105 2.943 1.565 6.07 1.657 9.197.092 2.667.092 5.335 0 8.002-.092 4.507-3.222 8.001-7.733 8.461-4.787.552-9.205-3.311-9.205-8.185-.093-1.932-.093-3.863-.093-5.886z"/></g><path fill-rule="evenodd" clip-rule="evenodd" d="M150 44.735v29.923c0 1.933 0 1.841-1.947 1.841h-2.501c-.928-.091-1.02-.091-1.113-1.104V46.484c0-1.841 0-1.841-1.761-1.841h-2.687c-.649 0-.927.276-.927.92v29.095c0 1.841 0 1.841-1.853 1.841h-2.966c-.834-.091-.927-.184-1.02-1.012V14.904c0-2.118-.092-1.934 2.039-1.934h2.966c.556 0 .834.184.834.829v23.386c0 1.381.093 1.381 1.39 1.381h3.151c.556 0 .834-.276.834-.829V14.903c0-.368.093-.736 0-1.104 0-.645.371-.829.927-.829h3.707c.556 0 .927.184.834.829 0 .46.093.828.093 1.196v29.74z" fill="#643C28"/><path fill-rule="evenodd" clip-rule="evenodd" d="M48.359 76.176H32.586a.653.653 0 01-.664-.64v-4.393c0-.353.297-.64.664-.64h15.773c.366 0 .664.287.664.64v4.392c0 .354-.298.64-.664.64z" fill="#26B1AD"/><path fill-rule="evenodd" clip-rule="evenodd" d="M38.115 34.766c.042.02.085.043.128.062V9.158c0-.369-.093-.74 0-1.11.185-1.017 1.115-1.757 2.137-1.757s2.045.74 2.23 1.85v29.527l.123.072a15.693 15.693 0 006.29 1.969V9.806c0-.647-.093-1.295-.186-1.942C48.744 3.608 44.747 0 40.38 0c-4.46 0-8.55 3.978-8.457 8.419.093 7.956 0 17.425 0 25.381v.537c1.712-.48 3.878-.61 6.192.43z" fill="#643C28"/><path fill-rule="evenodd" clip-rule="evenodd" d="M32.015 59.204c.743 3.683 3.903 6.353 7.807 6.721 3.531.368 7.156-1.841 8.457-5.248.558-1.473.744-2.855.744-4.328v-16.77a15.75 15.75 0 01-6.29-1.96c-.041-.022-.082-.047-.123-.07v20.273a2.177 2.177 0 01-2.138 1.842c-1.115 0-2.045-.736-2.23-1.934-.093-.276 0-.645 0-.92V34.721c-.042-.02-.085-.043-.128-.062-2.314-1.035-4.48-.904-6.192-.428v23.314c0 .553 0 1.105.093 1.658z" fill="#26B1AD"/></g><defs><clipPath id="clip0_201_20102"><path fill="#fff" d="M0 0h150v77.472H0z"/></clipPath></defs></svg>