
<svg width="161" height="37" viewBox="0 0 161 37" fill="none" xmlns="http://www.w3.org/2000/svg">
<g clip-path="url(#clip0_201_42815)">
<path d="M52.9421 10.0662C46.3922 10.0662 40.6172 15.5288 40.6172 23.3452C40.6172 29.9406 46.1297 36.0955 53.0296 36.0955C58.2921 36.0955 62.8546 32.7978 64.7546 27.675H60.1921C58.7296 30.3686 56.0546 31.8412 53.2171 31.8412C49.5171 31.8412 46.2422 29.1477 45.2047 25.0696H65.4546C65.6296 24.2011 65.6296 23.5088 65.6296 22.7284C65.6046 15.705 60.0921 10.0662 52.9421 10.0662ZM45.1922 21.5201C45.5422 17.2658 49.3296 14.3205 53.0296 14.3205C56.9921 14.3205 60.6171 17.3539 60.9546 21.5201H45.1922Z" fill="#0A0909"/>
<path d="M89.1292 14.2324C87.1417 11.3626 84.1292 10.0662 80.5917 10.0662C73.4418 10.0662 67.8418 15.6169 67.8418 23.5214C67.8418 30.6329 73.6168 36.1081 80.7667 36.1081C84.2167 36.1081 87.3167 34.6355 89.0417 31.6776H89.1292V35.4914H93.6917V10.7584H89.1292V14.2324ZM80.6917 31.8538C76.0418 31.8538 72.3293 27.7757 72.3293 23.1815C72.3293 18.3231 76.1168 14.3331 80.6917 14.3331C85.7792 14.3331 89.2292 18.3231 89.2292 23.1815C89.2167 27.8638 85.5167 31.8538 80.6917 31.8538Z" fill="#0A0909"/>
<path d="M103.429 2.52686H98.8662V35.5041H103.429V2.52686Z" fill="#0A0909"/>
<path d="M119.729 14.3205C123.092 14.3205 125.242 16.0575 126.629 18.9146H131.717C130.254 13.6156 125.167 10.0662 119.654 10.0662C112.504 10.0662 107.154 15.8812 107.154 23.3452C107.154 30.3686 112.667 36.0955 119.654 36.0955C124.992 36.0955 129.742 32.8859 131.629 27.3352H126.542C125.254 30.1168 122.754 31.8412 119.642 31.8412C114.992 31.8412 111.717 28.0274 111.717 23.0809C111.717 18.0587 114.904 14.3205 119.729 14.3205Z" fill="#0A0909"/>
<path d="M147.041 10.0662C139.541 10.0662 133.679 15.6169 133.679 23.169C133.679 30.1924 139.791 36.0955 146.691 36.0955C154.441 36.0955 159.966 29.8525 160.054 23.2571C160.141 15.4533 153.766 10.0662 147.041 10.0662ZM146.791 31.8538C142.141 31.8538 138.341 27.7757 138.341 23.0934C138.341 18.235 142.304 14.3331 146.879 14.3331C151.616 14.3331 155.491 18.235 155.491 23.0053C155.491 28.0274 151.616 31.8538 146.791 31.8538Z" fill="#0A0909"/>
<path d="M27.0045 10.0662C23.2171 10.0662 20.7171 11.4507 18.9921 14.2324C17.7796 11.6269 14.5921 10.0662 11.4046 10.0662C8.21714 10.0662 6.40465 11.1109 4.42966 13.452H4.34216V10.7584H0.117188V35.4914H4.67966V21.6082C4.67966 16.7497 6.66715 14.3205 10.7171 14.3205C13.9921 14.3205 16.2296 16.2337 16.2296 21.0921V35.4914H20.7921V21.6082C20.7921 16.6616 22.5171 14.4086 26.567 14.4086C30.442 14.4086 32.342 17.014 32.342 21.6963V35.4914H36.9045V20.488C36.917 14.0562 33.3795 10.0662 27.0045 10.0662Z" fill="#0A0909"/>
<path d="M26.3666 1.63313C26.3541 1.5702 26.2791 1.53244 26.2166 1.55761C25.9541 1.68348 25.2541 1.97297 24.5166 1.97297C18.4541 1.89745 19.2416 6.60489 19.3291 6.60489L19.0166 7.24681L18.6166 6.42868C18.7166 6.42868 19.7166 0.449976 12.0292 0.55067C11.0542 0.55067 10.1542 0.160481 9.84169 0.00944005C9.7792 -0.0157334 9.7042 0.00944005 9.6917 0.0849605C9.5542 0.638777 9.1292 2.91698 10.4292 5.33363C10.5792 5.61054 10.8292 5.97555 11.1917 6.35316C11.4167 6.5923 11.6917 6.83145 12.0042 7.04543C13.1667 7.86356 14.9042 8.37962 17.2167 7.32233C18.0041 7.9265 18.6041 9.78934 18.8916 11.0606C18.9166 11.1739 19.0791 11.1739 19.1041 11.048C19.2416 10.104 19.4666 8.64394 19.8666 8.03978C20.0416 7.7377 20.2166 7.51114 20.4416 7.29716C20.4291 7.30975 20.4541 7.28457 20.4416 7.29716C22.7416 8.35445 24.3291 7.42303 25.1791 6.52937C25.2416 6.46644 25.2791 6.41609 25.3291 6.35316C25.5291 6.12659 25.6916 5.90003 25.7791 5.72382C26.7791 3.86098 26.4791 2.11143 26.3666 1.63313Z" fill="#0A0909"/>
</g>
<defs>
<clipPath id="clip0_201_42815">
<rect width="160" height="36.3121" fill="white" transform="translate(0.117188)"/>
</clipPath>
</defs>
</svg>
