<svg width="161" height="37" fill="none" xmlns="http://www.w3.org/2000/svg"><g clip-path="url(#clip0_201_42815)" fill="#0A0909"><path d="M52.942 10.066c-6.55 0-12.325 5.463-12.325 13.28 0 6.595 5.513 12.75 12.413 12.75 5.262 0 9.825-3.298 11.725-8.421h-4.563c-1.462 2.694-4.137 4.166-6.975 4.166-3.7 0-6.975-2.693-8.012-6.771h20.25c.175-.869.175-1.561.175-2.342-.025-7.023-5.538-12.662-12.688-12.662zm-7.75 11.454c.35-4.254 4.138-7.2 7.838-7.2 3.962 0 7.587 3.034 7.925 7.2H45.192zm43.938-7.288c-1.988-2.87-5-4.166-8.538-4.166-7.15 0-12.75 5.55-12.75 13.455 0 7.112 5.775 12.587 12.925 12.587 3.45 0 6.55-1.472 8.275-4.43h.087v3.813h4.563V10.758h-4.563v3.474zm-8.438 17.622c-4.65 0-8.363-4.078-8.363-8.672 0-4.859 3.788-8.849 8.363-8.849 5.087 0 8.537 3.99 8.537 8.848-.012 4.683-3.712 8.673-8.537 8.673zm22.737-29.327h-4.563v32.977h4.563V2.527zm16.3 11.793c3.363 0 5.513 1.738 6.9 4.595h5.088c-1.463-5.3-6.55-8.849-12.063-8.849-7.15 0-12.5 5.815-12.5 13.28 0 7.023 5.513 12.75 12.5 12.75 5.338 0 10.088-3.21 11.975-8.76h-5.087c-1.288 2.78-3.788 4.505-6.9 4.505-4.65 0-7.925-3.814-7.925-8.76 0-5.022 3.187-8.76 8.012-8.76zm27.312-4.254c-7.5 0-13.362 5.55-13.362 13.103 0 7.023 6.112 12.927 13.012 12.927 7.75 0 13.275-6.243 13.363-12.839.087-7.804-6.288-13.19-13.013-13.19zm-.25 21.788c-4.65 0-8.45-4.078-8.45-8.76 0-4.859 3.963-8.76 8.538-8.76 4.737 0 8.612 3.901 8.612 8.671 0 5.022-3.875 8.849-8.7 8.849zM27.005 10.066c-3.788 0-6.288 1.385-8.013 4.166-1.212-2.605-4.4-4.166-7.587-4.166-3.188 0-5 1.045-6.975 3.386h-.088v-2.694H.117v24.733H4.68V21.608c0-4.858 1.987-7.288 6.037-7.288 3.275 0 5.513 1.914 5.513 6.772v14.4h4.562V21.607c0-4.946 1.725-7.2 5.775-7.2 3.875 0 5.775 2.606 5.775 7.288V35.49h4.563V20.488c.012-6.432-3.526-10.422-9.9-10.422z"/><path d="M26.367 1.633c-.013-.063-.088-.1-.15-.075-.263.125-.963.415-1.7.415-6.063-.076-5.275 4.632-5.188 4.632l-.312.642-.4-.818c.1 0 1.1-5.979-6.588-5.878-.975 0-1.875-.39-2.187-.542-.063-.025-.138 0-.15.076-.138.554-.563 2.832.737 5.249.15.277.4.642.763 1.02.225.238.5.477.812.691 1.163.819 2.9 1.335 5.213.277.787.604 1.387 2.467 1.675 3.739.025.113.187.113.212-.013.138-.944.363-2.404.763-3.008a3.16 3.16 0 01.575-.743c-.013.013.012-.012 0 0 2.3 1.057 3.887.126 4.737-.768.063-.063.1-.113.15-.176.2-.226.363-.453.45-.63 1-1.862.7-3.612.588-4.09z"/></g><defs><clipPath id="clip0_201_42815"><path fill="#fff" transform="translate(.117)" d="M0 0h160v36.312H0z"/></clipPath></defs></svg>