<svg width="70" height="71" fill="none" xmlns="http://www.w3.org/2000/svg"><g clip-path="url(#clip0_201_19422)"><path d="M61.63 15.394a31.93 31.93 0 01-3.377 45.016l.176.21-.176-.21a31.937 31.937 0 01-45.016-3.447 31.933 31.933 0 013.447-45.016 31.905 31.905 0 0144.946 3.447z" fill="#000" stroke="#000" stroke-width="1.5"/><path d="M56.742 14.339a31.93 31.93 0 01-3.376 45.016l.175.21-.175-.21A31.94 31.94 0 018.35 55.908a31.93 31.93 0 013.45-45.016 31.905 31.905 0 0144.942 3.447z" fill="#FBB251" stroke="#000" stroke-width="1.5"/><path d="M31.6 47.508v-3.32a13.694 13.694 0 01-5.591-2.008l-.495-3.697a13.14 13.14 0 008.006 2.882c2.795 0 4.28-1.02 4.28-3 0-1.542-1.194-2.444-3.318-2.764l-3.436-.495c-3.394-.495-5.56-2.039-5.56-5.272 0-3.232 2.262-5.325 6.055-5.792v-3.32h3.492v3.292c1.864.232 3.437.755 4.543 1.485l.466 3.696a11.265 11.265 0 00-6.697-2.33c-2.735 0-4.454.817-4.454 2.65 0 1.397 1.02 2.155 2.737 2.387l3.437.467c3.812.523 6.143 2.387 6.143 5.588 0 3.64-2.563 5.767-6.115 6.222v3.32l-3.493.01z" fill="#000"/></g><defs><clipPath id="clip0_201_19422"><path fill="#fff" transform="translate(0 .665)" d="M0 0h70v70H0z"/></clipPath></defs></svg>