<svg width="74" height="82" fill="none" xmlns="http://www.w3.org/2000/svg"><path d="M38.938 4.647a16.53 16.53 0 00-16.533 16.53h5.64a10.881 10.881 0 0121.763 0h5.64a16.53 16.53 0 00-16.51-16.53z" fill="#fff" stroke="#000"/><path d="M67.757 81.48H10.12a5.096 5.096 0 01-5.046-5.889l7.987-50.775a5.097 5.097 0 015.046-4.307h41.671a5.097 5.097 0 015.046 4.307l7.979 50.775a5.098 5.098 0 01-5.046 5.889z" fill="#fff" stroke="#000"/><path d="M38.861 4.585a16.53 16.53 0 00-16.53 16.53h5.64a10.885 10.885 0 0121.766 0h5.64A16.53 16.53 0 0038.86 4.585z" fill="#FBFEFD" stroke="#000"/><path d="M67.68 81.418H10.04a5.1 5.1 0 01-5.047-5.89l7.99-50.774a5.103 5.103 0 015.047-4.307H59.7a5.097 5.097 0 015.047 4.307l7.978 50.775a5.098 5.098 0 01-5.046 5.889z" fill="#FBFEFD" stroke="#000"/><path d="M38.787 4.522a16.53 16.53 0 00-16.533 16.53h5.64a10.884 10.884 0 0121.766 0h5.64a16.53 16.53 0 00-16.513-16.53z" fill="#F8FEFC" stroke="#000"/><path d="M67.603 81.355H9.968a5.097 5.097 0 01-5.046-5.889l7.988-50.774a5.096 5.096 0 015.046-4.307h41.668a5.102 5.102 0 015.031 4.307l7.979 50.774a5.098 5.098 0 01-5.031 5.89z" fill="#F8FEFC" stroke="#000"/><path d="M38.71 4.448a16.53 16.53 0 00-16.533 16.53h5.64a10.882 10.882 0 0121.763 0h5.64a16.53 16.53 0 00-16.51-16.53z" fill="#F4FDFA" stroke="#000"/><path d="M67.528 81.296H9.891a5.097 5.097 0 01-5.046-5.892l7.988-50.772a5.097 5.097 0 015.046-4.307h41.67a5.097 5.097 0 015.047 4.307l7.978 50.775a5.097 5.097 0 01-5.046 5.889z" fill="#F4FDFA" stroke="#000"/><path d="M38.633 4.398a16.53 16.53 0 00-16.53 16.533h5.64a10.884 10.884 0 1121.765 0h5.64A16.533 16.533 0 0038.633 4.398z" fill="#F1FCF8" stroke="#000"/><path d="M67.452 81.234H9.817a5.102 5.102 0 01-5.046-5.892l7.985-50.775a5.105 5.105 0 015.046-4.307h41.671a5.1 5.1 0 015.046 4.307l7.979 50.775a5.1 5.1 0 01-5.046 5.892z" fill="#F1FCF8" stroke="#000"/><path d="M38.559 4.335A16.533 16.533 0 0022.025 20.87h5.64a10.886 10.886 0 0120.99-4.22c.536 1.34.8 2.775.776 4.22h5.64A16.53 16.53 0 0038.559 4.335z" fill="#EDFCF6" stroke="#000"/><path d="M67.374 81.171H9.743a5.1 5.1 0 01-5.046-5.892l7.984-50.774a5.1 5.1 0 015.046-4.307h41.668a5.105 5.105 0 015.046 4.307l7.98 50.774a5.102 5.102 0 01-5.047 5.892z" fill="#EDFCF6" stroke="#000"/><path d="M38.481 4.273a16.533 16.533 0 00-16.533 16.533h5.64a10.882 10.882 0 1121.763 0h5.64A16.533 16.533 0 0038.48 4.273z" fill="#EAFBF5" stroke="#000"/><path d="M67.3 81.109H9.663a5.099 5.099 0 01-5.046-5.892l7.987-50.775a5.1 5.1 0 015.046-4.307h41.662a5.099 5.099 0 015.046 4.307l7.979 50.775a5.099 5.099 0 01-5.037 5.892z" fill="#EAFBF5" stroke="#000"/><path d="M38.404 4.21a16.53 16.53 0 00-16.53 16.534h5.64a10.884 10.884 0 1121.766 0h5.64A16.533 16.533 0 0038.403 4.21z" fill="#E6FAF3" stroke="#000"/><path d="M67.222 81.047H9.588a5.102 5.102 0 01-5.046-5.892L12.53 24.38a5.099 5.099 0 015.046-4.307h41.668a5.1 5.1 0 015.046 4.307l7.978 50.775a5.1 5.1 0 01-5.046 5.892z" fill="#E6FAF3" stroke="#000"/><path d="M38.33 4.151a16.533 16.533 0 00-16.533 16.534h5.64a10.884 10.884 0 0121.766 0h5.64A16.53 16.53 0 0038.33 4.15z" fill="#E2FAF1" stroke="#000"/><path d="M67.146 80.984H9.51a5.1 5.1 0 01-5.046-5.892l7.988-50.775a5.1 5.1 0 015.046-4.306h41.668a5.106 5.106 0 015.046 4.306l7.973 50.775a5.102 5.102 0 01-5.04 5.892z" fill="#E2FAF1" stroke="#000"/><path d="M38.253 4.086A16.533 16.533 0 0021.72 20.62h5.64a10.882 10.882 0 1121.763 0h5.64a16.533 16.533 0 00-16.51-16.533z" fill="#DFF9F0" stroke="#000"/><path d="M67.071 80.922H9.446A5.1 5.1 0 014.4 75.03l7.979-50.757a5.1 5.1 0 015.045-4.31h41.669a5.1 5.1 0 015.046 4.31l7.978 50.772a5.1 5.1 0 01-5.046 5.877z" fill="#DFF9F0" stroke="#000"/><path d="M38.176 4.024a16.53 16.53 0 00-16.53 16.533h5.64a10.885 10.885 0 0121.765 0h5.64A16.533 16.533 0 0038.176 4.024z" fill="#DBF8EE" stroke="#000"/><path d="M66.994 80.86H9.359a5.1 5.1 0 01-5.046-5.89l7.988-50.774a5.1 5.1 0 015.037-4.313h41.677a5.1 5.1 0 015.046 4.31l7.979 50.775a5.097 5.097 0 01-5.046 5.892z" fill="#DBF8EE" stroke="#000"/><path d="M38.102 3.964a16.53 16.53 0 00-16.534 16.53h5.64a10.885 10.885 0 0121.766 0h5.64a16.53 16.53 0 00-16.512-16.53z" fill="#D8F8EC" stroke="#000"/><path d="M66.917 80.797H9.283a5.096 5.096 0 01-5.046-5.889l7.987-50.774a5.1 5.1 0 015.046-4.31h41.668a5.105 5.105 0 015.046 4.31l7.973 50.774a5.1 5.1 0 01-5.04 5.89z" fill="#D8F8EC" stroke="#000"/><path d="M38.024 3.902a16.53 16.53 0 00-16.533 16.53h5.64a10.881 10.881 0 1121.763 0h5.64a16.53 16.53 0 00-16.51-16.53z" fill="#D4F7EB" stroke="#000"/><path d="M66.843 80.732H9.206a5.096 5.096 0 01-5.046-5.89l7.987-50.77a5.096 5.096 0 015.046-4.308h41.671a5.097 5.097 0 015.046 4.307l7.979 50.775a5.097 5.097 0 01-5.046 5.886z" fill="#D4F7EB" stroke="#000"/><path d="M37.941 3.855A16.53 16.53 0 0021.417 20.37h5.64a10.885 10.885 0 0121.766 0h5.64A16.53 16.53 0 0037.94 3.855z" fill="#D1F6E9" stroke="#000"/><path d="M66.765 80.673H9.131a5.098 5.098 0 01-5.028-5.877l7.97-50.787a5.097 5.097 0 015.045-4.307h41.669a5.096 5.096 0 015.046 4.307l7.97 50.787a5.095 5.095 0 01-5.038 5.877z" fill="#D1F6E9" stroke="#000"/><path d="M37.873 3.777a16.53 16.53 0 00-16.533 16.53h5.64a10.885 10.885 0 0121.766 0h5.64a16.53 16.53 0 00-16.513-16.53z" fill="#CDF6E7" stroke="#000"/><path d="M66.689 80.61H9.054a5.097 5.097 0 01-5.046-5.889l7.988-50.774a5.096 5.096 0 015.046-4.307h41.677a5.102 5.102 0 015.046 4.307l7.978 50.774a5.1 5.1 0 01-5.054 5.89z" fill="#CDF6E7" stroke="#000"/><path d="M37.796 3.715a16.53 16.53 0 00-16.533 16.53h5.64a10.88 10.88 0 0121.763 0h5.64a16.53 16.53 0 00-16.51-16.53z" fill="#C9F5E5" stroke="#000"/><path d="M66.614 80.55H8.977a5.1 5.1 0 01-5.046-5.891l7.988-50.775a5.097 5.097 0 015.037-4.298h41.68a5.097 5.097 0 015.046 4.307l7.978 50.775a5.1 5.1 0 01-5.046 5.883z" fill="#C9F5E5" stroke="#000"/><path d="M37.719 3.653a16.53 16.53 0 00-16.53 16.527h5.64a10.884 10.884 0 1121.765 0h5.64A16.533 16.533 0 0037.719 3.653z" fill="#C6F4E4" stroke="#000"/><path d="M66.537 80.489H8.902a5.102 5.102 0 01-5.046-5.892l7.988-50.775a5.1 5.1 0 015.046-4.307h41.668a5.1 5.1 0 015.046 4.307l7.979 50.775a5.1 5.1 0 01-5.046 5.892z" fill="#C6F4E4" stroke="#000"/><path d="M37.644 3.59a16.533 16.533 0 00-16.533 16.534h5.64a10.884 10.884 0 1121.766 0h5.64A16.53 16.53 0 0037.644 3.59z" fill="#C2F4E2" stroke="#000"/><path d="M66.46 80.435H8.826a5.1 5.1 0 01-5.046-5.892l7.987-50.783a5.099 5.099 0 015.046-4.307h41.668a5.106 5.106 0 015.046 4.307l7.979 50.774a5.102 5.102 0 01-5.046 5.901z" fill="#C2F4E2" stroke="#000"/><path d="M37.567 3.528a16.533 16.533 0 00-16.544 16.533h5.64a10.882 10.882 0 0121.762 0h5.64A16.533 16.533 0 0037.567 3.528z" fill="#BFF3E0" stroke="#000"/><path d="M66.386 80.364H8.749a5.099 5.099 0 01-5.046-5.892l7.987-50.775a5.1 5.1 0 015.046-4.307h41.686a5.1 5.1 0 015.046 4.307l7.955 50.775a5.1 5.1 0 01-5.037 5.892z" fill="#BFF3E0" stroke="#000"/><path d="M37.49 3.466a16.53 16.53 0 00-16.53 16.533h5.64a10.886 10.886 0 0120.99-4.22c.536 1.34.8 2.776.776 4.22h5.64A16.533 16.533 0 0037.49 3.466z" fill="#BBF2DF" stroke="#000"/><path d="M66.308 80.302H8.674a5.103 5.103 0 01-5.046-5.892l7.987-50.775a5.1 5.1 0 015.046-4.307H58.33a5.1 5.1 0 015.046 4.307l7.97 50.775a5.099 5.099 0 01-5.038 5.892z" fill="#BBF2DF" stroke="#000"/><path d="M37.416 3.403a16.533 16.533 0 00-16.533 16.534h5.64a10.884 10.884 0 0121.766 0h5.64A16.53 16.53 0 0037.415 3.402z" fill="#B8F2DD" stroke="#000"/><path d="M66.231 80.24H8.597a5.1 5.1 0 01-5.046-5.893l7.988-50.774a5.1 5.1 0 015.03-4.307h41.684a5.106 5.106 0 015.046 4.307l7.979 50.774a5.102 5.102 0 01-5.047 5.892z" fill="#B8F2DD" stroke="#000"/><path d="M37.348 3.341a16.533 16.533 0 00-16.542 16.542h5.64a10.882 10.882 0 0121.762 0h5.64a16.533 16.533 0 00-16.5-16.542z" fill="#B4F1DB" stroke="#000"/><path d="M66.157 80.177H8.52a5.1 5.1 0 01-5.046-5.892l7.979-50.757a5.1 5.1 0 015.046-4.31h41.68a5.1 5.1 0 015.046 4.31l7.96 50.757a5.099 5.099 0 01-5.028 5.892z" fill="#B4F1DB" stroke="#000"/><path d="M37.262 3.282a16.53 16.53 0 00-16.536 16.53h5.64a10.884 10.884 0 0121.765 0h5.64a16.53 16.53 0 00-16.51-16.53z" fill="#B0F0D9" stroke="#000"/><path d="M66.08 80.115H8.445a5.098 5.098 0 01-5.046-5.89l7.988-50.78a5.1 5.1 0 015.046-4.31H58.1a5.1 5.1 0 015.046 4.31l7.979 50.775a5.096 5.096 0 01-5.046 5.895z" fill="#B0F0D9" stroke="#000"/><path d="M37.187 3.22a16.53 16.53 0 00-16.533 16.53h5.64a10.884 10.884 0 0121.766 0h5.64A16.53 16.53 0 0037.187 3.22z" fill="#ADF0D8" stroke="#000"/><path d="M66.003 80.052H8.369a5.096 5.096 0 01-5.046-5.889L11.31 23.39a5.1 5.1 0 015.046-4.31h41.668a5.106 5.106 0 015.046 4.31l7.979 50.774a5.097 5.097 0 01-5.046 5.89z" fill="#ADF0D8" stroke="#000"/><path d="M37.11 3.157a16.53 16.53 0 00-16.533 16.53h5.64a10.882 10.882 0 1121.763 0h5.64a16.53 16.53 0 00-16.51-16.53z" fill="#A9EFD6" stroke="#000"/><path d="M65.929 79.99H8.292a5.096 5.096 0 01-5.046-5.89l7.981-50.774a5.1 5.1 0 015.046-4.307H57.95a5.097 5.097 0 015.046 4.307l7.979 50.775a5.098 5.098 0 01-5.046 5.889z" fill="#A9EFD6" stroke="#000"/><path d="M37.033 3.095a16.53 16.53 0 00-16.53 16.53h5.64a10.884 10.884 0 0121.766 0h5.64a16.53 16.53 0 00-16.516-16.53z" fill="#A6EED4" stroke="#000"/><path d="M65.842 79.927H8.217a5.1 5.1 0 01-5.046-5.889l7.987-50.774a5.096 5.096 0 015.046-4.307h41.669a5.097 5.097 0 015.046 4.307l7.97 50.774a5.098 5.098 0 01-5.047 5.89z" fill="#A6EED4" stroke="#000"/><path d="M36.959 3.032a16.53 16.53 0 00-16.53 16.53h5.64a10.884 10.884 0 0121.765 0h5.64A16.53 16.53 0 0036.96 3.032z" fill="#A2EED3" stroke="#000"/><path d="M65.778 79.868H8.14a5.097 5.097 0 01-5.046-5.892l7.988-50.774a5.096 5.096 0 015.046-4.307h41.668a5.102 5.102 0 015.046 4.307l7.978 50.774a5.103 5.103 0 01-5.042 5.892z" fill="#A2EED3" stroke="#000"/><path d="M36.882 2.964a16.533 16.533 0 00-16.533 16.53h5.64a10.882 10.882 0 1121.762 0h5.64a16.533 16.533 0 00-16.51-16.53z" fill="#9FEDD1" stroke="#000"/><path d="M65.7 79.806H8.062a5.1 5.1 0 01-5.037-5.901l7.979-50.757a5.103 5.103 0 015.046-4.307h41.67a5.1 5.1 0 015.046 4.307l7.97 50.757a5.099 5.099 0 01-5.037 5.9z" fill="#9FEDD1" stroke="#000"/><path d="M36.804 2.908a16.53 16.53 0 00-16.53 16.533h5.64a10.884 10.884 0 1121.766 0h5.64A16.533 16.533 0 0036.804 2.908z" fill="#9BECCF" stroke="#000"/><path d="M65.623 79.743H7.988a5.102 5.102 0 01-5.046-5.891l7.988-50.775a5.1 5.1 0 015.046-4.307h41.668a5.1 5.1 0 015.046 4.307l7.979 50.775a5.1 5.1 0 01-5.046 5.891z" fill="#9BECCF" stroke="#000"/><path d="M36.73 2.845a16.533 16.533 0 00-16.533 16.533h5.64a10.884 10.884 0 1121.766 0h5.64A16.53 16.53 0 0036.73 2.845z" fill="#98ECCE" stroke="#000"/><path d="M65.546 79.681H7.912a5.098 5.098 0 01-5.046-5.892l7.987-50.774a5.1 5.1 0 015.037-4.32h41.677a5.105 5.105 0 015.046 4.308l7.979 50.786a5.1 5.1 0 01-5.046 5.892z" fill="#98ECCE" stroke="#000"/><path d="M36.653 2.783a16.533 16.533 0 00-16.521 16.533h5.64a10.882 10.882 0 1121.763 0h5.64A16.533 16.533 0 0036.652 2.783z" fill="#94EBCC" stroke="#000"/><path d="M65.472 79.619H7.835a5.098 5.098 0 01-5.046-5.892l7.987-50.775a5.102 5.102 0 015.046-4.307h41.671a5.1 5.1 0 015.046 4.307l7.97 50.775a5.1 5.1 0 01-5.037 5.892z" fill="#94EBCC" stroke="#000"/><path d="M36.576 2.72a16.53 16.53 0 00-16.53 16.534h5.64a10.884 10.884 0 1121.766 0h5.64A16.533 16.533 0 0036.575 2.72z" fill="#90EACA" stroke="#000"/><path d="M65.394 79.545H7.76a5.096 5.096 0 01-5.046-5.892L10.7 22.89a5.099 5.099 0 015.046-4.307h41.669a5.1 5.1 0 015.046 4.307l7.978 50.775a5.099 5.099 0 01-5.046 5.88z" fill="#90EACA" stroke="#000"/><path d="M36.502 2.667A16.533 16.533 0 0019.969 19.2h5.64a10.885 10.885 0 0121.765 0h5.64A16.53 16.53 0 0036.502 2.667z" fill="#8DEAC8" stroke="#000"/><path d="M65.32 79.494H7.683a5.1 5.1 0 01-5.037-5.886l7.988-50.78a5.1 5.1 0 015.046-4.307h41.659a5.106 5.106 0 015.046 4.307l7.973 50.78a5.099 5.099 0 01-5.038 5.886z" fill="#8DEAC8" stroke="#000"/><path d="M36.425 2.596a16.53 16.53 0 00-16.53 16.533h5.64a10.882 10.882 0 1121.762 0h5.64A16.533 16.533 0 0036.425 2.596z" fill="#89E9C7" stroke="#000"/><path d="M65.25 79.432H7.605a5.096 5.096 0 01-5.046-5.89l7.988-50.774a5.103 5.103 0 015.046-4.31h41.67a5.1 5.1 0 015.047 4.31l7.984 50.775a5.098 5.098 0 01-5.046 5.889z" fill="#89E9C7" stroke="#000"/><path d="M36.347 2.537a16.53 16.53 0 00-16.53 16.53h5.658a10.884 10.884 0 0121.766 0h5.64a16.53 16.53 0 00-16.534-16.53z" fill="#86E8C5" stroke="#000"/><path d="M65.166 79.37H7.532a5.096 5.096 0 01-5.046-5.89l7.987-50.774a5.1 5.1 0 015.037-4.307h41.678a5.1 5.1 0 015.045 4.31l7.98 50.775a5.097 5.097 0 01-5.047 5.886z" fill="#86E8C5" stroke="#000"/><path d="M36.273 2.474A16.53 16.53 0 0019.74 18.993h5.64a10.885 10.885 0 0121.763 0h5.64a16.53 16.53 0 00-16.51-16.519z" fill="#82E8C3" stroke="#000"/><path d="M65.092 79.307H7.455a5.097 5.097 0 01-5.046-5.889l7.987-50.775a5.096 5.096 0 015.046-4.306H57.11a5.102 5.102 0 015.046 4.306l7.979 50.775a5.1 5.1 0 01-5.043 5.89z" fill="#82E8C3" stroke="#000"/><path d="M36.196 2.412a16.53 16.53 0 00-16.53 16.53h5.64a10.881 10.881 0 1121.763 0h5.64a16.53 16.53 0 00-16.513-16.53z" fill="#7FE7C2" stroke="#000"/><path d="M65.014 79.248H7.368a5.099 5.099 0 01-5.046-5.89l7.996-50.777a5.1 5.1 0 015.046-4.307h41.671a5.097 5.097 0 015.046 4.307l7.979 50.775a5.096 5.096 0 01-5.046 5.892z" fill="#7FE7C2" stroke="#000"/><path d="M36.119 2.35a16.53 16.53 0 00-16.53 16.53h5.64a10.884 10.884 0 0121.766 0h5.64A16.53 16.53 0 0036.118 2.35z" fill="#7BE6C0" stroke="#000"/><path d="M64.953 79.183H7.303a5.096 5.096 0 01-5.046-5.89l7.988-50.774a5.097 5.097 0 015.046-4.307h41.668a5.097 5.097 0 015.046 4.307l7.979 50.774a5.095 5.095 0 01-5.031 5.89z" fill="#7BE6C0" stroke="#000"/><path d="M36.045 2.287a16.53 16.53 0 00-16.533 16.53h5.64a10.884 10.884 0 0121.765 0h5.64a16.53 16.53 0 00-16.512-16.53z" fill="#77E6BE" stroke="#000"/><path d="M64.863 79.123H7.226a5.1 5.1 0 01-5.046-5.892l7.988-50.774a5.097 5.097 0 015.046-4.308h41.668a5.103 5.103 0 015.046 4.307l7.978 50.775a5.102 5.102 0 01-5.043 5.892z" fill="#77E6BE" stroke="#000"/><path d="M35.968 2.225a16.53 16.53 0 00-16.53 16.533h5.64a10.882 10.882 0 1121.762 0h5.64A16.533 16.533 0 0035.968 2.225z" fill="#74E5BC" stroke="#000"/><path d="M64.786 79.06H7.15a5.1 5.1 0 01-5.046-5.891l7.987-50.775a5.102 5.102 0 015.038-4.292h41.68a5.099 5.099 0 015.046 4.307l7.978 50.775a5.1 5.1 0 01-5.046 5.877z" fill="#74E5BC" stroke="#000"/><path d="M35.89 2.163a16.53 16.53 0 00-16.53 16.533h5.639a10.884 10.884 0 1121.766 0h5.64A16.533 16.533 0 0035.889 2.163z" fill="#70E4BB" stroke="#000"/><path d="M64.708 78.999H7.071a5.1 5.1 0 01-5.046-5.892l7.99-50.775a5.1 5.1 0 015.046-4.307H56.73a5.1 5.1 0 015.046 4.307l7.978 50.774A5.1 5.1 0 0164.708 79z" fill="#70E4BB" stroke="#000"/><path d="M35.815 2.1a16.533 16.533 0 00-16.533 16.533h5.64a10.884 10.884 0 1121.766 0h5.64A16.53 16.53 0 0035.815 2.1z" fill="#6DE4B9" stroke="#000"/><path d="M64.635 78.951H6.998a5.1 5.1 0 01-5.046-5.892l7.987-50.801a5.1 5.1 0 015.046-4.307h41.656a5.105 5.105 0 015.046 4.307l7.985 50.786a5.1 5.1 0 01-5.037 5.907z" fill="#6DE4B9" stroke="#000"/><path d="M35.738 2.038a16.53 16.53 0 00-16.53 16.533h5.64a10.88 10.88 0 1121.763 0h5.64A16.533 16.533 0 0035.737 2.038z" fill="#69E3B7" stroke="#000"/><path d="M64.557 78.874H6.919a5.098 5.098 0 01-5.046-5.892l7.988-50.775a5.103 5.103 0 015.046-4.307h41.671a5.099 5.099 0 015.046 4.307l7.979 50.775a5.1 5.1 0 01-5.046 5.892z" fill="#69E3B7" stroke="#000"/><path d="M35.661 1.976a16.53 16.53 0 00-16.53 16.533h5.64a10.885 10.885 0 0121.766 0h5.64A16.533 16.533 0 0035.66 1.976z" fill="#66E2B6" stroke="#000"/><path d="M64.48 78.812H6.846A5.098 5.098 0 011.8 72.92l7.987-50.775a5.1 5.1 0 015.046-4.307h41.668a5.1 5.1 0 015.047 4.307l7.978 50.775a5.1 5.1 0 01-5.046 5.892z" fill="#66E2B6" stroke="#000"/><path d="M35.587 1.913a16.533 16.533 0 00-16.533 16.533h5.64a10.885 10.885 0 0121.765 0h5.64A16.53 16.53 0 0035.587 1.913z" fill="#62E2B4" stroke="#000"/><path d="M64.406 78.75H6.775a5.097 5.097 0 01-5.046-5.893L9.708 22.1a5.1 5.1 0 015.046-4.31h41.67a5.105 5.105 0 015.047 4.31l7.978 50.772a5.098 5.098 0 01-5.043 5.877z" fill="#62E2B4" stroke="#000"/><path d="M35.51 1.851a16.53 16.53 0 00-16.53 16.548h5.64a10.881 10.881 0 1121.762 0h5.64A16.533 16.533 0 0035.51 1.85z" fill="#5EE1B2" stroke="#000"/><path d="M64.328 78.687H6.691a5.096 5.096 0 01-5.046-5.89l7.988-50.774a5.102 5.102 0 015.046-4.31h41.665a5.1 5.1 0 015.046 4.31l7.978 50.775a5.098 5.098 0 01-5.04 5.889z" fill="#5EE1B2" stroke="#000"/><path d="M35.432 1.792a16.53 16.53 0 00-16.53 16.53h5.64a10.885 10.885 0 0121.766 0h5.64a16.53 16.53 0 00-16.516-16.53z" fill="#5BE0B1" stroke="#000"/><path d="M64.251 78.625H6.617a5.099 5.099 0 01-5.046-5.89l7.987-50.774a5.1 5.1 0 015.046-4.31h41.669a5.1 5.1 0 015.045 4.31l7.98 50.775a5.097 5.097 0 01-5.047 5.889z" fill="#5BE0B1" stroke="#000"/><path d="M35.358 1.73a16.53 16.53 0 00-16.533 16.53h5.64a10.885 10.885 0 0121.766 0h5.64A16.53 16.53 0 0035.358 1.73z" fill="#57E0AF" stroke="#000"/><path d="M64.177 78.562H6.54a5.099 5.099 0 01-5.046-5.889L9.48 21.898a5.096 5.096 0 015.046-4.306h41.668a5.102 5.102 0 015.046 4.306l7.979 50.775a5.1 5.1 0 01-5.043 5.89z" fill="#57E0AF" stroke="#000"/><path d="M35.27 1.667a16.53 16.53 0 00-16.519 16.53h5.64a10.882 10.882 0 0121.763 0h5.64a16.53 16.53 0 00-16.525-16.53z" fill="#54DFAD" stroke="#000"/><path d="M64.1 78.5H6.478a5.097 5.097 0 01-5.046-5.89l7.973-50.774a5.1 5.1 0 015.046-4.307h41.67a5.096 5.096 0 015.047 4.307l7.97 50.775A5.094 5.094 0 0164.1 78.5z" fill="#54DFAD" stroke="#000"/><path d="M35.204 1.605a16.53 16.53 0 00-16.53 16.53h5.64a10.884 10.884 0 0121.766 0h5.64a16.53 16.53 0 00-16.516-16.53z" fill="#50DEAB" stroke="#000"/><path d="M64.022 78.44H6.388a5.1 5.1 0 01-5.046-5.891L9.33 21.774a5.097 5.097 0 015.046-4.307h41.67a5.097 5.097 0 015.047 4.307l7.978 50.775a5.1 5.1 0 01-5.049 5.891z" fill="#50DEAB" stroke="#000"/><path d="M35.13 1.542a16.53 16.53 0 00-16.533 16.53h5.64a10.884 10.884 0 0121.765 0h5.64A16.53 16.53 0 0035.13 1.543z" fill="#4DDEAA" stroke="#000"/><path d="M63.948 78.378H6.311a5.099 5.099 0 01-5.046-5.892l7.988-50.775a5.096 5.096 0 015.046-4.306h41.67a5.099 5.099 0 015.047 4.306l7.978 50.775a5.103 5.103 0 01-5.046 5.892z" fill="#4DDEAA" stroke="#000"/><path d="M35.053 1.48a16.53 16.53 0 00-16.53 16.533h5.64a10.882 10.882 0 0121.762 0h5.64A16.533 16.533 0 0035.053 1.48v0z" fill="#49DDA8" stroke="#000"/><path d="M63.872 78.316H6.234a5.099 5.099 0 01-5.037-5.895l7.979-50.757a5.103 5.103 0 015.046-4.307h41.67a5.099 5.099 0 015.047 4.307l7.97 50.757a5.101 5.101 0 01-5.037 5.895z" fill="#49DDA8" stroke="#000"/><path d="M40.909 40.495c-2.375 0-3.915.86-4.99 2.594-.757-1.624-2.74-2.594-4.725-2.594-1.986 0-3.114.65-4.343 2.107h-.056v-1.677H24.17v15.402h2.84v-8.646c0-3.025 1.238-4.539 3.761-4.539 2.04 0 3.431 1.188 3.431 4.218v8.967h2.847v-8.646c0-3.078 1.072-4.482 3.595-4.482 2.413 0 3.597 1.62 3.597 4.538v8.59h2.84v-9.344c.007-4.004-2.199-6.488-6.173-6.488z" fill="#0A0909"/><path d="M40.517 35.24a.066.066 0 00-.092-.044 2.672 2.672 0 01-1.06.259c-3.775-.048-3.285 2.885-3.229 2.885l-.196.397-.25-.507c.063 0 .686-3.725-4.101-3.663a3.401 3.401 0 01-1.366-.335.062.062 0 00-.081.019.062.062 0 00-.01.028 4.75 4.75 0 00.456 3.265 3.22 3.22 0 00.982 1.066c.725.51 1.806.83 3.245.172.493.377.867 1.538 1.045 2.327a.065.065 0 10.13 0c.087-.594.23-1.499.475-1.873.097-.171.218-.327.36-.463 1.433.659 2.422.077 2.95-.478.039-.038.062-.071.095-.11.108-.119.202-.25.279-.392.422-.78.553-1.685.368-2.552z" fill="#0A0909"/></svg>