<svg width="102" height="146" fill="none" xmlns="http://www.w3.org/2000/svg"><g clip-path="url(#clip0_201_27325)" fill="#FF92FD" stroke="#000"><path d="M22.295 1.14l-15.7 15.8 105.9 105.899 15.8-15.8-106-105.9z"/><path d="M22.303 1.223L6.535 16.99 112.46 122.915l15.768-15.769L22.303 1.223z"/><path d="M22.288 1.227L6.52 16.995l105.923 105.923 15.768-15.768L22.288 1.227z"/><path d="M22.273 1.23L6.505 17l105.923 105.923 15.769-15.768L22.273 1.23z"/><path d="M22.259 1.234L6.49 17.003l105.924 105.923 15.768-15.768L22.259 1.234z"/><path d="M22.314 1.31L6.546 17.076 112.469 123l15.769-15.768L22.314 1.309z"/><path d="M22.3 1.313L6.53 17.081l105.924 105.924 15.768-15.768L22.3 1.313z"/><path d="M22.285 1.317L6.517 17.085 112.44 123.01l15.769-15.769L22.285 1.317z"/><path d="M22.27 1.32L6.5 17.09l105.924 105.923 15.768-15.769L22.269 1.321z"/><path d="M22.255 1.325L6.486 17.093 112.41 123.017l15.768-15.769L22.255 1.325z"/><path d="M22.31 1.4L6.542 17.167 112.466 123.09l15.768-15.768L22.31 1.399z"/><path d="M22.296 1.403L6.527 17.172l105.924 105.923 15.768-15.768L22.296 1.403z"/><path d="M22.281 1.407L6.513 17.175 112.436 123.1l15.769-15.768L22.281 1.407z"/><path d="M22.266 1.411L6.498 17.18l105.924 105.924 15.768-15.768L22.266 1.411z"/><path d="M22.25 1.415L6.483 17.183l105.924 105.924 15.768-15.768L22.251 1.415z"/><path d="M22.307 1.49L6.54 17.258l105.924 105.924 15.768-15.769L22.307 1.49z"/><path d="M22.292 1.494L6.523 17.262l105.924 105.924 15.768-15.769L22.292 1.494z"/><path d="M22.277 1.498L6.51 17.266l105.923 105.923 15.769-15.768L22.277 1.498z"/><path d="M22.262 1.501L6.494 17.27l105.924 105.923 15.768-15.768L22.262 1.501z"/><path d="M22.248 1.505L6.479 17.274l105.924 105.923 15.768-15.768L22.248 1.505z"/><path d="M22.303 1.58L6.535 17.348 112.46 123.272l15.768-15.768L22.303 1.58z"/><path d="M22.289 1.584L6.52 17.352l105.923 105.924 15.768-15.768L22.289 1.584z"/><path d="M22.274 1.588L6.506 17.356 112.429 123.28l15.769-15.769L22.274 1.588z"/><path d="M22.259 1.592L6.49 17.36l105.924 105.924 15.768-15.769L22.259 1.592z"/><path d="M22.244 1.596L6.476 17.364l105.923 105.924 15.768-15.769L22.244 1.596z"/><path d="M22.3 1.67L6.53 17.44l105.924 105.923 15.768-15.768L22.3 1.67z"/><path d="M22.285 1.674L6.517 17.442 112.44 123.366l15.769-15.768L22.285 1.674z"/><path d="M22.27 1.678L6.502 17.446 112.426 123.37l15.768-15.768L22.27 1.678z"/><path d="M22.256 1.682L6.487 17.45l105.924 105.924 15.768-15.769L22.256 1.682z"/><path d="M22.24 1.686L6.472 17.454l105.923 105.924 15.769-15.769L22.24 1.686z"/><path d="M22.297 1.76L6.528 17.53l105.924 105.923 15.768-15.768L22.297 1.76z"/><path d="M22.281 1.764L6.513 17.533l105.923 105.923 15.769-15.768L22.281 1.764z"/><path d="M22.266 1.768L6.498 17.537 112.422 123.46l15.768-15.768L22.266 1.768z"/><path d="M22.252 1.772L6.483 17.541l105.924 105.923 15.768-15.768L22.252 1.772z"/><path d="M22.237 1.776L6.47 17.544l105.923 105.924 15.769-15.768L22.237 1.776z"/><path d="M22.293 1.85L6.524 17.62l105.924 105.923 15.768-15.769L22.293 1.851z"/><path d="M22.278 1.855L6.51 17.623l105.923 105.924 15.769-15.769L22.278 1.855z"/><path d="M22.262 1.859L6.494 17.627l105.924 105.924 15.768-15.769L22.262 1.859z"/><path d="M22.177 1.933L6.41 17.702l105.924 105.923 15.768-15.768L22.177 1.933z"/><path d="M22.163 1.937L6.395 17.706l105.923 105.923 15.768-15.768L22.163 1.937z"/><path d="M22.218 2.012L6.45 17.78l105.924 105.924 15.768-15.769L22.219 2.012z"/><path d="M22.204 2.016L6.436 17.784l105.923 105.924 15.768-15.769L22.204 2.016z"/><path d="M22.188 2.02L6.42 17.788 112.344 123.71l15.768-15.768L22.188 2.02z"/><path d="M22.174 2.023L6.405 17.792 112.33 123.715l15.768-15.768L22.174 2.023z"/><path d="M22.159 2.028L6.391 17.796l105.923 105.923 15.769-15.768L22.159 2.028z"/><path d="M22.215 2.102L6.446 17.87 112.37 123.794l15.768-15.768L22.215 2.102z"/><path d="M22.2 2.106L6.432 17.874l105.923 105.924 15.769-15.768L22.2 2.106z"/><path d="M22.185 2.11L6.417 17.878l105.924 105.924 15.768-15.769L22.185 2.11z"/><path d="M22.17 2.114L6.4 17.882l105.924 105.924 15.768-15.769L22.17 2.114z"/><path d="M22.155 2.118L6.387 17.886 112.31 123.81l15.769-15.769L22.155 2.118z"/><path d="M22.21 2.192L6.443 17.961l105.924 105.923 15.768-15.768L22.211 2.192z"/><path d="M22.196 2.196L6.428 17.965 112.35 123.888l15.769-15.768L22.196 2.196z"/><path d="M22.181 2.2L6.413 17.968l105.924 105.924 15.768-15.768L22.181 2.2z"/><path d="M22.167 2.204L6.398 17.972l105.924 105.924 15.768-15.768L22.167 2.204z"/><path d="M22.151 2.208L6.383 17.976 112.306 123.9l15.769-15.768L22.151 2.208z"/><path d="M22.208 2.283L6.439 18.05l105.924 105.924 15.768-15.769L22.208 2.283z"/><path d="M22.192 2.287L6.424 18.055l105.923 105.924 15.769-15.769L22.192 2.287z"/><path d="M22.177 2.29L6.41 18.06l105.924 105.923 15.768-15.768L22.177 2.291z"/><path d="M22.163 2.294L6.395 18.063l105.923 105.923 15.768-15.768L22.163 2.294z"/><path d="M22.148 2.298L6.38 18.067 112.303 123.99l15.769-15.768L22.148 2.298z"/><path d="M22.204 2.373L6.436 18.141l105.923 105.924 15.768-15.768L22.204 2.373z"/><path d="M22.19 2.377L6.42 18.145 112.345 124.07l15.769-15.768L22.189 2.377z"/><path d="M22.175 2.38L6.406 18.15 112.33 124.072l15.768-15.769L22.175 2.381z"/><path d="M22.159 2.385L6.391 18.153l105.923 105.924 15.769-15.769L22.159 2.385z"/><path d="M22.144 2.389L6.376 18.157 112.3 124.081l15.768-15.769L22.144 2.389z"/><path d="M22.2 2.463L6.432 18.232l105.923 105.923 15.769-15.768L22.2 2.463z"/><path d="M22.185 2.467L6.417 18.236l105.924 105.923 15.768-15.768L22.185 2.467z"/><path d="M22.17 2.471L6.403 18.24l105.924 105.924 15.768-15.768L22.171 2.471z"/><path d="M22.156 2.475L6.388 18.243 112.31 124.167l15.769-15.768L22.156 2.475z"/><path d="M22.14 2.479L6.372 18.247l105.924 105.924 15.768-15.768L22.14 2.479z"/><path d="M22.197 2.554L6.429 18.322l105.923 105.924 15.769-15.769L22.197 2.554z"/><path d="M22.181 2.557L6.413 18.326l105.924 105.923 15.768-15.768L22.181 2.557z"/><path d="M22.167 2.561L6.398 18.33l105.924 105.923 15.768-15.768L22.167 2.561z"/><path d="M22.152 2.565L6.384 18.333l105.923 105.924 15.769-15.768L22.152 2.565z"/><path d="M22.137 2.57L6.37 18.336 112.294 124.26l15.768-15.768L22.137 2.569z"/><path d="M22.122 2.715L6.354 18.483l105.923 105.923 15.768-15.768L22.122 2.715z"/><path d="M22.107 2.718L6.34 18.487 112.262 124.41l15.769-15.768L22.107 2.718z"/><path d="M22.093 2.722L6.324 18.491l105.924 105.923 15.768-15.768L22.093 2.722z"/><path d="M22.078 2.726L6.31 18.495l105.923 105.923 15.768-15.768L22.078 2.726z"/><path d="M22.063 2.73L6.295 18.498l105.924 105.924 15.768-15.768L22.063 2.73z"/><path d="M22.119 2.805L6.35 18.573l105.923 105.924 15.768-15.769L22.119 2.805z"/><path d="M22.103 2.809L6.335 18.577l105.924 105.924 15.768-15.769L22.103 2.809z"/><path d="M22.089 2.813L6.32 18.58l105.924 105.924 15.768-15.769L22.089 2.813z"/><path d="M22.074 2.817L6.306 18.585l105.923 105.924 15.769-15.769L22.074 2.817z"/><path d="M22.06 2.82L6.29 18.59l105.924 105.923 15.768-15.768L22.059 2.821z"/><path d="M22.115 2.895L6.347 18.663 112.27 124.587l15.769-15.768L22.115 2.895z"/><path d="M22.1 2.899L6.332 18.667l105.924 105.924 15.768-15.769L22.1 2.899z"/><path d="M22.086 2.903L6.317 18.67l105.924 105.924 15.768-15.769L22.086 2.903z"/><path d="M22.07 2.907L6.302 18.675l105.923 105.924 15.769-15.769L22.07 2.907z"/><path d="M22.055 2.91L6.287 18.68l105.924 105.924 15.768-15.769L22.055 2.911z"/><path d="M22.111 2.985L6.343 18.754l105.923 105.923 15.769-15.768L22.111 2.985z"/><path d="M22.096 2.99L6.328 18.757 112.252 124.68l15.768-15.768L22.096 2.989z"/><path d="M22.082 2.993L6.313 18.762l105.924 105.923 15.768-15.768L22.082 2.993z"/><path d="M22.067 2.997L6.3 18.765 112.222 124.69l15.769-15.768L22.067 2.997z"/><path d="M22.052 3.001L6.283 18.769l105.924 105.924 15.768-15.768L22.052 3.001z"/><path d="M22.108 3.076L6.34 18.844l105.923 105.924 15.769-15.769L22.108 3.076z"/><path d="M22.093 3.08L6.324 18.848 112.248 124.77l15.768-15.768L22.093 3.08z"/><path d="M22.078 3.083L6.31 18.852l105.923 105.923 15.768-15.768L22.078 3.083z"/><path d="M22.063 3.087L6.295 18.856l105.923 105.923 15.769-15.768L22.063 3.087z"/><path d="M22.049 3.091L6.28 18.86l105.924 105.923 15.768-15.768L22.049 3.091z"/><path d="M22.104 3.166L6.336 18.934 112.26 124.858l15.768-15.768L22.104 3.166z"/><path d="M22.09 3.17L6.32 18.938l105.924 105.924 15.768-15.769L22.09 3.17z"/><path d="M22.074 3.174L6.306 18.942l105.923 105.924 15.769-15.769L22.074 3.174z"/><path d="M22.06 3.178L6.29 18.946 112.215 124.87l15.768-15.769L22.059 3.178z"/><path d="M22.045 3.182L6.276 18.95 112.2 124.874l15.768-15.769L22.045 3.182z"/><path d="M22.03 3.186L6.262 18.954l105.923 105.923 15.769-15.768L22.03 3.186z"/><path d="M22.086 3.26L6.317 19.03l105.924 105.923 15.768-15.768L22.086 3.26z"/><path d="M22.071 3.264L6.303 19.032l105.923 105.924 15.769-15.768L22.071 3.264z"/><path d="M22.056 3.268L6.288 19.036 112.212 124.96l15.768-15.768L22.056 3.268z"/><path d="M22.04 3.272L6.273 19.04l105.924 105.924 15.768-15.768L22.041 3.272z"/><path d="M22.026 3.276L6.258 19.044 112.18 124.968l15.769-15.769L22.026 3.276z"/><path d="M22.082 3.35L6.313 19.12l105.924 105.923 15.768-15.768L22.082 3.351z"/><path d="M21.997 3.425L6.229 19.193l105.923 105.924 15.768-15.768L21.997 3.425z"/><path d="M21.981 3.429L6.213 19.197l105.923 105.924 15.769-15.768L21.981 3.429z"/><path d="M21.967 3.433L6.198 19.2l105.924 105.924 15.768-15.769L21.967 3.433z"/><path d="M21.952 3.437L6.184 19.205 112.107 125.13l15.768-15.769L21.952 3.437z"/><path d="M22.008 3.511L6.239 19.28l105.924 105.923 15.768-15.768L22.008 3.511z"/><path d="M21.993 3.515L6.225 19.284l105.923 105.923 15.769-15.768L21.993 3.515z"/><path d="M21.978 3.52L6.21 19.287 112.134 125.21l15.768-15.768L21.978 3.519z"/><path d="M21.963 3.523L6.194 19.291l105.924 105.924 15.768-15.768L21.963 3.523z"/><path d="M21.948 3.527L6.18 19.295 112.103 125.22l15.769-15.768L21.948 3.527z"/><path d="M22.004 3.602L6.235 19.37 112.16 125.294l15.768-15.769L22.004 3.602z"/><path d="M21.989 3.606L6.221 19.374l105.923 105.924 15.769-15.769L21.989 3.606z"/><path d="M21.974 3.61L6.206 19.378 112.13 125.3l15.768-15.768L21.974 3.61z"/><path d="M21.96 3.614L6.19 19.382l105.924 105.923 15.768-15.768L21.96 3.614z"/><path d="M21.945 3.617L6.177 19.386 112.1 125.309l15.769-15.768L21.945 3.617z"/><path d="M22 3.692L6.233 19.46l105.924 105.924 15.768-15.768L22.001 3.692z"/><path d="M21.986 3.696L6.218 19.464 112.14 125.388l15.769-15.769L21.986 3.696z"/><path d="M21.97 3.7L6.203 19.468l105.924 105.924 15.768-15.768L21.97 3.7z"/><path d="M21.956 3.704L6.188 19.472 112.11 125.396l15.768-15.769L21.956 3.704z"/><path d="M21.941 3.708L6.173 19.476 112.096 125.4l15.769-15.769L21.941 3.708z"/><path d="M21.997 3.782L6.229 19.55l105.923 105.924 15.768-15.768L21.997 3.782z"/><path d="M21.982 3.786L6.214 19.554l105.923 105.924 15.769-15.768L21.982 3.786z"/><path d="M21.968 3.79L6.199 19.558l105.924 105.924 15.768-15.768L21.967 3.79z"/><path d="M21.952 3.794L6.184 19.562l105.923 105.924 15.768-15.768L21.952 3.794z"/><path d="M21.937 3.798L6.17 19.566 112.093 125.49l15.768-15.768L21.937 3.798z"/><path d="M21.993 3.873L6.225 19.64l105.923 105.923 15.769-15.768L21.993 3.873z"/><path d="M21.978 3.876L6.21 19.645l105.924 105.923 15.768-15.768L21.978 3.876z"/><path d="M21.964 3.88L6.195 19.65 112.12 125.572l15.768-15.768L21.964 3.88z"/><path d="M21.949 3.884L6.181 19.653l105.923 105.923 15.769-15.768L21.949 3.884z"/><path d="M21.933 3.888L6.165 19.657 112.089 125.58l15.768-15.768L21.933 3.888z"/><path d="M21.99 3.963L6.222 19.73l105.923 105.924 15.769-15.769L21.99 3.963z"/><path d="M21.974 3.967L6.206 19.735 112.13 125.66l15.768-15.769L21.974 3.967z"/><path d="M21.96 3.97L6.19 19.74l105.924 105.924 15.768-15.769L21.96 3.971z"/><path d="M21.945 3.975L6.177 19.743 112.1 125.666l15.769-15.768L21.945 3.975z"/><path d="M21.93 3.978L6.162 19.747 112.086 125.67l15.768-15.768L21.93 3.978z"/><path d="M21.986 4.053L6.218 19.821 112.14 125.746l15.769-15.768L21.986 4.053z"/><path d="M21.971 4.057L6.203 19.825 112.127 125.75l15.768-15.768L21.972 4.057z"/><path d="M21.956 4.061L6.188 19.829 112.11 125.753l15.768-15.768L21.956 4.061z"/><path d="M21.87 4.136L6.104 19.904l105.923 105.924 15.768-15.769L21.871 4.136z"/><path d="M21.856 4.14L6.088 19.908 112.01 125.832l15.769-15.769L21.856 4.14z"/><path d="M21.912 4.214L6.144 19.982l105.923 105.924 15.768-15.768L21.912 4.214z"/><path d="M21.897 4.218L6.13 19.986 112.052 125.91l15.769-15.768L21.897 4.218z"/><path d="M21.882 4.222L6.113 19.99l105.924 105.924 15.768-15.769L21.882 4.222z"/><path d="M21.867 4.226L6.099 19.994l105.923 105.924 15.769-15.768L21.867 4.226z"/><path d="M21.852 4.23L6.084 19.998l105.924 105.924 15.768-15.768L21.852 4.23z"/><path d="M21.908 4.304L6.14 20.073l105.923 105.923 15.769-15.768L21.908 4.304z"/><path d="M21.893 4.308L6.125 20.077 112.049 126l15.768-15.768L21.893 4.308z"/><path d="M21.879 4.312L6.11 20.081l105.924 105.923 15.768-15.768L21.879 4.312z"/><path d="M21.863 4.316L6.095 20.084l105.923 105.924 15.769-15.768L21.863 4.316z"/><path d="M21.848 4.32L6.08 20.088l105.924 105.924 15.768-15.768L21.848 4.32z"/><path d="M21.904 4.395L6.136 20.163l105.923 105.924 15.769-15.769L21.904 4.395z"/><path d="M21.89 4.399L6.12 20.167l105.924 105.924 15.768-15.769L21.889 4.399z"/><path d="M21.875 4.403L6.106 20.17 112.03 126.094l15.768-15.768L21.875 4.403z"/><path d="M21.86 4.406L6.092 20.175l105.923 105.923 15.769-15.768L21.86 4.406z"/><path d="M21.845 4.41L6.075 20.18 112 126.102l15.768-15.768L21.844 4.41z"/><path d="M21.901 4.485L6.133 20.253l105.923 105.924 15.769-15.768L21.901 4.485z"/><path d="M21.886 4.489L6.117 20.257l105.924 105.924 15.768-15.768L21.886 4.489z"/><path d="M21.87 4.493L6.104 20.26l105.923 105.924 15.768-15.769L21.871 4.493z"/><path d="M21.856 4.497L6.088 20.265 112.01 126.19l15.769-15.769L21.856 4.497z"/><path d="M21.842 4.5L6.073 20.27l105.924 105.924 15.768-15.769L21.842 4.501z"/><path d="M21.897 4.575L6.13 20.344l105.923 105.923 15.769-15.768L21.897 4.575z"/><path d="M21.883 4.58L6.114 20.347 112.038 126.27l15.768-15.768L21.883 4.579z"/><path d="M21.868 4.583L6.1 20.351l105.923 105.924 15.769-15.768L21.868 4.583z"/><path d="M21.852 4.587L6.084 20.355 112.008 126.28l15.768-15.768L21.852 4.587z"/><path d="M21.838 4.591L6.069 20.36l105.924 105.924 15.768-15.768L21.838 4.591z"/><path d="M21.893 4.666L6.125 20.434l105.924 105.923 15.768-15.768L21.893 4.666z"/><path d="M21.879 4.67L6.11 20.437 112.034 126.36l15.768-15.768L21.879 4.669z"/><path d="M21.864 4.673L6.096 20.442l105.923 105.923 15.769-15.768L21.864 4.673z"/><path d="M21.85 4.677L6.08 20.446l105.924 105.923 15.768-15.768L21.849 4.677z"/><path d="M21.834 4.681L6.065 20.45 111.99 126.373l15.768-15.768L21.834 4.681z"/><path d="M21.89 4.756L6.122 20.524l105.924 105.924 15.768-15.769L21.89 4.756z"/><path d="M21.875 4.76L6.106 20.528 112.03 126.452l15.768-15.769L21.875 4.76z"/><path d="M21.86 4.764L6.092 20.532l105.923 105.924 15.769-15.769L21.86 4.764z"/><path d="M21.846 4.768L6.077 20.536l105.924 105.923 15.768-15.768L21.845 4.768z"/><path d="M21.83 4.771L6.064 20.54l105.923 105.923 15.768-15.768L21.831 4.771z"/><path d="M21.815 4.917L6.047 20.685 111.97 126.61l15.769-15.769L21.815 4.917z"/><path d="M21.8 4.92L6.033 20.69l105.924 105.923 15.768-15.769L21.801 4.921z"/><path d="M21.786 4.925L6.018 20.693 111.94 126.617l15.768-15.769L21.786 4.925z"/><path d="M21.771 4.929L6.003 20.697l105.924 105.924 15.768-15.769L21.771 4.929z"/><path d="M21.756 4.933L5.987 20.7l105.924 105.924 15.768-15.769L21.756 4.933z"/><path d="M21.812 5.007L6.044 20.775 111.968 126.7l15.768-15.768L21.812 5.007z"/><path d="M21.797 5.011L6.028 20.779l105.924 105.924 15.768-15.768L21.797 5.011z"/><path d="M21.782 5.015L6.014 20.783l105.923 105.924 15.769-15.768L21.782 5.015z"/><path d="M21.767 5.019L6 20.787l105.924 105.924 15.768-15.768L21.767 5.019z"/><path d="M21.753 5.023L5.984 20.79l105.924 105.924 15.768-15.768L21.753 5.023z"/><path d="M21.808 5.097L6.04 20.866l105.924 105.923 15.768-15.768L21.808 5.097z"/><path d="M21.794 5.101L6.025 20.87 111.95 126.793l15.768-15.768L21.794 5.101z"/><path d="M21.78 5.105L6.01 20.873l105.924 105.924 15.769-15.768L21.779 5.105z"/><path d="M21.763 5.11L5.995 20.877 111.92 126.8l15.768-15.768L21.763 5.109z"/><path d="M21.749 5.113L5.98 20.882l105.924 105.923 15.768-15.768L21.749 5.113z"/><path d="M21.805 5.188L6.036 20.956 111.96 126.88l15.768-15.769L21.805 5.188z"/><path d="M21.79 5.192L6.02 20.96l105.924 105.924 15.768-15.769L21.79 5.192z"/><path d="M21.775 5.196L6.007 20.964 111.93 126.887l15.769-15.768L21.775 5.196z"/><path d="M21.76 5.2L5.992 20.967 111.916 126.89l15.768-15.768L21.761 5.199z"/><path d="M21.745 5.203L5.977 20.972 111.9 126.895l15.768-15.768L21.745 5.203z"/><path d="M21.802 5.278L6.033 21.046 111.957 126.97l15.768-15.768L21.802 5.278z"/><path d="M21.786 5.282L6.018 21.05 111.94 126.974l15.768-15.768L21.786 5.282z"/><path d="M21.771 5.286L6.003 21.054l105.924 105.924 15.768-15.769L21.771 5.286z"/><path d="M21.757 5.29L5.988 21.058l105.924 105.924 15.768-15.769L21.757 5.29z"/><path d="M21.742 5.294L5.974 21.062l105.923 105.924 15.769-15.769L21.742 5.294z"/><path d="M21.798 5.368L6.029 21.137 111.953 127.06l15.768-15.768L21.798 5.368z"/><path d="M21.783 5.372L6.015 21.141l105.923 105.923 15.769-15.768L21.783 5.372z"/><path d="M21.767 5.376L6 21.144l105.924 105.924 15.768-15.768L21.767 5.376z"/><path d="M21.753 5.38L5.984 21.148l105.924 105.924 15.768-15.768L21.753 5.38z"/><path d="M21.738 5.384L5.97 21.152l105.923 105.924 15.769-15.768L21.738 5.384z"/><path d="M21.794 5.459L6.025 21.227 111.95 127.151l15.768-15.769L21.794 5.459z"/><path d="M21.78 5.462L6.01 21.231l105.924 105.923 15.769-15.768L21.779 5.462z"/><path d="M21.764 5.466L5.996 21.235 111.92 127.158l15.768-15.768L21.764 5.466z"/><path d="M21.749 5.47L5.98 21.24l105.924 105.923 15.768-15.768L21.749 5.47z"/><path d="M21.734 5.474L5.966 21.243l105.923 105.923 15.769-15.768L21.734 5.474z"/><path d="M21.79 5.549L6.02 21.317l105.924 105.924 15.768-15.769L21.79 5.549z"/><path d="M21.775 5.553L6.007 21.32 111.93 127.245l15.769-15.769L21.775 5.553z"/><path d="M21.69 5.627L5.922 21.396l105.923 105.923 15.769-15.768L21.69 5.627z"/><path d="M21.675 5.631L5.906 21.4 111.83 127.323l15.768-15.768L21.675 5.631z"/><path d="M21.66 5.635L5.892 21.404l105.923 105.923 15.769-15.768L21.66 5.635z"/><path d="M21.716 5.71L5.947 21.478l105.924 105.924 15.768-15.768L21.716 5.71z"/><path d="M21.7 5.714L5.934 21.482l105.923 105.924 15.769-15.769L21.701 5.714z"/><path d="M21.686 5.718L5.918 21.486 111.842 127.41l15.768-15.769L21.686 5.718z"/><path d="M21.672 5.722L5.903 21.49l105.924 105.924 15.768-15.769L21.672 5.722z"/><path d="M21.656 5.726L5.888 21.494 111.81 127.417l15.769-15.768L21.656 5.726z"/><path d="M21.713 5.8L5.944 21.568l105.924 105.924 15.768-15.768L21.713 5.8z"/><path d="M21.697 5.804L5.929 21.573l105.923 105.923 15.769-15.768L21.697 5.804z"/><path d="M21.682 5.808L5.914 21.576 111.838 127.5l15.768-15.768L21.682 5.808z"/><path d="M21.668 5.812L5.899 21.58l105.924 105.924 15.768-15.768L21.668 5.812z"/><path d="M21.653 5.816L5.885 21.584l105.923 105.924 15.769-15.769L21.653 5.816z"/><path d="M21.709 5.89L5.94 21.66l105.924 105.923 15.768-15.768L21.709 5.89z"/><path d="M21.694 5.894L5.926 21.663l105.923 105.923 15.769-15.768L21.694 5.894z"/><path d="M21.68 5.898L5.91 21.667 111.835 127.59l15.768-15.768L21.68 5.898z"/><path d="M21.664 5.902L5.896 21.671l105.923 105.923 15.768-15.768L21.664 5.902z"/><path d="M21.65 5.906L5.88 21.675l105.924 105.923 15.769-15.768L21.649 5.906z"/><path d="M21.705 5.98L5.937 21.75 111.86 127.673l15.768-15.769L21.705 5.981z"/><path d="M21.69 5.985L5.922 21.753l105.923 105.924 15.769-15.769L21.69 5.985z"/><path d="M21.676 5.989L5.907 21.757 111.831 127.68l15.768-15.768L21.676 5.988z"/><path d="M21.66 5.992L5.894 21.761l105.923 105.923 15.768-15.768L21.661 5.992z"/><path d="M21.645 5.997L5.877 21.765l105.924 105.923 15.768-15.768L21.645 5.997z"/><path d="M21.702 6.071L5.934 21.839l105.923 105.924 15.768-15.768L21.702 6.071z"/><path d="M21.686 6.075L5.918 21.843l105.924 105.924 15.768-15.769L21.686 6.075z"/><path d="M21.672 6.079L5.903 21.847l105.924 105.924 15.768-15.769L21.672 6.079z"/><path d="M21.657 6.083L5.889 21.85l105.923 105.924 15.769-15.769L21.657 6.083z"/><path d="M21.642 6.087L5.874 21.855l105.924 105.924 15.768-15.769L21.642 6.087z"/><path d="M21.698 6.161L5.93 21.93l105.923 105.923 15.769-15.768L21.698 6.161z"/><path d="M21.683 6.165L5.915 21.934l105.924 105.923 15.768-15.768L21.683 6.165z"/><path d="M21.668 6.17L5.899 21.936 111.823 127.86l15.768-15.768L21.668 6.169z"/><path d="M21.653 6.173L5.885 21.941l105.923 105.924 15.769-15.768L21.653 6.173z"/><path d="M21.638 6.177L5.87 21.945 111.794 127.87l15.768-15.768L21.638 6.177z"/><path d="M21.694 6.252L5.926 22.02l105.923 105.924 15.769-15.769L21.694 6.252z"/><path d="M21.68 6.256L5.91 22.024l105.924 105.924 15.768-15.769L21.68 6.256z"/><path d="M21.665 6.26L5.896 22.027 111.82 127.95l15.768-15.768L21.665 6.259z"/><path d="M21.65 6.263L5.88 22.032l105.924 105.923 15.769-15.768L21.649 6.263z"/><path d="M21.564 6.338L5.796 22.106 111.719 128.03l15.769-15.768L21.564 6.338z"/><path d="M21.62 6.413L5.852 22.18l105.923 105.923 15.768-15.768L21.62 6.413z"/><path d="M21.605 6.416L5.837 22.185 111.76 128.108l15.769-15.768L21.605 6.416z"/><path d="M21.59 6.42L5.823 22.19l105.924 105.923 15.768-15.768L21.591 6.42z"/><path d="M21.575 6.424L5.807 22.193 111.73 128.116l15.769-15.768L21.575 6.424z"/><path d="M21.56 6.428L5.792 22.196 111.716 128.12l15.768-15.768L21.56 6.428z"/><path d="M21.616 6.503L5.848 22.27 111.77 128.195l15.769-15.769L21.616 6.503z"/><path d="M21.601 6.507L5.833 22.275 111.757 128.2l15.768-15.769L21.601 6.507z"/><path d="M21.587 6.51L5.818 22.28l105.924 105.923 15.768-15.769L21.587 6.511z"/><path d="M21.572 6.515L5.804 22.283l105.923 105.924 15.769-15.769L21.572 6.515z"/><path d="M21.556 6.519L5.788 22.287 111.712 128.21l15.768-15.768L21.556 6.519z"/><path d="M21.613 6.593L5.845 22.362l105.923 105.923 15.769-15.768L21.613 6.593z"/><path d="M21.597 6.597L5.83 22.366l105.924 105.923 15.768-15.768L21.597 6.597z"/><path d="M21.583 6.601L5.814 22.37l105.924 105.924 15.768-15.768L21.583 6.601z"/><path d="M21.568 6.605L5.8 22.373l105.923 105.924 15.769-15.768L21.568 6.605z"/><path d="M21.553 6.609L5.785 22.377 111.71 128.301l15.768-15.769L21.553 6.609z"/><path d="M21.61 6.683L5.84 22.452l105.924 105.923 15.769-15.768L21.609 6.683z"/><path d="M21.595 6.687L5.825 22.456 111.75 128.379l15.768-15.768L21.594 6.687z"/><path d="M21.579 6.691L5.81 22.46l105.923 105.923 15.768-15.768L21.579 6.691z"/><path d="M21.564 6.695L5.796 22.464l105.923 105.923 15.769-15.768L21.564 6.695z"/><path d="M21.55 6.7L5.78 22.467 111.705 128.39l15.768-15.768L21.55 6.699z"/><path d="M21.605 6.774L5.837 22.542 111.76 128.466l15.769-15.769L21.605 6.774z"/><path d="M21.59 6.778L5.823 22.546l105.924 105.923 15.768-15.768L21.591 6.778z"/><path d="M21.576 6.781L5.808 22.55 111.73 128.473l15.769-15.768L21.576 6.781z"/><path d="M21.561 6.786L5.793 22.554l105.924 105.924 15.768-15.769L21.561 6.786z"/><path d="M21.546 6.79L5.777 22.558 111.701 128.48l15.768-15.768L21.546 6.79z"/><path d="M21.601 6.864L5.833 22.632l105.924 105.924 15.768-15.768L21.601 6.864z"/><path d="M21.587 6.868L5.818 22.636 111.742 128.56l15.768-15.769L21.587 6.868z"/><path d="M21.572 6.872L5.804 22.64l105.923 105.924 15.769-15.769L21.572 6.872z"/><path d="M21.557 6.876L5.79 22.644l105.924 105.924 15.768-15.769L21.557 6.876z"/><path d="M21.543 6.88L5.774 22.648l105.924 105.924 15.768-15.769L21.543 6.88z"/><path d="M21.598 6.954L5.83 22.723l105.924 105.923 15.768-15.768L21.598 6.954z"/><path d="M21.584 6.958L5.815 22.727 111.74 128.65l15.768-15.768L21.584 6.958z"/><path d="M21.568 6.962L5.8 22.73l105.923 105.924 15.769-15.768L21.568 6.962z"/><path d="M21.553 6.966L5.785 22.734 111.71 128.658l15.768-15.768L21.553 6.966z"/><path d="M21.539 6.97L5.77 22.738l105.923 105.924 15.768-15.768L21.539 6.97z"/><path d="M21.595 7.045L5.825 22.813 111.75 128.737l15.768-15.769L21.594 7.045z"/><path d="M21.509 7.12L5.74 22.887 111.664 128.81l15.768-15.768L21.509 7.119z"/><path d="M21.494 7.123L5.726 22.892l105.923 105.923 15.768-15.768L21.494 7.123z"/><path d="M21.48 7.127L5.71 22.895 111.636 128.82l15.768-15.768L21.479 7.127z"/><path d="M21.465 7.131L5.696 22.9 111.62 128.823l15.768-15.768L21.465 7.131z"/><path d="M21.52 7.206L5.752 22.974l105.924 105.923 15.768-15.768L21.52 7.206z"/><path d="M21.506 7.21L5.737 22.977 111.661 128.9l15.768-15.768L21.506 7.209z"/><path d="M21.491 7.214L5.723 22.982l105.923 105.924 15.769-15.769L21.491 7.214z"/><path d="M21.475 7.218L5.707 22.986l105.924 105.923 15.768-15.768L21.475 7.218z"/><path d="M21.46 7.221L5.693 22.99l105.924 105.923 15.768-15.768L21.461 7.221z"/><path d="M21.516 7.296L5.748 23.064l105.924 105.924 15.768-15.769L21.516 7.296z"/><path d="M21.502 7.3L5.733 23.068l105.924 105.924 15.768-15.769L21.502 7.3z"/><path d="M21.487 7.304L5.72 23.072l105.923 105.924 15.769-15.769L21.487 7.304z"/><path d="M21.472 7.308L5.704 23.076 111.628 129l15.768-15.769L21.472 7.308z"/><path d="M21.457 7.312L5.688 23.08l105.924 105.923 15.768-15.768L21.457 7.312z"/><path d="M21.442 7.315L5.674 23.084l105.923 105.923 15.769-15.768L21.442 7.315z"/><path d="M21.498 7.39L5.729 23.158l105.924 105.924 15.768-15.768L21.498 7.39z"/><path d="M21.483 7.394L5.715 23.162l105.923 105.924 15.769-15.768L21.483 7.394z"/><path d="M21.468 7.398L5.7 23.166 111.624 129.09l15.768-15.768L21.469 7.398z"/><path d="M21.454 7.402L5.686 23.17l105.923 105.924 15.768-15.769L21.454 7.402z"/><path d="M21.438 7.406L5.67 23.174l105.924 105.924 15.768-15.769L21.438 7.406z"/><path d="M21.495 7.48L5.727 23.25 111.65 129.172l15.768-15.768L21.495 7.48z"/><path d="M21.48 7.484L5.71 23.253l105.925 105.923 15.768-15.768L21.479 7.484z"/><path d="M21.465 7.488L5.696 23.257 111.62 129.18l15.768-15.768L21.465 7.488z"/><path d="M21.45 7.492L5.682 23.26l105.923 105.924 15.769-15.768L21.45 7.492z"/><path d="M21.435 7.496L5.667 23.264l105.924 105.924 15.768-15.768L21.435 7.496z"/><path d="M21.491 7.57L5.723 23.34l105.923 105.923 15.769-15.769L21.491 7.571z"/><path d="M21.476 7.575L5.708 23.343l105.924 105.924 15.768-15.769L21.476 7.575z"/><path d="M21.46 7.579L5.693 23.347 111.616 129.27l15.768-15.768L21.461 7.579z"/><path d="M21.446 7.582L5.678 23.352 111.6 129.274l15.769-15.768L21.446 7.582z"/><path d="M21.431 7.586L5.663 23.355l105.924 105.923 15.768-15.768L21.431 7.586z"/><path d="M21.487 7.66L5.72 23.43l105.923 105.923 15.769-15.769L21.487 7.661z"/><path d="M21.472 7.665L5.704 23.433l105.924 105.924 15.768-15.769L21.472 7.665z"/><path d="M21.458 7.669L5.689 23.437l105.924 105.924 15.768-15.768L21.458 7.669z"/><path d="M21.443 7.673L5.675 23.44l105.923 105.924 15.769-15.769L21.443 7.673z"/><path d="M21.427 7.677L5.66 23.445 111.583 129.37l15.768-15.769L21.427 7.677z"/><path d="M21.484 7.751L5.716 23.52l105.923 105.924 15.769-15.768L21.484 7.751z"/><path d="M21.468 7.755L5.7 23.523l105.924 105.924 15.768-15.768L21.469 7.755z"/><path d="M21.384 7.83L5.615 23.598 111.54 129.522l15.768-15.769L21.384 7.83z"/><path d="M21.368 7.834L5.6 23.602l105.923 105.924 15.769-15.769L21.368 7.834z"/><path d="M21.353 7.838L5.585 23.606 111.509 129.53l15.768-15.769L21.353 7.838z"/><path d="M21.409 7.912L5.641 23.681l105.923 105.923 15.769-15.768L21.409 7.912z"/><path d="M21.394 7.916L5.626 23.685 111.55 129.608l15.768-15.768L21.394 7.916z"/><path d="M21.38 7.92L5.61 23.69l105.924 105.923 15.768-15.768L21.38 7.92z"/><path d="M21.365 7.924L5.597 23.692 111.52 129.616l15.769-15.768L21.365 7.924z"/><path d="M21.35 7.928L5.582 23.696 111.506 129.62l15.768-15.768L21.35 7.928z"/><path d="M21.406 8.003L5.638 23.77 111.56 129.695l15.769-15.769L21.406 8.003z"/><path d="M21.391 8.007L5.623 23.775l105.924 105.923 15.768-15.768L21.391 8.007z"/><path d="M21.376 8.01L5.607 23.78l105.924 105.923 15.768-15.768L21.376 8.01z"/><path d="M21.361 8.014L5.593 23.783l105.923 105.923 15.769-15.768L21.361 8.014z"/><path d="M21.346 8.018L5.578 23.787 111.502 129.71l15.768-15.768L21.347 8.018z"/><path d="M21.402 8.093L5.634 23.86l105.923 105.924 15.769-15.769L21.402 8.093z"/><path d="M21.387 8.097L5.62 23.865l105.924 105.924 15.768-15.769L21.387 8.097z"/><path d="M21.373 8.1L5.604 23.87l105.924 105.923 15.768-15.769L21.373 8.101z"/><path d="M21.357 8.105L5.59 23.873l105.923 105.924 15.769-15.769L21.357 8.105z"/><path d="M21.343 8.109L5.574 23.877l105.924 105.924 15.768-15.769L21.342 8.109z"/><path d="M21.398 8.183L5.63 23.951l105.923 105.924 15.769-15.768L21.398 8.183z"/><path d="M21.384 8.187L5.615 23.955 111.54 129.88l15.768-15.768L21.384 8.187z"/><path d="M21.369 8.19L5.6 23.96l105.923 105.923 15.768-15.769L21.369 8.191z"/><path d="M21.354 8.195L5.586 23.963 111.51 129.887l15.768-15.769L21.354 8.195z"/><path d="M21.339 8.199L5.57 23.967l105.924 105.924 15.768-15.769L21.339 8.199z"/><path d="M21.395 8.273L5.627 24.042l105.924 105.923 15.768-15.768L21.395 8.273z"/><path d="M21.38 8.277L5.61 24.046l105.924 105.923 15.768-15.768L21.38 8.277z"/><path d="M21.365 8.281L5.597 24.05 111.52 129.973l15.769-15.768L21.365 8.281z"/><path d="M21.35 8.285L5.582 24.053l105.924 105.924 15.768-15.768L21.35 8.285z"/><path d="M21.336 8.289L5.567 24.057l105.924 105.924 15.768-15.768L21.336 8.289z"/><path d="M21.391 8.364L5.623 24.132l105.924 105.924 15.768-15.769L21.391 8.364z"/><path d="M21.377 8.368L5.608 24.136 111.532 130.06l15.768-15.769L21.377 8.368z"/><path d="M21.361 8.372L5.593 24.14l105.923 105.923 15.769-15.768L21.361 8.372z"/><path d="M21.346 8.375L5.578 24.144l105.924 105.923 15.768-15.768L21.347 8.375z"/><path d="M21.332 8.38L5.563 24.147 111.487 130.07l15.768-15.768L21.332 8.379z"/><path d="M21.387 8.454L5.62 24.222l105.924 105.924 15.768-15.769L21.387 8.454z"/><path d="M21.373 8.458L5.604 24.226 111.528 130.15l15.768-15.768L21.373 8.458z"/><path d="M21.358 8.462L5.59 24.23l105.923 105.924 15.769-15.769L21.358 8.462z"/><path d="M21.343 8.466L5.575 24.234 111.5 130.158l15.768-15.769L21.344 8.466z"/><path d="M21.258 8.54L5.489 24.31l105.924 105.923 15.768-15.768L21.258 8.54z"/><path d="M21.313 8.615L5.545 24.383l105.923 105.924 15.769-15.768L21.313 8.615z"/><path d="M21.299 8.619L5.53 24.387l105.924 105.924 15.768-15.769L21.299 8.619z"/><path d="M21.284 8.623L5.516 24.39l105.923 105.924 15.769-15.769L21.284 8.623z"/><path d="M21.268 8.627L5.5 24.395l105.924 105.924 15.768-15.769L21.268 8.627z"/><path d="M21.254 8.63L5.485 24.4 111.41 130.322l15.768-15.768L21.254 8.631z"/><path d="M21.31 8.705L5.54 24.474l105.924 105.923 15.768-15.768L21.309 8.705z"/><path d="M21.295 8.71L5.526 24.476 111.45 130.401l15.768-15.768L21.295 8.709z"/><path d="M21.28 8.713L5.512 24.481l105.923 105.924 15.769-15.768L21.28 8.713z"/><path d="M21.265 8.717L5.497 24.485 111.421 130.41l15.768-15.768L21.265 8.717z"/><path d="M21.25 8.72L5.48 24.49l105.924 105.923 15.768-15.768L21.25 8.721z"/><path d="M21.306 8.796L5.538 24.564l105.924 105.924 15.768-15.769L21.306 8.796z"/><path d="M21.29 8.8L5.523 24.568 111.446 130.49l15.768-15.768L21.291 8.8z"/><path d="M21.276 8.803L5.508 24.572 111.43 130.495l15.769-15.768L21.276 8.803z"/><path d="M21.262 8.807L5.493 24.576l105.924 105.923 15.768-15.768L21.261 8.807z"/><path d="M21.247 8.811L5.479 24.58l105.923 105.923 15.768-15.768L21.247 8.811z"/><path d="M21.302 8.886L5.534 24.654l105.924 105.924 15.768-15.768L21.302 8.886z"/><path d="M21.288 8.89L5.52 24.658l105.923 105.924 15.768-15.769L21.288 8.89z"/><path d="M21.272 8.894L5.504 24.662l105.923 105.924 15.769-15.769L21.272 8.894z"/><path d="M21.258 8.898L5.489 24.666 111.413 130.59l15.768-15.769L21.258 8.898z"/><path d="M21.243 8.902L5.475 24.67l105.923 105.924 15.769-15.769L21.243 8.902z"/><path d="M21.299 8.976L5.53 24.744l105.924 105.924 15.768-15.768L21.299 8.976z"/><path d="M21.284 8.98L5.516 24.748l105.923 105.924 15.769-15.768L21.284 8.98z"/><path d="M21.27 8.984L5.5 24.752l105.924 105.924 15.768-15.768L21.269 8.984z"/><path d="M21.255 8.988L5.486 24.756 111.41 130.68l15.768-15.768L21.255 8.988z"/><path d="M21.239 8.992L5.471 24.76l105.923 105.924 15.769-15.768L21.239 8.992z"/><path d="M21.296 9.066L5.527 24.835l105.924 105.923 15.768-15.768L21.296 9.066z"/><path d="M21.28 9.07L5.512 24.84l105.923 105.923 15.769-15.768L21.28 9.07z"/><path d="M21.265 9.074L5.497 24.843l105.924 105.923 15.768-15.768L21.265 9.074z"/><path d="M21.25 9.078L5.483 24.846 111.406 130.77l15.768-15.768L21.251 9.078z"/><path d="M21.236 9.082L5.468 24.85 111.39 130.774l15.769-15.768L21.236 9.082z"/><path d="M21.292 9.157L5.523 24.925l105.924 105.924 15.768-15.769L21.292 9.157z"/><path d="M21.277 9.16L5.51 24.93l105.923 105.924 15.769-15.769L21.277 9.161z"/><path d="M21.262 9.165L5.493 24.933l105.924 105.923 15.768-15.768L21.261 9.165z"/><path d="M21.247 9.168L5.479 24.937 111.402 130.86l15.768-15.768L21.247 9.168z"/><path d="M21.232 9.172L5.464 24.941l105.923 105.923 15.769-15.768L21.232 9.172z"/><path d="M21.218 9.318L5.449 25.086 111.373 131.01l15.768-15.769L21.218 9.318z"/><path d="M21.202 9.322L5.434 25.09l105.923 105.924 15.769-15.769L21.202 9.322z"/><path d="M21.187 9.326L5.42 25.094l105.924 105.924 15.768-15.769L21.187 9.326z"/><path d="M21.173 9.33L5.404 25.097 111.328 131.02l15.768-15.768L21.173 9.329z"/><path d="M21.158 9.333L5.39 25.102l105.923 105.923 15.769-15.768L21.158 9.333z"/><path d="M21.214 9.408L5.445 25.176 111.37 131.1l15.768-15.768L21.214 9.408z"/><path d="M21.199 9.412L5.431 25.18l105.923 105.924 15.769-15.769L21.199 9.412z"/><path d="M21.184 9.416L5.416 25.184 111.34 131.108l15.768-15.769L21.184 9.416z"/><path d="M21.169 9.42L5.4 25.188l105.924 105.924 15.768-15.769L21.169 9.42z"/><path d="M21.154 9.424L5.386 25.192l105.923 105.923 15.769-15.768L21.154 9.424z"/><path d="M21.21 9.498L5.44 25.267 111.365 131.19l15.768-15.768L21.21 9.498z"/><path d="M21.195 9.502L5.427 25.27 111.35 131.195l15.769-15.768L21.195 9.502z"/><path d="M21.18 9.506L5.412 25.274l105.924 105.924 15.768-15.768L21.18 9.506z"/><path d="M21.166 9.51L5.397 25.278l105.924 105.924 15.768-15.768L21.166 9.51z"/><path d="M21.15 9.514L5.382 25.282l105.923 105.924 15.769-15.769L21.15 9.514z"/><path d="M21.207 9.589L5.438 25.357 111.362 131.28l15.768-15.769L21.207 9.589z"/><path d="M21.191 9.593L5.423 25.36l105.923 105.923 15.769-15.768L21.191 9.593z"/><path d="M21.177 9.596L5.408 25.365l105.924 105.923L127.1 115.52 21.177 9.596z"/><path d="M21.162 9.6L5.394 25.37l105.923 105.923 15.768-15.768L21.162 9.6z"/><path d="M21.147 9.604L5.38 25.373l105.923 105.923 15.769-15.768L21.147 9.604z"/><path d="M21.203 9.679L5.435 25.447l105.923 105.924 15.768-15.768L21.203 9.679z"/><path d="M21.188 9.683L5.42 25.45l105.924 105.924 15.768-15.769L21.188 9.683z"/><path d="M21.173 9.687L5.404 25.455 111.328 131.38l15.768-15.769L21.173 9.687z"/><path d="M21.158 9.69L5.39 25.46l105.923 105.924 15.769-15.769L21.158 9.691z"/><path d="M21.143 9.695L5.375 25.463l105.924 105.923 15.768-15.768L21.143 9.695z"/><path d="M21.199 9.77L5.431 25.537 111.354 131.46l15.769-15.768L21.199 9.769z"/><path d="M21.184 9.773L5.416 25.541 111.34 131.466l15.768-15.768L21.184 9.773z"/><path d="M21.17 9.777L5.4 25.545 111.325 131.47l15.768-15.768L21.17 9.777z"/><path d="M21.154 9.781L5.386 25.549l105.923 105.924 15.769-15.768L21.154 9.781z"/><path d="M21.14 9.785L5.37 25.553l105.924 105.924 15.768-15.769L21.139 9.785z"/><path d="M21.195 9.86L5.427 25.627 111.35 131.55l15.769-15.768L21.195 9.859z"/><path d="M21.18 9.863L5.412 25.632l105.924 105.923 15.768-15.768L21.18 9.863z"/><path d="M21.166 9.867L5.397 25.636l105.924 105.923 15.768-15.768L21.166 9.867z"/><path d="M21.151 9.871L5.383 25.64l105.923 105.923 15.769-15.768L21.151 9.871z"/><path d="M21.137 9.875L5.368 25.644l105.924 105.923 15.768-15.768L21.136 9.875z"/><path d="M21.192 9.95L5.424 25.718l105.923 105.924 15.769-15.769L21.192 9.95z"/><path d="M21.177 9.954L5.41 25.722l105.924 105.924 15.768-15.769L21.177 9.954z"/><path d="M21.092 10.028L5.323 25.797 111.247 131.72l15.768-15.768L21.092 10.028z"/><path d="M21.077 10.032L5.309 25.8l105.923 105.924 15.769-15.768L21.077 10.032z"/><path d="M21.061 10.036L5.293 25.804l105.924 105.924 15.768-15.768L21.061 10.036z"/><path d="M21.118 10.11L5.35 25.88l105.923 105.923 15.769-15.769L21.118 10.111z"/><path d="M21.102 10.115L5.334 25.883l105.924 105.924 15.768-15.769L21.102 10.115z"/><path d="M21.088 10.119L5.319 25.887l105.924 105.924 15.768-15.769L21.088 10.119z"/><path d="M21.073 10.123L5.305 25.89l105.923 105.923 15.769-15.768L21.073 10.122z"/><path d="M21.058 10.126L5.29 25.895l105.924 105.923 15.768-15.768L21.058 10.126z"/><path d="M21.114 10.201L5.346 25.97l105.923 105.924 15.769-15.768L21.114 10.201z"/><path d="M21.1 10.205L5.33 25.973l105.924 105.924 15.768-15.768L21.099 10.205z"/><path d="M21.084 10.209L5.315 25.977 111.24 131.901l15.768-15.769L21.084 10.209z"/><path d="M21.07 10.213L5.3 25.98l105.924 105.924 15.769-15.769L21.069 10.213z"/><path d="M21.055 10.216L5.286 25.986 111.21 131.908l15.768-15.768L21.055 10.216z"/><path d="M21.11 10.291L5.342 26.06l105.923 105.923 15.769-15.768L21.11 10.291z"/><path d="M21.096 10.295L5.327 26.064l105.924 105.923 15.768-15.768L21.095 10.295z"/><path d="M21.08 10.3L5.314 26.066 111.237 131.99l15.768-15.768L21.081 10.299z"/><path d="M21.066 10.303L5.298 26.071 111.22 131.995l15.769-15.768L21.066 10.303z"/><path d="M21.05 10.307L5.283 26.075 111.206 132l15.768-15.769L21.051 10.307z"/><path d="M21.106 10.382L5.338 26.15 111.26 132.073l15.769-15.768L21.106 10.382z"/><path d="M21.092 10.386L5.323 26.154l105.924 105.923 15.768-15.768L21.092 10.386z"/><path d="M21.077 10.39L5.309 26.157 111.232 132.08l15.769-15.768L21.077 10.389z"/><path d="M21.062 10.393L5.294 26.162l105.924 105.923 15.768-15.768L21.062 10.393z"/><path d="M21.048 10.397L5.279 26.166l105.924 105.923 15.768-15.768L21.048 10.397z"/><path d="M21.103 10.472L5.335 26.24l105.924 105.924 15.768-15.769L21.103 10.472z"/><path d="M21.089 10.476L5.32 26.244l105.924 105.924 15.768-15.769L21.089 10.476z"/><path d="M21.073 10.48L5.305 26.248l105.923 105.924 15.769-15.769L21.073 10.48z"/><path d="M21.058 10.484L5.29 26.252l105.924 105.924 15.768-15.769L21.058 10.484z"/><path d="M21.044 10.488L5.275 26.256 111.2 132.179l15.768-15.768L21.044 10.487z"/><path d="M21.1 10.562L5.33 26.331l105.924 105.923 15.768-15.768L21.099 10.562z"/><path d="M21.085 10.566L5.316 26.334 111.24 132.258l15.768-15.768L21.085 10.566z"/><path d="M21.07 10.57L5.302 26.338l105.923 105.924 15.769-15.768L21.07 10.57z"/><path d="M21.055 10.574L5.286 26.342 111.21 132.266l15.768-15.768L21.055 10.574z"/><path d="M21.04 10.578L5.27 26.346 111.195 132.27l15.768-15.769L21.04 10.578z"/><path d="M21.096 10.652L5.327 26.421l105.924 105.923 15.768-15.768L21.095 10.652z"/><path d="M21.08 10.656L5.314 26.425l105.923 105.923 15.768-15.768L21.081 10.656z"/><path d="M21.066 10.66L5.298 26.43 111.22 132.352l15.769-15.768L21.066 10.66z"/><path d="M21.052 10.664L5.283 26.433l105.924 105.923 15.768-15.768L21.052 10.664z"/><path d="M20.966 10.739L5.197 26.507l105.924 105.924 15.768-15.769L20.966 10.739z"/><path d="M21.021 10.813L5.253 26.582l105.924 105.923 15.768-15.768L21.021 10.814z"/><path d="M21.007 10.817L5.238 26.586l105.924 105.923 15.768-15.768L21.007 10.817z"/><path d="M20.992 10.821L5.224 26.59l105.923 105.923 15.769-15.768L20.992 10.821z"/><path d="M20.977 10.825L5.21 26.593l105.924 105.924 15.768-15.768L20.977 10.825z"/><path d="M20.962 10.83L5.193 26.596 111.117 132.52l15.768-15.768L20.962 10.829z"/><path d="M21.018 10.904L5.25 26.672l105.924 105.924 15.768-15.769L21.018 10.904z"/><path d="M21.003 10.908L5.234 26.676 111.158 132.6l15.768-15.769L21.003 10.908z"/><path d="M20.988 10.912L5.22 26.68l105.923 105.924 15.769-15.769L20.988 10.912z"/><path d="M20.973 10.915L5.205 26.684 111.13 132.607l15.768-15.768L20.973 10.915z"/><path d="M20.959 10.92L5.19 26.687 111.114 132.61l15.768-15.768L20.959 10.919z"/><path d="M21.014 10.994L5.246 26.762 111.17 132.686l15.768-15.768L21.014 10.994z"/><path d="M21 10.998L5.23 26.766 111.155 132.69l15.768-15.768L21 10.998z"/><path d="M20.984 11.002L5.216 26.77l105.923 105.924 15.769-15.768L20.984 11.002z"/><path d="M20.97 11.006L5.2 26.774l105.924 105.924 15.768-15.769L20.969 11.006z"/><path d="M20.955 11.01L5.187 26.778 111.11 132.702l15.768-15.769L20.955 11.01z"/><path d="M21.01 11.085L5.242 26.852l105.924 105.923 15.768-15.768L21.011 11.085z"/><path d="M20.996 11.088L5.228 26.857 111.15 132.78l15.768-15.768L20.996 11.088z"/><path d="M20.981 11.092L5.213 26.86l105.923 105.924 15.769-15.768L20.981 11.092z"/><path d="M20.966 11.096L5.197 26.864l105.924 105.924 15.768-15.769L20.966 11.096z"/><path d="M20.994 11.14l-15.8 15.8 105.9 105.899 15.8-15.8-105.9-105.9zm-3.2 59.9l-15.7 15.8 105.9 105.9 15.8-15.8-106-105.9z"/><path d="M17.755 71.042L1.986 86.81 107.91 192.734l15.768-15.768L17.755 71.042z"/><path d="M17.81 71.117L2.042 86.885l105.924 105.924 15.768-15.769L17.81 71.117z"/><path d="M17.796 71.12L2.027 86.89l105.924 105.923 15.768-15.768L17.796 71.121z"/><path d="M17.78 71.124L2.012 86.894l105.923 105.923 15.769-15.768L17.78 71.124z"/><path d="M17.765 71.128L1.997 86.897 107.921 192.82l15.768-15.768L17.765 71.128z"/><path d="M17.75 71.132L1.983 86.901l105.924 105.923 15.768-15.768L17.751 71.132z"/><path d="M17.806 71.207L2.038 86.975 107.962 192.9l15.768-15.768L17.806 71.207z"/><path d="M17.792 71.21L2.023 86.98l105.924 105.923 15.768-15.769L17.792 71.211z"/><path d="M17.777 71.215L2.01 86.983l105.923 105.924 15.769-15.769L17.777 71.215z"/><path d="M17.762 71.219L1.994 86.987l105.924 105.924 15.768-15.769L17.762 71.219z"/><path d="M17.747 71.223L1.979 86.99l105.923 105.924 15.768-15.769L17.747 71.223z"/><path d="M17.802 71.297L2.034 87.066l105.924 105.923 15.768-15.768L17.802 71.297z"/><path d="M17.788 71.301L2.02 87.069l105.923 105.924 15.768-15.768L17.788 71.301z"/><path d="M17.773 71.305L2.005 87.073l105.923 105.924 15.769-15.769L17.773 71.305z"/><path d="M17.759 71.309L1.99 87.077l105.924 105.924 15.768-15.769L17.759 71.309z"/><path d="M17.744 71.313L1.976 87.08l105.923 105.924 15.768-15.769L17.744 71.313z"/><path d="M17.8 71.387L2.03 87.156l105.924 105.923 15.768-15.768L17.8 71.387z"/><path d="M17.784 71.391L2.016 87.16l105.923 105.923 15.769-15.768L17.784 71.391z"/><path d="M17.77 71.395L2 87.164l105.924 105.923 15.768-15.768L17.769 71.395z"/><path d="M17.755 71.4L1.986 87.166 107.91 193.091l15.768-15.768L17.755 71.399z"/><path d="M17.74 71.403L1.972 87.171l105.923 105.924 15.769-15.768L17.74 71.403z"/><path d="M17.796 71.478L2.027 87.246 107.951 193.17l15.768-15.769L17.796 71.478z"/><path d="M17.781 71.482L2.013 87.25l105.923 105.924 15.769-15.769L17.781 71.482z"/><path d="M17.766 71.486L1.998 87.254l105.924 105.923 15.768-15.768L17.766 71.486z"/><path d="M17.75 71.49L1.983 87.258 107.906 193.18l15.768-15.768L17.751 71.489z"/><path d="M17.736 71.493L1.968 87.262 107.89 193.185l15.769-15.768L17.736 71.493z"/><path d="M17.792 71.568L2.023 87.336 107.947 193.26l15.768-15.768L17.792 71.568z"/><path d="M17.777 71.572L2.01 87.34l105.923 105.924 15.769-15.768L17.777 71.572z"/><path d="M17.762 71.576L1.994 87.344l105.924 105.924 15.768-15.769L17.762 71.576z"/><path d="M17.748 71.58L1.979 87.348l105.924 105.924 15.768-15.769L17.748 71.58z"/><path d="M17.732 71.584L1.964 87.352l105.923 105.924 15.769-15.769L17.732 71.584z"/><path d="M17.789 71.658L2.02 87.427 107.944 193.35l15.768-15.768L17.789 71.658z"/><path d="M17.773 71.662L2.005 87.431l105.923 105.923 15.769-15.768L17.773 71.662z"/><path d="M17.759 71.666L1.99 87.435l105.924 105.923 15.768-15.768L17.759 71.666z"/><path d="M17.744 71.67L1.976 87.44l105.923 105.923 15.768-15.768L17.744 71.67z"/><path d="M17.73 71.674L1.96 87.442l105.925 105.924 15.768-15.768L17.729 71.674z"/><path d="M17.785 71.749L2.017 87.517 107.94 193.441l15.769-15.769L17.785 71.749z"/><path d="M17.699 71.823L1.931 87.592l105.923 105.923 15.769-15.768L17.699 71.823z"/><path d="M17.684 71.827L1.916 87.596 107.84 193.519l15.768-15.768L17.684 71.827z"/><path d="M17.67 71.831L1.9 87.599l105.924 105.924 15.768-15.768L17.67 71.831z"/><path d="M17.655 71.835L1.887 87.603 107.81 193.527l15.769-15.768L17.655 71.835z"/><path d="M17.71 71.91L1.943 87.678l105.924 105.924 15.768-15.769L17.711 71.91z"/><path d="M17.696 71.914L1.928 87.682 107.85 193.605l15.769-15.768L17.696 71.914z"/><path d="M17.68 71.918L1.912 87.686l105.924 105.923 15.768-15.768L17.68 71.917z"/><path d="M17.666 71.921L1.897 87.69l105.924 105.923 15.768-15.768L17.666 71.921z"/><path d="M17.651 71.925L1.883 87.694l105.923 105.923 15.769-15.768L17.651 71.925z"/><path d="M17.707 72L1.938 87.768l105.924 105.924 15.768-15.768L17.707 72z"/><path d="M17.692 72.004L1.924 87.772l105.923 105.924 15.769-15.769L17.692 72.004z"/><path d="M17.677 72.008L1.91 87.776 107.833 193.7l15.768-15.769L17.677 72.008z"/><path d="M17.662 72.012L1.894 87.78l105.923 105.924 15.768-15.769L17.662 72.012z"/><path d="M17.647 72.016L1.88 87.784l105.923 105.924 15.769-15.769L17.647 72.016z"/><path d="M17.703 72.09L1.935 87.86l105.923 105.923 15.768-15.768L17.703 72.09z"/><path d="M17.688 72.094L1.92 87.863l105.923 105.923 15.769-15.768L17.688 72.094z"/><path d="M17.674 72.098L1.905 87.867 107.83 193.79l15.768-15.768L17.674 72.098z"/><path d="M17.659 72.102L1.891 87.87l105.923 105.924 15.769-15.768L17.659 72.102z"/><path d="M17.643 72.106L1.875 87.874l105.924 105.924 15.768-15.768L17.643 72.106z"/><path d="M17.7 72.18L1.932 87.95l105.923 105.924 15.769-15.769L17.7 72.181z"/><path d="M17.684 72.184L1.916 87.954 107.84 193.876l15.768-15.768L17.684 72.184z"/><path d="M17.67 72.188L1.9 87.957 107.825 193.88l15.768-15.768L17.67 72.188z"/><path d="M17.655 72.192L1.887 87.96 107.81 193.884l15.769-15.768L17.655 72.192z"/><path d="M17.64 72.196L1.872 87.964l105.924 105.924 15.768-15.768L17.64 72.196z"/><path d="M17.696 72.27L1.928 88.04 107.85 193.962l15.769-15.769L17.696 72.271z"/><path d="M17.681 72.275L1.913 88.043l105.924 105.924 15.768-15.769L17.681 72.275z"/><path d="M17.667 72.278L1.898 88.047 107.822 193.97l15.768-15.768L17.667 72.278z"/><path d="M17.651 72.282L1.883 88.051l105.923 105.923 15.769-15.768L17.651 72.282z"/><path d="M17.637 72.286L1.868 88.055l105.924 105.923 15.768-15.768L17.636 72.286z"/><path d="M17.692 72.361L1.924 88.13l105.923 105.924 15.769-15.768L17.692 72.361z"/><path d="M17.677 72.365L1.91 88.133l105.924 105.924 15.768-15.768L17.677 72.365z"/><path d="M17.663 72.369L1.895 88.137l105.923 105.924 15.768-15.769L17.663 72.369z"/><path d="M17.648 72.373L1.88 88.14l105.923 105.924 15.769-15.769L17.648 72.373z"/><path d="M17.633 72.377L1.864 88.145l105.924 105.924 15.768-15.769L17.633 72.377z"/><path d="M17.69 72.451L1.92 88.22l105.924 105.923 15.769-15.768L17.689 72.451z"/><path d="M17.674 72.455L1.905 88.224 107.83 194.147l15.768-15.768L17.674 72.455z"/><path d="M17.659 72.46L1.891 88.227 107.814 194.15l15.769-15.768L17.659 72.459z"/><path d="M17.574 72.534L1.806 88.302l105.923 105.924 15.769-15.769L17.574 72.534z"/><path d="M17.558 72.538L1.79 88.306 107.714 194.23l15.768-15.769L17.558 72.538z"/><path d="M17.614 72.612L1.846 88.381l105.923 105.923 15.769-15.768L17.614 72.612z"/><path d="M17.6 72.616L1.83 88.385l105.924 105.923 15.768-15.768L17.599 72.616z"/><path d="M17.585 72.62L1.816 88.388 107.74 194.312l15.768-15.768L17.585 72.62z"/><path d="M17.57 72.624L1.802 88.392l105.923 105.924 15.769-15.768L17.57 72.624z"/><path d="M17.555 72.628L1.787 88.396 107.711 194.32l15.768-15.769L17.555 72.628z"/><path d="M17.611 72.703L1.843 88.47l105.923 105.924 15.769-15.769L17.611 72.703z"/><path d="M17.596 72.707L1.828 88.475l105.924 105.923 15.768-15.768L17.597 72.707z"/><path d="M17.58 72.71L1.814 88.48l105.923 105.923 15.768-15.768L17.581 72.71z"/><path d="M17.566 72.714L1.798 88.483 107.72 194.406l15.769-15.768L17.566 72.714z"/><path d="M17.552 72.718L1.783 88.487 107.707 194.41l15.768-15.768L17.552 72.718z"/><path d="M17.607 72.793L1.84 88.56l105.923 105.924 15.769-15.768L17.607 72.793z"/><path d="M17.593 72.797L1.824 88.565 107.748 194.49l15.768-15.769L17.593 72.797z"/><path d="M17.578 72.8L1.81 88.57l105.923 105.923 15.768-15.769L17.578 72.801z"/><path d="M17.562 72.805L1.794 88.573l105.924 105.924 15.768-15.769L17.562 72.805z"/><path d="M17.548 72.809L1.779 88.577 107.703 194.5l15.768-15.768L17.548 72.809z"/><path d="M17.603 72.883L1.835 88.652l105.924 105.923 15.768-15.768L17.603 72.883z"/><path d="M17.589 72.887L1.82 88.656l105.924 105.923 15.768-15.768L17.589 72.887z"/><path d="M17.574 72.891L1.806 88.66l105.923 105.924 15.769-15.768L17.574 72.891z"/><path d="M17.56 72.895L1.79 88.663l105.924 105.924 15.768-15.768L17.559 72.895z"/><path d="M17.544 72.899L1.775 88.667 107.7 194.591l15.768-15.769L17.544 72.899z"/><path d="M17.6 72.974L1.832 88.742l105.924 105.924 15.768-15.769L17.6 72.974z"/><path d="M17.585 72.978L1.816 88.746 107.74 194.669l15.768-15.768L17.585 72.977z"/><path d="M17.57 72.981L1.802 88.75l105.923 105.923 15.769-15.768L17.57 72.981z"/><path d="M17.555 72.985L1.787 88.754l105.924 105.923 15.768-15.768L17.555 72.985z"/><path d="M17.54 72.99L1.773 88.757 107.696 194.68l15.768-15.768L17.541 72.989z"/><path d="M17.596 73.064L1.828 88.832l105.924 105.924 15.768-15.768L17.597 73.064z"/><path d="M17.582 73.068L1.813 88.836 107.737 194.76l15.768-15.769L17.582 73.068z"/><path d="M17.566 73.072L1.798 88.84 107.72 194.763l15.769-15.768L17.566 73.071z"/><path d="M17.552 73.075L1.783 88.844l105.924 105.923 15.768-15.768L17.552 73.075z"/><path d="M17.537 73.08L1.769 88.847 107.692 194.77l15.768-15.768L17.537 73.079z"/><path d="M17.593 73.154L1.824 88.922l105.924 105.924 15.768-15.768L17.593 73.154z"/><path d="M17.578 73.158L1.81 88.926 107.733 194.85l15.768-15.768L17.578 73.158z"/><path d="M17.563 73.162L1.795 88.93l105.924 105.924 15.768-15.769L17.563 73.162z"/><path d="M17.549 73.166L1.78 88.934l105.924 105.924 15.768-15.769L17.549 73.166z"/><path d="M17.533 73.17L1.765 88.938l105.923 105.924 15.769-15.769L17.533 73.17z"/><path d="M17.518 73.315L1.75 89.084l105.924 105.923 15.768-15.768L17.518 73.315z"/><path d="M17.504 73.32L1.735 89.086 107.66 195.011l15.768-15.768L17.504 73.319z"/><path d="M17.489 73.323L1.721 89.091l105.923 105.924 15.769-15.768L17.489 73.323z"/><path d="M17.473 73.327L1.705 89.095 107.63 195.02l15.768-15.769L17.473 73.327z"/><path d="M17.459 73.33L1.69 89.1l105.924 105.923 15.768-15.769L17.459 73.331z"/><path d="M17.514 73.406L1.746 89.174 107.67 195.097l15.768-15.768L17.514 73.405z"/><path d="M17.5 73.41L1.73 89.176 107.654 195.1l15.768-15.768L17.5 73.409z"/><path d="M17.485 73.413L1.717 89.181 107.64 195.105l15.769-15.768L17.485 73.413z"/><path d="M17.47 73.417L1.703 89.185 107.626 195.11l15.768-15.768L17.47 73.417z"/><path d="M17.456 73.421L1.688 89.19 107.61 195.113l15.768-15.768L17.456 73.421z"/><path d="M17.512 73.496L1.743 89.264l105.924 105.923 15.768-15.768L17.511 73.496z"/><path d="M17.496 73.5L1.728 89.267 107.65 195.19l15.768-15.768L17.496 73.499z"/><path d="M17.481 73.503L1.713 89.272l105.923 105.923 15.769-15.768L17.481 73.503z"/><path d="M17.467 73.507L1.698 89.276l105.924 105.923 15.768-15.768L17.467 73.507z"/><path d="M17.452 73.511L1.684 89.28l105.923 105.923 15.768-15.768L17.452 73.511z"/><path d="M17.508 73.586L1.739 89.354l105.924 105.924 15.768-15.769L17.508 73.586z"/><path d="M17.493 73.59L1.725 89.358l105.923 105.924 15.769-15.769L17.493 73.59z"/><path d="M17.478 73.594L1.71 89.362l105.924 105.924 15.768-15.769L17.478 73.594z"/><path d="M17.463 73.598L1.694 89.366 107.618 195.29l15.768-15.769L17.463 73.598z"/><path d="M17.448 73.602L1.68 89.37l105.923 105.923 15.769-15.768L17.448 73.601z"/><path d="M17.504 73.676L1.735 89.445 107.66 195.368l15.768-15.768L17.504 73.676z"/><path d="M17.489 73.68L1.721 89.448l105.923 105.924 15.769-15.768L17.489 73.68z"/><path d="M17.474 73.684L1.706 89.452 107.63 195.376l15.768-15.768L17.474 73.684z"/><path d="M17.46 73.688L1.69 89.456 107.615 195.38l15.768-15.768L17.46 73.688z"/><path d="M17.444 73.692L1.676 89.46l105.923 105.924 15.769-15.769L17.444 73.692z"/><path d="M17.5 73.767L1.733 89.535l105.924 105.923 15.768-15.768L17.501 73.767z"/><path d="M17.485 73.77L1.717 89.54 107.64 195.462l15.769-15.768L17.485 73.771z"/><path d="M17.47 73.774L1.703 89.543l105.924 105.923 15.768-15.768L17.47 73.774z"/><path d="M17.456 73.778L1.688 89.547 107.61 195.47l15.768-15.768L17.456 73.778z"/><path d="M17.441 73.782L1.673 89.551l105.923 105.923 15.769-15.768L17.441 73.782z"/><path d="M17.497 73.857L1.729 89.625 107.652 195.55l15.768-15.769L17.497 73.857z"/><path d="M17.482 73.86L1.714 89.63l105.923 105.923 15.769-15.769L17.482 73.861z"/><path d="M17.467 73.865L1.698 89.633l105.924 105.924 15.768-15.769L17.467 73.865z"/><path d="M17.452 73.869L1.684 89.637l105.923 105.924 15.768-15.769L17.452 73.869z"/><path d="M17.437 73.873L1.67 89.64l105.924 105.923 15.768-15.768L17.437 73.873z"/><path d="M17.493 73.947L1.725 89.716l105.923 105.923 15.769-15.768L17.493 73.947z"/><path d="M17.478 73.95L1.71 89.72l105.924 105.923 15.768-15.769L17.478 73.951z"/><path d="M17.392 74.026L1.624 89.794l105.924 105.924 15.768-15.769L17.392 74.026z"/><path d="M17.378 74.03L1.609 89.797 107.533 195.72l15.768-15.768L17.378 74.029z"/><path d="M17.363 74.033L1.595 89.802l105.923 105.923 15.769-15.768L17.363 74.033z"/><path d="M17.419 74.108L1.65 89.876 107.574 195.8l15.768-15.768L17.419 74.108z"/><path d="M17.404 74.112L1.636 89.88l105.923 105.924 15.769-15.768L17.404 74.112z"/><path d="M17.39 74.116L1.62 89.884l105.924 105.924 15.768-15.768L17.389 74.116z"/><path d="M17.374 74.12L1.605 89.888 107.53 195.812l15.768-15.769L17.374 74.12z"/><path d="M17.36 74.124L1.59 89.892l105.924 105.924 15.769-15.769L17.359 74.124z"/><path d="M17.415 74.198L1.646 89.968 107.57 195.89l15.768-15.768L17.415 74.198z"/><path d="M17.4 74.202L1.632 89.971l105.923 105.923 15.769-15.768L17.4 74.202z"/><path d="M17.386 74.206L1.617 89.975l105.924 105.923 15.768-15.768L17.386 74.206z"/><path d="M17.37 74.21L1.604 89.98l105.923 105.923 15.768-15.768L17.371 74.21z"/><path d="M17.355 74.214L1.587 89.982 107.51 195.906l15.769-15.768L17.355 74.214z"/><path d="M17.412 74.289L1.644 90.057 107.567 195.98l15.768-15.768L17.412 74.289z"/><path d="M17.396 74.293L1.628 90.06l105.924 105.923 15.768-15.768L17.396 74.292z"/><path d="M17.382 74.296L1.613 90.065l105.924 105.923 15.768-15.768L17.382 74.296z"/><path d="M17.367 74.3L1.599 90.07l105.923 105.923 15.769-15.768L17.367 74.3z"/><path d="M17.352 74.304L1.584 90.073l105.924 105.923 15.768-15.768L17.352 74.304z"/><path d="M17.408 74.379L1.64 90.147l105.923 105.924 15.769-15.769L17.408 74.379z"/><path d="M17.393 74.383L1.625 90.15l105.924 105.924 15.768-15.769L17.393 74.383z"/><path d="M17.378 74.387L1.609 90.155l105.924 105.924 15.768-15.769L17.378 74.387z"/><path d="M17.363 74.39L1.595 90.16l105.923 105.924 15.769-15.769L17.363 74.391z"/><path d="M17.348 74.394L1.58 90.163l105.924 105.923 15.768-15.768L17.348 74.394z"/><path d="M17.404 74.47L1.636 90.236 107.559 196.16l15.769-15.768L17.404 74.469z"/><path d="M17.39 74.473L1.62 90.242l105.924 105.923 15.768-15.768L17.389 74.473z"/><path d="M17.375 74.477L1.606 90.245 107.53 196.17l15.768-15.768L17.375 74.477z"/><path d="M17.36 74.48L1.592 90.25l105.923 105.923 15.769-15.768L17.36 74.481z"/><path d="M17.345 74.485L1.575 90.253 107.5 196.177l15.768-15.769L17.344 74.485z"/><path d="M17.401 74.56L1.633 90.328 107.556 196.25l15.769-15.768L17.401 74.56z"/><path d="M17.386 74.564L1.617 90.332l105.924 105.923 15.768-15.768L17.386 74.564z"/><path d="M17.37 74.567L1.604 90.336l105.923 105.923 15.768-15.768L17.371 74.567z"/><path d="M17.356 74.571L1.588 90.34 107.51 196.263l15.769-15.768L17.356 74.571z"/><path d="M17.342 74.575L1.573 90.344l105.924 105.923 15.768-15.768L17.342 74.575z"/><path d="M17.326 74.58L1.558 90.346 107.48 196.271l15.769-15.768L17.326 74.579z"/><path d="M17.383 74.654L1.614 90.422l105.924 105.924 15.768-15.769L17.383 74.654z"/><path d="M17.367 74.658L1.599 90.426 107.522 196.35l15.769-15.769L17.367 74.658z"/><path d="M17.352 74.662L1.584 90.43l105.924 105.924 15.768-15.769L17.352 74.662z"/><path d="M17.267 74.736L1.5 90.505l105.924 105.923 15.768-15.768L17.267 74.736z"/><path d="M17.252 74.74L1.483 90.51l105.924 105.923 15.768-15.768L17.252 74.74z"/><path d="M17.307 74.815L1.54 90.583l105.924 105.924 15.768-15.769L17.307 74.815z"/><path d="M17.293 74.819L1.524 90.587 107.448 196.51l15.768-15.768L17.293 74.819z"/><path d="M17.278 74.823L1.51 90.59l105.923 105.923 15.769-15.768L17.278 74.822z"/><path d="M17.263 74.826L1.495 90.595 107.42 196.518l15.768-15.768L17.263 74.826z"/><path d="M17.249 74.83L1.48 90.6l105.924 105.923 15.768-15.768L17.249 74.831z"/><path d="M17.305 74.905L1.536 90.673 107.46 196.597l15.768-15.768L17.305 74.905z"/><path d="M17.289 74.909L1.52 90.677l105.923 105.924 15.768-15.769L17.289 74.909z"/><path d="M17.274 74.913L1.506 90.68l105.923 105.924 15.769-15.769L17.274 74.913z"/><path d="M17.26 74.917L1.49 90.685 107.415 196.61l15.768-15.769L17.259 74.917z"/><path d="M17.245 74.92L1.477 90.69 107.4 196.613l15.768-15.769L17.245 74.921z"/><path d="M17.3 74.995L1.533 90.764l105.924 105.923 15.768-15.768L17.301 74.995z"/><path d="M17.286 75L1.518 90.767 107.44 196.69l15.768-15.768L17.286 74.999z"/><path d="M17.271 75.003L1.503 90.772l105.924 105.923 15.768-15.768L17.271 75.003z"/><path d="M17.256 75.007L1.487 90.775 107.411 196.7l15.768-15.768L17.256 75.007z"/><path d="M17.241 75.011L1.473 90.779l105.923 105.924 15.769-15.768L17.241 75.011z"/><path d="M17.297 75.086L1.528 90.854l105.924 105.924 15.768-15.769L17.297 75.086z"/><path d="M17.282 75.09L1.514 90.858 107.437 196.78l15.769-15.768L17.282 75.09z"/><path d="M17.267 75.094L1.5 90.862l105.924 105.923 15.768-15.768L17.267 75.094z"/><path d="M17.253 75.097L1.484 90.866l105.924 105.923 15.768-15.768L17.253 75.097z"/><path d="M17.237 75.101L1.47 90.87l105.923 105.923 15.769-15.768L17.237 75.101z"/><path d="M17.294 75.176L1.525 90.944 107.45 196.868l15.768-15.769L17.294 75.176z"/><path d="M17.278 75.18L1.51 90.948l105.923 105.924 15.769-15.769L17.278 75.18z"/><path d="M17.263 75.184L1.495 90.952 107.42 196.875l15.768-15.768L17.263 75.184z"/><path d="M17.249 75.188L1.48 90.956 107.404 196.88l15.768-15.769L17.249 75.188z"/><path d="M17.234 75.192L1.466 90.96l105.923 105.924 15.769-15.769L17.234 75.192z"/><path d="M17.29 75.266L1.52 91.034l105.924 105.924 15.768-15.768L17.29 75.266z"/><path d="M17.275 75.27L1.507 91.038 107.43 196.962l15.769-15.768L17.275 75.27z"/><path d="M17.26 75.274L1.492 91.042l105.924 105.924 15.768-15.769L17.261 75.274z"/><path d="M17.245 75.278L1.477 91.046 107.4 196.97l15.768-15.769L17.245 75.278z"/><path d="M17.23 75.282L1.462 91.05l105.923 105.924 15.769-15.769L17.23 75.282z"/><path d="M17.286 75.356L1.518 91.125 107.44 197.048l15.768-15.768L17.286 75.356z"/><path d="M17.271 75.36L1.503 91.13l105.923 105.923 15.769-15.768L17.271 75.36z"/><path d="M17.257 75.364L1.488 91.133l105.924 105.923 15.768-15.768L17.257 75.364z"/><path d="M17.242 75.368L1.474 91.137 107.397 197.06l15.769-15.768L17.242 75.368z"/><path d="M17.226 75.372L1.458 91.14l105.924 105.924 15.768-15.768L17.226 75.372z"/><path d="M17.212 75.517L1.443 91.286l105.924 105.923 15.768-15.768L17.212 75.517z"/><path d="M17.197 75.522L1.429 91.29l105.923 105.923 15.769-15.768L17.197 75.522z"/><path d="M17.182 75.525L1.414 91.294l105.924 105.923 15.768-15.768L17.182 75.525z"/><path d="M17.167 75.53L1.398 91.297 107.322 197.22l15.768-15.768L17.167 75.529z"/><path d="M17.152 75.533L1.384 91.302l105.923 105.923 15.769-15.768L17.152 75.533z"/><path d="M17.208 75.608L1.439 91.376 107.363 197.3l15.768-15.769L17.208 75.608z"/><path d="M17.193 75.612L1.425 91.38l105.923 105.923 15.769-15.768L17.193 75.612z"/><path d="M17.178 75.616L1.41 91.384l105.924 105.924 15.768-15.769L17.178 75.616z"/><path d="M17.164 75.62L1.396 91.388l105.923 105.924 15.768-15.769L17.164 75.62z"/><path d="M17.148 75.624L1.38 91.392l105.923 105.923 15.769-15.768L17.148 75.624z"/><path d="M17.205 75.698L1.437 91.466 107.36 197.39l15.768-15.768L17.205 75.698z"/><path d="M17.19 75.702L1.42 91.47l105.924 105.924 15.769-15.769L17.189 75.702z"/><path d="M17.175 75.706L1.406 91.474 107.33 197.398l15.768-15.769L17.175 75.706z"/><path d="M17.16 75.71L1.392 91.478l105.923 105.924 15.769-15.769L17.16 75.71z"/><path d="M17.145 75.714L1.377 91.482l105.924 105.924 15.768-15.769L17.145 75.714z"/><path d="M17.2 75.788L1.434 91.557 107.356 197.48l15.769-15.768L17.201 75.788z"/><path d="M17.186 75.792L1.418 91.561l105.924 105.923 15.768-15.768L17.186 75.792z"/><path d="M17.172 75.796L1.403 91.564l105.924 105.924 15.768-15.768L17.172 75.796z"/><path d="M17.156 75.8L1.388 91.568 107.31 197.492l15.769-15.768L17.156 75.8z"/><path d="M17.141 75.804L1.373 91.572l105.924 105.924 15.768-15.768L17.141 75.804z"/><path d="M17.197 75.879L1.429 91.647l105.923 105.924 15.769-15.769L17.197 75.879z"/><path d="M17.182 75.882L1.414 91.651l105.924 105.923 15.768-15.768L17.182 75.882z"/><path d="M17.168 75.886L1.399 91.656l105.924 105.923 15.768-15.768L17.168 75.886z"/><path d="M17.153 75.89L1.385 91.66l105.923 105.923 15.769-15.768L17.153 75.89z"/><path d="M17.137 75.894L1.37 91.663l105.924 105.923 15.768-15.768L17.137 75.894z"/><path d="M17.194 75.969L1.426 91.737l105.923 105.924 15.769-15.768L17.194 75.969z"/><path d="M17.178 75.973L1.41 91.74l105.924 105.924 15.768-15.769L17.178 75.973z"/><path d="M17.164 75.977L1.396 91.745 107.319 197.67l15.768-15.769L17.164 75.977z"/><path d="M17.15 75.98L1.38 91.75l105.924 105.924 15.769-15.769L17.149 75.981z"/><path d="M17.134 75.985L1.366 91.753 107.29 197.677l15.768-15.769L17.134 75.985z"/><path d="M17.19 76.06L1.422 91.826 107.345 197.75l15.769-15.768L17.19 76.059z"/><path d="M17.176 76.063L1.407 91.831l105.924 105.924 15.768-15.768L17.176 76.063z"/><path d="M17.16 76.067L1.392 91.835 107.315 197.76l15.769-15.769L17.16 76.067z"/><path d="M17.145 76.071L1.377 91.839l105.924 105.924 15.768-15.768L17.145 76.071z"/><path d="M17.13 76.075L1.363 91.843l105.924 105.924 15.768-15.769L17.131 76.075z"/><path d="M17.186 76.15L1.418 91.917 107.342 197.84l15.768-15.768L17.186 76.149z"/><path d="M17.172 76.153L1.403 91.922l105.924 105.923 15.768-15.768L17.172 76.153z"/><path d="M17.086 76.228L1.317 91.996 107.241 197.92l15.768-15.768L17.086 76.228z"/><path d="M17.071 76.232L1.303 92l105.923 105.924 15.769-15.769L17.071 76.232z"/><path d="M17.056 76.236L1.288 92.004l105.924 105.924 15.768-15.769L17.056 76.236z"/><path d="M17.112 76.31L1.344 92.08l105.923 105.923 15.769-15.768L17.112 76.31z"/><path d="M17.097 76.314L1.33 92.083l105.924 105.923 15.768-15.768L17.097 76.314z"/><path d="M17.083 76.318L1.314 92.087 107.238 198.01l15.768-15.768L17.083 76.318z"/><path d="M17.067 76.322L1.3 92.091l105.923 105.923 15.769-15.768L17.067 76.322z"/><path d="M17.052 76.326L1.284 92.095l105.924 105.923 15.768-15.768L17.052 76.326z"/><path d="M17.108 76.4L1.34 92.17l105.923 105.924 15.769-15.769L17.108 76.401z"/><path d="M17.093 76.405L1.325 92.173 107.25 198.097l15.768-15.769L17.094 76.405z"/><path d="M17.079 76.409L1.31 92.177l105.923 105.924 15.768-15.769L17.079 76.409z"/><path d="M17.064 76.413L1.296 92.18l105.923 105.923 15.769-15.768L17.064 76.413z"/><path d="M17.049 76.416L1.28 92.186l105.924 105.923 15.768-15.768L17.049 76.416z"/><path d="M17.105 76.49L1.337 92.26 107.26 198.182l15.769-15.768L17.105 76.491z"/><path d="M17.09 76.495L1.32 92.263l105.924 105.924 15.768-15.769L17.09 76.495z"/><path d="M17.075 76.499L1.307 92.267 107.23 198.191l15.769-15.769L17.075 76.499z"/><path d="M17.06 76.503L1.292 92.27l105.924 105.924 15.768-15.769L17.06 76.503z"/><path d="M17.046 76.507L1.277 92.275 107.201 198.2l15.768-15.769L17.046 76.507z"/><path d="M17.101 76.581L1.333 92.35l105.924 105.923 15.768-15.768L17.101 76.581z"/><path d="M17.087 76.585L1.318 92.354l105.924 105.923 15.768-15.768L17.087 76.585z"/><path d="M17.072 76.59L1.304 92.356 107.227 198.28l15.769-15.768L17.072 76.589z"/><path d="M17.056 76.593L1.288 92.361l105.924 105.924 15.768-15.768L17.056 76.593z"/><path d="M17.042 76.597L1.273 92.366l105.924 105.923 15.768-15.768L17.042 76.597z"/><path d="M17.097 76.672L1.33 92.44l105.924 105.924 15.768-15.769L17.097 76.672z"/><path d="M17.083 76.675L1.314 92.445l105.924 105.923 15.768-15.768L17.083 76.676z"/><path d="M17.068 76.68L1.3 92.447 107.223 198.37l15.769-15.768L17.068 76.679z"/><path d="M17.053 76.683L1.285 92.452 107.21 198.375l15.768-15.768L17.053 76.683z"/><path d="M17.038 76.687L1.27 92.456l105.923 105.923 15.768-15.768L17.038 76.687z"/><path d="M17.093 76.762L1.325 92.53 107.25 198.454l15.768-15.768L17.094 76.762z"/><path d="M17.079 76.766L1.31 92.534l105.923 105.924 15.768-15.769L17.079 76.766z"/><path d="M17.064 76.77L1.296 92.538l105.923 105.924 15.769-15.769L17.064 76.77z"/><path d="M17.05 76.774L1.28 92.542l105.924 105.924 15.768-15.769L17.05 76.774z"/><path d="M17.035 76.778L1.267 92.546 107.19 198.469l15.769-15.768L17.035 76.778z"/><path d="M17.09 76.852L1.323 92.621l105.924 105.923 15.768-15.768L17.091 76.852z"/><path d="M17.076 76.856L1.308 92.625 107.23 198.548 123 182.78 17.076 76.856z"/><path d="M17.06 76.86L1.292 92.628l105.924 105.924 15.768-15.768L17.06 76.86z"/><path d="M16.975 76.935L1.207 92.703l105.924 105.924 15.768-15.769L16.975 76.935z"/><path d="M16.96 76.939L1.19 92.707 107.115 198.63l15.768-15.768L16.96 76.939z"/><path d="M17.016 77.013L1.248 92.781l105.924 105.924 15.768-15.768L17.016 77.013z"/><path d="M17 77.017L1.233 92.785 107.156 198.71l15.768-15.768L17.001 77.017z"/><path d="M16.986 77.021L1.218 92.789 107.14 198.713l15.769-15.768L16.986 77.021z"/><path d="M16.971 77.025L1.203 92.793l105.924 105.924 15.768-15.769L16.972 77.025z"/><path d="M16.957 77.029L1.188 92.797l105.924 105.924 15.768-15.769L16.957 77.029z"/><path d="M17.012 77.103L1.244 92.873l105.924 105.923 15.768-15.768L17.012 77.104z"/><path d="M16.998 77.107L1.229 92.876l105.924 105.923 15.768-15.768L16.998 77.107z"/><path d="M16.983 77.111L1.215 92.88l105.923 105.923 15.769-15.768L16.983 77.111z"/><path d="M16.968 77.115L1.199 92.884l105.924 105.923 15.768-15.768L16.967 77.115z"/><path d="M16.953 77.12L1.185 92.886 107.108 198.81l15.768-15.768L16.953 77.119z"/><path d="M17.009 77.194L1.24 92.962l105.924 105.924 15.768-15.769L17.009 77.194z"/><path d="M16.994 77.198L1.226 92.966 107.149 198.89l15.768-15.769L16.994 77.198z"/><path d="M16.98 77.202L1.21 92.97l105.925 105.924 15.768-15.769L16.979 77.202z"/><path d="M16.965 77.206L1.196 92.974 107.12 198.897l15.768-15.768L16.965 77.206z"/><path d="M16.949 77.21L1.181 92.978 107.104 198.9l15.769-15.768L16.949 77.209z"/><path d="M17.006 77.284L1.237 93.052l105.924 105.924 15.768-15.769L17.006 77.284z"/><path d="M16.99 77.288L1.222 93.056 107.145 198.98l15.769-15.768L16.99 77.288z"/><path d="M16.975 77.292L1.207 93.06l105.924 105.924 15.768-15.768L16.975 77.292z"/><path d="M16.96 77.296L1.193 93.064l105.924 105.924 15.768-15.769L16.961 77.296z"/><path d="M16.946 77.3L1.178 93.068 107.1 198.992l15.769-15.769L16.946 77.3z"/><path d="M17.002 77.374L1.233 93.143l105.924 105.923 15.768-15.768L17.002 77.374z"/><path d="M16.987 77.378L1.22 93.147 107.142 199.07l15.769-15.768L16.987 77.378z"/><path d="M16.971 77.382L1.203 93.15l105.924 105.924 15.768-15.768L16.972 77.382z"/><path d="M16.957 77.386L1.188 93.155l105.924 105.923 15.768-15.768L16.957 77.386z"/><path d="M16.942 77.39L1.174 93.158l105.923 105.924 15.769-15.768L16.942 77.39z"/><path d="M16.998 77.465L1.229 93.233l105.924 105.923 15.768-15.768L16.998 77.465z"/><path d="M16.983 77.469L1.215 93.237 107.138 199.16l15.769-15.768L16.983 77.469z"/><path d="M16.968 77.472L1.2 93.241l105.924 105.923 15.768-15.768L16.969 77.472z"/><path d="M16.953 77.476L1.185 93.245l105.923 105.923 15.768-15.768L16.953 77.476z"/><path d="M16.938 77.48L1.17 93.25l105.924 105.923 15.768-15.768L16.938 77.481z"/><path d="M16.994 77.555L1.226 93.323l105.923 105.924 15.768-15.769L16.994 77.555z"/><path d="M16.98 77.559L1.21 93.327l105.925 105.924 15.768-15.769L16.979 77.559z"/><path d="M16.965 77.563L1.196 93.33 107.12 199.255l15.768-15.769L16.965 77.563z"/><path d="M16.95 77.567L1.182 93.335l105.923 105.924 15.769-15.769L16.95 77.567z"/><path d="M16.935 77.57L1.167 93.34l105.924 105.923 15.768-15.768L16.935 77.57z"/><path d="M16.92 77.716L1.15 93.484l105.924 105.924 15.768-15.769L16.92 77.716z"/><path d="M16.905 77.72L1.137 93.488 107.06 199.412l15.769-15.768L16.905 77.72z"/><path d="M16.89 77.724L1.122 93.492l105.924 105.924 15.768-15.769L16.89 77.724z"/><path d="M16.876 77.728L1.107 93.496 107.031 199.42l15.768-15.769L16.876 77.728z"/><path d="M16.86 77.732L1.092 93.5l105.923 105.924 15.769-15.769L16.86 77.732z"/><path d="M16.917 77.806L1.148 93.575l105.924 105.923 15.768-15.768L16.917 77.806z"/><path d="M16.901 77.81L1.133 93.578l105.923 105.924 15.769-15.768L16.901 77.81z"/><path d="M16.887 77.814L1.118 93.583l105.924 105.923 15.768-15.768L16.886 77.814z"/><path d="M16.872 77.818L1.104 93.586 107.027 199.51l15.768-15.768L16.872 77.818z"/><path d="M16.857 77.822L1.09 93.59l105.923 105.924 15.769-15.769L16.857 77.822z"/><path d="M16.913 77.897L1.145 93.665l105.923 105.923 15.768-15.768L16.913 77.897z"/><path d="M16.898 77.9L1.13 93.67l105.923 105.923 15.769-15.768L16.898 77.9z"/><path d="M16.884 77.904L1.115 93.673 107.04 199.596l15.768-15.768L16.884 77.904z"/><path d="M16.868 77.908L1.1 93.677 107.023 199.6l15.769-15.768L16.868 77.908z"/><path d="M16.853 77.912L1.085 93.68l105.924 105.924 15.768-15.768L16.853 77.912z"/><path d="M16.909 77.987L1.141 93.755 107.064 199.68l15.769-15.769L16.909 77.987z"/><path d="M16.894 77.99L1.126 93.76 107.05 199.683l15.768-15.769L16.894 77.991z"/><path d="M16.88 77.995L1.11 93.763l105.924 105.924 15.768-15.769L16.88 77.995z"/><path d="M16.865 77.999L1.097 93.767 107.02 199.69l15.769-15.768L16.865 77.999z"/><path d="M16.85 78.002L1.08 93.771l105.924 105.923 15.768-15.768L16.849 78.002z"/><path d="M16.906 78.077L1.138 93.846 107.06 199.769l15.769-15.768L16.906 78.077z"/><path d="M16.89 78.081L1.122 93.849l105.924 105.924 15.768-15.768L16.89 78.081z"/><path d="M16.876 78.085L1.107 93.853l105.924 105.924 15.768-15.768L16.876 78.085z"/><path d="M16.861 78.089L1.093 93.857l105.923 105.924 15.769-15.769L16.861 78.089z"/><path d="M16.846 78.093L1.078 93.86l105.924 105.924 15.768-15.769L16.847 78.093z"/><path d="M16.902 78.167L1.134 93.936l105.923 105.923 15.769-15.768L16.902 78.167z"/><path d="M16.887 78.171L1.12 93.94l105.924 105.924 15.768-15.768L16.887 78.171z"/><path d="M16.872 78.175L1.104 93.944l105.923 105.923 15.768-15.768L16.872 78.175z"/><path d="M16.857 78.18L1.09 93.946 107.013 199.87l15.769-15.768L16.857 78.179z"/><path d="M16.843 78.183L1.074 93.951l105.924 105.924 15.768-15.768L16.842 78.183z"/><path d="M16.898 78.258L1.13 94.026l105.923 105.923 15.769-15.768L16.898 78.258z"/><path d="M16.884 78.261L1.115 94.03 107.04 199.953l15.768-15.768L16.884 78.261z"/><path d="M16.869 78.265L1.1 94.034l105.923 105.923 15.768-15.768L16.869 78.265z"/><path d="M16.853 78.27L1.085 94.037 107.009 199.96l15.768-15.768L16.853 78.269z"/><path d="M16.839 78.273L1.07 94.042l105.924 105.923 15.768-15.768L16.839 78.273z"/><path d="M16.894 78.348L1.126 94.116 107.05 200.04l15.768-15.769L16.894 78.348z"/><path d="M16.88 78.352L1.11 94.12l105.924 105.924 15.768-15.769L16.88 78.352z"/><path d="M16.795 78.427L1.026 94.195 106.95 200.118l15.768-15.768L16.795 78.427z"/><path d="M16.78 78.43L1.01 94.2l105.924 105.923 15.769-15.768L16.779 78.43z"/><path d="M16.764 78.434L.996 94.203 106.92 200.126l15.768-15.768L16.764 78.434z"/><path d="M16.82 78.509L1.052 94.277l105.923 105.924 15.769-15.768L16.82 78.509z"/><path d="M16.805 78.513L1.037 94.28l105.924 105.924 15.768-15.769L16.805 78.513z"/><path d="M16.79 78.517L1.023 94.285 106.946 200.21l15.768-15.769L16.791 78.517z"/><path d="M16.776 78.52L1.008 94.29 106.93 200.212l15.769-15.769L16.776 78.521z"/><path d="M16.76 78.525L.992 94.293l105.924 105.924 15.768-15.769L16.761 78.525z"/><path d="M16.817 78.6L1.05 94.366 106.973 200.29l15.769-15.768L16.817 78.599z"/><path d="M16.802 78.603L1.033 94.372l105.924 105.923 15.768-15.768L16.802 78.603z"/><path d="M16.787 78.607L1.019 94.376l105.923 105.923 15.768-15.768L16.787 78.607z"/><path d="M16.772 78.611L1.004 94.38l105.923 105.924 15.769-15.768L16.772 78.611z"/><path d="M16.758 78.615L.989 94.383l105.924 105.924 15.768-15.768L16.758 78.615z"/><path d="M16.813 78.69L1.045 94.457 106.969 200.38l15.768-15.768L16.813 78.689z"/><path d="M16.799 78.693L1.03 94.462l105.924 105.923 15.768-15.768L16.799 78.693z"/><path d="M16.783 78.697L1.015 94.466l105.923 105.923 15.769-15.768L16.783 78.697z"/><path d="M16.768 78.701L1 94.47l105.924 105.923 15.768-15.768L16.768 78.701z"/><path d="M16.754 78.705L.985 94.473 106.91 200.397l15.768-15.768L16.754 78.705z"/><path d="M16.739 78.709L.971 94.477l105.923 105.924 15.769-15.768L16.739 78.709z"/><path d="M16.795 78.784L1.026 94.552 106.95 200.476l15.768-15.769L16.795 78.784z"/><path d="M16.78 78.788L1.012 94.556l105.923 105.923 15.769-15.768L16.78 78.788z"/><path d="M16.764 78.791L.996 94.56 106.92 200.483l15.768-15.768L16.764 78.791z"/><path d="M16.75 78.795L.98 94.564l105.924 105.923 15.768-15.768L16.75 78.795z"/><path d="M16.735 78.8L.967 94.567 106.89 200.49l15.769-15.768L16.735 78.799z"/><path d="M16.79 78.874L1.023 94.642l105.924 105.924 15.768-15.768L16.791 78.874z"/><path d="M16.776 78.878L1.008 94.646 106.93 200.57l15.769-15.769L16.776 78.878z"/><path d="M16.762 78.882L.993 94.65l105.924 105.924 15.768-15.769L16.761 78.882z"/><path d="M16.747 78.886L.979 94.654l105.923 105.924 15.768-15.769L16.747 78.886z"/><path d="M16.731 78.89L.963 94.658l105.923 105.924 15.769-15.769L16.731 78.89z"/><path d="M16.788 78.964L1.02 94.733l105.923 105.923 15.768-15.768L16.788 78.964z"/><path d="M16.772 78.968L1.004 94.737 106.927 200.66l15.769-15.768L16.772 78.968z"/><path d="M16.758 78.972L.989 94.741l105.924 105.923 15.768-15.768L16.758 78.972z"/><path d="M16.743 78.976L.975 94.744l105.923 105.924 15.769-15.768L16.743 78.976z"/><path d="M16.728 78.98L.96 94.748l105.924 105.924 15.768-15.768L16.728 78.98z"/><path d="M16.784 79.054L1.016 94.823l105.923 105.923 15.769-15.768L16.784 79.054z"/><path d="M16.77 79.059L1 94.827 106.925 200.75l15.768-15.768L16.769 79.059z"/><path d="M16.754 79.063L.985 94.83 106.91 200.754l15.768-15.768L16.754 79.063z"/><path d="M16.669 79.137L.9 94.905 106.824 200.83l15.768-15.768L16.669 79.137z"/><path d="M16.653 79.14L.885 94.91l105.923 105.923 15.769-15.769L16.653 79.141z"/><path d="M16.71 79.216L.94 94.984l105.924 105.923 15.768-15.768L16.71 79.216z"/><path d="M16.694 79.22L.926 94.987 106.849 200.91l15.769-15.768L16.694 79.219z"/><path d="M16.68 79.223L.91 94.992l105.924 105.923 15.768-15.768L16.68 79.223z"/><path d="M16.665 79.227L.896 94.996 106.82 200.919l15.768-15.768L16.665 79.227z"/><path d="M16.65 79.231L.882 95l105.923 105.923 15.769-15.768L16.65 79.231z"/><path d="M16.706 79.306L.938 95.074 106.86 200.998l15.768-15.769L16.706 79.306z"/><path d="M16.691 79.31L.923 95.078l105.923 105.924 15.769-15.769L16.691 79.31z"/><path d="M16.677 79.314L.908 95.082l105.924 105.924 15.768-15.769L16.677 79.314z"/><path d="M16.66 79.318L.894 95.086 106.816 201.01l15.768-15.769L16.661 79.318z"/><path d="M16.646 79.322L.878 95.09l105.924 105.923 15.768-15.768L16.646 79.321z"/><path d="M16.702 79.396L.934 95.165l105.923 105.923 15.768-15.768L16.702 79.396z"/><path d="M16.687 79.4L.92 95.168l105.924 105.924 15.768-15.768L16.687 79.4z"/><path d="M16.673 79.404L.904 95.172l105.924 105.924 15.768-15.768L16.673 79.404z"/><path d="M16.658 79.408L.89 95.176 106.813 201.1l15.769-15.768L16.658 79.408z"/><path d="M16.642 79.412L.874 95.18l105.924 105.924 15.768-15.769L16.642 79.412z"/><path d="M16.699 79.487L.931 95.255l105.923 105.923 15.769-15.768L16.699 79.487z"/><path d="M16.683 79.49L.915 95.26l105.924 105.923 15.768-15.768L16.683 79.491z"/><path d="M16.669 79.494L.9 95.263l105.924 105.923 15.768-15.768L16.669 79.494z"/><path d="M16.654 79.498L.886 95.267 106.809 201.19l15.769-15.768L16.654 79.498z"/><path d="M16.64 79.502L.87 95.271l105.924 105.923 15.768-15.768L16.639 79.502z"/><path d="M16.695 79.577L.927 95.345 106.85 201.269l15.769-15.769L16.695 79.577z"/><path d="M16.68 79.58L.912 95.35l105.924 105.923 15.768-15.768L16.68 79.581z"/><path d="M16.665 79.585L.896 95.353 106.82 201.277l15.768-15.769L16.665 79.585z"/><path d="M16.65 79.588L.882 95.357 106.805 201.28l15.769-15.768L16.65 79.588z"/><path d="M16.636 79.592L.867 95.361l105.924 105.923 15.768-15.768L16.636 79.592z"/><path d="M16.691 79.667L.923 95.435 106.846 201.36l15.769-15.768L16.691 79.667z"/><path d="M16.677 79.67L.908 95.44l105.924 105.923 15.768-15.769L16.677 79.671z"/><path d="M16.662 79.675L.894 95.443l105.923 105.924 15.768-15.769L16.662 79.675z"/><path d="M16.646 79.679L.878 95.447l105.924 105.924 15.768-15.769L16.646 79.679z"/><path d="M16.632 79.683L.863 95.45l105.924 105.924 15.768-15.769L16.632 79.683z"/><path d="M16.687 79.757L.92 95.526l105.924 105.923 15.768-15.768L16.687 79.757z"/><path d="M16.673 79.761L.904 95.53l105.924 105.923 15.768-15.768L16.673 79.761z"/><path d="M16.658 79.765L.89 95.533l105.923 105.924 15.769-15.768L16.658 79.765z"/><path d="M16.643 79.769L.875 95.537l105.924 105.924 15.768-15.768L16.643 79.769z"/><path d="M16.629 79.773L.86 95.54l105.924 105.924 15.768-15.768L16.629 79.773z"/><path d="M16.613 79.918L.845 95.686 106.768 201.61l15.769-15.768L16.613 79.918z"/><path d="M16.598 79.922L.83 95.69l105.924 105.924 15.768-15.768L16.598 79.922z"/><path d="M16.584 79.926L.815 95.694 106.74 201.618l15.768-15.768L16.584 79.926z"/><path d="M16.57 79.93L.8 95.698l105.924 105.924 15.769-15.769L16.569 79.93z"/><path d="M16.553 79.934L.785 95.702 106.71 201.626l15.768-15.769L16.553 79.934z"/><path d="M16.61 80.008L.842 95.778 106.765 201.7l15.769-15.768L16.61 80.009z"/><path d="M16.595 80.012L.825 95.781 106.75 201.704l15.768-15.768L16.594 80.012z"/><path d="M16.58 80.016L.812 95.785l105.923 105.923 15.768-15.768L16.58 80.016z"/><path d="M16.565 80.02L.797 95.79 106.72 201.712l15.769-15.768L16.565 80.02z"/><path d="M16.55 80.024L.783 95.793l105.924 105.923 15.768-15.768L16.551 80.024z"/><path d="M16.606 80.099L.838 95.867 106.76 201.791l15.769-15.769L16.606 80.099z"/><path d="M16.592 80.103L.823 95.87l105.924 105.924 15.768-15.769L16.592 80.103z"/><path d="M16.577 80.107L.809 95.875l105.923 105.924L122.5 186.03 16.577 80.107z"/><path d="M16.561 80.11L.793 95.88l105.924 105.923 15.768-15.768L16.561 80.111z"/><path d="M16.547 80.115L.778 95.883l105.924 105.923 15.768-15.768L16.547 80.114z"/><path d="M16.602 80.19L.834 95.956 106.758 201.88l15.768-15.768L16.602 80.189z"/><path d="M16.588 80.193L.819 95.961l105.924 105.924 15.768-15.768L16.588 80.193z"/><path d="M16.573 80.197L.805 95.965 106.728 201.89l15.769-15.768L16.573 80.197z"/><path d="M16.558 80.2L.79 95.97l105.924 105.923 15.768-15.769L16.558 80.201z"/><path d="M16.543 80.205L.774 95.973l105.924 105.924 15.768-15.769L16.543 80.205z"/><path d="M16.598 80.28L.83 96.047 106.754 201.97l15.768-15.768L16.598 80.279z"/><path d="M16.584 80.283L.815 96.052 106.74 201.975l15.768-15.768L16.584 80.283z"/><path d="M16.57 80.287L.8 96.056l105.924 105.923 15.769-15.768L16.569 80.287z"/><path d="M16.555 80.291L.786 96.06 106.71 201.983l15.768-15.768L16.555 80.291z"/><path d="M16.54 80.295L.77 96.064l105.924 105.923 15.768-15.768L16.54 80.295z"/><path d="M16.596 80.37L.827 96.138l105.924 105.924 15.768-15.769L16.595 80.37z"/><path d="M16.58 80.374L.814 96.142l105.923 105.924 15.768-15.769L16.581 80.374z"/><path d="M16.565 80.378L.797 96.146 106.72 202.07l15.769-15.769L16.565 80.378z"/><path d="M16.55 80.382L.783 96.15l105.924 105.923 15.768-15.768L16.551 80.382z"/><path d="M16.536 80.385L.768 96.154 106.69 202.077l15.768-15.768L16.536 80.385z"/><path d="M16.592 80.46L.823 96.228l105.924 105.924 15.768-15.768L16.592 80.46z"/><path d="M16.577 80.464L.809 96.232l105.923 105.924 15.769-15.769L16.577 80.464z"/><path d="M16.562 80.468L.794 96.236 106.718 202.16l15.768-15.768L16.562 80.468z"/><path d="M16.547 80.472L.778 96.24l105.924 105.924 15.768-15.769L16.547 80.472z"/><path d="M16.532 80.476L.764 96.244l105.923 105.923 15.769-15.768L16.532 80.476z"/><path d="M16.588 80.55L.819 96.32l105.924 105.923 15.768-15.768L16.588 80.55z"/><path d="M16.573 80.554L.805 96.323l105.923 105.923 15.769-15.768L16.573 80.554z"/><path d="M16.488 80.629L.72 96.397l105.923 105.924 15.769-15.769L16.488 80.629z"/><path d="M16.472 80.633L.704 96.4l105.924 105.924 15.768-15.769L16.472 80.633z"/><path d="M16.458 80.637L.689 96.405l105.924 105.924 15.768-15.769L16.458 80.637z"/><path d="M16.513 80.711L.745 96.48 106.67 202.403l15.768-15.768L16.513 80.711z"/><path d="M16.499 80.715L.73 96.484l105.924 105.923 15.768-15.768L16.499 80.715z"/><path d="M16.484 80.719L.716 96.487l105.923 105.924 15.769-15.768L16.484 80.719z"/><path d="M16.47 80.723L.7 96.49l105.924 105.924 15.768-15.769L16.469 80.723z"/><path d="M16.454 80.727L.686 96.495 106.609 202.42l15.768-15.769L16.454 80.727z"/><path d="M16.51 80.802L.742 96.57l105.924 105.923 15.768-15.768L16.511 80.802z"/><path d="M16.495 80.805L.727 96.574 106.65 202.497l15.768-15.768L16.495 80.805z"/><path d="M16.48 80.81L.712 96.577 106.635 202.5l15.769-15.768L16.48 80.809z"/><path d="M16.466 80.813L.697 96.582l105.924 105.923 15.768-15.768L16.466 80.813z"/><path d="M16.45 80.817L.684 96.585 106.606 202.51l15.769-15.768L16.451 80.817z"/><path d="M16.507 80.892L.738 96.66l105.924 105.924 15.768-15.769L16.507 80.892z"/><path d="M16.492 80.896L.724 96.664l105.923 105.924 15.769-15.769L16.492 80.896z"/><path d="M16.476 80.9L.708 96.668l105.924 105.924 15.768-15.769L16.476 80.9z"/><path d="M16.462 80.903L.693 96.672l105.924 105.923 15.768-15.768L16.462 80.903z"/><path d="M16.447 80.907L.679 96.677 106.602 202.6l15.769-15.768L16.447 80.908z"/><path d="M16.503 80.982L.734 96.751l105.924 105.923 15.768-15.768L16.503 80.982z"/><path d="M16.488 80.986L.72 96.754l105.923 105.924 15.769-15.768L16.488 80.986z"/><path d="M16.494 80.94l-15.8 15.8 105.9 105.899 15.8-15.8-105.9-105.9z"/></g><defs><clipPath id="clip0_201_27325"><path fill="#fff" transform="translate(-.006 .44)" d="M0 0h129v202.9H0z"/></clipPath></defs></svg>