<svg width="70" height="71" viewBox="0 0 70 71" fill="none" xmlns="http://www.w3.org/2000/svg">
<g clip-path="url(#clip0_201_19422)">
<path d="M61.6296 15.3938C67.149 21.812 69.8939 30.1594 69.2608 38.6008C68.6277 47.0422 64.6684 54.8867 58.2534 60.4098L58.4292 60.6209L58.2534 60.4098C51.8254 65.9191 43.4731 68.6508 35.0319 68.0046C26.5908 67.3583 18.7516 63.3869 13.2373 56.9633C7.72709 50.5358 4.99481 42.1832 5.64111 33.7417C6.2874 25.3003 10.2594 17.461 16.6838 11.9472C23.1044 6.45181 31.443 3.72831 39.8695 4.37447C48.296 5.02063 56.1219 8.98367 61.6296 15.3938Z" fill="black" stroke="black" stroke-width="1.5"/>
<path d="M56.7418 14.3387C62.2613 20.7569 65.0062 29.1043 64.3731 37.5457C63.74 45.9871 59.7807 53.8316 53.3656 59.3548L53.5415 59.5658L53.3656 59.3548C46.9373 64.8632 38.5851 67.5943 30.1443 66.948C21.7034 66.3018 13.8644 62.331 8.34953 55.9082C2.83887 49.4806 0.106613 41.1276 0.753592 32.6858C1.40057 24.2441 5.37381 16.4049 11.7996 10.8922C18.22 5.39783 26.5578 2.67499 34.9835 3.32114C43.4091 3.96729 51.2343 7.92964 56.7418 14.3387Z" fill="#FBB251" stroke="black" stroke-width="1.5"/>
<path d="M31.6 47.5081V44.1877C29.6117 43.9356 27.703 43.2501 26.0086 42.1797L25.5136 38.4832C27.789 40.3054 30.6056 41.3192 33.5203 41.3652C36.3146 41.3652 37.7994 40.3442 37.7994 38.3644C37.7994 36.823 36.6059 35.9208 34.4819 35.6012L31.0456 35.1063C27.6518 34.6113 25.4854 33.0671 25.4854 29.8345C25.4854 26.6018 27.7479 24.5089 31.5406 24.0423V20.7219H35.0334V24.014C36.8972 24.2459 38.4697 24.7691 39.5756 25.4988L40.0422 29.1953C38.1189 27.7178 35.7701 26.9004 33.345 26.8648C30.6101 26.8648 28.8905 27.6822 28.8905 29.5149C28.8905 30.912 29.9115 31.67 31.6283 31.9019L35.0646 32.3686C38.877 32.8918 41.2075 34.7556 41.2075 37.9571C41.2075 41.5971 38.6451 43.7239 35.0928 44.1792V47.4996L31.6 47.5081Z" fill="black"/>
</g>
<defs>
<clipPath id="clip0_201_19422">
<rect width="70" height="70" fill="white" transform="translate(0 0.665039)"/>
</clipPath>
</defs>
</svg>
