<svg width="74" height="82" viewBox="0 0 74 82" fill="none" xmlns="http://www.w3.org/2000/svg">
<path d="M38.9384 4.64709C36.7673 4.64671 34.6175 5.07398 32.6116 5.90452C30.6058 6.73507 28.7832 7.9526 27.2479 9.48761C25.7126 11.0226 24.4947 12.845 23.6638 14.8507C22.8329 16.8564 22.4053 19.0062 22.4053 21.1772H28.0449C28.0449 18.2912 29.1914 15.5235 31.2321 13.4828C33.2728 11.4421 36.0405 10.2957 38.9265 10.2957C41.8125 10.2957 44.5802 11.4421 46.6209 13.4828C48.6616 15.5235 49.8081 18.2912 49.8081 21.1772H55.4477C55.4477 16.7968 53.709 12.5954 50.6135 9.496C47.518 6.39659 43.3188 4.6526 38.9384 4.64709Z" fill="white" stroke="black"/>
<path d="M67.757 81.48H10.1197C9.38245 81.4817 8.6536 81.3234 7.98345 81.016C7.3133 80.7086 6.71783 80.2595 6.23811 79.6997C5.75839 79.1398 5.40585 78.4825 5.20483 77.7732C5.0038 77.0638 4.95907 76.3193 5.07372 75.591L13.0612 24.8163C13.2497 23.6143 13.8621 22.5193 14.7875 21.7294C15.713 20.9395 16.8905 20.5068 18.1073 20.5094H59.7784C60.9951 20.5068 62.1726 20.9395 63.0981 21.7294C64.0235 22.5193 64.6359 23.6143 64.8244 24.8163L72.803 75.591C72.9176 76.3193 72.8729 77.0638 72.6719 77.7732C72.4709 78.4825 72.1183 79.1398 71.6386 79.6997C71.1589 80.2595 70.5634 80.7086 69.8933 81.016C69.2231 81.3234 68.4943 81.4817 67.757 81.48Z" fill="white" stroke="black"/>
<path d="M38.8612 4.58484C34.4771 4.58484 30.2726 6.3264 27.1726 9.4264C24.0726 12.5264 22.3311 16.7309 22.3311 21.115H27.9707C28.0179 18.2597 29.1852 15.5374 31.221 13.5349C33.2569 11.5324 35.9981 10.4102 38.8538 10.4102C41.7094 10.4102 44.4506 11.5324 46.4865 13.5349C48.5223 15.5374 49.6897 18.2597 49.7368 21.115H55.3765C55.3765 16.7335 53.6369 12.5312 50.5401 9.43164C47.4434 6.33207 43.2427 4.58877 38.8612 4.58484Z" fill="#FBFEFD" stroke="black"/>
<path d="M67.6794 81.4176H10.0391C9.30203 81.4188 8.57342 81.2601 7.90352 80.9526C7.23362 80.6451 6.63836 80.196 6.15875 79.6362C5.67913 79.0765 5.32656 78.4194 5.12534 77.7103C4.92411 77.0012 4.87901 76.2569 4.99314 75.5286L12.9836 24.7539C13.1733 23.5524 13.7859 22.4582 14.7111 21.6685C15.6363 20.8788 16.8132 20.4456 18.0296 20.447H59.7007C60.9175 20.4444 62.095 20.8771 63.0205 21.667C63.9459 22.457 64.5583 23.5519 64.7468 24.7539L72.7254 75.5286C72.84 76.257 72.7953 77.0015 72.5943 77.7108C72.3932 78.4201 72.0407 79.0774 71.561 79.6373C71.0813 80.1971 70.4858 80.6462 69.8157 80.9536C69.1455 81.261 68.4166 81.4193 67.6794 81.4176Z" fill="#FBFEFD" stroke="black"/>
<path d="M38.787 4.52246C36.616 4.52207 34.4661 4.94935 32.4603 5.77989C30.4544 6.61043 28.6318 7.82797 27.0965 9.36297C25.5612 10.898 24.3434 12.7204 23.5125 14.7261C22.6816 16.7318 22.2539 18.8816 22.2539 21.0526H27.8936C27.9407 18.1973 29.1081 15.475 31.1439 13.4725C33.1797 11.47 35.921 10.3478 38.7766 10.3478C41.6322 10.3478 44.3735 11.47 46.4093 13.4725C48.4452 15.475 49.6125 18.1973 49.6597 21.0526H55.2993C55.2993 16.6716 53.5602 12.4698 50.464 9.37031C47.3679 6.27083 43.168 4.52718 38.787 4.52246Z" fill="#F8FEFC" stroke="black"/>
<path d="M67.6026 81.3553H9.96836C9.23109 81.3569 8.50223 81.1986 7.83208 80.8912C7.16194 80.5839 6.56646 80.1348 6.08674 79.5749C5.60702 79.015 5.25449 78.3578 5.05346 77.6484C4.85243 76.9391 4.8077 76.1946 4.92235 75.4663L12.9099 24.6916C13.0984 23.4895 13.7107 22.3946 14.6362 21.6047C15.5616 20.8148 16.7392 20.382 17.9559 20.3847H59.624C60.8379 20.3868 62.0112 20.8215 62.9333 21.6109C63.8555 22.4003 64.466 23.4926 64.6552 24.6916L72.6338 75.4663C72.7478 76.1933 72.703 76.9363 72.5026 77.6444C72.3023 78.3524 71.951 79.0087 71.473 79.5682C70.995 80.1277 70.4016 80.5771 69.7335 80.8856C69.0655 81.1941 68.3385 81.3543 67.6026 81.3553Z" fill="#F8FEFC" stroke="black"/>
<path d="M38.7098 4.44824C36.5388 4.44785 34.389 4.87513 32.3831 5.70567C30.3773 6.53621 28.5546 7.75375 27.0194 9.28875C25.4841 10.8238 24.2662 12.6462 23.4353 14.6519C22.6044 16.6576 22.1768 18.8073 22.1768 20.9784H27.8164C27.8164 18.0924 28.9629 15.3246 31.0035 13.2839C33.0442 11.2432 35.812 10.0968 38.698 10.0968C41.5839 10.0968 44.3517 11.2432 46.3924 13.2839C48.4331 15.3246 49.5795 18.0924 49.5795 20.9784H55.2192C55.2192 16.5979 53.4805 12.3965 50.385 9.29714C47.2895 6.19774 43.0903 4.45375 38.7098 4.44824Z" fill="#F4FDFA" stroke="black"/>
<path d="M67.5284 81.2959H9.89117C9.15376 81.2972 8.42486 81.1385 7.75472 80.8307C7.08458 80.523 6.48915 80.0736 6.00948 79.5136C5.52981 78.9535 5.17732 78.296 4.97631 77.5865C4.77531 76.8771 4.73056 76.1324 4.84516 75.404L12.8327 24.6322C13.0212 23.4302 13.6335 22.3353 14.559 21.5453C15.4844 20.7554 16.662 20.3227 17.8787 20.3253H59.5498C60.7665 20.3227 61.9441 20.7554 62.8695 21.5453C63.795 22.3353 64.4073 23.4302 64.5958 24.6322L72.5744 75.4069C72.6886 76.1352 72.6435 76.8795 72.4422 77.5886C72.241 78.2977 71.8885 78.9548 71.4088 79.5145C70.9292 80.0743 70.334 80.5234 69.6641 80.8309C68.9942 81.1384 68.2655 81.2971 67.5284 81.2959Z" fill="#F4FDFA" stroke="black"/>
<path d="M38.6327 4.39783C36.4616 4.39783 34.3119 4.82549 32.3062 5.65639C30.3005 6.48729 28.4781 7.70516 26.9431 9.24044C25.408 10.7757 24.1905 12.5983 23.36 14.6042C22.5294 16.6101 22.1021 18.7599 22.1025 20.9309H27.7422C27.7183 19.4866 27.9822 18.052 28.5184 16.7107C29.0546 15.3694 29.8525 14.1483 30.8654 13.1185C31.8784 12.0886 33.0862 11.2708 34.4184 10.7125C35.7507 10.1542 37.1807 9.86665 38.6252 9.86665C40.0697 9.86665 41.4998 10.1542 42.8321 10.7125C44.1643 11.2708 45.3721 12.0886 46.3851 13.1185C47.398 14.1483 48.1958 15.3694 48.7321 16.7107C49.2683 18.052 49.5321 19.4866 49.5083 20.9309H55.1479C55.1479 16.5492 53.4085 12.3466 50.3118 9.24655C47.2151 6.1465 43.0144 4.40255 38.6327 4.39783Z" fill="#F1FCF8" stroke="black"/>
<path d="M67.4517 81.2336H9.81743C9.08017 81.2343 8.35152 81.0753 7.68163 80.7674C7.01174 80.4595 6.41652 80.0101 5.93695 79.4502C5.45739 78.8902 5.10487 78.233 4.90366 77.5237C4.70245 76.8144 4.65734 76.07 4.77142 75.3416L12.756 24.5669C12.9462 23.3657 13.559 22.2718 14.4841 21.4822C15.4092 20.6926 16.5858 20.2592 17.802 20.26H59.4731C60.6897 20.258 61.8669 20.6909 62.7922 21.4807C63.7175 22.2705 64.33 23.3651 64.5191 24.5669L72.4977 75.3416C72.6123 76.0701 72.5676 76.8147 72.3666 77.5242C72.1656 78.2337 71.8131 78.8911 71.3334 79.4512C70.8537 80.0113 70.2583 80.4607 69.5882 80.7684C68.918 81.0761 68.1891 81.2348 67.4517 81.2336Z" fill="#F1FCF8" stroke="black"/>
<path d="M38.5585 4.33545C34.1736 4.33545 29.9684 6.07732 26.8678 9.17788C23.7673 12.2784 22.0254 16.4837 22.0254 20.8685H27.665C27.6412 19.4242 27.9051 17.9896 28.4413 16.6483C28.9775 15.307 29.7753 14.0859 30.7883 13.0561C31.8012 12.0263 33.009 11.2084 34.3413 10.6501C35.6735 10.0918 37.1036 9.80427 38.5481 9.80427C39.9926 9.80427 41.4226 10.0918 42.7549 10.6501C44.0872 11.2084 45.295 12.0263 46.3079 13.0561C47.3209 14.0859 48.1187 15.307 48.6549 16.6483C49.1911 17.9896 49.455 19.4242 49.4311 20.8685H55.0708C55.0716 16.487 53.3328 12.2845 50.2366 9.18435C47.1403 6.08422 42.94 4.34017 38.5585 4.33545Z" fill="#EDFCF6" stroke="black"/>
<path d="M67.3741 81.1712H9.74273C9.00533 81.1724 8.27642 81.0137 7.60628 80.706C6.93614 80.3983 6.34071 79.9489 5.86104 79.3888C5.38138 78.8288 5.02889 78.1713 4.82788 77.4618C4.62687 76.7523 4.58212 76.0077 4.69673 75.2792L12.6813 24.5046C12.8704 23.3028 13.4828 22.2082 14.4082 21.4184C15.3335 20.6286 16.5107 20.1956 17.7273 20.1976H59.3954C60.6117 20.1968 61.7883 20.6302 62.7133 21.4198C63.6384 22.2094 64.2512 23.3033 64.4414 24.5046L72.4201 75.2792C72.5342 76.0076 72.489 76.7521 72.2878 77.4613C72.0866 78.1706 71.7341 78.8278 71.2545 79.3878C70.775 79.9478 70.1798 80.3971 69.5099 80.705C68.84 81.0129 68.1113 81.1719 67.3741 81.1712Z" fill="#EDFCF6" stroke="black"/>
<path d="M38.4813 4.27307C34.0965 4.27307 29.8912 6.01495 26.7907 9.1155C23.6901 12.2161 21.9482 16.4213 21.9482 20.8062H27.5879C27.5879 17.9202 28.7343 15.1524 30.775 13.1117C32.8157 11.071 35.5835 9.9246 38.4695 9.9246C41.3554 9.9246 44.1232 11.071 46.1639 13.1117C48.2046 15.1524 49.351 17.9202 49.351 20.8062H54.9907C54.9907 16.4254 53.2521 12.2238 50.1566 9.12389C47.0612 6.02401 42.8621 4.27936 38.4813 4.27307Z" fill="#EAFBF5" stroke="black"/>
<path d="M67.2999 81.1089H9.66266C8.92525 81.1102 8.19634 80.9515 7.5262 80.6438C6.85607 80.3361 6.26063 79.8867 5.78097 79.3266C5.3013 78.7665 4.94881 78.109 4.7478 77.3996C4.54679 76.6901 4.50205 75.9454 4.61665 75.217L12.6042 24.4423C12.7933 23.2405 13.4057 22.1459 14.3311 21.3561C15.2564 20.5663 16.4336 20.1333 17.6502 20.1354H59.3124C60.529 20.1333 61.7062 20.5663 62.6315 21.3561C63.5568 22.1459 64.1693 23.2405 64.3584 24.4423L72.337 75.217C72.4515 75.9447 72.407 76.6886 72.2065 77.3974C72.006 78.1063 71.6543 78.7633 71.1756 79.3232C70.6969 79.8831 70.1026 80.3327 69.4335 80.641C68.7645 80.9492 68.0366 81.1089 67.2999 81.1089Z" fill="#EAFBF5" stroke="black"/>
<path d="M38.4041 4.21082C36.2331 4.21082 34.0834 4.63848 32.0777 5.46938C30.0719 6.30028 28.2495 7.51815 26.7145 9.05343C25.1795 10.5887 23.962 12.4113 23.1315 14.4172C22.3009 16.4231 21.8736 18.5729 21.874 20.7439H27.5137C27.4898 19.2996 27.7537 17.865 28.2899 16.5237C28.8261 15.1824 29.624 13.9613 30.6369 12.9315C31.6499 11.9016 32.8577 11.0837 34.1899 10.5255C35.5222 9.96716 36.9522 9.67964 38.3967 9.67964C39.8412 9.67964 41.2713 9.96716 42.6035 10.5255C43.9358 11.0837 45.1436 11.9016 46.1565 12.9315C47.1695 13.9613 47.9673 15.1824 48.5035 16.5237C49.0398 17.865 49.3036 19.2996 49.2798 20.7439H54.9194C54.9194 16.3621 53.18 12.1596 50.0833 9.05954C46.9866 5.95949 42.7859 4.21554 38.4041 4.21082Z" fill="#E6FAF3" stroke="black"/>
<path d="M67.2222 81.0466H9.58793C8.85068 81.0473 8.12203 80.8883 7.45214 80.5804C6.78224 80.2725 6.18703 79.8231 5.70746 79.2632C5.2279 78.7032 4.87537 78.046 4.67417 77.3367C4.47296 76.6274 4.42784 75.883 4.54193 75.1546L12.5295 24.3799C12.7185 23.1781 13.331 22.0835 14.2564 21.2937C15.1817 20.5039 16.3589 20.071 17.5755 20.073H59.2436C60.4602 20.071 61.6374 20.5039 62.5627 21.2937C63.488 22.0835 64.1005 23.1781 64.2896 24.3799L72.2682 75.1546C72.3828 75.8831 72.3381 76.6277 72.1371 77.3372C71.9361 78.0467 71.5836 78.7041 71.1039 79.2642C70.6243 79.8243 70.0288 80.2737 69.3587 80.5814C68.6885 80.8891 67.9596 81.0478 67.2222 81.0466Z" fill="#E6FAF3" stroke="black"/>
<path d="M38.33 4.15137C33.9451 4.15137 29.7399 5.89324 26.6393 8.9938C23.5387 12.0944 21.7969 16.2996 21.7969 20.6845H27.4365C27.4837 17.8292 28.651 15.1069 30.6869 13.1044C32.7227 11.1019 35.464 9.97966 38.3196 9.97966C41.1752 9.97966 43.9165 11.1019 45.9523 13.1044C47.9881 15.1069 49.1555 17.8292 49.2026 20.6845H54.8423C54.8431 16.303 53.1043 12.1004 50.0081 9.00027C46.9118 5.90014 42.7115 4.15609 38.33 4.15137Z" fill="#E2FAF1" stroke="black"/>
<path d="M67.1456 80.9842H9.51129C8.77388 80.9854 8.04498 80.8267 7.37484 80.519C6.7047 80.2113 6.10927 79.7619 5.6296 79.2018C5.14993 78.6417 4.79744 77.9843 4.59643 77.2748C4.39542 76.5653 4.35068 75.8207 4.46528 75.0922L12.4528 24.3175C12.6419 23.1158 13.2544 22.0212 14.1797 21.2314C15.105 20.4416 16.2823 20.0086 17.4988 20.0106H59.167C60.3832 20.0098 61.5598 20.4432 62.4849 21.2328C63.4099 22.0224 64.0228 23.1163 64.213 24.3175L72.1857 75.0922C72.2997 75.8201 72.2547 76.564 72.0538 77.2729C71.853 77.9817 71.501 78.6387 71.022 79.1985C70.5431 79.7584 69.9487 80.2079 69.2795 80.5161C68.6103 80.8244 67.8823 80.9841 67.1456 80.9842Z" fill="#E2FAF1" stroke="black"/>
<path d="M38.2528 4.08606C33.868 4.08606 29.6627 5.82793 26.5622 8.92849C23.4616 12.029 21.7197 16.2343 21.7197 20.6192H27.3594C27.3594 17.7332 28.5058 14.9654 30.5465 12.9247C32.5872 10.884 35.355 9.73759 38.2409 9.73759C41.1269 9.73759 43.8947 10.884 45.9354 12.9247C47.9761 14.9654 49.1225 17.7332 49.1225 20.6192H54.7622C54.7622 16.2384 53.0236 12.0368 49.9281 8.93688C46.8327 5.837 42.6336 4.09235 38.2528 4.08606Z" fill="#DFF9F0" stroke="black"/>
<path d="M67.0713 80.922H9.44586C8.70845 80.9232 7.97955 80.7645 7.30941 80.4568C6.63927 80.1491 6.04384 79.6997 5.56417 79.1396C5.0845 78.5795 4.73201 77.9221 4.531 77.2126C4.32999 76.5031 4.28525 75.7585 4.39985 75.03L12.3785 24.2731C12.5669 23.0708 13.1791 21.9755 14.1045 21.1851C15.0299 20.3947 16.2075 19.9613 17.4245 19.9633H59.0926C60.3096 19.9613 61.4872 20.3947 62.4126 21.1851C63.338 21.9755 63.9502 23.0708 64.1386 24.2731L72.1173 75.0449C72.2295 75.7722 72.183 76.5152 71.9809 77.2229C71.7788 77.9305 71.4259 78.5861 70.9465 79.1444C70.4671 79.7028 69.8725 80.1508 69.2036 80.4576C68.5346 80.7645 67.8072 80.9229 67.0713 80.922Z" fill="#DFF9F0" stroke="black"/>
<path d="M38.1756 4.0238C36.0046 4.0238 33.8549 4.45147 31.8491 5.28237C29.8434 6.11327 28.021 7.33114 26.486 8.86641C24.951 10.4017 23.7335 12.2243 22.9029 14.2302C22.0724 16.236 21.6451 18.3859 21.6455 20.5569H27.2852C27.3323 17.7017 28.4997 14.9793 30.5355 12.9768C32.5713 10.9743 35.3126 9.8521 38.1682 9.8521C41.0238 9.8521 43.7651 10.9743 45.8009 12.9768C47.8368 14.9793 49.0041 17.7017 49.0513 20.5569H54.6909C54.6909 16.1751 52.9515 11.9726 49.8548 8.87253C46.7581 5.77248 42.5574 4.02852 38.1756 4.0238Z" fill="#DBF8EE" stroke="black"/>
<path d="M66.9938 80.8596H9.35946C8.62234 80.8608 7.89373 80.7021 7.22383 80.3946C6.55394 80.087 5.95867 79.6379 5.47906 79.0782C4.99944 78.5184 4.64687 77.8614 4.44565 77.1523C4.24442 76.4431 4.19932 75.6988 4.31345 74.9706L12.301 24.1959C12.4885 22.9946 13.0992 21.8998 14.0228 21.1089C14.9464 20.3181 16.1222 19.8834 17.3381 19.8831H59.0151C60.2321 19.8811 61.4097 20.3145 62.3351 21.1049C63.2605 21.8953 63.8727 22.9906 64.0611 24.1929L72.0398 74.9676C72.1549 75.6962 72.1105 76.441 71.9097 77.1507C71.7089 77.8604 71.3564 78.5181 70.8767 79.0783C70.3969 79.6385 69.8012 80.0879 69.1309 80.3954C68.4605 80.703 67.7313 80.8613 66.9938 80.8596Z" fill="#DBF8EE" stroke="black"/>
<path d="M38.1015 3.96436C35.9304 3.96397 33.7806 4.39124 31.7747 5.22178C29.7689 6.05233 27.9463 7.26986 26.411 8.80487C24.8757 10.3399 23.6578 12.1623 22.8269 14.168C21.996 16.1737 21.5684 18.3235 21.5684 20.4945H27.208C27.2552 17.6392 28.4225 14.9169 30.4583 12.9144C32.4942 10.9119 35.2354 9.78968 38.0911 9.78968C40.9467 9.78968 43.6879 10.9119 45.7238 12.9144C47.7596 14.9169 48.927 17.6392 48.9741 20.4945H54.6138C54.6138 16.1135 52.8747 11.9117 49.7785 8.81221C46.6824 5.71272 42.4824 3.96908 38.1015 3.96436Z" fill="#D8F8EC" stroke="black"/>
<path d="M66.9171 80.7973H9.28281C8.54554 80.799 7.81668 80.6407 7.14654 80.3333C6.47639 80.0259 5.88091 79.5768 5.40119 79.0169C4.92148 78.4571 4.56894 77.7998 4.36791 77.0905C4.16689 76.3811 4.12215 75.6366 4.2368 74.9083L12.2243 24.1336C12.4128 22.9313 13.025 21.836 13.9504 21.0456C14.8758 20.2552 16.0533 19.8218 17.2703 19.8237H58.9385C60.1552 19.823 61.3321 20.2568 62.2572 21.047C63.1824 21.8372 63.7949 22.9318 63.9845 24.1336L71.9572 74.9083C72.0712 75.6361 72.0263 76.3799 71.8254 77.0885C71.6245 77.7972 71.2725 78.454 70.7935 79.0136C70.3145 79.5733 69.72 80.0225 69.0508 80.3304C68.3817 80.6383 67.6537 80.7976 66.9171 80.7973Z" fill="#D8F8EC" stroke="black"/>
<path d="M38.0243 3.90198C35.8533 3.90159 33.7035 4.32886 31.6976 5.15941C29.6917 5.98995 27.8691 7.20749 26.3338 8.74249C24.7985 10.2775 23.5807 12.0999 22.7498 14.1056C21.9189 16.1113 21.4912 18.2611 21.4912 20.4321H27.1309C27.1309 17.5461 28.2773 14.7784 30.318 12.7377C32.3587 10.697 35.1265 9.55054 38.0124 9.55054C40.8984 9.55054 43.6662 10.697 45.7069 12.7377C47.7475 14.7784 48.894 17.5461 48.894 20.4321H54.5336C54.5336 16.0516 52.7949 11.8503 49.6994 8.75088C46.6039 5.65148 42.4048 3.90748 38.0243 3.90198Z" fill="#D4F7EB" stroke="black"/>
<path d="M66.8429 80.7319H9.20566C8.46839 80.7336 7.73953 80.5753 7.06939 80.2679C6.39924 79.9605 5.80376 79.5114 5.32405 78.9516C4.84433 78.3917 4.49179 77.7344 4.29076 77.0251C4.08974 76.3158 4.045 75.5712 4.15966 74.8429L12.1472 24.0712C12.3357 22.8692 12.948 21.7742 13.8735 20.9843C14.7989 20.1944 15.9765 19.7617 17.1932 19.7643H58.8643C60.081 19.7617 61.2586 20.1944 62.184 20.9843C63.1095 21.7742 63.7218 22.8692 63.9103 24.0712L71.8889 74.8459C72.0031 75.574 71.958 76.3182 71.7568 77.0271C71.5555 77.7361 71.2029 78.393 70.7232 78.9525C70.2436 79.512 69.6483 79.9609 68.9784 80.2681C68.3085 80.5753 67.5799 80.7335 66.8429 80.7319Z" fill="#D4F7EB" stroke="black"/>
<path d="M37.9412 3.85461C33.5607 3.85619 29.36 5.5964 26.2617 8.69302C23.1634 11.7896 21.4209 15.9894 21.417 20.3699H27.0566C27.1038 17.5147 28.2711 14.7923 30.307 12.7898C32.3428 10.7873 35.0841 9.6651 37.9397 9.6651C40.7953 9.6651 43.5366 10.7873 45.5724 12.7898C47.6082 14.7923 48.7756 17.5147 48.8227 20.3699H54.4624C54.4585 15.9899 52.7164 11.7906 49.6187 8.69407C46.5211 5.59754 42.3211 3.85697 37.9412 3.85461Z" fill="#D1F6E9" stroke="black"/>
<path d="M66.7651 80.6726H9.13082C8.39637 80.671 7.67095 80.5107 7.00419 80.2027C6.33742 79.8948 5.74505 79.4464 5.26759 78.8883C4.79013 78.3303 4.43885 77.6756 4.23778 76.9693C4.03672 76.2629 3.99061 75.5214 4.10262 74.7955L12.0723 24.009C12.2608 22.8069 12.8732 21.712 13.7986 20.9221C14.7241 20.1321 15.9016 19.6994 17.1183 19.702H58.7865C60.0032 19.6994 61.1807 20.1321 62.1062 20.9221C63.0317 21.712 63.644 22.8069 63.8325 24.009L71.8022 74.7955C71.9149 75.5222 71.8689 76.2646 71.6675 76.9719C71.4661 77.6791 71.1141 78.3344 70.6356 78.8927C70.157 79.4511 69.5633 79.8993 68.8952 80.2065C68.2271 80.5137 67.5005 80.6727 66.7651 80.6726Z" fill="#D1F6E9" stroke="black"/>
<path d="M37.8729 3.77747C35.7019 3.77708 33.5521 4.20435 31.5462 5.03489C29.5403 5.86544 27.7177 7.08297 26.1825 8.61798C24.6472 10.153 23.4293 11.9754 22.5984 13.9811C21.7675 15.9868 21.3398 18.1366 21.3398 20.3076H26.9795C27.0267 17.4524 28.194 14.73 30.2298 12.7275C32.2657 10.725 35.0069 9.60279 37.8625 9.60279C40.7182 9.60279 43.4594 10.725 45.4953 12.7275C47.5311 14.73 48.6984 17.4524 48.7456 20.3076H54.3852C54.3852 15.9266 52.6461 11.7248 49.55 8.62532C46.4538 5.52583 42.2539 3.78219 37.8729 3.77747Z" fill="#CDF6E7" stroke="black"/>
<path d="M66.6886 80.6103H9.05429C8.31702 80.6119 7.58817 80.4536 6.91802 80.1462C6.24787 79.8389 5.6524 79.3898 5.17268 78.8299C4.69296 78.27 4.34042 77.6128 4.1394 76.9034C3.93837 76.1941 3.89364 75.4496 4.00829 74.7213L11.9958 23.9466C12.1843 22.7445 12.7966 21.6496 13.7221 20.8597C14.6476 20.0698 15.8251 19.637 17.0418 19.6397H58.7189C59.9353 19.6382 61.1122 20.0714 62.0374 20.8611C62.9626 21.6508 63.5752 22.745 63.7649 23.9466L71.7435 74.7213C71.8577 75.4502 71.8124 76.1953 71.6107 76.9051C71.409 77.6148 71.0556 78.2724 70.575 78.8322C70.0944 79.3921 69.498 79.8411 68.827 80.148C68.1561 80.455 67.4265 80.6127 66.6886 80.6103Z" fill="#CDF6E7" stroke="black"/>
<path d="M37.7958 3.71509C35.6248 3.7147 33.4749 4.14197 31.4691 4.97252C29.4632 5.80306 27.6406 7.0206 26.1053 8.5556C24.57 10.0906 23.3522 11.913 22.5213 13.9187C21.6904 15.9244 21.2627 18.0742 21.2627 20.2452H26.9023C26.9023 18.8162 27.1838 17.4012 27.7307 16.081C28.2775 14.7608 29.079 13.5612 30.0895 12.5508C31.0999 11.5403 32.2995 10.7388 33.6197 10.192C34.9399 9.64511 36.3549 9.36365 37.7839 9.36365C39.2129 9.36365 40.6279 9.64511 41.9481 10.192C43.2683 10.7388 44.4679 11.5403 45.4783 12.5508C46.4888 13.5612 47.2903 14.7608 47.8372 16.081C48.384 17.4012 48.6655 18.8162 48.6655 20.2452H54.3051C54.3051 15.8647 52.5664 11.6634 49.4709 8.56399C46.3754 5.46459 42.1762 3.72059 37.7958 3.71509Z" fill="#C9F5E5" stroke="black"/>
<path d="M66.6144 80.5509H8.97711C8.2397 80.5521 7.5108 80.3934 6.84066 80.0857C6.17052 79.778 5.57509 79.3286 5.09542 78.7685C4.61575 78.2084 4.26326 77.551 4.06225 76.8415C3.86124 76.132 3.8165 75.3873 3.9311 74.6589L11.9186 23.8842C12.1088 22.6853 12.7207 21.5937 13.6441 20.8057C14.5675 20.0178 15.7418 19.5853 16.9557 19.5862H58.6357C59.8525 19.5836 61.03 20.0163 61.9555 20.8062C62.8809 21.5961 63.4933 22.6911 63.6818 23.8931L71.6604 74.6678C71.7736 75.3956 71.7277 76.1393 71.5261 76.8476C71.3244 77.556 70.9717 78.2123 70.4922 78.7714C70.0127 79.3304 69.4177 79.779 68.7483 80.0862C68.0789 80.3934 67.3509 80.5519 66.6144 80.5509Z" fill="#C9F5E5" stroke="black"/>
<path d="M37.7186 3.65271C33.3351 3.65271 29.131 5.39386 26.0311 8.49322C22.9312 11.5926 21.1893 15.7963 21.1885 20.1799H26.8281C26.8043 18.7356 27.0681 17.301 27.6044 15.9597C28.1406 14.6184 28.9384 13.3972 29.9514 12.3674C30.9643 11.3376 32.1721 10.5197 33.5044 9.96141C34.8366 9.40312 36.2667 9.11559 37.7112 9.11559C39.1557 9.11559 40.5857 9.40312 41.918 9.96141C43.2502 10.5197 44.458 11.3376 45.471 12.3674C46.4839 13.3972 47.2818 14.6184 47.818 15.9597C48.3542 17.301 48.6181 18.7356 48.5942 20.1799H54.2339C54.2323 15.7991 52.4922 11.5981 49.3957 8.49933C46.2991 5.40057 42.0993 3.65743 37.7186 3.65271Z" fill="#C6F4E4" stroke="black"/>
<path d="M66.5367 80.4886H8.90239C8.16513 80.4893 7.43648 80.3303 6.76659 80.0224C6.0967 79.7145 5.50148 79.2651 5.02191 78.7052C4.54235 78.1452 4.18983 77.488 3.98862 76.7787C3.78741 76.0694 3.7423 75.325 3.85638 74.5966L11.8439 23.8219C12.033 22.6202 12.6455 21.5256 13.5708 20.7358C14.4961 19.946 15.6734 19.513 16.8899 19.515H58.5581C59.7746 19.513 60.9518 19.946 61.8772 20.7358C62.8025 21.5256 63.415 22.6202 63.6041 23.8219L71.5827 74.5966C71.6973 75.3251 71.6525 76.0697 71.4515 76.7792C71.2505 77.4887 70.898 78.1461 70.4184 78.7062C69.9387 79.2663 69.3433 79.7157 68.6731 80.0234C68.003 80.3311 67.2741 80.4898 66.5367 80.4886Z" fill="#C6F4E4" stroke="black"/>
<path d="M37.6444 3.59045C33.2596 3.59045 29.0543 5.33233 25.9538 8.43288C22.8532 11.5334 21.1113 15.7387 21.1113 20.1235H26.751C26.7271 18.6792 26.991 17.2446 27.5272 15.9033C28.0634 14.562 28.8613 13.3409 29.8742 12.3111C30.8872 11.2813 32.095 10.4634 33.4272 9.90509C34.7595 9.3468 36.1895 9.05928 37.634 9.05928C39.0785 9.05928 40.5086 9.3468 41.8408 9.90509C43.1731 10.4634 44.3809 11.2813 45.3938 12.3111C46.4068 13.3409 47.2046 14.562 47.7408 15.9033C48.2771 17.2446 48.5409 18.6792 48.5171 20.1235H54.1567C54.1575 15.7421 52.4188 11.5395 49.3225 8.43936C46.2263 5.33923 42.0259 3.59517 37.6444 3.59045Z" fill="#C2F4E2" stroke="black"/>
<path d="M66.46 80.4351H8.82574C8.08833 80.4363 7.35943 80.2776 6.68929 79.9699C6.01915 79.6622 5.42372 79.2128 4.94405 78.6527C4.46438 78.0927 4.11189 77.4352 3.91089 76.7257C3.70988 76.0162 3.66513 75.2716 3.77974 74.5432L11.7673 23.7596C11.9563 22.5578 12.5688 21.4632 13.4942 20.6734C14.4195 19.8836 15.5967 19.4506 16.8133 19.4526H58.4814C59.6976 19.4518 60.8742 19.8852 61.7993 20.6748C62.7244 21.4644 63.3372 22.5583 63.5274 23.7596L71.506 74.5343C71.6216 75.2633 71.5775 76.0087 71.377 76.7191C71.1764 77.4294 70.8241 78.0878 70.3444 78.6488C69.8647 79.2098 69.2689 79.66 68.5983 79.9684C67.9277 80.2768 67.1982 80.436 66.46 80.4351Z" fill="#C2F4E2" stroke="black"/>
<path d="M37.5674 3.52808C35.3953 3.52652 33.2441 3.95301 31.2368 4.78318C29.2296 5.61334 27.4056 6.83092 25.8691 8.36631C24.3326 9.90171 23.1137 11.7248 22.2821 13.7315C21.4505 15.7381 21.0225 17.889 21.0225 20.0612H26.6621C26.6621 18.6322 26.9436 17.2172 27.4904 15.897C28.0373 14.5768 28.8388 13.3772 29.8493 12.3667C30.8597 11.3563 32.0593 10.5548 33.3795 10.0079C34.6997 9.46107 36.1147 9.17961 37.5437 9.17961C38.9727 9.17961 40.3877 9.46107 41.7079 10.0079C43.0281 10.5548 44.2277 11.3563 45.2381 12.3667C46.2486 13.3772 47.0501 14.5768 47.5969 15.897C48.1438 17.2172 48.4252 18.6322 48.4252 20.0612H54.0649C54.0649 15.6825 52.3279 11.4826 49.2351 8.38309C46.1422 5.28355 41.9461 3.53751 37.5674 3.52808Z" fill="#BFF3E0" stroke="black"/>
<path d="M66.3859 80.3638H8.74859C8.01118 80.3651 7.28228 80.2063 6.61214 79.8986C5.942 79.5909 5.34657 79.1415 4.8669 78.5815C4.38724 78.0214 4.03475 77.3639 3.83374 76.6544C3.63273 75.945 3.58798 75.2003 3.70259 74.4719L11.6901 23.6972C11.8792 22.4954 12.4917 21.4008 13.417 20.611C14.3423 19.8212 15.5196 19.3882 16.7361 19.3903H58.4221C59.6386 19.3882 60.8158 19.8212 61.7412 20.611C62.6665 21.4008 63.279 22.4954 63.4681 23.6972L71.423 74.4719C71.5374 75.1996 71.4929 75.9435 71.2924 76.6523C71.0919 77.3611 70.7402 78.0181 70.2615 78.5781C69.7828 79.138 69.1885 79.5876 68.5195 79.8958C67.8504 80.2041 67.1225 80.3638 66.3859 80.3638Z" fill="#BFF3E0" stroke="black"/>
<path d="M37.4901 3.4657C35.3191 3.4657 33.1693 3.89336 31.1636 4.72426C29.1579 5.55516 27.3355 6.77303 25.8005 8.30831C24.2655 9.84359 23.0479 11.6662 22.2174 13.6721C21.3868 15.6779 20.9596 17.8278 20.96 19.9988H26.5996C26.5758 18.5545 26.8396 17.1199 27.3758 15.7786C27.9121 14.4373 28.7099 13.2162 29.7228 12.1863C30.7358 11.1565 31.9436 10.3386 33.2759 9.78034C34.6081 9.22204 36.0382 8.93452 37.4827 8.93452C38.9272 8.93452 40.3572 9.22204 41.6895 9.78034C43.0217 10.3386 44.2295 11.1565 45.2425 12.1863C46.2554 13.2162 47.0533 14.4373 47.5895 15.7786C48.1257 17.1199 48.3896 18.5545 48.3657 19.9988H54.0054C54.0054 15.617 52.2659 11.4145 49.1692 8.31442C46.0725 5.21438 41.8718 3.47042 37.4901 3.4657Z" fill="#BBF2DF" stroke="black"/>
<path d="M66.3082 80.3016H8.67387C7.93662 80.3023 7.20797 80.1433 6.53807 79.8354C5.86818 79.5275 5.27296 79.0781 4.7934 78.5182C4.31383 77.9582 3.96131 77.301 3.7601 76.5917C3.5589 75.8824 3.51378 75.138 3.62787 74.4096L11.6154 23.6349C11.8045 22.4331 12.417 21.3385 13.3423 20.5487C14.2676 19.7589 15.4448 19.326 16.6614 19.328H58.3295C59.5461 19.326 60.7233 19.7589 61.6487 20.5487C62.574 21.3385 63.1865 22.4331 63.3756 23.6349L71.3453 74.4096C71.4598 75.1373 71.4152 75.8812 71.2147 76.59C71.0142 77.2989 70.6625 77.9559 70.1838 78.5158C69.7052 79.0757 69.1108 79.5253 68.4418 79.8336C67.7727 80.1419 67.0448 80.3015 66.3082 80.3016Z" fill="#BBF2DF" stroke="black"/>
<path d="M37.4159 3.40344C33.0311 3.40344 28.8258 5.14532 25.7252 8.24587C22.6247 11.3464 20.8828 15.5517 20.8828 19.9365H26.5225C26.5696 17.0813 27.737 14.3589 29.7728 12.3565C31.8086 10.354 34.5499 9.23174 37.4055 9.23174C40.2611 9.23174 43.0024 10.354 45.0382 12.3565C47.0741 14.3589 48.2414 17.0813 48.2886 19.9365H53.9282C53.929 15.555 52.1902 11.3525 49.094 8.25235C45.9978 5.15222 41.7974 3.40816 37.4159 3.40344Z" fill="#B8F2DD" stroke="black"/>
<path d="M66.2315 80.2392H8.59723C7.85982 80.2404 7.13091 80.0817 6.46077 79.774C5.79063 79.4663 5.1952 79.0169 4.71554 78.4568C4.23587 77.8967 3.88338 77.2393 3.68237 76.5298C3.48136 75.8203 3.43662 75.0757 3.55122 74.3472L11.5387 23.5725C11.7274 22.3733 12.3378 21.2807 13.26 20.4912C14.1823 19.7017 15.3559 19.2671 16.5699 19.2656H58.2529C59.4691 19.2648 60.6457 19.6982 61.5708 20.4878C62.4959 21.2774 63.1087 22.3713 63.2989 23.5725L71.2775 74.3472C71.3916 75.0756 71.3465 75.82 71.1453 76.5293C70.9441 77.2386 70.5916 77.8958 70.112 78.4558C69.6324 79.0157 69.0372 79.4651 68.3673 79.773C67.6974 80.0809 66.9688 80.2399 66.2315 80.2392Z" fill="#B8F2DD" stroke="black"/>
<path d="M37.3477 3.34107C35.175 3.3399 33.0234 3.76697 31.0159 4.59787C29.0084 5.42877 27.1844 6.6472 25.6481 8.18349C24.1118 9.71979 22.8934 11.5438 22.0625 13.5513C21.2316 15.5588 20.8045 17.7104 20.8057 19.8831H26.4453C26.4453 16.9971 27.5918 14.2293 29.6325 12.1886C31.6731 10.1479 34.4409 9.0015 37.3269 9.0015C40.2129 9.0015 42.9806 10.1479 45.0213 12.1886C47.062 14.2293 48.2084 16.9971 48.2084 19.8831H53.8481C53.8505 15.5023 52.1141 11.2997 49.0204 8.19818C45.9266 5.09663 41.7284 3.34972 37.3477 3.34107Z" fill="#B4F1DB" stroke="black"/>
<path d="M66.1573 80.1769H8.52008C7.78267 80.1781 7.05377 80.0194 6.38363 79.7117C5.71349 79.404 5.11806 78.9546 4.63839 78.3945C4.15872 77.8344 3.80623 77.177 3.60522 76.4675C3.40421 75.758 3.35947 75.0134 3.47407 74.2849L11.4527 23.528C11.6411 22.3257 12.2533 21.2304 13.1787 20.44C14.1041 19.6496 15.2817 19.2162 16.4987 19.2181H58.1787C59.3957 19.2162 60.5733 19.6496 61.4987 20.44C62.4241 21.2304 63.0363 22.3257 63.2247 23.528L71.1855 74.2849C71.2999 75.0119 71.2556 75.755 71.0556 76.4632C70.8556 77.1714 70.5047 77.828 70.027 78.3877C69.5493 78.9475 68.9561 79.3973 68.2881 79.7061C67.6201 80.0149 66.8933 80.1755 66.1573 80.1769Z" fill="#B4F1DB" stroke="black"/>
<path d="M37.2616 3.28174C35.0904 3.28096 32.9402 3.70795 30.934 4.53832C28.9278 5.36868 27.1048 6.58616 25.5692 8.1212C24.0337 9.65624 22.8155 11.4788 21.9844 13.4847C21.1533 15.4906 20.7256 17.6406 20.7256 19.8119H26.3652C26.4124 16.9566 27.5797 14.2343 29.6156 12.2318C31.6514 10.2293 34.3927 9.10707 37.2483 9.10707C40.1039 9.10707 42.8452 10.2293 44.881 12.2318C46.9168 14.2343 48.0842 16.9566 48.1313 19.8119H53.771C53.771 15.4314 52.0323 11.23 48.9368 8.13064C45.8413 5.03124 41.6421 3.28725 37.2616 3.28174Z" fill="#B0F0D9" stroke="black"/>
<path d="M66.0797 80.1146H8.44539C7.70828 80.1158 6.97967 79.9572 6.30977 79.6496C5.63987 79.3421 5.04461 78.893 4.565 78.3332C4.08538 77.7735 3.73281 77.1164 3.53159 76.4073C3.33036 75.6982 3.28526 74.9539 3.39939 74.2257L11.3869 23.445C11.5753 22.2427 12.1876 21.1474 13.113 20.357C14.0384 19.5666 15.2159 19.1332 16.4329 19.1351H58.1011C59.3181 19.1332 60.4956 19.5666 61.421 20.357C62.3464 21.1474 62.9586 22.2427 63.1471 23.445L71.1257 74.2197C71.2413 74.9485 71.1973 75.6936 70.9967 76.4037C70.7961 77.1138 70.4437 77.7718 69.9639 78.3324C69.4841 78.8929 68.8883 79.3426 68.2176 79.6503C67.547 79.958 66.8176 80.1164 66.0797 80.1146Z" fill="#B0F0D9" stroke="black"/>
<path d="M37.1874 3.21936C35.0164 3.21897 32.8665 3.64625 30.8607 4.47679C28.8548 5.30733 27.0322 6.52487 25.4969 8.05987C23.9616 9.59487 22.7438 11.4173 21.9129 13.423C21.082 15.4287 20.6543 17.5785 20.6543 19.7495H26.294C26.3411 16.8942 27.5084 14.1719 29.5443 12.1694C31.5801 10.1669 34.3214 9.04469 37.177 9.04469C40.0326 9.04469 42.7739 10.1669 44.8097 12.1694C46.8455 14.1719 48.0129 16.8942 48.06 19.7495H53.6997C53.6997 15.3685 51.9606 11.1667 48.8644 8.06721C45.7683 4.96773 41.5684 3.22408 37.1874 3.21936Z" fill="#ADF0D8" stroke="black"/>
<path d="M66.003 80.0523H8.36875C7.63148 80.054 6.90262 79.8957 6.23247 79.5883C5.56233 79.2809 4.96685 78.8318 4.48713 78.2719C4.00741 77.7121 3.65488 77.0548 3.45385 76.3455C3.25282 75.6361 3.20809 74.8916 3.32274 74.1633L11.3103 23.3886C11.4987 22.1863 12.1109 21.091 13.0363 20.3006C13.9617 19.5102 15.1393 19.0768 16.3563 19.0787H58.0244C59.2411 19.078 60.418 19.5118 61.3432 20.302C62.2683 21.0922 62.8809 22.1868 63.0704 23.3886L71.049 74.1633C71.1632 74.8915 71.1181 75.6359 70.9168 76.345C70.7156 77.0541 70.3631 77.7112 69.8834 78.2709C69.4038 78.8306 68.8086 79.2797 68.1387 79.5873C67.4688 79.8948 66.7402 80.0535 66.003 80.0523Z" fill="#ADF0D8" stroke="black"/>
<path d="M37.1102 3.1571C34.9392 3.15671 32.7894 3.58399 30.7835 4.41453C28.7777 5.24508 26.955 6.46261 25.4198 7.99762C23.8845 9.53262 22.6666 11.355 21.8357 13.3607C21.0048 15.3665 20.5771 17.5162 20.5771 19.6872H26.2168C26.2168 16.8013 27.3632 14.0335 29.4039 11.9928C31.4446 9.95211 34.2124 8.80566 37.0984 8.80566C39.9843 8.80566 42.7521 9.95211 44.7928 11.9928C46.8335 14.0335 47.9799 16.8013 47.9799 19.6872H53.6196C53.6196 15.3068 51.8809 11.1054 48.7854 8.00601C45.6899 4.9066 41.4907 3.16261 37.1102 3.1571Z" fill="#A9EFD6" stroke="black"/>
<path d="M65.9289 79.9899H8.2916C7.55433 79.9916 6.82547 79.8333 6.15533 79.5259C5.48518 79.2185 4.8897 78.7694 4.40998 78.2095C3.93027 77.6497 3.57773 76.9924 3.3767 76.2831C3.17567 75.5737 3.13094 74.8292 3.24559 74.1009L11.2272 23.3262C11.4163 22.1244 12.0287 21.0298 12.9541 20.24C13.8794 19.4502 15.0566 19.0173 16.2732 19.0193H57.9502C59.167 19.0167 60.3445 19.4494 61.27 20.2393C62.1954 21.0292 62.8077 22.1242 62.9962 23.3262L70.9749 74.1009C71.0895 74.8292 71.0448 75.5737 70.8438 76.2831C70.6427 76.9924 70.2902 77.6497 69.8105 78.2095C69.3308 78.7694 68.7353 79.2185 68.0651 79.5259C67.395 79.8333 66.6661 79.9916 65.9289 79.9899Z" fill="#A9EFD6" stroke="black"/>
<path d="M37.0331 3.09473C32.649 3.09473 28.4445 4.83629 25.3445 7.93629C22.2445 11.0363 20.5029 15.2408 20.5029 19.6248H26.1426C26.1897 16.7696 27.3571 14.0473 29.3929 12.0448C31.4288 10.0423 34.17 8.92005 37.0256 8.92005C39.8813 8.92005 42.6225 10.0423 44.6583 12.0448C46.6942 14.0473 47.8615 16.7696 47.9087 19.6248H53.5483C53.5483 15.2434 51.8088 11.0411 48.712 7.94153C45.6152 4.84196 41.4145 3.09866 37.0331 3.09473Z" fill="#A6EED4" stroke="black"/>
<path d="M65.8423 79.9275H8.21688C7.47976 79.9287 6.75115 79.77 6.08126 79.4625C5.41136 79.155 4.8161 78.7059 4.33648 78.1461C3.85686 77.5864 3.5043 76.9293 3.30307 76.2202C3.10184 75.5111 3.05674 74.7668 3.17087 74.0385L11.1584 23.2638C11.3469 22.0618 11.9592 20.9668 12.8847 20.1769C13.8101 19.387 14.9877 18.9543 16.2044 18.9569H57.8725C59.0893 18.9543 60.2668 19.387 61.1923 20.1769C62.1177 20.9668 62.7301 22.0618 62.9186 23.2638L70.8883 74.0385C71.0029 74.7668 70.9582 75.5113 70.7572 76.2207C70.5561 76.93 70.2036 77.5873 69.7239 78.1472C69.2442 78.707 68.6487 79.1561 67.9785 79.4635C67.3084 79.7709 66.5795 79.9292 65.8423 79.9275Z" fill="#A6EED4" stroke="black"/>
<path d="M36.9588 3.03235C32.5748 3.03235 28.3703 4.77391 25.2703 7.87391C22.1703 10.9739 20.4287 15.1784 20.4287 19.5625H26.0684C26.1155 16.7072 27.2829 13.9849 29.3187 11.9824C31.3545 9.9799 34.0958 8.85768 36.9514 8.85768C39.807 8.85768 42.5483 9.9799 44.5841 11.9824C46.62 13.9849 47.7873 16.7072 47.8345 19.5625H53.4741C53.4741 15.181 51.7346 10.9787 48.6378 7.87915C45.541 4.77958 41.3403 3.03628 36.9588 3.03235Z" fill="#A2EED3" stroke="black"/>
<path d="M65.7775 79.8682H8.14019C7.40279 79.8695 6.67388 79.7108 6.00374 79.403C5.3336 79.0953 4.73817 78.6459 4.25851 78.0859C3.77884 77.5258 3.42635 76.8683 3.22534 76.1589C3.02433 75.4494 2.97958 74.7047 3.09419 73.9763L11.0817 23.2016C11.2702 21.9995 11.8825 20.9046 12.808 20.1147C13.7335 19.3248 14.911 18.892 16.1277 18.8947H57.7959C59.0123 18.8932 60.1892 19.3264 61.1144 20.1161C62.0396 20.9058 62.6522 22.0001 62.8419 23.2016L70.8205 73.9763C70.9345 74.7044 70.8895 75.4486 70.6885 76.1576C70.4874 76.8667 70.1352 77.5238 69.6559 78.0837C69.1767 78.6436 68.5818 79.093 67.9123 79.4011C67.2428 79.7092 66.5145 79.8685 65.7775 79.8682Z" fill="#A2EED3" stroke="black"/>
<path d="M36.8817 2.96411C32.4974 2.96411 28.2926 4.70558 25.1921 7.80549C22.0916 10.9054 20.3494 15.1099 20.3486 19.4942H25.9883C25.9883 16.6083 27.1347 13.8405 29.1754 11.7998C31.2161 9.75912 33.9839 8.61267 36.8699 8.61267C39.7558 8.61267 42.5236 9.75912 44.5643 11.7998C46.605 13.8405 47.7514 16.6083 47.7514 19.4942H53.3911C53.3903 15.114 51.6513 10.9131 48.556 7.81388C45.4606 4.71465 41.2619 2.9704 36.8817 2.96411Z" fill="#9FEDD1" stroke="black"/>
<path d="M65.6996 79.8059H8.06239C7.32485 79.806 6.59606 79.6462 5.92628 79.3374C5.2565 79.0286 4.66167 78.5782 4.18283 78.0172C3.70399 77.4563 3.35252 76.7981 3.15268 76.0882C2.95284 75.3782 2.90937 74.6334 3.02528 73.905L11.0039 23.1481C11.1936 21.9466 11.8062 20.8523 12.7314 20.0626C13.6566 19.2729 14.8335 18.8398 16.0499 18.8412H57.721C58.9376 18.8392 60.1148 19.2721 61.0401 20.0619C61.9655 20.8517 62.578 21.9463 62.767 23.1481L70.7367 73.905C70.8527 74.6334 70.8092 75.3782 70.6094 76.0882C70.4095 76.7981 70.058 77.4563 69.5792 78.0172C69.1004 78.5782 68.5055 79.0286 67.8358 79.3374C67.166 79.6462 66.4372 79.806 65.6996 79.8059Z" fill="#9FEDD1" stroke="black"/>
<path d="M36.8045 2.90771C34.6335 2.90771 32.4838 3.33538 30.478 4.16628C28.4723 4.99718 26.6499 6.21505 25.1149 7.75033C23.5799 9.2856 22.3624 11.1082 21.5318 13.1141C20.7013 15.12 20.274 17.2698 20.2744 19.4408H25.9141C25.8902 17.9965 26.1541 16.5619 26.6903 15.2206C27.2265 13.8793 28.0244 12.6582 29.0373 11.6284C30.0503 10.5985 31.2581 9.78065 32.5903 9.22235C33.9226 8.66406 35.3526 8.37654 36.7971 8.37654C38.2416 8.37654 39.6717 8.66406 41.0039 9.22235C42.3362 9.78065 43.544 10.5985 44.5569 11.6284C45.5699 12.6582 46.3677 13.8793 46.9039 15.2206C47.4401 16.5619 47.704 17.9965 47.6802 19.4408H53.3198C53.3198 15.059 51.5804 10.8565 48.4837 7.75644C45.387 4.65639 41.1863 2.91243 36.8045 2.90771Z" fill="#9BECCF" stroke="black"/>
<path d="M65.6226 79.7435H7.98832C7.25107 79.7442 6.52242 79.5852 5.85253 79.2773C5.18263 78.9694 4.58742 78.52 4.10785 77.9601C3.62829 77.4001 3.27577 76.7429 3.07456 76.0336C2.87335 75.3243 2.82823 74.5799 2.94232 73.8515L10.9298 23.0768C11.1189 21.875 11.7314 20.7804 12.6567 19.9906C13.5821 19.2008 14.7593 18.7679 15.9759 18.7699H57.644C58.8606 18.7679 60.0378 19.2008 60.9631 19.9906C61.8884 20.7804 62.5009 21.875 62.69 23.0768L70.6686 73.8515C70.7832 74.58 70.7385 75.3246 70.5375 76.0341C70.3365 76.7436 69.984 77.401 69.5043 77.9611C69.0246 78.5212 68.4292 78.9706 67.7591 79.2783C67.0889 79.586 66.36 79.7447 65.6226 79.7435Z" fill="#9BECCF" stroke="black"/>
<path d="M36.7304 2.84534C32.3455 2.84534 28.1403 4.58721 25.0397 7.68777C21.9391 10.7883 20.1973 14.9936 20.1973 19.3784H25.8369C25.8131 17.9341 26.0769 16.4995 26.6132 15.1582C27.1494 13.8169 27.9472 12.5958 28.9602 11.566C29.9731 10.5362 31.1809 9.71827 32.5132 9.15998C33.8454 8.60168 35.2755 8.31416 36.72 8.31416C38.1645 8.31416 39.5945 8.60168 40.9268 9.15998C42.259 9.71827 43.4668 10.5362 44.4798 11.566C45.4927 12.5958 46.2906 13.8169 46.8268 15.1582C47.363 16.4995 47.6269 17.9341 47.603 19.3784H53.2427C53.2435 14.9969 51.5047 10.7944 48.4085 7.69424C45.3122 4.59411 41.1118 2.85006 36.7304 2.84534Z" fill="#98ECCE" stroke="black"/>
<path d="M65.546 79.6812H7.91168C7.17427 79.6825 6.44537 79.5238 5.77523 79.2161C5.10509 78.9083 4.50966 78.459 4.02999 77.8989C3.55032 77.3388 3.19783 76.6813 2.99682 75.9719C2.79581 75.2624 2.75107 74.5177 2.86567 73.7893L10.8532 23.0146C11.0395 21.8122 11.6496 20.7159 12.5733 19.9239C13.497 19.1319 14.6735 18.6963 15.8903 18.6958H57.5673C58.7836 18.695 59.9602 19.1284 60.8852 19.918C61.8103 20.7075 62.4231 21.8014 62.6134 23.0027L70.592 73.7893C70.7066 74.5177 70.6618 75.2624 70.4608 75.9719C70.2598 76.6813 69.9073 77.3388 69.4277 77.8989C68.948 78.459 68.3526 78.9083 67.6824 79.2161C67.0123 79.5238 66.2834 79.6825 65.546 79.6812Z" fill="#98ECCE" stroke="black"/>
<path d="M36.6531 2.78308C32.2703 2.78623 28.0681 4.52949 24.9701 7.62971C21.8721 10.7299 20.1318 14.9334 20.1318 19.3162H25.7715C25.7715 16.4302 26.9179 13.6624 28.9586 11.6217C30.9993 9.58106 33.7671 8.43461 36.6531 8.43461C39.539 8.43461 42.3068 9.58106 44.3475 11.6217C46.3882 13.6624 47.5346 16.4302 47.5346 19.3162H53.1743C53.1743 14.9334 51.434 10.7299 48.336 7.62971C45.2381 4.52949 41.0358 2.78623 36.6531 2.78308Z" fill="#94EBCC" stroke="black"/>
<path d="M65.4718 79.6188H7.83453C7.09712 79.6201 6.36822 79.4614 5.69808 79.1537C5.02794 78.8459 4.43251 78.3966 3.95284 77.8365C3.47317 77.2764 3.12068 76.6189 2.91967 75.9095C2.71867 75.2 2.67392 74.4553 2.78852 73.7269L10.7761 22.9522C10.9657 21.7507 11.5783 20.6564 12.5036 19.8667C13.4288 19.077 14.6057 18.6438 15.8221 18.6453H57.4932C58.7097 18.6432 59.8869 19.0762 60.8123 19.866C61.7376 20.6558 62.3501 21.7504 62.5392 22.9522L70.5089 73.7269C70.6234 74.4546 70.5788 75.1985 70.3784 75.9073C70.1779 76.6162 69.8262 77.2732 69.3475 77.8331C68.8688 78.393 68.2745 78.8426 67.6054 79.1509C66.9364 79.4591 66.2085 79.6188 65.4718 79.6188Z" fill="#94EBCC" stroke="black"/>
<path d="M36.576 2.7207C34.405 2.7207 32.2553 3.14837 30.2495 3.97927C28.2438 4.81017 26.4214 6.02803 24.8864 7.56331C23.3514 9.09859 22.1339 10.9212 21.3033 12.9271C20.4728 14.9329 20.0455 17.0828 20.0459 19.2538H25.6856C25.6617 17.8095 25.9256 16.3749 26.4618 15.0336C26.998 13.6923 27.7958 12.4712 28.8088 11.4413C29.8217 10.4115 31.0295 9.59363 32.3618 9.03534C33.694 8.47705 35.1241 8.18952 36.5686 8.18952C38.0131 8.18952 39.4432 8.47705 40.7754 9.03534C42.1077 9.59363 43.3155 10.4115 44.3284 11.4413C45.3414 12.4712 46.1392 13.6923 46.6754 15.0336C47.2116 16.3749 47.4755 17.8095 47.4516 19.2538H53.0913C53.0913 14.872 51.3519 10.6695 48.2552 7.56943C45.1585 4.46938 40.9578 2.72542 36.576 2.7207Z" fill="#90EACA" stroke="black"/>
<path d="M65.3941 79.5447H7.75984C7.02228 79.5464 6.29312 79.3881 5.62274 79.0805C4.95235 78.773 4.3567 78.3236 3.87693 77.7634C3.39716 77.2032 3.0447 76.5455 2.84389 75.8358C2.64308 75.1261 2.59871 74.3813 2.71383 73.6527L10.7014 22.8899C10.8904 21.6881 11.5029 20.5935 12.4283 19.8037C13.3536 19.0139 14.5308 18.581 15.7474 18.583H57.4155C58.6321 18.581 59.8093 19.0139 60.7346 19.8037C61.66 20.5935 62.2724 21.6881 62.4615 22.8899L70.4401 73.6646C70.5528 74.3922 70.5067 75.1355 70.3048 75.8435C70.1029 76.5516 69.7501 77.2075 69.2707 77.7662C68.7912 78.3249 68.1964 78.7732 67.5273 79.0802C66.8581 79.3872 66.1304 79.5457 65.3941 79.5447Z" fill="#90EACA" stroke="black"/>
<path d="M36.5018 2.66724C32.117 2.66724 27.9117 4.40911 24.8112 7.50967C21.7106 10.6102 19.9688 14.8155 19.9688 19.2003H25.6084C25.6556 16.3451 26.8229 13.6227 28.8587 11.6203C30.8946 9.61776 33.6358 8.49553 36.4915 8.49553C39.3471 8.49553 42.0883 9.61776 44.1242 11.6203C46.16 13.6227 47.3273 16.3451 47.3745 19.2003H53.0142C53.0149 14.8188 51.2762 10.6163 48.1799 7.51614C45.0837 4.41601 40.8833 2.67196 36.5018 2.66724Z" fill="#8DEAC8" stroke="black"/>
<path d="M65.3204 79.4942H7.68309C6.94702 79.494 6.21971 79.3345 5.55114 79.0266C4.88257 78.7186 4.28859 78.2696 3.81 77.7104C3.33141 77.1511 2.97956 76.4949 2.77863 75.7868C2.5777 75.0787 2.53245 74.3354 2.64599 73.6082L10.6335 22.8276C10.8226 21.6258 11.4351 20.5312 12.3604 19.7414C13.2858 18.9516 14.463 18.5186 15.6795 18.5206H57.3388C58.555 18.5198 59.7316 18.9532 60.6567 19.7428C61.5817 20.5324 62.1946 21.6263 62.3848 22.8276L70.3575 73.6082C70.471 74.3354 70.4258 75.0787 70.2248 75.7868C70.0239 76.4949 69.6721 77.1511 69.1935 77.7104C68.7149 78.2696 68.1209 78.7186 67.4523 79.0266C66.7837 79.3345 66.0564 79.494 65.3204 79.4942Z" fill="#8DEAC8" stroke="black"/>
<path d="M36.4247 2.59607C34.2536 2.59607 32.1039 3.02373 30.0982 3.85463C28.0924 4.68554 26.27 5.9034 24.735 7.43868C23.2 8.97396 21.9825 10.7966 21.152 12.8024C20.3214 14.8083 19.8941 16.9581 19.8945 19.1292H25.5342C25.5342 16.2432 26.6806 13.4754 28.7213 11.4347C30.762 9.39404 33.5298 8.2476 36.4157 8.2476C39.3017 8.2476 42.0695 9.39404 44.1102 11.4347C46.1509 13.4754 47.2973 16.2432 47.2973 19.1292H52.937C52.937 14.7479 51.198 10.5458 48.1019 7.44584C45.0058 4.34588 40.8059 2.60158 36.4247 2.59607Z" fill="#89E9C7" stroke="black"/>
<path d="M65.2493 79.4318H7.60605C6.86878 79.4335 6.13992 79.2752 5.46978 78.9678C4.79963 78.6604 4.20416 78.2113 3.72444 77.6515C3.24472 77.0916 2.89218 76.4343 2.69115 75.725C2.49013 75.0156 2.4454 74.2711 2.56005 73.5428L10.5476 22.7681C10.7366 21.5661 11.349 20.4711 12.2742 19.6808C13.1995 18.8905 14.3767 18.4569 15.5936 18.4583H57.2647C58.4817 18.4563 59.6593 18.8897 60.5847 19.6801C61.5101 20.4705 62.1223 21.5658 62.3107 22.7681L70.2953 73.5428C70.4099 74.2711 70.3652 75.0156 70.1642 75.725C69.9631 76.4343 69.6106 77.0916 69.1309 77.6515C68.6512 78.2113 68.0557 78.6604 67.3855 78.9678C66.7154 79.2752 65.9865 79.4335 65.2493 79.4318Z" fill="#89E9C7" stroke="black"/>
<path d="M36.3475 2.53674C31.9634 2.53674 27.7589 4.2783 24.6589 7.3783C21.5589 10.4783 19.8174 14.6828 19.8174 19.0669H25.4748C25.522 16.2116 26.6893 13.4893 28.7252 11.4868C30.761 9.4843 33.5023 8.36207 36.3579 8.36207C39.2135 8.36207 41.9548 9.4843 43.9906 11.4868C46.0264 13.4893 47.1938 16.2116 47.2409 19.0669H52.8806C52.8806 16.8959 52.4529 14.7461 51.622 12.7404C50.7911 10.7347 49.5733 8.91226 48.038 7.37725C46.5027 5.84225 44.6801 4.62471 42.6742 3.79417C40.6684 2.96363 38.5185 2.53635 36.3475 2.53674Z" fill="#86E8C5" stroke="black"/>
<path d="M65.1661 79.3695H7.53183C6.79456 79.3712 6.06571 79.2129 5.39556 78.9055C4.72541 78.5981 4.12994 78.149 3.65022 77.5892C3.1705 77.0293 2.81796 76.372 2.61694 75.6627C2.41591 74.9534 2.37118 74.2088 2.48583 73.4805L10.4734 22.7058C10.6622 21.5056 11.2734 20.4122 12.1969 19.6226C13.1204 18.8329 14.2954 18.399 15.5105 18.3989H57.1875C58.4045 18.397 59.5821 18.8304 60.5075 19.6208C61.4329 20.4112 62.0451 21.5065 62.2335 22.7088L70.2121 73.4835C70.3263 74.2116 70.2812 74.9558 70.08 75.6647C69.8787 76.3737 69.5261 77.0306 69.0465 77.5901C68.5668 78.1497 67.9715 78.5985 67.3016 78.9057C66.6317 79.2129 65.9031 79.3711 65.1661 79.3695Z" fill="#86E8C5" stroke="black"/>
<path d="M36.2733 2.47437C31.8908 2.47358 27.6873 4.21316 24.587 7.31068C21.4867 10.4082 19.7434 14.6101 19.7402 18.9926H25.3799C25.4463 16.1507 26.6219 13.4474 28.6553 11.4609C30.6888 9.47441 33.4187 8.36226 36.2615 8.36226C39.1042 8.36226 41.8341 9.47441 43.8676 11.4609C45.901 13.4474 47.0766 16.1507 47.143 18.9926H52.7827C52.7795 14.6142 51.0394 10.4159 47.9443 7.31907C44.8491 4.22223 40.6517 2.47987 36.2733 2.47437Z" fill="#82E8C3" stroke="black"/>
<path d="M65.0919 79.3072H7.45469C6.71741 79.3088 5.98856 79.1505 5.31841 78.8431C4.64827 78.5358 4.05279 78.0867 3.57307 77.5268C3.09335 76.9669 2.74081 76.3097 2.53979 75.6003C2.33876 74.891 2.29403 74.1465 2.40868 73.4182L10.3962 22.6435C10.5847 21.4414 11.197 20.3465 12.1225 19.5566C13.048 18.7667 14.2255 18.3339 15.4422 18.3366H57.1104C58.3268 18.3351 59.5036 18.7683 60.4289 19.558C61.3541 20.3477 61.9667 21.4419 62.1564 22.6435L70.135 73.4182C70.2491 74.1462 70.204 74.8902 70.003 75.5991C69.8019 76.308 69.4496 76.9649 68.9703 77.5246C68.4911 78.0843 67.8962 78.5335 67.2266 78.8412C66.5571 79.1489 65.8288 79.3079 65.0919 79.3072Z" fill="#82E8C3" stroke="black"/>
<path d="M36.1961 2.41199C31.8121 2.41199 27.6076 4.15355 24.5076 7.25355C21.4076 10.3535 19.666 14.558 19.666 18.9421H25.3057C25.3057 16.0561 26.4521 13.2884 28.4928 11.2477C30.5335 9.20699 33.3013 8.06055 36.1872 8.06055C39.0732 8.06055 41.841 9.20699 43.8817 11.2477C45.9223 13.2884 47.0688 16.0561 47.0688 18.9421H52.7085C52.7085 14.5611 50.9693 10.3593 47.8732 7.25984C44.777 4.16035 40.5771 2.41671 36.1961 2.41199Z" fill="#7FE7C2" stroke="black"/>
<path d="M65.0139 79.2479H7.36777C6.6305 79.2495 5.90164 79.0912 5.2315 78.7839C4.56135 78.4765 3.96587 78.0274 3.48616 77.4675C3.00644 76.9076 2.6539 76.2504 2.45287 75.541C2.25185 74.8317 2.20711 74.0872 2.32176 73.3589L10.3182 22.5812C10.5073 21.3794 11.1198 20.2848 12.0451 19.495C12.9704 18.7052 14.1476 18.2723 15.3642 18.2743H57.0353C58.252 18.2717 59.4296 18.7044 60.355 19.4943C61.2805 20.2842 61.8928 21.3792 62.0813 22.5812L70.0599 73.3559C70.1751 74.0844 70.1307 74.8293 69.9299 75.539C69.7291 76.2487 69.3766 76.9063 68.8968 77.4665C68.4171 78.0267 67.8214 78.4761 67.151 78.7837C66.4807 79.0912 65.7515 79.2496 65.0139 79.2479Z" fill="#7FE7C2" stroke="black"/>
<path d="M36.119 2.34973C31.7349 2.34973 27.5304 4.09129 24.4304 7.19129C21.3304 10.2913 19.5889 14.4958 19.5889 18.8799H25.2285C25.2757 16.0246 26.443 13.3023 28.4789 11.2998C30.5147 9.29729 33.2559 8.17506 36.1116 8.17506C38.9672 8.17506 41.7084 9.29729 43.7443 11.2998C45.7801 13.3023 46.9475 16.0246 46.9946 18.8799H52.6343C52.6343 14.4984 50.8948 10.2961 47.798 7.19654C44.7012 4.09696 40.5005 2.35367 36.119 2.34973Z" fill="#7BE6C0" stroke="black"/>
<path d="M64.9525 79.1825H7.30332C6.56605 79.1842 5.83719 79.0259 5.16704 78.7185C4.4969 78.4111 3.90142 77.962 3.4217 77.4022C2.94198 76.8423 2.58945 76.185 2.38842 75.4757C2.18739 74.7664 2.14266 74.0218 2.25731 73.2935L10.2448 22.5188C10.4333 21.3168 11.0457 20.2219 11.9711 19.4319C12.8966 18.642 14.0741 18.2093 15.2908 18.2119H56.959C58.1757 18.2093 59.3532 18.642 60.2787 19.4319C61.2042 20.2219 61.8165 21.3168 62.005 22.5188L69.9836 73.2935C70.0981 74.0206 70.0537 74.7638 69.8535 75.4721C69.6533 76.1804 69.3021 76.8369 68.824 77.3965C68.346 77.9561 67.7523 78.4055 67.084 78.7138C66.4157 79.0222 65.6885 79.182 64.9525 79.1825Z" fill="#7BE6C0" stroke="black"/>
<path d="M36.0448 2.28735C33.8738 2.28696 31.724 2.71424 29.7181 3.54478C27.7122 4.37532 25.8896 5.59286 24.3543 7.12786C22.8191 8.66287 21.6012 10.4853 20.7703 12.491C19.9394 14.4967 19.5117 16.6465 19.5117 18.8175H25.1514C25.1985 15.9622 26.3659 13.2399 28.4017 11.2374C30.4375 9.23491 33.1788 8.11268 36.0344 8.11268C38.89 8.11268 41.6313 9.23491 43.6671 11.2374C45.703 13.2399 46.8703 15.9622 46.9175 18.8175H52.5571C52.5571 14.4365 50.818 10.2347 47.7219 7.13521C44.6257 4.03572 40.4258 2.29207 36.0448 2.28735Z" fill="#77E6BE" stroke="black"/>
<path d="M64.8634 79.1231H7.22613C6.48872 79.1243 5.75982 78.9656 5.08968 78.6579C4.41954 78.3502 3.82411 77.9008 3.34444 77.3407C2.86478 76.7807 2.51228 76.1232 2.31128 75.4137C2.11027 74.7042 2.06552 73.9596 2.18013 73.2312L10.1677 22.4565C10.3562 21.2544 10.9685 20.1595 11.8939 19.3696C12.8194 18.5797 13.9969 18.1469 15.2137 18.1495H56.8818C58.0982 18.1481 59.2751 18.5813 60.2003 19.371C61.1255 20.1607 61.7382 21.2549 61.9278 22.4565L69.9064 73.2312C70.0205 73.9593 69.9754 74.7035 69.7744 75.4125C69.5734 76.1216 69.2211 76.7787 68.7419 77.3386C68.2626 77.8985 67.6678 78.3479 66.9982 78.656C66.3287 78.9641 65.6004 79.1234 64.8634 79.1231Z" fill="#77E6BE" stroke="black"/>
<path d="M35.9676 2.22498C33.7966 2.22498 31.6469 2.65264 29.6411 3.48354C27.6354 4.31444 25.813 5.53231 24.278 7.06759C22.743 8.60286 21.5255 10.4255 20.6949 12.4314C19.8644 14.4372 19.4371 16.5871 19.4375 18.7581H25.0772C25.0772 15.8721 26.2236 13.1043 28.2643 11.0636C30.305 9.02295 33.0727 7.8765 35.9587 7.8765C38.8447 7.8765 41.6125 9.02295 43.6531 11.0636C45.6938 13.1043 46.8403 15.8721 46.8403 18.7581H52.4799C52.4799 14.3768 50.7409 10.1747 47.6449 7.07475C44.5488 3.97479 40.3489 2.23048 35.9676 2.22498Z" fill="#74E5BC" stroke="black"/>
<path d="M64.7862 79.0609H7.14898C6.41158 79.0621 5.68267 78.9034 5.01253 78.5957C4.34239 78.288 3.74696 77.8386 3.26729 77.2785C2.78763 76.7185 2.43514 76.061 2.23413 75.3515C2.03312 74.642 1.98837 73.8974 2.10298 73.169L10.0905 22.3943C10.2831 21.197 10.8958 20.1074 11.8189 19.3209C12.7419 18.5344 13.9149 18.1023 15.1276 18.1022H56.8076C58.0242 18.1001 59.2014 18.5331 60.1267 19.3229C61.0521 20.1127 61.6646 21.2073 61.8536 22.4091L69.8323 73.1838C69.9445 73.9111 69.898 74.6541 69.6959 75.3618C69.4938 76.0695 69.1409 76.725 68.6615 77.2834C68.1821 77.8417 67.5875 78.2897 66.9185 78.5966C66.2496 78.9034 65.5222 79.0618 64.7862 79.0609Z" fill="#74E5BC" stroke="black"/>
<path d="M35.8895 2.16272C33.7185 2.16272 31.5687 2.59038 29.563 3.42128C27.5573 4.25219 25.7349 5.47005 24.1999 7.00533C22.6649 8.54061 21.4473 10.3632 20.6168 12.3691C19.7863 14.375 19.359 16.5248 19.3594 18.6958H24.999C24.9752 17.2515 25.239 15.8169 25.7753 14.4756C26.3115 13.1343 27.1093 11.9132 28.1223 10.8834C29.1352 9.85354 30.343 9.03565 31.6753 8.47736C33.0075 7.91907 34.4376 7.63154 35.8821 7.63154C37.3266 7.63154 38.7566 7.91907 40.0889 8.47736C41.4211 9.03565 42.6289 9.85354 43.6419 10.8834C44.6548 11.9132 45.4527 13.1343 45.9889 14.4756C46.5251 15.8169 46.789 17.2515 46.7651 18.6958H52.4048C52.4048 14.314 50.6654 10.1115 47.5686 7.01144C44.4719 3.9114 40.2713 2.16744 35.8895 2.16272Z" fill="#70E4BB" stroke="black"/>
<path d="M64.7081 78.9985H7.07086C6.33345 78.9997 5.60455 78.841 4.93441 78.5333C4.26427 78.2256 3.66884 77.7762 3.18917 77.2161C2.7095 76.656 2.35701 75.9986 2.156 75.2891C1.95499 74.5796 1.91025 73.835 2.02485 73.1065L10.0154 22.3318C10.2044 21.13 10.8169 20.0354 11.7422 19.2456C12.6676 18.4558 13.8448 18.0229 15.0614 18.0249H56.7295C57.9461 18.0229 59.1233 18.4558 60.0486 19.2456C60.9739 20.0354 61.5864 21.13 61.7755 22.3318L69.7541 73.1065C69.8687 73.835 69.824 74.5796 69.623 75.2891C69.422 75.9986 69.0695 76.656 68.5898 77.2161C68.1101 77.7762 67.5147 78.2256 66.8446 78.5333C66.1744 78.841 65.4455 78.9997 64.7081 78.9985Z" fill="#70E4BB" stroke="black"/>
<path d="M35.8153 2.10034C31.4305 2.10034 27.2252 3.84222 24.1247 6.94277C21.0241 10.0433 19.2822 14.2486 19.2822 18.6334H24.9219C24.898 17.1891 25.1619 15.7545 25.6981 14.4132C26.2343 13.0719 27.0322 11.8508 28.0451 10.821C29.0581 9.79116 30.2659 8.97327 31.5981 8.41498C32.9304 7.85669 34.3604 7.56916 35.8049 7.56916C37.2494 7.56916 38.6795 7.85669 40.0117 8.41498C41.344 8.97327 42.5518 9.79116 43.5647 10.821C44.5777 11.8508 45.3755 13.0719 45.9117 14.4132C46.448 15.7545 46.7118 17.1891 46.688 18.6334H52.3276C52.3284 14.2519 50.5897 10.0494 47.4934 6.94924C44.3972 3.84912 40.1968 2.10506 35.8153 2.10034Z" fill="#6DE4B9" stroke="black"/>
<path d="M64.6349 78.9511H6.99762C6.26021 78.9523 5.5313 78.7936 4.86117 78.4859C4.19103 78.1782 3.59559 77.7288 3.11593 77.1687C2.63626 76.6086 2.28377 75.9512 2.08276 75.2417C1.88175 74.5322 1.83701 73.7876 1.95161 73.0591L9.93914 22.2577C10.1282 21.0559 10.7407 19.9613 11.666 19.1715C12.5914 18.3817 13.7686 17.9488 14.9851 17.9508H56.6414C57.8577 17.95 59.0342 18.3834 59.9593 19.173C60.8844 19.9626 61.4972 21.0565 61.6874 22.2577L69.672 73.0443C69.7888 73.7731 69.7461 74.5186 69.5467 75.2293C69.3473 75.94 68.996 76.5989 68.517 77.1605C68.0381 77.7222 67.4429 78.1731 66.7727 78.4823C66.1024 78.7914 65.373 78.9514 64.6349 78.9511Z" fill="#6DE4B9" stroke="black"/>
<path d="M35.7381 2.03796C33.5671 2.03796 31.4174 2.46563 29.4116 3.29653C27.4059 4.12743 25.5835 5.3453 24.0485 6.88057C22.5135 8.41585 21.296 10.2385 20.4654 12.2443C19.6349 14.2502 19.2076 16.4 19.208 18.5711H24.8477C24.8477 17.1421 25.1291 15.7271 25.676 14.4069C26.2228 13.0866 27.0244 11.8871 28.0348 10.8766C29.0452 9.86618 30.2448 9.06465 31.565 8.5178C32.8852 7.97095 34.3002 7.68949 35.7292 7.68949C37.1582 7.68949 38.5732 7.97095 39.8934 8.5178C41.2136 9.06465 42.4132 9.86618 43.4237 10.8766C44.4341 11.8871 45.2356 13.0866 45.7825 14.4069C46.3293 15.7271 46.6108 17.1421 46.6108 18.5711H52.2504C52.2505 14.1898 50.5114 9.98769 47.4154 6.88773C44.3193 3.78777 40.1194 2.04347 35.7381 2.03796Z" fill="#69E3B7" stroke="black"/>
<path d="M64.5568 78.8738H6.91949C6.18208 78.8751 5.45318 78.7164 4.78304 78.4087C4.1129 78.1009 3.51747 77.6516 3.0378 77.0915C2.55813 76.5314 2.20564 75.8739 2.00464 75.1645C1.80363 74.455 1.75888 73.7103 1.87349 72.9819L9.86102 22.2072C10.0507 21.0057 10.6633 19.9114 11.5885 19.1217C12.5137 18.332 13.6906 17.8988 14.907 17.9003H56.5781C57.7947 17.8982 58.9719 18.3312 59.8972 19.121C60.8226 19.9108 61.4351 21.0054 61.6241 22.2072L69.6028 72.9819C69.7174 73.7103 69.6726 74.455 69.4716 75.1645C69.2706 75.8739 68.9181 76.5314 68.4384 77.0915C67.9588 77.6516 67.3633 78.1009 66.6932 78.4087C66.0231 78.7164 65.2942 78.8751 64.5568 78.8738Z" fill="#69E3B7" stroke="black"/>
<path d="M35.661 1.97571C33.49 1.97571 31.3402 2.40337 29.3345 3.23427C27.3288 4.06517 25.5064 5.28304 23.9714 6.81832C22.4364 8.3536 21.2188 10.1762 20.3883 12.1821C19.5577 14.188 19.1305 16.3378 19.1309 18.5088H24.7705C24.8177 15.6536 25.985 12.9312 28.0208 10.9287C30.0567 8.92623 32.7979 7.804 35.6536 7.804C38.5092 7.804 41.2504 8.92623 43.2863 10.9287C45.3221 12.9312 46.4895 15.6536 46.5366 18.5088H52.1763C52.1763 14.127 50.4368 9.92447 47.3401 6.82443C44.2434 3.72439 40.0427 1.98043 35.661 1.97571Z" fill="#66E2B6" stroke="black"/>
<path d="M64.4801 78.8116H6.84578C6.10821 78.8133 5.37906 78.6549 4.70867 78.3474C4.03828 78.0399 3.44264 77.5905 2.96287 77.0303C2.4831 76.4701 2.13064 75.8124 1.92983 75.1027C1.72902 74.393 1.68465 73.6482 1.79977 72.9196L9.7873 22.1449C9.97637 20.9432 10.5889 19.8486 11.5142 19.0588C12.4395 18.2689 13.6167 17.836 14.8333 17.838H56.5014C57.718 17.836 58.8952 18.2689 59.8206 19.0588C60.7459 19.8486 61.3584 20.9432 61.5475 22.1449L69.5261 72.9196C69.6407 73.6481 69.5959 74.3927 69.3949 75.1022C69.1939 75.8117 68.8414 76.4691 68.3618 77.0292C67.8821 77.5893 67.2867 78.0387 66.6165 78.3464C65.9464 78.6541 65.2175 78.8128 64.4801 78.8116Z" fill="#66E2B6" stroke="black"/>
<path d="M35.5868 1.91333C31.202 1.91333 26.9967 3.6552 23.8961 6.75576C20.7956 9.85632 19.0537 14.0616 19.0537 18.4464H24.6934C24.7405 15.5912 25.9079 12.8688 27.9437 10.8663C29.9795 8.86385 32.7208 7.74163 35.5764 7.74163C38.432 7.74163 41.1733 8.86385 43.2091 10.8663C45.245 12.8688 46.4123 15.5912 46.4595 18.4464H52.0991C52.0999 14.0649 50.3611 9.86236 47.2649 6.76223C44.1687 3.6621 39.9683 1.91805 35.5868 1.91333Z" fill="#62E2B4" stroke="black"/>
<path d="M64.4063 78.7491H6.77496C6.03755 78.7504 5.30865 78.5917 4.63851 78.2839C3.96837 77.9762 3.37294 77.5268 2.89327 76.9668C2.4136 76.4067 2.06111 75.7492 1.8601 75.0398C1.65909 74.3303 1.61435 73.5856 1.72895 72.8572L9.70758 22.1003C9.89601 20.898 10.5082 19.8027 11.4336 19.0123C12.359 18.2219 13.5366 17.7885 14.7536 17.7904H56.4247C57.6414 17.7897 58.8183 18.2235 59.7434 19.0137C60.6686 19.8039 61.2811 20.8985 61.4707 22.1003L69.4493 72.872C69.5615 73.5991 69.5151 74.3419 69.3131 75.0493C69.1112 75.7568 68.7586 76.4121 68.2795 76.9705C67.8004 77.5288 67.2062 77.9768 66.5377 78.2839C65.8691 78.5909 65.142 78.7496 64.4063 78.7491Z" fill="#62E2B4" stroke="black"/>
<path d="M35.5096 1.85095C33.3374 1.85095 31.1864 2.2791 29.1797 3.11093C27.173 3.94276 25.35 5.16196 23.8148 6.69881C22.2796 8.23566 21.0623 10.06 20.2327 12.0676C19.403 14.0752 18.9772 16.2266 18.9795 18.3989H24.6192C24.6192 15.5129 25.7656 12.7451 27.8063 10.7045C29.847 8.66377 32.6147 7.51732 35.5007 7.51732C38.3867 7.51732 41.1545 8.66377 43.1951 10.7045C45.2358 12.7451 46.3823 15.5129 46.3823 18.3989H52.0219C52.0259 14.0151 50.2886 9.80914 47.1921 6.70597C44.0956 3.6028 39.8934 1.85646 35.5096 1.85095Z" fill="#5EE1B2" stroke="black"/>
<path d="M64.3283 78.6868H6.69101C5.95374 78.6885 5.22489 78.5302 4.55474 78.2228C3.88459 77.9154 3.28912 77.4663 2.8094 76.9065C2.32968 76.3466 1.97714 75.6893 1.77612 74.98C1.57509 74.2707 1.53036 73.5261 1.64501 72.7978L9.63254 22.0231C9.82154 20.8211 10.4339 19.7261 11.3592 18.9358C12.2845 18.1455 13.4617 17.7119 14.6785 17.7133H56.3437C57.5607 17.7113 58.7383 18.1447 59.6637 18.9351C60.5891 19.7255 61.2013 20.8208 61.3897 22.0231L69.3684 72.7978C69.4829 73.5257 69.4383 74.2696 69.2376 74.9786C69.037 75.6875 68.685 76.3445 68.2059 76.9042C67.7268 77.464 67.1321 77.9132 66.4627 78.2209C65.7932 78.5287 65.0651 78.6876 64.3283 78.6868Z" fill="#5EE1B2" stroke="black"/>
<path d="M35.4325 1.79163C31.0484 1.79163 26.8439 3.53319 23.7439 6.63319C20.6439 9.73319 18.9023 13.9377 18.9023 18.3217H24.542C24.5892 15.4665 25.7565 12.7442 27.7923 10.7417C29.8282 8.73918 32.5694 7.61695 35.425 7.61695C38.2807 7.61695 41.0219 8.73918 43.0578 10.7417C45.0936 12.7442 46.2609 15.4665 46.3081 18.3217H51.9478C51.9478 13.9403 50.2082 9.738 47.1114 6.63843C44.0146 3.53886 39.814 1.79556 35.4325 1.79163Z" fill="#5BE0B1" stroke="black"/>
<path d="M64.2511 78.6246H6.61679C5.87952 78.6262 5.15067 78.4679 4.48052 78.1606C3.81038 77.8532 3.2149 77.4041 2.73518 76.8442C2.25546 76.2844 1.90292 75.6271 1.7019 74.9177C1.50087 74.2084 1.45614 73.4639 1.57079 72.7356L9.55832 21.9609C9.74675 20.7586 10.359 19.6633 11.2844 18.8729C12.2098 18.0825 13.3873 17.6491 14.6043 17.651H56.2725C57.4895 17.6491 58.667 18.0825 59.5924 18.8729C60.5178 19.6633 61.13 20.7586 61.3185 21.9609L69.2971 72.7356C69.4117 73.4639 69.367 74.2084 69.166 74.9177C68.965 75.6271 68.6124 76.2844 68.1327 76.8442C67.653 77.4041 67.0575 77.8532 66.3874 78.1606C65.7172 78.4679 64.9884 78.6262 64.2511 78.6246Z" fill="#5BE0B1" stroke="black"/>
<path d="M35.3583 1.72937C33.1873 1.72898 31.0374 2.15626 29.0316 2.9868C27.0257 3.81734 25.2031 5.03488 23.6678 6.56988C22.1325 8.10488 20.9147 9.92728 20.0838 11.933C19.2529 13.9387 18.8252 16.0885 18.8252 18.2595H24.4648C24.512 15.4043 25.6793 12.6819 27.7152 10.6794C29.751 8.67693 32.4923 7.5547 35.3479 7.5547C38.2035 7.5547 40.9448 8.67693 42.9806 10.6794C45.0165 12.6819 46.1838 15.4043 46.2309 18.2595H51.8706C51.8706 13.8785 50.1315 9.67671 47.0353 6.57722C43.9392 3.47774 39.7393 1.73409 35.3583 1.72937Z" fill="#57E0AF" stroke="black"/>
<path d="M64.1769 78.5622H6.53965C5.80237 78.5638 5.07352 78.4055 4.40337 78.0982C3.73323 77.7908 3.13775 77.3417 2.65803 76.7818C2.17831 76.222 1.82578 75.5647 1.62475 74.8553C1.42372 74.146 1.37899 73.4015 1.49364 72.6732L9.48117 21.8985C9.66967 20.6964 10.282 19.6015 11.2075 18.8116C12.1329 18.0217 13.3104 17.5889 14.5272 17.5916H56.1953C57.4117 17.5901 58.5886 18.0233 59.5138 18.813C60.439 19.6027 61.0517 20.697 61.2413 21.8985L69.2199 72.6732C69.334 73.4012 69.289 74.1452 69.088 74.8541C68.8869 75.563 68.5346 76.2199 68.0553 76.7796C67.576 77.3393 66.9811 77.7885 66.3116 78.0962C65.642 78.4039 64.9138 78.5629 64.1769 78.5622Z" fill="#57E0AF" stroke="black"/>
<path d="M35.2692 1.66699C30.8872 1.67014 26.6858 3.41309 23.5883 6.51275C20.4909 9.61241 18.751 13.8151 18.751 18.1971H24.3906C24.3906 16.7681 24.6721 15.3531 25.2189 14.0329C25.7658 12.7127 26.5673 11.5131 27.5778 10.5027C28.5882 9.49224 29.7878 8.69071 31.108 8.14386C32.4282 7.59701 33.8432 7.31555 35.2722 7.31555C36.7012 7.31555 38.1162 7.59701 39.4364 8.14386C40.7566 8.69071 41.9562 9.49224 42.9666 10.5027C43.9771 11.5131 44.7786 12.7127 45.3254 14.0329C45.8723 15.3531 46.1538 16.7681 46.1538 18.1971H51.7934C51.7934 13.8141 50.0527 9.61048 46.9539 6.51065C43.8552 3.41082 39.6523 1.66857 35.2692 1.66699Z" fill="#54DFAD" stroke="black"/>
<path d="M64.1005 78.4998H6.47812C5.74085 78.5015 5.01199 78.3431 4.34185 78.0358C3.6717 77.7284 3.07623 77.2793 2.59651 76.7194C2.11679 76.1596 1.76425 75.5023 1.56322 74.793C1.3622 74.0836 1.31747 73.3391 1.43212 72.6108L9.40481 21.8361C9.59387 20.6343 10.2064 19.5397 11.1317 18.7499C12.057 17.9601 13.2342 17.5272 14.4508 17.5292H56.1219C57.3386 17.5265 58.5162 17.9593 59.4416 18.7492C60.3671 19.5391 60.9794 20.6341 61.1679 21.8361L69.1376 72.6108C69.2522 73.3384 69.2077 74.0821 69.0071 74.7908C68.8066 75.4995 68.4549 76.1563 67.9761 76.716C67.4974 77.2757 66.903 77.725 66.234 78.033C65.5649 78.3409 64.8371 78.5002 64.1005 78.4998Z" fill="#54DFAD" stroke="black"/>
<path d="M35.204 1.60461C30.8199 1.60461 26.6154 3.34618 23.5154 6.44618C20.4154 9.54617 18.6738 13.7507 18.6738 18.1347H24.3135C24.3606 15.2795 25.528 12.5572 27.5638 10.5547C29.5997 8.55217 32.3409 7.42994 35.1965 7.42994C38.0522 7.42994 40.7934 8.55217 42.8292 10.5547C44.8651 12.5572 46.0324 15.2795 46.0796 18.1347H51.7192C51.7192 13.7532 49.9797 9.55099 46.8829 6.45142C43.7861 3.35185 39.5854 1.60855 35.204 1.60461Z" fill="#50DEAB" stroke="black"/>
<path d="M64.0225 78.4405H6.38824C5.65083 78.4417 4.92193 78.283 4.25179 77.9753C3.58165 77.6676 2.98622 77.2182 2.50655 76.6581C2.02688 76.098 1.67439 75.4406 1.47339 74.7311C1.27238 74.0216 1.22763 73.277 1.34224 72.5485L9.32977 21.7738C9.51826 20.5718 10.1306 19.4769 11.056 18.6869C11.9815 17.897 13.159 17.4643 14.3758 17.4669H56.0469C57.2636 17.4643 58.4411 17.897 59.3666 18.6869C60.2921 19.4769 60.9044 20.5718 61.0929 21.7738L69.0715 72.5485C69.1862 73.2772 69.1413 74.0221 68.9402 74.7318C68.739 75.4415 68.3862 76.0991 67.9062 76.6593C67.4262 77.2194 66.8304 77.6687 66.1599 77.9762C65.4894 78.2838 64.7602 78.4422 64.0225 78.4405Z" fill="#50DEAB" stroke="black"/>
<path d="M35.1298 1.54236C32.9588 1.54197 30.8089 1.96925 28.8031 2.79979C26.7972 3.63033 24.9746 4.84787 23.4393 6.38287C21.904 7.91787 20.6861 9.74027 19.8552 11.746C19.0243 13.7517 18.5967 15.9015 18.5967 18.0725H24.2363C24.2835 15.2172 25.4508 12.4949 27.4867 10.4924C29.5225 8.48991 32.2638 7.36769 35.1194 7.36769C37.975 7.36769 40.7163 8.48991 42.7521 10.4924C44.7879 12.4949 45.9553 15.2172 46.0024 18.0725H51.6421C51.6421 13.6915 49.903 9.4897 46.8068 6.39021C43.7107 3.29072 39.5107 1.54708 35.1298 1.54236Z" fill="#4DDEAA" stroke="black"/>
<path d="M63.9484 78.3781H6.31109C5.57368 78.3794 4.84478 78.2206 4.17464 77.9129C3.5045 77.6052 2.90907 77.1558 2.4294 76.5957C1.94974 76.0357 1.59725 75.3782 1.39624 74.6687C1.19523 73.9592 1.15048 73.2146 1.26509 72.4862L9.25262 21.7115C9.44111 20.5094 10.0534 19.4145 10.9789 18.6246C11.9044 17.8347 13.0819 17.4019 14.2986 17.4046H55.9697C57.1863 17.4025 58.3635 17.8355 59.2888 18.6253C60.2142 19.4151 60.8267 20.5097 61.0157 21.7115L68.9944 72.4862C69.1084 73.2145 69.0633 73.959 68.8621 74.6682C68.6609 75.3775 68.3084 76.0347 67.8288 76.5947C67.3493 77.1547 66.754 77.6041 66.0842 77.9119C65.4143 78.2198 64.6856 78.3788 63.9484 78.3781Z" fill="#4DDEAA" stroke="black"/>
<path d="M35.0526 1.47998C32.8816 1.47998 30.7318 1.90764 28.7261 2.73854C26.7204 3.56945 24.898 4.78731 23.363 6.32259C21.828 7.85787 20.6104 9.68049 19.7799 11.6864C18.9493 13.6922 18.5221 15.8421 18.5225 18.0131H24.1621C24.1621 16.5841 24.4436 15.1691 24.9904 13.8489C25.5373 12.5287 26.3388 11.3291 27.3493 10.3186C28.3597 9.3082 29.5593 8.50667 30.8795 7.95982C32.1997 7.41297 33.6147 7.13151 35.0437 7.13151C36.4727 7.13151 37.8877 7.41297 39.2079 7.95982C40.5281 8.50667 41.7277 9.3082 42.7381 10.3186C43.7486 11.3291 44.5501 12.5287 45.0969 13.8489C45.6438 15.1691 45.9252 16.5841 45.9252 18.0131H51.5649C51.5649 13.6318 49.8259 9.42971 46.7298 6.32975C43.6338 3.22979 39.4338 1.48549 35.0526 1.47998V1.47998Z" fill="#49DDA8" stroke="black"/>
<path d="M63.8716 78.3158H6.2343C5.49735 78.3158 4.76915 78.1561 4.09985 77.8476C3.43056 77.5392 2.83607 77.0893 2.35733 76.5291C1.87859 75.9688 1.52697 75.3114 1.32669 74.6022C1.12641 73.893 1.08223 73.1488 1.19719 72.4209L9.17582 21.664C9.36546 20.4625 9.97811 19.3682 10.9033 18.5785C11.8285 17.7888 13.0054 17.3556 14.2218 17.3571H55.8929C57.1095 17.355 58.2867 17.788 59.212 18.5778C60.1374 19.3676 60.7499 20.4622 60.9389 21.664L68.9087 72.4209C69.0236 73.1488 68.9794 73.893 68.7792 74.6022C68.5789 75.3114 68.2273 75.9688 67.7485 76.5291C67.2698 77.0893 66.6753 77.5392 66.006 77.8476C65.3367 78.1561 64.6085 78.3158 63.8716 78.3158Z" fill="#49DDA8" stroke="black"/>
<path d="M40.9088 40.4946C38.5342 40.4946 36.9937 41.3554 35.9192 43.0889C35.1623 41.4652 33.1795 40.4946 31.1938 40.4946C29.208 40.4946 28.0801 41.1447 26.8512 42.6021H26.7948V40.925H24.1709V56.3272H27.0115V47.6807C27.0115 44.6561 28.2493 43.1423 30.7723 43.1423C32.8114 43.1423 34.2035 44.3296 34.2035 47.3602V56.3272H37.0501V47.6807C37.0501 44.6027 38.1216 43.1987 40.6446 43.1987C43.0578 43.1987 44.2421 44.8194 44.2421 47.7371V56.3272H47.0827V46.9832C47.0887 42.979 44.8833 40.4946 40.9088 40.4946Z" fill="#0A0909"/>
<path d="M40.5171 35.2408C40.5149 35.2312 40.5106 35.2223 40.5045 35.2146C40.4984 35.2069 40.4907 35.2006 40.4818 35.1964C40.473 35.1921 40.4633 35.1899 40.4535 35.1898C40.4436 35.1898 40.4339 35.192 40.4251 35.1963C40.0934 35.3543 39.7326 35.4422 39.3654 35.4545C35.5898 35.407 36.0796 38.3397 36.136 38.3397L35.9401 38.7374L35.6907 38.2298C35.7531 38.2298 36.3764 34.5047 31.5886 34.567C31.1151 34.5515 30.65 34.4373 30.2232 34.2316C30.2143 34.2267 30.2042 34.224 30.194 34.2239C30.1838 34.2237 30.1737 34.2261 30.1646 34.2308C30.1555 34.2355 30.1477 34.2424 30.1419 34.2508C30.136 34.2592 30.1324 34.2689 30.1312 34.2791C29.8888 35.3871 30.051 36.5453 30.5883 37.5442C30.7186 37.7755 30.8783 37.989 31.0633 38.1794C31.2171 38.34 31.3872 38.4842 31.5708 38.6098C32.2951 39.1203 33.3755 39.4409 34.8151 38.7819C35.3078 39.1589 35.6818 40.3195 35.8599 41.109C35.8599 41.1263 35.8668 41.143 35.8791 41.1552C35.8913 41.1674 35.9079 41.1743 35.9252 41.1743C35.9425 41.1743 35.9592 41.1674 35.9714 41.1552C35.9836 41.143 35.9905 41.1263 35.9905 41.109C36.0766 40.5154 36.2191 39.6101 36.4654 39.2361C36.5616 39.0648 36.6826 38.9087 36.8246 38.773C38.2583 39.432 39.2467 38.8502 39.775 38.2951C39.8136 38.2566 39.8374 38.2239 39.87 38.1853C39.9779 38.066 40.0715 37.9345 40.149 37.7935C40.571 37.0133 40.7015 36.1084 40.5171 35.2408Z" fill="#0A0909"/>
</svg>
